<svg xmlns="http://www.w3.org/2000/svg" width="1200" height="900" viewBox="0 0 1200 900">
  <defs>
    <linearGradient id="tablet-horizontal-a" x1="78.125%" x2="65.083%" y1="9.503%" y2="11.085%">
      <stop offset="0%" stop-color="#FFF"/>
      <stop offset="100%" stop-color="#FFF" stop-opacity="0"/>
    </linearGradient>
  </defs>
  <g fill="none" fill-rule="evenodd">
    <path fill="#000" fill-rule="nonzero" d="M1022.37483,-142.788139 C1031.17483,-138.081847 1038.08113,-131.175556 1042.78742,-122.375556 L1043.20229,-121.588618 L1043.60006,-120.810227 L1043.98633,-120.027474 L1044.36104,-119.238008 L1044.60441,-118.706807 L1044.84262,-118.170883 L1045.07564,-117.629537 L1045.30346,-117.082074 L1045.52608,-116.527798 L1045.74347,-115.966013 L1045.95562,-115.396021 L1046.16253,-114.817127 C1046.19657,-114.719864 1046.2304,-114.622202 1046.26401,-114.524124 L1046.46301,-113.930571 L1046.65672,-113.326375 L1046.84514,-112.710839 L1047.02824,-112.083267 L1047.20602,-111.442963 L1047.37845,-110.78923 L1047.54553,-110.121372 C1047.57293,-110.008847 1047.60011,-109.895704 1047.62706,-109.781929 L1047.78608,-109.091578 L1047.93971,-108.385362 C1047.96487,-108.266298 1047.9898,-108.146545 1048.0145,-108.026086 L1048.16003,-107.294766 L1048.30012,-106.545838 L1048.50007,-105.387911 L1048.62655,-104.591921 L1048.74755,-103.775887 L1048.86307,-102.939112 L1048.97309,-102.080901 L1049.07759,-101.200557 L1049.17657,-100.297384 L1049.27,-99.3706858 L1049.35788,-98.4197653 L1049.44019,-97.4439267 L1049.55318,-95.9319238 L1049.62151,-94.8907431 L1049.68422,-93.822207 L1049.74129,-92.7256191 L1049.81632,-91.026617 L1049.85926,-89.8568533 L1049.91301,-88.0448233 L1049.94172,-86.7975315 L1049.97407,-84.8659454 L1049.98846,-83.5367735 L1050,-82.173631 L1050,-80.7758214 L1050,981.477659 L1049.98846,983.53533 L1049.97407,984.864502 L1049.94172,986.796088 L1049.91301,988.04338 L1049.85926,989.85541 L1049.81632,991.025173 L1049.74129,992.724175 L1049.68422,993.820763 L1049.62151,994.889299 L1049.55318,995.93048 L1049.47925,996.945002 L1049.39973,997.933561 L1049.31464,998.896853 C1049.29999,999.055335 1049.28511,999.212793 1049.27,999.369242 L1049.17657,1000.29594 L1049.07759,1001.19911 L1048.97309,1002.07946 L1048.86307,1002.93767 L1048.74755,1003.77444 L1048.62655,1004.59048 L1048.50007,1005.38647 L1048.36813,1006.16311 C1048.34569,1006.29098 1048.32302,1006.41807 1048.30012,1006.54439 L1048.16003,1007.29332 L1048.0145,1008.02464 L1047.86357,1008.73905 L1047.70724,1009.43725 C1047.68074,1009.5523 1047.65401,1009.66671 1047.62706,1009.78049 L1047.46266,1010.45567 L1047.2929,1011.11637 C1047.26416,1011.22533 1047.2352,1011.3337 1047.20602,1011.44152 L1047.02824,1012.08182 L1046.84514,1012.7094 L1046.65672,1013.32493 L1046.46301,1013.92913 L1046.26401,1014.52268 L1046.05973,1015.10629 L1045.8502,1015.68064 L1045.63543,1016.24644 L1045.41542,1016.80439 L1045.1902,1017.35517 L1044.95978,1017.89949 L1044.72416,1018.43804 L1044.48337,1018.97151 L1044.23742,1019.50061 L1043.98633,1020.02603 L1043.7301,1020.54847 L1043.33616,1021.32805 L1043.06715,1021.84607 L1042.78742,1022.37411 C1038.08113,1031.17411 1031.17483,1038.0804 1022.37483,1042.7867 L1021.5879,1043.20157 L1020.80951,1043.59934 L1020.02675,1043.9856 L1019.23729,1044.36032 L1018.70609,1044.60369 L1018.17016,1044.84189 L1017.62882,1045.07492 L1017.08135,1045.30274 L1016.52708,1045.52536 L1015.96529,1045.74275 L1015.3953,1045.9549 L1014.81641,1046.16181 C1014.71914,1046.19585 1014.62148,1046.22968 1014.5234,1046.26329 L1013.92985,1046.46229 L1013.32565,1046.656 L1012.71012,1046.84442 L1012.08255,1047.02752 L1011.44224,1047.2053 L1010.78851,1047.37773 L1010.12065,1047.54481 C1010.00813,1047.57221 1009.89498,1047.59939 1009.78121,1047.62634 L1009.09086,1047.78536 L1008.38464,1047.93899 C1008.26558,1047.96415 1008.14582,1047.98908 1008.02536,1048.01378 L1007.29404,1048.1593 L1006.54512,1048.2994 L1005.38719,1048.49935 L1004.5912,1048.62582 L1003.77516,1048.74683 L1002.93839,1048.86235 L1002.08018,1048.97237 L1001.19984,1049.07687 L1000.29666,1049.17585 L999.369964,1049.26928 L998.419044,1049.35716 L997.443205,1049.43947 L995.931202,1049.55246 L994.890021,1049.62079 L993.821485,1049.6835 L992.724897,1049.74057 L991.025895,1049.8156 L989.856131,1049.85854 L988.044101,1049.91229 L986.79681,1049.941 L984.865224,1049.97334 L983.536052,1049.99928 L982.172909,1049.99928 L980.7751,1049.99928 L218.521619,1049.99928 L216.463948,1049.99928 L215.134776,1049.97334 L213.20319,1049.941 L211.955899,1049.91229 L210.143869,1049.85854 L208.974105,1049.8156 L207.275103,1049.74057 L206.178515,1049.6835 L205.109979,1049.62079 L204.068798,1049.55246 L203.054276,1049.47853 L202.065718,1049.39901 L201.102425,1049.31392 C200.943943,1049.29927 200.786485,1049.28439 200.630036,1049.26928 L199.703337,1049.17585 L198.800164,1049.07687 L197.919821,1048.97237 L197.06161,1048.86235 L196.224835,1048.74683 L195.408801,1048.62582 L194.61281,1048.49935 L193.836167,1048.36741 C193.7083,1048.34497 193.581211,1048.3223 193.454884,1048.2994 L192.705956,1048.1593 L191.974635,1048.01378 L191.260225,1047.86285 L190.562028,1047.70652 C190.446975,1047.68002 190.332568,1047.65329 190.218793,1047.62634 L189.543612,1047.46194 L188.882903,1047.29218 C188.773953,1047.26344 188.665576,1047.23448 188.557759,1047.2053 L187.917455,1047.02752 L187.289883,1046.84442 L186.674347,1046.656 L186.070151,1046.46229 L185.476598,1046.26329 L184.892991,1046.05901 L184.318635,1045.84948 L183.752834,1045.63471 L183.19489,1045.4147 L182.644108,1045.18948 L182.099791,1044.95905 L181.561243,1044.72344 L181.027767,1044.48265 L180.498668,1044.2367 L179.973248,1043.9856 L179.450812,1043.72937 L178.671228,1043.33543 L178.153204,1043.06643 L177.625166,1042.7867 C168.825166,1038.0804 161.918875,1031.17411 157.212583,1022.37411 L156.797737,1021.58723 L156.531336,1021.06878 L156.141306,1020.2879 L155.88769,1019.76417 L155.516903,1018.97211 L155.157724,1018.17022 L154.924743,1017.62899 L154.696956,1017.08165 L154.474376,1016.5275 L154.257017,1015.96585 L154.044894,1015.396 C154.009977,1015.3003 153.975279,1015.20423 153.940799,1015.10778 L153.736554,1014.52432 L153.537579,1013.93092 L153.343887,1013.32688 L153.155492,1012.71151 L152.972409,1012.08411 C152.942338,1011.9785 152.912489,1011.87236 152.882863,1011.76568 L152.707772,1011.11894 L152.538026,1010.45842 L152.373641,1009.78344 L152.214628,1009.0933 L152.061003,1008.38731 L151.912778,1007.66476 L151.769969,1006.92496 L151.632588,1006.16722 C151.610144,1006.0394 151.587928,1005.9108 151.565938,1005.78141 L151.436726,1004.99545 L151.312977,1004.1898 L151.194706,1003.36378 L151.081925,1002.51668 L150.974649,1001.64781 L150.872891,1000.75647 L150.776666,999.841974 L150.685987,998.903615 L150.600868,997.940701 L150.521323,996.952536 L150.447366,995.938424 L150.346937,994.367084 L150.259159,992.733449 L150.20769,991.608591 L150.161879,990.454306 L150.121738,989.269899 L150.087282,988.054674 L150.058524,986.807935 L150.035478,985.528987 L150.01165,983.548647 L150.000722,982.186129 C150.000722,981.956174 150.000722,981.724777 150.000722,981.491921 L150.000722,-81.4791031 L150.011535,-83.5367735 L150.025934,-84.8659454 L150.058281,-86.7975315 L150.086992,-88.0448233 L150.140743,-89.8568533 L150.18368,-91.026617 L150.258705,-92.7256191 L150.315782,-93.822207 L150.37849,-94.8907431 L150.446816,-95.9319238 L150.520746,-96.9464454 L150.600266,-97.9350043 L150.685362,-98.8982968 C150.700009,-99.0567787 150.714887,-99.2142369 150.729997,-99.3706858 L150.823432,-100.297384 L150.922408,-101.200557 L151.026912,-102.080901 L151.13693,-102.939112 L151.252449,-103.775887 L151.373453,-104.591921 L151.499931,-105.387911 L151.631866,-106.164554 C151.65431,-106.292421 151.67698,-106.419511 151.699877,-106.545838 L151.839975,-107.294766 L151.985496,-108.026086 L152.136429,-108.740497 L152.292757,-109.438693 C152.319261,-109.553747 152.345989,-109.668154 152.37294,-109.781929 L152.537337,-110.45711 L152.707096,-111.117818 C152.735835,-111.226769 152.764797,-111.335146 152.793982,-111.442963 L152.971758,-112.083267 L153.15486,-112.710839 L153.343276,-113.326375 L153.536992,-113.930571 L153.735993,-114.524124 L153.940266,-115.107731 L154.149797,-115.682086 L154.364573,-116.247888 L154.584578,-116.805832 L154.8098,-117.356614 L155.040225,-117.900931 L155.275838,-118.439479 L155.516627,-118.972955 L155.762577,-119.502054 L156.013673,-120.027474 L156.269904,-120.54991 L156.663844,-121.329494 L156.932848,-121.847518 L157.212583,-122.375556 C161.918875,-131.175556 168.825166,-138.081847 177.625166,-142.788139 L178.412051,-143.202984 L178.930502,-143.469386 L179.711377,-143.859415 L180.235108,-144.113032 L181.027165,-144.483819 L181.829062,-144.842998 L182.370287,-145.075979 L182.917626,-145.303766 L183.471773,-145.526346 L184.033426,-145.743705 L184.60328,-145.955828 C184.698978,-145.990745 184.795046,-146.025443 184.8915,-146.059922 L185.47496,-146.264168 L186.068361,-146.463143 L186.672399,-146.656835 L187.287769,-146.84523 L187.915169,-147.028313 C188.020776,-147.058384 188.126914,-147.088233 188.233596,-147.117859 L188.880343,-147.29295 L189.540858,-147.462695 L190.215838,-147.627081 L190.905977,-147.786094 L191.611973,-147.939719 L192.334521,-148.087943 L193.074316,-148.230753 L193.832056,-148.368134 C193.95988,-148.390577 194.08848,-148.412794 194.217872,-148.434784 L195.003832,-148.563996 L195.809475,-148.687745 L196.635498,-148.806016 L197.482597,-148.918797 L198.351467,-149.026073 L199.242804,-149.12783 L200.157304,-149.224056 L201.095663,-149.314734 L202.058577,-149.399853 L203.046742,-149.479398 L204.060854,-149.553356 L205.632194,-149.653785 L207.26583,-149.741563 L208.390688,-149.793032 L209.544972,-149.838843 L210.729379,-149.878984 L211.944604,-149.91344 L213.191343,-149.942198 L214.470292,-149.965244 L216.450631,-150 L217.81315,-150 C218.043104,-150 218.274502,-150 218.507357,-150 L981.478381,-150 L983.536052,-150 L984.865224,-149.974788 L986.79681,-149.942441 L988.044101,-149.91373 L989.856131,-149.859979 L991.025895,-149.817042 L992.724897,-149.742016 L993.821485,-149.68494 L994.890021,-149.622232 L995.931202,-149.553906 L996.945724,-149.479976 L997.934282,-149.400456 L998.897575,-149.31536 C999.056057,-149.300713 999.213515,-149.285835 999.369964,-149.270725 L1000.29666,-149.17729 L1001.19984,-149.078314 L1002.08018,-148.97381 L1002.93839,-148.863791 L1003.77516,-148.748273 L1004.5912,-148.627268 L1005.38719,-148.500791 L1006.16383,-148.368856 C1006.2917,-148.346412 1006.41879,-148.323742 1006.54512,-148.300845 L1007.29404,-148.160747 L1008.02536,-148.015225 L1008.73978,-147.864293 L1009.43797,-147.707965 C1009.55303,-147.681461 1009.66743,-147.654733 1009.78121,-147.627781 L1010.45639,-147.463384 L1011.1171,-147.293626 C1011.22605,-147.264886 1011.33442,-147.235924 1011.44224,-147.20674 L1012.08255,-147.028964 L1012.71012,-146.845862 L1013.32565,-146.657446 L1013.92985,-146.46373 L1014.5234,-146.264729 L1015.10701,-146.060456 L1015.68136,-145.850925 L1016.24717,-145.636149 L1016.80511,-145.416144 L1017.35589,-145.190922 L1017.90021,-144.960497 L1018.43876,-144.724883 L1018.97223,-144.484095 L1019.50133,-144.238145 L1020.02675,-143.987048 L1020.54919,-143.730818 L1021.32877,-143.336877 C1021.41519,-143.292468 1021.50156,-143.247846 1021.5879,-143.203012 L1022.37483,-142.788139 Z M980.775141,-108.000722 L218.595888,-108.000722 L216.867838,-108.000722 L215.223781,-107.972295 L214.173576,-107.95423 L213.159458,-107.931893 L211.237493,-107.87473 L209.887047,-107.821246 L208.61276,-107.758967 L207.412953,-107.688165 L206.285949,-107.609111 L205.574229,-107.551958 L204.564831,-107.459755 L203.929961,-107.394088 L203.324961,-107.325155 L202.749333,-107.253037 L202.202579,-107.177815 L201.435502,-107.059338 L200.95876,-106.976707 L200.730595,-106.934328 C200.538759,-106.897864 200.365204,-106.86364 200.20558,-106.830193 L199.764153,-106.730722 C199.219713,-106.597306 198.828595,-106.452932 198.312464,-106.204019 L197.897577,-105.996271 L197.407,-105.738722 L197.161249,-105.601998 C195.926393,-104.894523 195.106199,-104.074328 194.398724,-102.839473 L194.262,-102.593722 L194.003173,-102.100658 C193.499015,-101.121637 193.336474,-100.659569 193.107321,-99.4839886 L193.010999,-98.9693624 L192.929002,-98.4890016 L192.849932,-97.9813918 L192.773865,-97.4460525 L192.700877,-96.8825028 L192.597336,-95.9832321 L192.53238,-95.3470533 L192.470771,-94.6809814 L192.384797,-93.6247728 L192.331887,-92.8818655 L192.282589,-92.1073826 L192.236981,-91.3008434 L192.175652,-90.0298776 L192.1396,-89.1410946 L192.092963,-87.7445096 L192.066943,-86.7704781 L192.035713,-85.243767 L192.014069,-83.6368169 L192,-81.9480053 L192,-80.7758511 L192,981.40339 L192.009512,983.13144 L192.028427,984.775497 L192.046492,985.825702 L192.068829,986.83982 L192.125991,988.761785 L192.179476,990.112231 L192.241755,991.386518 L192.312557,992.586325 L192.391611,993.713329 L192.448763,994.425049 L192.540967,995.434447 L192.606634,996.069317 L192.675567,996.674318 L192.747685,997.249946 L192.822907,997.796699 L192.941384,998.563776 L193.024015,999.040518 L193.066394,999.268683 C193.102858,999.460519 193.137082,999.634075 193.170529,999.793699 L193.269999,1000.23513 C193.403416,1000.77956 193.547789,1001.17068 193.796702,1001.68681 L194.004451,1002.1017 L194.262,1002.59128 L194.398724,1002.83803 C195.106199,1004.07288 195.926393,1004.89308 197.161249,1005.60055 L197.407,1005.73628 L197.900064,1005.9961 C198.879085,1006.50026 199.341152,1006.6628 200.516733,1006.89196 L201.031359,1006.98828 L201.51172,1007.07028 L202.01933,1007.14935 L202.554669,1007.22541 L203.118219,1007.2984 L204.01749,1007.40194 L204.653669,1007.4669 L205.319742,1007.52851 L206.375951,1007.61448 L207.118859,1007.66739 L207.893343,1007.71669 L208.699883,1007.7623 L209.970851,1007.82363 L210.859635,1007.85968 L212.256223,1007.90632 L213.230257,1007.93233 L214.756972,1007.96357 L216.363926,1007.98521 L218.052743,1007.99928 L219.2249,1007.99928 L981.365847,1007.99928 L983.082311,1007.99928 L984.716373,1007.97186 L986.269654,1007.94379 L987.743777,1007.90632 L989.140365,1007.85968 L990.029149,1007.82363 L991.300117,1007.7623 L992.497876,1007.6925 L993.256512,1007.64138 L993.983812,1007.58669 L994.680258,1007.52851 L995.668127,1007.43483 L996.589277,1007.33372 L997.167112,1007.2623 L997.98067,1007.14935 L998.731836,1007.02964 C998.811893,1007.01597 998.890824,1007.00219 998.968641,1006.98828 L999.483267,1006.89196 L999.979659,1006.78944 C1000.73748,1006.6215 1001.18511,1006.45581 1001.88263,1006.10657 L1002.294,1005.89428 L1002.592,1005.73628 L1002.83875,1005.60055 C1004.07361,1004.89308 1004.8938,1004.07288 1005.60128,1002.83803 L1005.737,1002.59128 L1005.99683,1002.09921 C1006.50098,1001.12019 1006.66353,1000.65813 1006.89268,999.482545 L1006.989,998.967919 L1007.071,998.487558 L1007.15007,997.979948 L1007.22614,997.444609 L1007.29912,996.881059 L1007.40266,995.981788 L1007.46762,995.345609 L1007.52923,994.679537 L1007.6152,993.623327 L1007.66811,992.880419 L1007.71741,992.105935 L1007.76302,991.299395 L1007.82435,990.028427 L1007.8604,989.139643 L1007.90704,987.743055 L1007.93306,986.769021 L1007.96429,985.242307 L1007.98593,983.635352 L1008,981.946536 L1008,980.774378 L1008,-81.3665685 L1007.99097,-83.0830329 L1007.97258,-84.7170944 L1007.94452,-86.2703755 L1007.90704,-87.7444986 L1007.8604,-89.1410863 L1007.82435,-90.0298709 L1007.76302,-91.3008386 L1007.69322,-92.4985977 L1007.6421,-93.2572336 L1007.58742,-93.9845342 L1007.52923,-94.6809802 L1007.43556,-95.6688486 L1007.33444,-96.5899985 L1007.26302,-97.1678338 L1007.15007,-97.9813918 L1007.03036,-98.732558 C1007.01669,-98.8126148 1007.00291,-98.8915463 1006.989,-98.9693624 L1006.89268,-99.4839886 L1006.79016,-99.9803812 C1006.62222,-100.738198 1006.45654,-101.185831 1006.10729,-101.883347 L1005.895,-102.295722 L1005.737,-102.593722 L1005.60128,-102.839473 C1004.8938,-104.074328 1004.07361,-104.894523 1002.83875,-105.601998 L1002.592,-105.738722 L1002.09994,-105.997549 C1001.12092,-106.501707 1000.65885,-106.664248 999.483267,-106.893401 L998.968641,-106.989723 L998.48828,-107.07172 L997.98067,-107.15079 L997.445331,-107.226857 L996.881781,-107.299845 L995.982511,-107.403386 L995.346332,-107.468341 L994.68026,-107.529951 L993.624052,-107.615924 L992.881145,-107.668835 L992.106662,-107.718133 L991.300123,-107.763741 L990.029158,-107.82507 L989.140376,-107.861122 L987.743792,-107.907759 L986.769761,-107.933778 L985.243052,-107.965009 L983.636103,-107.986652 L981.947294,-108.000722 L980.775141,-108.000722 Z" transform="rotate(-90 600 450)"/>
    <path fill="#C9C9C9" fill-rule="nonzero" d="M1022.37483,-142.788139 C1031.17483,-138.081847 1038.08113,-131.175556 1042.78742,-122.375556 L1043.20229,-121.588618 L1043.60006,-120.810227 L1043.98633,-120.027474 L1044.36104,-119.238008 L1044.60441,-118.706807 L1044.84262,-118.170883 L1045.07564,-117.629537 L1045.30346,-117.082074 L1045.52608,-116.527798 L1045.74347,-115.966013 L1045.95562,-115.396021 L1046.16253,-114.817127 C1046.19657,-114.719864 1046.2304,-114.622202 1046.26401,-114.524124 L1046.46301,-113.930571 L1046.65672,-113.326375 L1046.84514,-112.710839 L1047.02824,-112.083267 L1047.20602,-111.442963 L1047.37845,-110.78923 L1047.54553,-110.121372 C1047.57293,-110.008847 1047.60011,-109.895704 1047.62706,-109.781929 L1047.78608,-109.091578 L1047.93971,-108.385362 C1047.96487,-108.266298 1047.9898,-108.146545 1048.0145,-108.026086 L1048.16003,-107.294766 L1048.30012,-106.545838 L1048.50007,-105.387911 L1048.62655,-104.591921 L1048.74755,-103.775887 L1048.86307,-102.939112 L1048.97309,-102.080901 L1049.07759,-101.200557 L1049.17657,-100.297384 L1049.27,-99.3706858 L1049.35788,-98.4197653 L1049.44019,-97.4439267 L1049.55318,-95.9319238 L1049.62151,-94.8907431 L1049.68422,-93.822207 L1049.74129,-92.7256191 L1049.81632,-91.026617 L1049.85926,-89.8568533 L1049.91301,-88.0448233 L1049.94172,-86.7975315 L1049.97407,-84.8659454 L1049.98846,-83.5367735 L1050,-82.173631 L1050,-80.7758214 L1050,981.477659 L1049.98846,983.53533 L1049.97407,984.864502 L1049.94172,986.796088 L1049.91301,988.04338 L1049.85926,989.85541 L1049.81632,991.025173 L1049.74129,992.724175 L1049.68422,993.820763 L1049.62151,994.889299 L1049.55318,995.93048 L1049.47925,996.945002 L1049.39973,997.933561 L1049.31464,998.896853 C1049.29999,999.055335 1049.28511,999.212793 1049.27,999.369242 L1049.17657,1000.29594 L1049.07759,1001.19911 L1048.97309,1002.07946 L1048.86307,1002.93767 L1048.74755,1003.77444 L1048.62655,1004.59048 L1048.50007,1005.38647 L1048.36813,1006.16311 C1048.34569,1006.29098 1048.32302,1006.41807 1048.30012,1006.54439 L1048.16003,1007.29332 L1048.0145,1008.02464 L1047.86357,1008.73905 L1047.70724,1009.43725 C1047.68074,1009.5523 1047.65401,1009.66671 1047.62706,1009.78049 L1047.46266,1010.45567 L1047.2929,1011.11637 C1047.26416,1011.22533 1047.2352,1011.3337 1047.20602,1011.44152 L1047.02824,1012.08182 L1046.84514,1012.7094 L1046.65672,1013.32493 L1046.46301,1013.92913 L1046.26401,1014.52268 L1046.05973,1015.10629 L1045.8502,1015.68064 L1045.63543,1016.24644 L1045.41542,1016.80439 L1045.1902,1017.35517 L1044.95978,1017.89949 L1044.72416,1018.43804 L1044.48337,1018.97151 L1044.23742,1019.50061 L1043.98633,1020.02603 L1043.7301,1020.54847 L1043.33616,1021.32805 L1043.06715,1021.84607 L1042.78742,1022.37411 C1038.08113,1031.17411 1031.17483,1038.0804 1022.37483,1042.7867 L1021.5879,1043.20157 L1020.80951,1043.59934 L1020.02675,1043.9856 L1019.23729,1044.36032 L1018.70609,1044.60369 L1018.17016,1044.84189 L1017.62882,1045.07492 L1017.08135,1045.30274 L1016.52708,1045.52536 L1015.96529,1045.74275 L1015.3953,1045.9549 L1014.81641,1046.16181 C1014.71914,1046.19585 1014.62148,1046.22968 1014.5234,1046.26329 L1013.92985,1046.46229 L1013.32565,1046.656 L1012.71012,1046.84442 L1012.08255,1047.02752 L1011.44224,1047.2053 L1010.78851,1047.37773 L1010.12065,1047.54481 C1010.00813,1047.57221 1009.89498,1047.59939 1009.78121,1047.62634 L1009.09086,1047.78536 L1008.38464,1047.93899 C1008.26558,1047.96415 1008.14582,1047.98908 1008.02536,1048.01378 L1007.29404,1048.1593 L1006.54512,1048.2994 L1005.38719,1048.49935 L1004.5912,1048.62582 L1003.77516,1048.74683 L1002.93839,1048.86235 L1002.08018,1048.97237 L1001.19984,1049.07687 L1000.29666,1049.17585 L999.369964,1049.26928 L998.419044,1049.35716 L997.443205,1049.43947 L995.931202,1049.55246 L994.890021,1049.62079 L993.821485,1049.6835 L992.724897,1049.74057 L991.025895,1049.8156 L989.856131,1049.85854 L988.044101,1049.91229 L986.79681,1049.941 L984.865224,1049.97334 L983.536052,1049.99928 L982.172909,1049.99928 L980.7751,1049.99928 L218.521619,1049.99928 L216.463948,1049.99928 L215.134776,1049.97334 L213.20319,1049.941 L211.955899,1049.91229 L210.143869,1049.85854 L208.974105,1049.8156 L207.275103,1049.74057 L206.178515,1049.6835 L205.109979,1049.62079 L204.068798,1049.55246 L203.054276,1049.47853 L202.065718,1049.39901 L201.102425,1049.31392 C200.943943,1049.29927 200.786485,1049.28439 200.630036,1049.26928 L199.703337,1049.17585 L198.800164,1049.07687 L197.919821,1048.97237 L197.06161,1048.86235 L196.224835,1048.74683 L195.408801,1048.62582 L194.61281,1048.49935 L193.836167,1048.36741 C193.7083,1048.34497 193.581211,1048.3223 193.454884,1048.2994 L192.705956,1048.1593 L191.974635,1048.01378 L191.260225,1047.86285 L190.562028,1047.70652 C190.446975,1047.68002 190.332568,1047.65329 190.218793,1047.62634 L189.543612,1047.46194 L188.882903,1047.29218 C188.773953,1047.26344 188.665576,1047.23448 188.557759,1047.2053 L187.917455,1047.02752 L187.289883,1046.84442 L186.674347,1046.656 L186.070151,1046.46229 L185.476598,1046.26329 L184.892991,1046.05901 L184.318635,1045.84948 L183.752834,1045.63471 L183.19489,1045.4147 L182.644108,1045.18948 L182.099791,1044.95905 L181.561243,1044.72344 L181.027767,1044.48265 L180.498668,1044.2367 L179.973248,1043.9856 L179.450812,1043.72937 L178.671228,1043.33543 L178.153204,1043.06643 L177.625166,1042.7867 C168.825166,1038.0804 161.918875,1031.17411 157.212583,1022.37411 L156.797737,1021.58723 L156.531336,1021.06878 L156.141306,1020.2879 L155.88769,1019.76417 L155.516903,1018.97211 L155.157724,1018.17022 L154.924743,1017.62899 L154.696956,1017.08165 L154.474376,1016.5275 L154.257017,1015.96585 L154.044894,1015.396 C154.009977,1015.3003 153.975279,1015.20423 153.940799,1015.10778 L153.736554,1014.52432 L153.537579,1013.93092 L153.343887,1013.32688 L153.155492,1012.71151 L152.972409,1012.08411 C152.942338,1011.9785 152.912489,1011.87236 152.882863,1011.76568 L152.707772,1011.11894 L152.538026,1010.45842 L152.373641,1009.78344 L152.214628,1009.0933 L152.061003,1008.38731 L151.912778,1007.66476 L151.769969,1006.92496 L151.632588,1006.16722 C151.610144,1006.0394 151.587928,1005.9108 151.565938,1005.78141 L151.436726,1004.99545 L151.312977,1004.1898 L151.194706,1003.36378 L151.081925,1002.51668 L150.974649,1001.64781 L150.872891,1000.75647 L150.776666,999.841974 L150.685987,998.903615 L150.600868,997.940701 L150.521323,996.952536 L150.447366,995.938424 L150.346937,994.367084 L150.259159,992.733449 L150.20769,991.608591 L150.161879,990.454306 L150.121738,989.269899 L150.087282,988.054674 L150.058524,986.807935 L150.035478,985.528987 L150.01165,983.548647 L150.000722,982.186129 C150.000722,981.956174 150.000722,981.724777 150.000722,981.491921 L150.000722,-81.4791031 L150.011535,-83.5367735 L150.025934,-84.8659454 L150.058281,-86.7975315 L150.086992,-88.0448233 L150.140743,-89.8568533 L150.18368,-91.026617 L150.258705,-92.7256191 L150.315782,-93.822207 L150.37849,-94.8907431 L150.446816,-95.9319238 L150.520746,-96.9464454 L150.600266,-97.9350043 L150.685362,-98.8982968 C150.700009,-99.0567787 150.714887,-99.2142369 150.729997,-99.3706858 L150.823432,-100.297384 L150.922408,-101.200557 L151.026912,-102.080901 L151.13693,-102.939112 L151.252449,-103.775887 L151.373453,-104.591921 L151.499931,-105.387911 L151.631866,-106.164554 C151.65431,-106.292421 151.67698,-106.419511 151.699877,-106.545838 L151.839975,-107.294766 L151.985496,-108.026086 L152.136429,-108.740497 L152.292757,-109.438693 C152.319261,-109.553747 152.345989,-109.668154 152.37294,-109.781929 L152.537337,-110.45711 L152.707096,-111.117818 C152.735835,-111.226769 152.764797,-111.335146 152.793982,-111.442963 L152.971758,-112.083267 L153.15486,-112.710839 L153.343276,-113.326375 L153.536992,-113.930571 L153.735993,-114.524124 L153.940266,-115.107731 L154.149797,-115.682086 L154.364573,-116.247888 L154.584578,-116.805832 L154.8098,-117.356614 L155.040225,-117.900931 L155.275838,-118.439479 L155.516627,-118.972955 L155.762577,-119.502054 L156.013673,-120.027474 L156.269904,-120.54991 L156.663844,-121.329494 L156.932848,-121.847518 L157.212583,-122.375556 C161.918875,-131.175556 168.825166,-138.081847 177.625166,-142.788139 L178.412051,-143.202984 L178.930502,-143.469386 L179.711377,-143.859415 L180.235108,-144.113032 L181.027165,-144.483819 L181.829062,-144.842998 L182.370287,-145.075979 L182.917626,-145.303766 L183.471773,-145.526346 L184.033426,-145.743705 L184.60328,-145.955828 C184.698978,-145.990745 184.795046,-146.025443 184.8915,-146.059922 L185.47496,-146.264168 L186.068361,-146.463143 L186.672399,-146.656835 L187.287769,-146.84523 L187.915169,-147.028313 C188.020776,-147.058384 188.126914,-147.088233 188.233596,-147.117859 L188.880343,-147.29295 L189.540858,-147.462695 L190.215838,-147.627081 L190.905977,-147.786094 L191.611973,-147.939719 L192.334521,-148.087943 L193.074316,-148.230753 L193.832056,-148.368134 C193.95988,-148.390577 194.08848,-148.412794 194.217872,-148.434784 L195.003832,-148.563996 L195.809475,-148.687745 L196.635498,-148.806016 L197.482597,-148.918797 L198.351467,-149.026073 L199.242804,-149.12783 L200.157304,-149.224056 L201.095663,-149.314734 L202.058577,-149.399853 L203.046742,-149.479398 L204.060854,-149.553356 L205.632194,-149.653785 L207.26583,-149.741563 L208.390688,-149.793032 L209.544972,-149.838843 L210.729379,-149.878984 L211.944604,-149.91344 L213.191343,-149.942198 L214.470292,-149.965244 L216.450631,-150 L217.81315,-150 C218.043104,-150 218.274502,-150 218.507357,-150 L981.478381,-150 L983.536052,-150 L984.865224,-149.974788 L986.79681,-149.942441 L988.044101,-149.91373 L989.856131,-149.859979 L991.025895,-149.817042 L992.724897,-149.742016 L993.821485,-149.68494 L994.890021,-149.622232 L995.931202,-149.553906 L996.945724,-149.479976 L997.934282,-149.400456 L998.897575,-149.31536 C999.056057,-149.300713 999.213515,-149.285835 999.369964,-149.270725 L1000.29666,-149.17729 L1001.19984,-149.078314 L1002.08018,-148.97381 L1002.93839,-148.863791 L1003.77516,-148.748273 L1004.5912,-148.627268 L1005.38719,-148.500791 L1006.16383,-148.368856 C1006.2917,-148.346412 1006.41879,-148.323742 1006.54512,-148.300845 L1007.29404,-148.160747 L1008.02536,-148.015225 L1008.73978,-147.864293 L1009.43797,-147.707965 C1009.55303,-147.681461 1009.66743,-147.654733 1009.78121,-147.627781 L1010.45639,-147.463384 L1011.1171,-147.293626 C1011.22605,-147.264886 1011.33442,-147.235924 1011.44224,-147.20674 L1012.08255,-147.028964 L1012.71012,-146.845862 L1013.32565,-146.657446 L1013.92985,-146.46373 L1014.5234,-146.264729 L1015.10701,-146.060456 L1015.68136,-145.850925 L1016.24717,-145.636149 L1016.80511,-145.416144 L1017.35589,-145.190922 L1017.90021,-144.960497 L1018.43876,-144.724883 L1018.97223,-144.484095 L1019.50133,-144.238145 L1020.02675,-143.987048 L1020.54919,-143.730818 L1021.32877,-143.336877 C1021.41519,-143.292468 1021.50156,-143.247846 1021.5879,-143.203012 L1022.37483,-142.788139 Z M1020.97044,-140.137161 L1020.45314,-140.411237 L1019.82949,-140.733594 C1019.72549,-140.786539 1019.62146,-140.839095 1019.51737,-140.891264 L1018.89201,-141.199647 L1018.26452,-141.498832 L1017.63408,-141.788911 L1016.9999,-142.069979 L1016.36116,-142.342128 L1015.71706,-142.605454 C1015.60922,-142.648612 1015.50113,-142.691405 1015.39276,-142.733837 L1014.73912,-142.984102 L1014.07812,-143.225777 L1013.40895,-143.458955 L1012.73081,-143.68373 C1012.617,-143.720497 1012.50277,-143.756919 1012.38813,-143.792996 L1011.69502,-144.005342 L1010.99093,-144.20952 L1010.27506,-144.405622 L1009.54659,-144.593743 C1009.42409,-144.624436 1009.30103,-144.654801 1009.17739,-144.684839 L1008.42853,-144.861163 L1007.66508,-145.029739 L1006.88622,-145.190662 L1006.09116,-145.344024 L1005.27909,-145.489919 L1004.4492,-145.628442 C1004.30936,-145.65092 1004.16874,-145.673094 1004.02732,-145.694967 L1003.16921,-145.822606 C1003.02456,-145.843281 1002.87909,-145.86366 1002.73277,-145.883742 L1001.84462,-146.000707 L1000.93544,-146.110674 L1000.00443,-146.213736 L999.050782,-146.309986 L998.073694,-146.399519 C997.908849,-146.413887 997.742993,-146.427979 997.57611,-146.441796 L996.562355,-146.521428 C996.391298,-146.534157 996.21918,-146.546616 996.045985,-146.558807 L994.993755,-146.628749 L993.365181,-146.721797 L992.244807,-146.776057 L991.095769,-146.824208 L989.917263,-146.866343 L988.708485,-146.902556 L987.468632,-146.932941 L985.548827,-146.967796 L984.227769,-146.984021 L982.872822,-147.000722 L980.775103,-147.000722 L218.513681,-147.000722 L216.418419,-147.000722 L215.065687,-146.975384 L213.747267,-146.955776 L212.462324,-146.930435 L211.210024,-146.899262 L209.989531,-146.86216 L208.800008,-146.819029 L207.640622,-146.76977 L206.510537,-146.714284 L205.408918,-146.652473 L204.334928,-146.584237 L203.287734,-146.509479 L202.266499,-146.428097 L201.270389,-146.339995 L200.298567,-146.245073 L199.3502,-146.143232 L198.42445,-146.034374 L197.520484,-145.918398 L196.637466,-145.795208 C196.491996,-145.774069 196.347363,-145.752626 196.203551,-145.730876 L195.350389,-145.596676 C195.20979,-145.573691 195.069977,-145.550394 194.930932,-145.526784 L194.105745,-145.381354 C193.969705,-145.356484 193.834398,-145.331297 193.699807,-145.305791 L192.900717,-145.148907 L192.117981,-144.984263 L191.350763,-144.811762 L190.598228,-144.631303 L189.859541,-144.442788 L189.133867,-144.246119 L188.42037,-144.041196 L187.718214,-143.82792 L187.026565,-143.606193 L186.344588,-143.375915 L185.671446,-143.136988 C185.559946,-143.096441 185.448779,-143.055529 185.337928,-143.01425 L184.676474,-142.762164 C184.566817,-142.719411 184.457441,-142.676287 184.348329,-142.632791 L183.696684,-142.367323 L183.050533,-142.09281 L182.409042,-141.809154 C182.302468,-141.76111 182.196054,-141.712681 182.089782,-141.663866 L181.453714,-141.366308 C181.34794,-141.315936 181.242273,-141.265172 181.136696,-141.214014 L180.504171,-140.902334 L179.872965,-140.581114 L179.557595,-140.416896 L179.039963,-140.142699 C170.950886,-135.816614 164.580101,-129.531351 160.168188,-121.532035 L159.863561,-120.971165 L159.589485,-120.453861 L159.267128,-119.830213 C159.214183,-119.726216 159.161627,-119.62218 159.109458,-119.518088 L158.801075,-118.892736 L158.50189,-118.265242 L158.211811,-117.634804 L157.930743,-117.000618 L157.658593,-116.36188 L157.395268,-115.717786 C157.35211,-115.609946 157.309317,-115.50185 157.266885,-115.39348 L157.01662,-114.739845 L156.774945,-114.078845 L156.541767,-113.409677 L156.316992,-112.731535 C156.280224,-112.617719 156.243803,-112.503496 156.207726,-112.388849 L155.99538,-111.695742 L155.791202,-110.991653 L155.5951,-110.275778 L155.406979,-109.547314 C155.376286,-109.424809 155.345921,-109.301747 155.315883,-109.17811 L155.139559,-108.429254 L154.970983,-107.6658 L154.81006,-106.886944 L154.656698,-106.091881 L154.510803,-105.279808 L154.37228,-104.449921 C154.349802,-104.310078 154.327628,-104.169458 154.305754,-104.028047 L154.178116,-103.169932 C154.15744,-103.025284 154.137062,-102.879809 154.11698,-102.733492 L154.000014,-101.845342 L153.890048,-100.936163 L153.786986,-100.005151 L153.690735,-99.0515036 L153.601202,-98.074416 C153.586835,-97.9095701 153.572743,-97.7437141 153.558926,-97.5768311 L153.479294,-96.5630767 C153.466565,-96.3920192 153.454106,-96.2199013 153.441915,-96.0467062 L153.371973,-94.9944765 L153.278924,-93.3659028 L153.224665,-92.2455288 L153.176514,-91.0964906 L153.134379,-89.9179844 L153.098166,-88.7092065 L153.067781,-87.4693532 L153.032926,-85.5495485 L153.016701,-84.2284901 L153,-82.8735432 L153,-80.7758235 L153,981.485597 L153.011362,983.580859 L153.025337,984.933592 L153.044946,986.252011 L153.070287,987.536954 L153.10146,988.789254 L153.138562,990.009748 L153.181693,991.19927 L153.230952,992.358656 L153.286438,993.488741 L153.348249,994.590361 L153.416484,995.66435 L153.491243,996.711544 L153.572624,997.732779 L153.660726,998.728889 L153.755649,999.700711 L153.85749,1000.64908 L153.966348,1001.57483 L154.082323,1002.47879 L154.205514,1003.36181 C154.226653,1003.50728 154.248096,1003.65191 154.269846,1003.79573 L154.404046,1004.64889 C154.427031,1004.78949 154.450328,1004.9293 154.473938,1005.06835 L154.619368,1005.89353 C154.644238,1006.02957 154.669425,1006.16488 154.694931,1006.29947 L154.851815,1007.09856 L155.016459,1007.8813 L155.18896,1008.64852 L155.369419,1009.40105 L155.557933,1010.13974 L155.754603,1010.86541 L155.959526,1011.57891 L156.172802,1012.28106 L156.394529,1012.97271 L156.624807,1013.65469 L156.863734,1014.32783 C156.904281,1014.43933 156.945193,1014.5505 156.986472,1014.66135 L157.238558,1015.3228 C157.281311,1015.43246 157.324435,1015.54184 157.367931,1015.65095 L157.633399,1016.30259 L157.907912,1016.94875 L158.191568,1017.59024 C158.239612,1017.69681 158.28804,1017.80322 158.336856,1017.9095 L158.634414,1018.54556 C158.684786,1018.65134 158.73555,1018.75701 158.786708,1018.86258 L159.098388,1019.49511 L159.419608,1020.12631 L159.583826,1020.44168 L159.858023,1020.95932 C164.184108,1029.04839 170.469371,1035.41918 178.468687,1039.83109 L179.029557,1040.13572 L179.546861,1040.40979 L180.170509,1040.73215 C180.274506,1040.7851 180.378542,1040.83765 180.482634,1040.88982 L181.107986,1041.1982 L181.73548,1041.49739 L182.365917,1041.78747 L183.000104,1042.06853 L183.638842,1042.34068 L184.282936,1042.60401 C184.390776,1042.64717 184.498872,1042.68996 184.607242,1042.73239 L185.260877,1042.98266 L185.921877,1043.22433 L186.591045,1043.45751 L187.269186,1043.68229 C187.383002,1043.71905 187.497226,1043.75548 187.611873,1043.79155 L188.30498,1044.0039 L189.009069,1044.20808 L189.724944,1044.40418 L190.453408,1044.5923 C190.575913,1044.62299 190.698975,1044.65336 190.822612,1044.6834 L191.571468,1044.85972 L192.334922,1045.0283 L193.113778,1045.18922 L193.908841,1045.34258 L194.720914,1045.48848 L195.550801,1045.627 C195.690644,1045.64948 195.831264,1045.67165 195.972676,1045.69352 L196.83079,1045.82116 C196.975438,1045.84184 197.120913,1045.86222 197.26723,1045.8823 L198.155381,1045.99926 L199.06456,1046.10923 L199.995571,1046.21229 L200.949219,1046.30854 L201.926306,1046.39808 C202.091152,1046.41244 202.257008,1046.42653 202.423891,1046.44035 L203.437646,1046.51998 C203.608703,1046.53271 203.780821,1046.54517 203.954016,1046.55736 L205.006246,1046.62731 L206.63482,1046.72035 L207.755194,1046.77461 L208.904232,1046.82276 L210.082739,1046.8649 L211.291517,1046.90111 L212.53137,1046.9315 L214.451175,1046.96635 L215.772234,1046.98258 L217.127181,1046.99928 L219.2249,1046.99928 L981.48318,1046.99928 L982.872819,1046.99928 L984.227765,1046.98258 L985.54882,1046.96636 L986.836788,1046.94454 L988.092471,1046.91704 L989.316673,1046.88376 L990.510197,1046.8446 L991.673845,1046.79949 L992.808421,1046.74831 L993.914728,1046.69098 L994.993569,1046.6274 L996.045746,1046.55749 L997.072063,1046.48114 C997.241005,1046.46788 997.408903,1046.45434 997.575774,1046.44053 L998.564806,1046.35436 L999.529986,1046.26153 L1000.47212,1046.16193 L1001.392,1046.05549 L1002.29044,1045.9421 L1003.16824,1045.82168 L1004.0262,1045.69412 L1004.86512,1045.55934 L1005.68582,1045.41724 C1005.95643,1045.36864 1006.22414,1045.31881 1006.48908,1045.26773 L1007.27572,1045.11071 C1007.40549,1045.08391 1007.53459,1045.0568 1007.66306,1045.02936 L1008.42627,1044.86091 C1008.55223,1044.8322 1008.67758,1044.80316 1008.80234,1044.7738 L1009.54392,1044.59371 L1010.27209,1044.40574 L1010.98764,1044.20981 L1011.69139,1044.00581 L1012.38414,1043.79366 C1012.49872,1043.75761 1012.61288,1043.72122 1012.72663,1043.68449 L1013.40438,1043.45993 C1013.51656,1043.4218 1013.62837,1043.38333 1013.73982,1043.3445 L1014.40437,1043.10732 L1015.06113,1042.8616 C1015.16998,1042.81993 1015.27855,1042.77791 1015.38683,1042.73552 L1016.03341,1042.47683 L1016.6742,1042.20938 L1017.31,1041.93308 C1017.4156,1041.88629 1017.52102,1041.83912 1017.62629,1041.79158 L1018.25613,1041.50181 L1018.88299,1041.20296 L1019.50768,1040.89493 L1020.13101,1040.57761 L1020.44241,1040.41545 L1020.96004,1040.14126 C1029.04911,1035.81517 1035.4199,1029.52991 1039.83181,1021.53059 L1040.13644,1020.96972 L1040.41051,1020.45242 L1040.73287,1019.82877 C1040.78582,1019.72477 1040.83837,1019.62074 1040.89054,1019.51664 L1041.19893,1018.89129 L1041.49811,1018.2638 L1041.78819,1017.63336 L1042.06926,1016.99917 L1042.34141,1016.36044 L1042.60473,1015.71634 C1042.64789,1015.6085 1042.69068,1015.50041 1042.73312,1015.39204 L1042.98338,1014.7384 L1043.22505,1014.0774 L1043.45823,1013.40823 L1043.68301,1012.73009 C1043.71978,1012.61628 1043.7562,1012.50205 1043.79227,1012.38741 L1044.00462,1011.6943 L1044.2088,1010.99021 L1044.4049,1010.27433 L1044.59302,1009.54587 C1044.62371,1009.42337 1044.65408,1009.3003 1044.68412,1009.17667 L1044.86044,1008.42781 L1045.02902,1007.66436 L1045.18994,1006.8855 L1045.3433,1006.09044 L1045.4892,1005.27836 L1045.62772,1004.44848 C1045.6502,1004.30863 1045.67237,1004.16801 1045.69425,1004.0266 L1045.82188,1003.16849 C1045.84256,1003.02384 1045.86294,1002.87837 1045.88302,1002.73205 L1045.99999,1001.8439 L1046.10995,1000.93472 L1046.21301,1000.00371 L1046.30926,999.050059 L1046.3988,998.072972 C1046.41317,997.908126 1046.42726,997.74227 1046.44107,997.575387 L1046.52071,996.561632 C1046.53344,996.390575 1046.54589,996.218457 1046.55809,996.045262 L1046.62803,994.993032 L1046.72108,993.364458 L1046.77534,992.244084 L1046.82349,991.095046 L1046.86562,989.91654 L1046.90183,988.707762 L1046.93222,987.467908 L1046.96707,985.548103 L1046.9833,984.227045 L1046.99934,982.872098 L1046.99934,981.482458 L1046.99934,-81.4839019 L1046.99934,-82.8735408 L1046.9833,-84.2284864 L1046.96708,-85.5495416 L1046.94526,-86.8375094 L1046.91776,-88.0931928 L1046.88448,-89.3173949 L1046.84533,-90.5109187 L1046.80021,-91.6745671 L1046.74903,-92.8091431 L1046.6917,-93.9154499 L1046.62812,-94.9942904 L1046.55821,-96.0464675 L1046.48186,-97.0727844 C1046.4686,-97.2417268 1046.45506,-97.4096252 1046.44125,-97.5764962 L1046.35508,-98.5655283 L1046.26225,-99.5307076 L1046.16266,-100.472837 L1046.05621,-101.39272 L1045.94282,-102.291159 L1045.8224,-103.168958 L1045.69484,-104.026918 L1045.56006,-104.865844 L1045.41796,-105.686538 C1045.36936,-105.957154 1045.31953,-106.224864 1045.26845,-106.489804 L1045.11143,-107.276444 C1045.08463,-107.40621 1045.05752,-107.535316 1045.03008,-107.66378 L1044.86164,-108.426987 C1044.83292,-108.552948 1044.80388,-108.6783 1044.77452,-108.803059 L1044.59443,-109.54464 L1044.40647,-110.272807 L1044.21053,-110.988364 L1044.00653,-111.692113 L1043.79438,-112.384857 C1043.75833,-112.499442 1043.72195,-112.613602 1043.68521,-112.727354 L1043.46065,-113.405097 C1043.42252,-113.517282 1043.38405,-113.629092 1043.34522,-113.740544 L1043.10804,-114.405093 L1042.86232,-115.061849 C1042.82065,-115.170704 1042.77863,-115.279267 1042.73624,-115.387556 L1042.47755,-116.034129 L1042.21011,-116.674917 L1041.9338,-117.310723 C1041.88701,-117.41632 1041.83984,-117.521743 1041.7923,-117.627008 L1041.50254,-118.256847 L1041.20368,-118.883711 L1040.89565,-119.508403 L1040.57834,-120.131727 L1040.41617,-120.443127 L1040.14198,-120.960759 C1035.81589,-129.049836 1029.53063,-135.420621 1021.53131,-139.832534 L1020.97044,-140.137161 Z" transform="rotate(-90 600 450)"/>
    <path fill="#A6A6A6" fill-rule="nonzero" d="M1022.37483,-142.788139 C1031.17483,-138.081847 1038.08113,-131.175556 1042.78742,-122.375556 L1043.20229,-121.588618 L1043.60006,-120.810227 L1043.98633,-120.027474 L1044.36104,-119.238008 L1044.60441,-118.706807 L1044.84262,-118.170883 L1045.07564,-117.629537 L1045.30346,-117.082074 L1045.52608,-116.527798 L1045.74347,-115.966013 L1045.95562,-115.396021 L1046.16253,-114.817127 C1046.19657,-114.719864 1046.2304,-114.622202 1046.26401,-114.524124 L1046.46301,-113.930571 L1046.65672,-113.326375 L1046.84514,-112.710839 L1047.02824,-112.083267 L1047.20602,-111.442963 L1047.37845,-110.78923 L1047.54553,-110.121372 C1047.57293,-110.008847 1047.60011,-109.895704 1047.62706,-109.781929 L1047.78608,-109.091578 L1047.93971,-108.385362 C1047.96487,-108.266298 1047.9898,-108.146545 1048.0145,-108.026086 L1048.16003,-107.294766 L1048.30012,-106.545838 L1048.50007,-105.387911 L1048.62655,-104.591921 L1048.74755,-103.775887 L1048.86307,-102.939112 L1048.97309,-102.080901 L1049.07759,-101.200557 L1049.17657,-100.297384 L1049.27,-99.3706858 L1049.35788,-98.4197653 L1049.44019,-97.4439267 L1049.55318,-95.9319238 L1049.62151,-94.8907431 L1049.68422,-93.822207 L1049.74129,-92.7256191 L1049.81632,-91.026617 L1049.85926,-89.8568533 L1049.91301,-88.0448233 L1049.94172,-86.7975315 L1049.97407,-84.8659454 L1049.98846,-83.5367735 L1050,-82.173631 L1050,-80.7758214 L1050,981.477659 L1049.98846,983.53533 L1049.97407,984.864502 L1049.94172,986.796088 L1049.91301,988.04338 L1049.85926,989.85541 L1049.81632,991.025173 L1049.74129,992.724175 L1049.68422,993.820763 L1049.62151,994.889299 L1049.55318,995.93048 L1049.47925,996.945002 L1049.39973,997.933561 L1049.31464,998.896853 C1049.29999,999.055335 1049.28511,999.212793 1049.27,999.369242 L1049.17657,1000.29594 L1049.07759,1001.19911 L1048.97309,1002.07946 L1048.86307,1002.93767 L1048.74755,1003.77444 L1048.62655,1004.59048 L1048.50007,1005.38647 L1048.36813,1006.16311 C1048.34569,1006.29098 1048.32302,1006.41807 1048.30012,1006.54439 L1048.16003,1007.29332 L1048.0145,1008.02464 L1047.86357,1008.73905 L1047.70724,1009.43725 C1047.68074,1009.5523 1047.65401,1009.66671 1047.62706,1009.78049 L1047.46266,1010.45567 L1047.2929,1011.11637 C1047.26416,1011.22533 1047.2352,1011.3337 1047.20602,1011.44152 L1047.02824,1012.08182 L1046.84514,1012.7094 L1046.65672,1013.32493 L1046.46301,1013.92913 L1046.26401,1014.52268 L1046.05973,1015.10629 L1045.8502,1015.68064 L1045.63543,1016.24644 L1045.41542,1016.80439 L1045.1902,1017.35517 L1044.95978,1017.89949 L1044.72416,1018.43804 L1044.48337,1018.97151 L1044.23742,1019.50061 L1043.98633,1020.02603 L1043.7301,1020.54847 L1043.33616,1021.32805 L1043.06715,1021.84607 L1042.78742,1022.37411 C1038.08113,1031.17411 1031.17483,1038.0804 1022.37483,1042.7867 L1021.5879,1043.20157 L1020.80951,1043.59934 L1020.02675,1043.9856 L1019.23729,1044.36032 L1018.70609,1044.60369 L1018.17016,1044.84189 L1017.62882,1045.07492 L1017.08135,1045.30274 L1016.52708,1045.52536 L1015.96529,1045.74275 L1015.3953,1045.9549 L1014.81641,1046.16181 C1014.71914,1046.19585 1014.62148,1046.22968 1014.5234,1046.26329 L1013.92985,1046.46229 L1013.32565,1046.656 L1012.71012,1046.84442 L1012.08255,1047.02752 L1011.44224,1047.2053 L1010.78851,1047.37773 L1010.12065,1047.54481 C1010.00813,1047.57221 1009.89498,1047.59939 1009.78121,1047.62634 L1009.09086,1047.78536 L1008.38464,1047.93899 C1008.26558,1047.96415 1008.14582,1047.98908 1008.02536,1048.01378 L1007.29404,1048.1593 L1006.54512,1048.2994 L1005.38719,1048.49935 L1004.5912,1048.62582 L1003.77516,1048.74683 L1002.93839,1048.86235 L1002.08018,1048.97237 L1001.19984,1049.07687 L1000.29666,1049.17585 L999.369964,1049.26928 L998.419044,1049.35716 L997.443205,1049.43947 L995.931202,1049.55246 L994.890021,1049.62079 L993.821485,1049.6835 L992.724897,1049.74057 L991.025895,1049.8156 L989.856131,1049.85854 L988.044101,1049.91229 L986.79681,1049.941 L984.865224,1049.97334 L983.536052,1049.99928 L982.172909,1049.99928 L980.7751,1049.99928 L218.521619,1049.99928 L216.463948,1049.99928 L215.134776,1049.97334 L213.20319,1049.941 L211.955899,1049.91229 L210.143869,1049.85854 L208.974105,1049.8156 L207.275103,1049.74057 L206.178515,1049.6835 L205.109979,1049.62079 L204.068798,1049.55246 L203.054276,1049.47853 L202.065718,1049.39901 L201.102425,1049.31392 C200.943943,1049.29927 200.786485,1049.28439 200.630036,1049.26928 L199.703337,1049.17585 L198.800164,1049.07687 L197.919821,1048.97237 L197.06161,1048.86235 L196.224835,1048.74683 L195.408801,1048.62582 L194.61281,1048.49935 L193.836167,1048.36741 C193.7083,1048.34497 193.581211,1048.3223 193.454884,1048.2994 L192.705956,1048.1593 L191.974635,1048.01378 L191.260225,1047.86285 L190.562028,1047.70652 C190.446975,1047.68002 190.332568,1047.65329 190.218793,1047.62634 L189.543612,1047.46194 L188.882903,1047.29218 C188.773953,1047.26344 188.665576,1047.23448 188.557759,1047.2053 L187.917455,1047.02752 L187.289883,1046.84442 L186.674347,1046.656 L186.070151,1046.46229 L185.476598,1046.26329 L184.892991,1046.05901 L184.318635,1045.84948 L183.752834,1045.63471 L183.19489,1045.4147 L182.644108,1045.18948 L182.099791,1044.95905 L181.561243,1044.72344 L181.027767,1044.48265 L180.498668,1044.2367 L179.973248,1043.9856 L179.450812,1043.72937 L178.671228,1043.33543 L178.153204,1043.06643 L177.625166,1042.7867 C168.825166,1038.0804 161.918875,1031.17411 157.212583,1022.37411 L156.797737,1021.58723 L156.531336,1021.06878 L156.141306,1020.2879 L155.88769,1019.76417 L155.516903,1018.97211 L155.157724,1018.17022 L154.924743,1017.62899 L154.696956,1017.08165 L154.474376,1016.5275 L154.257017,1015.96585 L154.044894,1015.396 C154.009977,1015.3003 153.975279,1015.20423 153.940799,1015.10778 L153.736554,1014.52432 L153.537579,1013.93092 L153.343887,1013.32688 L153.155492,1012.71151 L152.972409,1012.08411 C152.942338,1011.9785 152.912489,1011.87236 152.882863,1011.76568 L152.707772,1011.11894 L152.538026,1010.45842 L152.373641,1009.78344 L152.214628,1009.0933 L152.061003,1008.38731 L151.912778,1007.66476 L151.769969,1006.92496 L151.632588,1006.16722 C151.610144,1006.0394 151.587928,1005.9108 151.565938,1005.78141 L151.436726,1004.99545 L151.312977,1004.1898 L151.194706,1003.36378 L151.081925,1002.51668 L150.974649,1001.64781 L150.872891,1000.75647 L150.776666,999.841974 L150.685987,998.903615 L150.600868,997.940701 L150.521323,996.952536 L150.447366,995.938424 L150.346937,994.367084 L150.259159,992.733449 L150.20769,991.608591 L150.161879,990.454306 L150.121738,989.269899 L150.087282,988.054674 L150.058524,986.807935 L150.035478,985.528987 L150.01165,983.548647 L150.000722,982.186129 C150.000722,981.956174 150.000722,981.724777 150.000722,981.491921 L150.000722,-81.4791031 L150.011535,-83.5367735 L150.025934,-84.8659454 L150.058281,-86.7975315 L150.086992,-88.0448233 L150.140743,-89.8568533 L150.18368,-91.026617 L150.258705,-92.7256191 L150.315782,-93.822207 L150.37849,-94.8907431 L150.446816,-95.9319238 L150.520746,-96.9464454 L150.600266,-97.9350043 L150.685362,-98.8982968 C150.700009,-99.0567787 150.714887,-99.2142369 150.729997,-99.3706858 L150.823432,-100.297384 L150.922408,-101.200557 L151.026912,-102.080901 L151.13693,-102.939112 L151.252449,-103.775887 L151.373453,-104.591921 L151.499931,-105.387911 L151.631866,-106.164554 C151.65431,-106.292421 151.67698,-106.419511 151.699877,-106.545838 L151.839975,-107.294766 L151.985496,-108.026086 L152.136429,-108.740497 L152.292757,-109.438693 C152.319261,-109.553747 152.345989,-109.668154 152.37294,-109.781929 L152.537337,-110.45711 L152.707096,-111.117818 C152.735835,-111.226769 152.764797,-111.335146 152.793982,-111.442963 L152.971758,-112.083267 L153.15486,-112.710839 L153.343276,-113.326375 L153.536992,-113.930571 L153.735993,-114.524124 L153.940266,-115.107731 L154.149797,-115.682086 L154.364573,-116.247888 L154.584578,-116.805832 L154.8098,-117.356614 L155.040225,-117.900931 L155.275838,-118.439479 L155.516627,-118.972955 L155.762577,-119.502054 L156.013673,-120.027474 L156.269904,-120.54991 L156.663844,-121.329494 L156.932848,-121.847518 L157.212583,-122.375556 C161.918875,-131.175556 168.825166,-138.081847 177.625166,-142.788139 L178.412051,-143.202984 L178.930502,-143.469386 L179.711377,-143.859415 L180.235108,-144.113032 L181.027165,-144.483819 L181.829062,-144.842998 L182.370287,-145.075979 L182.917626,-145.303766 L183.471773,-145.526346 L184.033426,-145.743705 L184.60328,-145.955828 C184.698978,-145.990745 184.795046,-146.025443 184.8915,-146.059922 L185.47496,-146.264168 L186.068361,-146.463143 L186.672399,-146.656835 L187.287769,-146.84523 L187.915169,-147.028313 C188.020776,-147.058384 188.126914,-147.088233 188.233596,-147.117859 L188.880343,-147.29295 L189.540858,-147.462695 L190.215838,-147.627081 L190.905977,-147.786094 L191.611973,-147.939719 L192.334521,-148.087943 L193.074316,-148.230753 L193.832056,-148.368134 C193.95988,-148.390577 194.08848,-148.412794 194.217872,-148.434784 L195.003832,-148.563996 L195.809475,-148.687745 L196.635498,-148.806016 L197.482597,-148.918797 L198.351467,-149.026073 L199.242804,-149.12783 L200.157304,-149.224056 L201.095663,-149.314734 L202.058577,-149.399853 L203.046742,-149.479398 L204.060854,-149.553356 L205.632194,-149.653785 L207.26583,-149.741563 L208.390688,-149.793032 L209.544972,-149.838843 L210.729379,-149.878984 L211.944604,-149.91344 L213.191343,-149.942198 L214.470292,-149.965244 L216.450631,-150 L217.81315,-150 C218.043104,-150 218.274502,-150 218.507357,-150 L981.478381,-150 L983.536052,-150 L984.865224,-149.974788 L986.79681,-149.942441 L988.044101,-149.91373 L989.856131,-149.859979 L991.025895,-149.817042 L992.724897,-149.742016 L993.821485,-149.68494 L994.890021,-149.622232 L995.931202,-149.553906 L996.945724,-149.479976 L997.934282,-149.400456 L998.897575,-149.31536 C999.056057,-149.300713 999.213515,-149.285835 999.369964,-149.270725 L1000.29666,-149.17729 L1001.19984,-149.078314 L1002.08018,-148.97381 L1002.93839,-148.863791 L1003.77516,-148.748273 L1004.5912,-148.627268 L1005.38719,-148.500791 L1006.16383,-148.368856 C1006.2917,-148.346412 1006.41879,-148.323742 1006.54512,-148.300845 L1007.29404,-148.160747 L1008.02536,-148.015225 L1008.73978,-147.864293 L1009.43797,-147.707965 C1009.55303,-147.681461 1009.66743,-147.654733 1009.78121,-147.627781 L1010.45639,-147.463384 L1011.1171,-147.293626 C1011.22605,-147.264886 1011.33442,-147.235924 1011.44224,-147.20674 L1012.08255,-147.028964 L1012.71012,-146.845862 L1013.32565,-146.657446 L1013.92985,-146.46373 L1014.5234,-146.264729 L1015.10701,-146.060456 L1015.68136,-145.850925 L1016.24717,-145.636149 L1016.80511,-145.416144 L1017.35589,-145.190922 L1017.90021,-144.960497 L1018.43876,-144.724883 L1018.97223,-144.484095 L1019.50133,-144.238145 L1020.02675,-143.987048 L1020.54919,-143.730818 L1021.32877,-143.336877 C1021.41519,-143.292468 1021.50156,-143.247846 1021.5879,-143.203012 L1022.37483,-142.788139 Z M1021.9067,-141.904479 L1021.38224,-142.182328 L1020.73655,-142.516095 L1020.08999,-142.840178 L1019.44175,-143.154676 L1018.79104,-143.459687 L1018.13704,-143.755307 L1017.47896,-144.041635 C1017.36889,-144.088587 1017.25862,-144.135157 1017.14813,-144.181345 L1016.48241,-144.453916 C1016.37097,-144.498588 1016.25928,-144.542883 1016.14731,-144.586803 L1015.47214,-144.845838 L1014.78966,-145.095971 C1014.56086,-145.177875 1014.33071,-145.258312 1014.09907,-145.337298 L1013.39956,-145.569919 L1012.69034,-145.793929 C1012.57128,-145.830552 1012.45178,-145.866821 1012.33183,-145.902737 L1011.60652,-146.114015 L1010.86948,-146.316928 C1010.74561,-146.350055 1010.62123,-146.382838 1010.4963,-146.415278 L1009.74015,-146.605825 L1008.97026,-146.78825 L1008.18582,-146.962651 C1007.92182,-147.019458 1007.65527,-147.074943 1007.38603,-147.129124 L1006.57008,-147.287768 L1005.73716,-147.438681 L1004.88649,-147.581959 C1004.74318,-147.605208 1004.5991,-147.628142 1004.45423,-147.650765 L1003.5754,-147.782775 L1002.67678,-147.907394 C1002.52532,-147.927553 1002.373,-147.947409 1002.21981,-147.966963 L1001.29002,-148.080679 C1001.13326,-148.099033 1000.97559,-148.11709 1000.817,-148.134851 L999.854225,-148.237884 L998.868452,-148.333917 L997.858878,-148.423048 L996.824698,-148.505373 L995.765107,-148.580991 L994.679301,-148.649998 L993.566476,-148.712493 L992.425825,-148.768574 L991.256546,-148.818337 L990.057833,-148.86188 L988.202814,-148.915746 L986.926996,-148.944166 L984.952548,-148.975806 L982.902821,-149.000722 L980.775101,-149.000722 L218.509465,-149.000722 L216.383607,-149.000722 L214.336761,-148.96532 L213.014699,-148.942152 L211.725661,-148.913004 L210.468812,-148.877772 L209.243315,-148.836353 L208.048334,-148.788644 L206.883031,-148.734541 L205.74657,-148.673942 L204.638114,-148.606744 L203.556828,-148.532843 L202.501873,-148.452136 L201.472414,-148.364519 L200.467615,-148.269891 L199.486637,-148.168146 L198.528646,-148.059184 L197.592803,-147.942899 L196.678273,-147.819189 L195.784219,-147.687952 L194.909805,-147.549082 C194.765659,-147.525296 194.622297,-147.501187 194.479701,-147.476754 L193.633177,-147.326244 C193.353973,-147.274765 193.077694,-147.221971 192.8042,-147.167845 L191.991935,-147.001453 L191.195545,-146.826966 L190.414192,-146.64428 C190.285173,-146.613143 190.156746,-146.581661 190.028893,-146.54983 L189.268529,-146.354652 C189.142904,-146.321421 189.017818,-146.287837 188.893254,-146.253899 L188.151996,-146.045997 C188.029451,-146.010632 187.907392,-145.974908 187.785803,-145.938823 L187.061769,-145.717965 L186.348171,-145.488341 L185.644173,-145.249848 L184.948938,-145.002382 L184.26163,-144.74584 L183.581412,-144.480119 C183.468587,-144.435061 183.356023,-144.389617 183.243701,-144.343784 L182.57255,-144.064101 C182.461131,-144.016703 182.349921,-143.968913 182.238901,-143.920727 L181.574934,-143.626849 L180.914711,-143.32338 C180.80494,-143.271997 180.695289,-143.22021 180.585742,-143.168017 L179.929566,-142.849967 L179.275042,-142.522067 L178.621334,-142.184214 L178.096765,-141.906326 C169.662716,-137.395747 163.00901,-130.829229 158.406844,-122.479486 L158.096242,-121.907425 L157.818394,-121.382966 L157.484627,-120.737272 L157.160544,-120.090709 L156.846045,-119.442473 L156.541035,-118.791759 L156.245414,-118.137763 L155.959087,-117.479679 C155.912134,-117.369614 155.865565,-117.259344 155.819377,-117.148853 L155.546805,-116.48313 C155.502134,-116.371691 155.457839,-116.259997 155.413919,-116.148032 L155.154884,-115.472859 L154.904751,-114.79038 C154.822847,-114.56158 154.742409,-114.331429 154.663423,-114.099791 L154.430803,-113.400287 L154.206792,-112.691062 C154.170169,-112.572004 154.133901,-112.452506 154.097985,-112.332554 L153.886706,-111.607241 L153.683793,-110.870197 C153.650666,-110.746334 153.617884,-110.621949 153.585444,-110.497024 L153.394897,-109.740874 L153.212472,-108.970981 L153.038071,-108.186541 C152.981264,-107.922547 152.925779,-107.655994 152.871598,-107.386748 L152.712954,-106.570798 L152.562041,-105.737886 L152.418763,-104.887208 C152.395514,-104.743903 152.372579,-104.599824 152.349957,-104.454955 L152.217947,-103.576118 L152.093328,-102.677504 C152.073168,-102.526042 152.053313,-102.373723 152.033759,-102.220529 L151.920043,-101.290739 C151.901688,-101.13398 151.883632,-100.976314 151.865871,-100.817723 L151.762837,-99.8549465 L151.666804,-98.8691737 L151.577674,-97.8595996 L151.495349,-96.8254195 L151.419731,-95.7658289 L151.350724,-94.6800231 L151.288228,-93.5671974 L151.232148,-92.4265471 L151.182385,-91.2572677 L151.138842,-90.0585543 L151.084976,-88.2035357 L151.056555,-86.9277174 L151.024916,-84.9532694 L151,-82.9035429 L151,-80.7758221 L151,981.489813 L151.011638,983.615671 L151.035402,985.662517 L151.058569,986.98458 L151.087718,988.273617 L151.12295,989.530466 L151.164369,990.755963 L151.212078,991.950944 L151.266181,993.116247 L151.326779,994.252708 L151.393978,995.361164 L151.467879,996.442451 L151.548586,997.497405 L151.636203,998.526864 L151.730831,999.531664 L151.832575,1000.51264 L151.941538,1001.47063 L152.057823,1002.40648 L152.181532,1003.321 L152.31277,1004.21506 L152.45164,1005.08947 C152.475426,1005.23362 152.499535,1005.37698 152.523968,1005.51958 L152.674478,1006.3661 C152.725957,1006.64531 152.778751,1006.92158 152.832877,1007.19508 L152.999269,1008.00734 L153.173756,1008.80373 L153.356442,1009.58509 C153.387578,1009.7141 153.419061,1009.84253 153.450892,1009.97038 L153.64607,1010.73075 C153.679301,1010.85637 153.712885,1010.98146 153.746823,1011.10602 L153.954725,1011.84728 C153.99009,1011.96983 154.025814,1012.09189 154.061899,1012.21347 L154.282756,1012.93751 L154.51238,1013.65111 L154.750874,1014.35511 L154.99834,1015.05034 L155.254882,1015.73765 L155.520603,1016.41787 C155.565661,1016.53069 155.611105,1016.64326 155.656938,1016.75558 L155.936621,1017.42673 C155.984019,1017.53815 156.031809,1017.64936 156.079995,1017.76038 L156.373873,1018.42434 L156.677341,1019.08457 C156.728725,1019.19434 156.780512,1019.30399 156.832705,1019.41354 L157.150755,1020.06971 L157.478655,1020.72424 L157.816507,1021.37794 L158.094396,1021.90251 C162.604975,1030.33656 169.171493,1036.99027 177.521236,1041.59243 L178.093296,1041.90304 L178.617756,1042.18088 L179.26345,1042.51465 L179.910013,1042.83873 L180.558249,1043.15323 L181.208963,1043.45824 L181.862959,1043.75386 L182.521042,1044.04019 C182.631108,1044.08714 182.741378,1044.13371 182.851868,1044.1799 L183.517591,1044.45247 C183.629031,1044.49714 183.740725,1044.54144 183.85269,1044.58536 L184.527863,1044.84439 L185.210342,1045.09453 C185.439142,1045.17643 185.669293,1045.25687 185.900931,1045.33585 L186.600435,1045.56848 L187.30966,1045.79249 C187.428718,1045.82911 187.548216,1045.86538 187.668168,1045.90129 L188.393481,1046.11257 L189.130525,1046.31548 C189.254388,1046.34861 189.378773,1046.38139 189.503697,1046.41383 L190.259847,1046.60438 L191.02974,1046.78681 L191.814181,1046.96121 C192.078175,1047.01801 192.344728,1047.0735 192.613974,1047.12768 L193.429924,1047.28632 L194.262836,1047.43724 L195.113514,1047.58052 C195.256819,1047.60376 195.400898,1047.6267 195.545767,1047.64932 L196.424604,1047.78133 L197.323218,1047.90595 C197.47468,1047.92611 197.626999,1047.94597 197.780193,1047.96552 L198.709983,1048.07924 C198.866742,1048.09759 199.024408,1048.11565 199.182999,1048.13341 L200.145775,1048.23644 L201.131548,1048.33247 L202.141122,1048.4216 L203.175303,1048.50393 L204.234893,1048.57955 L205.320699,1048.64855 L206.433525,1048.71105 L207.574175,1048.76713 L208.743455,1048.81689 L209.942168,1048.86044 L211.797187,1048.9143 L213.073005,1048.94272 L215.047453,1048.97436 L217.09718,1048.99928 L219.2249,1048.99928 L981.493174,1048.99928 L983.594594,1048.99928 L984.952546,1048.97436 L986.27704,1048.95472 L988.202807,1048.91431 L990.057818,1048.86044 L991.256525,1048.8169 L992.425795,1048.76715 L993.566435,1048.71107 L994.679247,1048.64858 L995.765037,1048.57958 L996.824608,1048.50398 L997.858766,1048.42166 L998.868315,1048.33255 L999.854058,1048.23653 L1000.8168,1048.13351 L1001.75735,1048.0234 L1002.6765,1047.9061 L1003.57507,1047.7815 L1004.45386,1047.64952 C1004.59872,1047.6269 1004.74279,1047.60397 1004.88608,1047.58073 L1005.7367,1047.43748 L1006.56955,1047.2866 L1007.38543,1047.128 L1008.18515,1046.96156 C1008.31713,1046.93317 1008.44847,1046.90444 1008.57919,1046.87538 L1009.35618,1046.69702 L1010.119,1046.5106 C1010.24501,1046.47885 1010.37045,1046.44676 1010.49536,1046.41433 L1011.23847,1046.21562 L1011.96944,1046.00859 L1012.68907,1045.79315 L1013.39817,1045.56921 C1013.63287,1045.49313 1013.86595,1045.41562 1014.09754,1045.33666 L1014.78799,1045.09541 C1015.01674,1045.01353 1015.24414,1044.93018 1015.47032,1044.84535 L1016.14534,1044.5864 L1016.81384,1044.31845 L1017.47664,1044.04141 C1017.58668,1043.99448 1017.69651,1043.94716 1017.80615,1043.89945 L1018.4619,1043.60859 L1019.11396,1043.30839 L1019.76312,1042.99876 L1020.4102,1042.6796 C1020.51792,1042.62561 1020.62558,1042.57121 1020.73321,1042.51641 L1021.37867,1042.18277 L1021.90324,1041.90488 C1030.33728,1037.3943 1036.99099,1030.82778 1041.59316,1022.47804 L1041.90376,1021.90598 L1042.18161,1021.38152 L1042.51537,1020.73583 L1042.83946,1020.08927 L1043.15395,1019.44103 L1043.45897,1018.79032 L1043.75459,1018.13632 L1044.04091,1017.47824 C1044.08787,1017.36817 1044.13443,1017.2579 1044.18062,1017.14741 L1044.45319,1016.48169 C1044.49787,1016.37025 1044.54216,1016.25855 1044.58608,1016.14659 L1044.84512,1015.47142 L1045.09525,1014.78894 C1045.17715,1014.56014 1045.25759,1014.32998 1045.33658,1014.09835 L1045.5692,1013.39884 L1045.79321,1012.68962 C1045.82983,1012.57056 1045.8661,1012.45106 1045.90201,1012.33111 L1046.11329,1011.6058 L1046.31621,1010.86875 C1046.34933,1010.74489 1046.38212,1010.62051 1046.41456,1010.49558 L1046.6051,1009.73943 L1046.78753,1008.96954 L1046.96193,1008.1851 C1047.01874,1007.9211 1047.07422,1007.65455 1047.1284,1007.3853 L1047.28705,1006.56935 L1047.43796,1005.73644 L1047.58124,1004.88576 C1047.60449,1004.74246 1047.62742,1004.59838 1047.65004,1004.45351 L1047.78205,1003.57467 L1047.90667,1002.67606 C1047.92683,1002.5246 1047.94669,1002.37228 1047.96624,1002.21908 L1048.07996,1001.28929 C1048.09831,1001.13254 1048.11637,1000.97487 1048.13413,1000.81628 L1048.23716,999.853503 L1048.3332,998.86773 L1048.42233,997.858156 L1048.50465,996.823976 L1048.58027,995.764385 L1048.64928,994.678579 L1048.71177,993.565753 L1048.76785,992.425103 L1048.81761,991.255824 L1048.86116,990.05711 L1048.91502,988.202092 L1048.94344,986.926273 L1048.97508,984.951825 L1048.99932,982.902099 L1048.99932,981.492452 L1048.99932,-81.4938954 L1048.98899,-83.5953161 L1048.97508,-84.9532678 L1048.95545,-86.2777616 L1048.91503,-88.2035285 L1048.86117,-90.05854 L1048.81763,-91.2572465 L1048.76787,-92.4265172 L1048.71179,-93.5671564 L1048.6493,-94.6799688 L1048.58031,-95.7657585 L1048.5047,-96.8253301 L1048.42238,-97.8594879 L1048.33327,-98.8690364 L1048.23725,-99.85478 L1048.13423,-100.817523 L1048.02412,-101.75807 L1047.90682,-102.677225 L1047.78222,-103.575793 L1047.65024,-104.454579 C1047.62762,-104.599439 1047.60469,-104.743509 1047.58145,-104.886804 L1047.4382,-105.737423 L1047.28732,-106.570271 L1047.12872,-107.386151 L1046.96228,-108.185867 C1046.93389,-108.317851 1046.90516,-108.449195 1046.8761,-108.579916 L1046.69775,-109.356897 L1046.51132,-110.119726 C1046.47957,-110.245729 1046.44748,-110.371176 1046.41505,-110.496084 L1046.21634,-111.239193 L1046.00931,-111.970162 L1045.79388,-112.689793 L1045.56993,-113.398893 C1045.49385,-113.633593 1045.41634,-113.866672 1045.33738,-114.098264 L1045.09613,-114.788713 C1045.01425,-115.017465 1044.9309,-115.244863 1044.84607,-115.471043 L1044.58712,-116.146058 L1044.31917,-116.814563 L1044.04213,-117.477362 C1043.9952,-117.587398 1043.94788,-117.69723 1043.90017,-117.806874 L1043.60931,-118.462623 L1043.30912,-119.114678 L1042.99948,-119.763842 L1042.68032,-120.410921 C1042.62633,-120.518638 1042.57193,-120.626302 1042.51713,-120.733929 L1042.18349,-121.379388 L1041.9056,-121.903957 C1037.39503,-130.338006 1030.82851,-136.991712 1022.47876,-141.593878 L1021.9067,-141.904479 Z" transform="rotate(-90 600 450)"/>
    <path fill="url(#tablet-horizontal-a)" fill-rule="nonzero" d="M219.2249,-150 L980.7751,-150 C1004.84611,-150 1013.57483,-147.493708 1022.37483,-142.787417 C1031.17483,-138.081125 1038.08113,-131.174834 1042.78742,-122.374834 C1047.49371,-113.574834 1050,-104.846106 1050,-80.7750996 L1050,980.7751 C1050,1004.84611 1047.49371,1013.57483 1042.78742,1022.37483 C1038.08113,1031.17483 1031.17483,1038.08113 1022.37483,1042.78742 C1013.57483,1047.49371 1004.84611,1050 980.7751,1050 L219.2249,1050 C195.153894,1050 186.425166,1047.49371 177.625166,1042.78742 C168.825166,1038.08113 161.918875,1031.17483 157.212583,1022.37483 C152.506292,1013.57483 150,1004.84611 150,980.7751 L150,-80.7750996 C150,-104.846106 152.506292,-113.574834 157.212583,-122.374834 C161.918875,-131.174834 168.825166,-138.081125 177.625166,-142.787417 C186.425166,-147.493708 195.153894,-150 219.2249,-150 Z" opacity=".25" transform="rotate(-90 600 450)"/>
  </g>
</svg>
