<svg xmlns="http://www.w3.org/2000/svg" width="900" height="1200" viewBox="0 0 900 1200">
  <defs>
    <linearGradient id="tablet-vertical-a" x1="32.894%" x2="35.281%" y1="0%" y2="20.573%">
      <stop offset="0%" stop-color="#FFF"/>
      <stop offset="100%" stop-color="#FFF" stop-opacity="0"/>
    </linearGradient>
  </defs>
  <g fill="none" fill-rule="evenodd">
    <path fill="#000" fill-rule="nonzero" d="M872.374834,7.212583 C881.174834,11.9188745 888.081125,18.825166 892.787417,27.625166 L893.20229,28.412104 L893.60006,29.1904946 L893.986327,29.9732478 L894.361043,30.7627138 L894.604413,31.2939144 L894.842616,31.8298393 L895.075637,32.3711848 L895.303462,32.9186474 L895.526078,33.4729233 L895.74347,34.0347089 L895.955625,34.6047006 L896.162528,35.1835945 C896.196574,35.2808574 896.2304,35.3785203 896.264007,35.4765975 L896.463008,36.0701507 L896.656724,36.6743471 L896.84514,37.2898831 L897.028242,37.917455 L897.206018,38.5577591 L897.378452,39.2114918 L897.545532,39.8793495 C897.572932,39.9918748 897.600108,40.1050178 897.62706,40.2187928 L897.786081,40.9091434 L897.939713,41.6153599 C897.964868,41.7344235 897.989799,41.8541771 898.014504,41.9746354 L898.160025,42.7059561 L898.300123,43.4548835 L898.500069,44.6128103 L898.626547,45.4088008 L898.747551,46.2248351 L898.86307,47.0616096 L898.973088,47.9198206 L899.077592,48.8001644 L899.176568,49.7033375 L899.270003,50.630036 L899.357882,51.5809565 L899.440192,52.5567952 L899.553184,54.0687981 L899.62151,55.1099788 L899.684218,56.1785149 L899.741295,57.2751027 L899.81632,58.9741048 L899.859257,60.1438686 L899.913008,61.9558986 L899.941719,63.2031903 L899.974066,65.1347764 L899.988465,66.4639483 L900,67.8270909 L900,69.2249004 L900,1131.47838 L899.988465,1133.53605 L899.974066,1134.86522 L899.941719,1136.79681 L899.913008,1138.0441 L899.859257,1139.85613 L899.81632,1141.0259 L899.741295,1142.7249 L899.684218,1143.82149 L899.62151,1144.89002 L899.553184,1145.9312 L899.479254,1146.94572 L899.399734,1147.93428 L899.314638,1148.89757 C899.299991,1149.05606 899.285113,1149.21352 899.270003,1149.36996 L899.176568,1150.29666 L899.077592,1151.19984 L898.973088,1152.08018 L898.86307,1152.93839 L898.747551,1153.77516 L898.626547,1154.5912 L898.500069,1155.38719 L898.368134,1156.16383 C898.34569,1156.2917 898.32302,1156.41879 898.300123,1156.54512 L898.160025,1157.29404 L898.014504,1158.02536 L897.863571,1158.73978 L897.707243,1159.43797 C897.680739,1159.55303 897.654011,1159.66743 897.62706,1159.78121 L897.462663,1160.45639 L897.292904,1161.1171 C897.264165,1161.22605 897.235203,1161.33442 897.206018,1161.44224 L897.028242,1162.08255 L896.84514,1162.71012 L896.656724,1163.32565 L896.463008,1163.92985 L896.264007,1164.5234 L896.059734,1165.10701 L895.850203,1165.68136 L895.635427,1166.24717 L895.415422,1166.80511 L895.1902,1167.35589 L894.959775,1167.90021 L894.724162,1168.43876 L894.483373,1168.97223 L894.237423,1169.50133 L893.986327,1170.02675 L893.730096,1170.54919 L893.336156,1171.32877 L893.067152,1171.8468 L892.787417,1172.37483 C888.081125,1181.17483 881.174834,1188.08113 872.374834,1192.78742 L871.587896,1193.20229 L870.809505,1193.60006 L870.026752,1193.98633 L869.237286,1194.36104 L868.706086,1194.60441 L868.170161,1194.84262 L867.628815,1195.07564 L867.081353,1195.30346 L866.527077,1195.52608 L865.965291,1195.74347 L865.395299,1195.95562 L864.816405,1196.16253 C864.719143,1196.19657 864.62148,1196.2304 864.523402,1196.26401 L863.929849,1196.46301 L863.325653,1196.65672 L862.710117,1196.84514 L862.082545,1197.02824 L861.442241,1197.20602 L860.788508,1197.37845 L860.120651,1197.54553 C860.008125,1197.57293 859.894982,1197.60011 859.781207,1197.62706 L859.090857,1197.78608 L858.38464,1197.93971 C858.265577,1197.96487 858.145823,1197.9898 858.025365,1198.0145 L857.294044,1198.16003 L856.545116,1198.30012 L855.38719,1198.50007 L854.591199,1198.62655 L853.775165,1198.74755 L852.93839,1198.86307 L852.080179,1198.97309 L851.199836,1199.07759 L850.296663,1199.17657 L849.369964,1199.27 L848.419044,1199.35788 L847.443205,1199.44019 L845.931202,1199.55318 L844.890021,1199.62151 L843.821485,1199.68422 L842.724897,1199.74129 L841.025895,1199.81632 L839.856131,1199.85926 L838.044101,1199.91301 L836.79681,1199.94172 L834.865224,1199.97407 L833.536052,1200 L832.172909,1200 L830.7751,1200 L68.5216187,1200 L66.4639483,1200 L65.1347764,1199.97407 L63.2031903,1199.94172 L61.9558986,1199.91301 L60.1438686,1199.85926 L58.9741048,1199.81632 L57.2751027,1199.74129 L56.1785149,1199.68422 L55.1099788,1199.62151 L54.0687981,1199.55318 L53.0542764,1199.47925 L52.0657175,1199.39973 L51.102425,1199.31464 C50.9439431,1199.29999 50.786485,1199.28511 50.630036,1199.27 L49.7033375,1199.17657 L48.8001644,1199.07759 L47.9198206,1198.97309 L47.0616096,1198.86307 L46.2248351,1198.74755 L45.4088008,1198.62655 L44.6128103,1198.50007 L43.8361673,1198.36813 C43.7083004,1198.34569 43.5812107,1198.32302 43.4548835,1198.30012 L42.7059561,1198.16003 L41.9746354,1198.0145 L41.2602249,1197.86357 L40.5620284,1197.70724 C40.4469748,1197.68074 40.3325677,1197.65401 40.2187928,1197.62706 L39.5436115,1197.46266 L38.8829034,1197.2929 C38.7739528,1197.26416 38.6655762,1197.2352 38.5577591,1197.20602 L37.917455,1197.02824 L37.2898831,1196.84514 L36.6743471,1196.65672 L36.0701507,1196.46301 L35.4765975,1196.26401 L34.8929912,1196.05973 L34.3186355,1195.8502 L33.7528339,1195.63543 L33.1948902,1195.41542 L32.644108,1195.1902 L32.099791,1194.95978 L31.5612428,1194.72416 L31.0277671,1194.48337 L30.4986675,1194.23742 L29.9732478,1193.98633 L29.4508115,1193.7301 L28.6712279,1193.33616 L28.1532038,1193.06715 L27.625166,1192.78742 C18.825166,1188.08113 11.9188745,1181.17483 7.212583,1172.37483 L6.79773744,1171.58795 L6.53133551,1171.0695 L6.14130633,1170.28862 L5.88768952,1169.76489 L5.51690285,1168.97284 L5.15772392,1168.17094 L4.92474309,1167.62971 L4.69695583,1167.08237 L4.47437596,1166.52823 L4.25701732,1165.96657 L4.04489372,1165.39672 C4.00997682,1165.30102 3.97527861,1165.20495 3.94079939,1165.1085 L3.73655431,1164.52504 L3.53757885,1163.93164 L3.34388685,1163.3276 L3.15549213,1162.71223 L2.97240852,1162.08483 C2.94233794,1161.97922 2.91248924,1161.87309 2.8828627,1161.7664 L2.70777168,1161.11966 L2.53802635,1160.45914 L2.37364053,1159.78416 L2.21462806,1159.09402 L2.06100275,1158.38803 L1.91277844,1157.66548 L1.76996896,1156.92568 L1.63258813,1156.16794 C1.61014449,1156.04012 1.58792761,1155.91152 1.56593779,1155.78213 L1.43672588,1154.99617 L1.3129772,1154.19052 L1.19470557,1153.3645 L1.08192484,1152.5174 L0.974648813,1151.64853 L0.872891334,1150.7572 L0.776666229,1149.8427 L0.685987325,1148.90434 L0.600868451,1147.94142 L0.521323437,1146.95326 L0.447366111,1145.93915 L0.346937288,1144.36781 L0.259158551,1142.73417 L0.207690267,1141.60931 L0.161878814,1140.45503 L0.121738024,1139.27062 L0.087281723,1138.0554 L0.0585237413,1136.80866 L0.0354779075,1135.52971 L0.0116496844,1133.54937 L0.000721824428,1132.18685 C0.000721824428,1131.9569 0.000721824428,1131.7255 0.000721824428,1131.49264 L0.000721824428,68.5216187 L0.0115353535,66.4639483 L0.0259337892,65.1347764 L0.0582809738,63.2031903 L0.0869919381,61.9558986 L0.140743053,60.1438686 L0.183680062,58.9741048 L0.258705381,57.2751027 L0.315781951,56.1785149 L0.37849013,55.1099788 L0.446816081,54.0687981 L0.520745966,53.0542764 L0.600265948,52.0657175 L0.685362189,51.102425 C0.700008815,50.9439431 0.714887209,50.786485 0.729997082,50.630036 L0.823431767,49.7033375 L0.922408118,48.8001644 L1.0269123,47.9198206 L1.13693047,47.0616096 L1.25244879,46.2248351 L1.37345343,45.4088008 L1.49993055,44.6128103 L1.63186631,43.8361673 C1.65430973,43.7083004 1.67698,43.5812107 1.69987686,43.4548835 L1.83997464,42.7059561 L1.98549647,41.9746354 L2.1364285,41.2602249 L2.29275691,40.5620284 C2.31926058,40.4469748 2.34598851,40.3325677 2.37294043,40.2187928 L2.53733746,39.5436115 L2.70709626,38.8829034 C2.73583544,38.7739528 2.76479745,38.6655762 2.79398201,38.5577591 L2.97175754,37.917455 L3.15486025,37.2898831 L3.34327632,36.6743471 L3.53699189,36.0701507 L3.73599314,35.4765975 L3.94026623,34.8929912 L4.14979731,34.3186355 L4.36457256,33.7528339 L4.58457813,33.1948902 L4.80980019,32.644108 L5.0402249,32.099791 L5.27583842,31.5612428 L5.51662692,31.0277671 L5.76257655,30.4986675 L6.01367348,29.9732478 L6.26990388,29.4508115 L6.66384445,28.6712279 L6.93284796,28.1532038 L7.212583,27.625166 C11.9188745,18.825166 18.825166,11.9188745 27.625166,7.212583 L28.4120506,6.79773744 L28.9305018,6.53133551 L29.7113772,6.14130633 L30.235108,5.88768952 L31.0271648,5.51690285 L31.8290622,5.15772392 L32.3702872,4.92474309 L32.9176256,4.69695583 L33.4717732,4.47437596 L34.033426,4.25701732 L34.6032799,4.04489372 C34.6989776,4.00997682 34.795046,3.97527861 34.8914997,3.94079939 L35.4749599,3.73655431 L36.068361,3.53757885 L36.6723989,3.34388685 L37.2877695,3.15549213 L37.9151686,2.97240852 C38.0207761,2.94233794 38.1269139,2.91248924 38.2335963,2.8828627 L38.8803431,2.70777168 L39.5408583,2.53802635 L40.2158377,2.37364053 L40.9059773,2.21462806 L41.611973,2.06100275 L42.3345206,1.91277844 L43.0743162,1.76996896 L43.8320556,1.63258813 C43.9598795,1.61014449 44.08848,1.58792761 44.2178717,1.56593779 L45.0038317,1.43672588 L45.8094752,1.3129772 L46.6354983,1.19470557 L47.4825967,1.08192484 L48.3514665,0.974648813 L49.2428036,0.872891334 L50.1573037,0.776666229 L51.095663,0.685987325 L52.0585771,0.600868451 L53.0467422,0.521323437 L54.0608541,0.447366111 L55.6321944,0.346937288 L57.2658295,0.259158551 L58.3906876,0.207690267 L59.5449721,0.161878814 L60.7293788,0.121738024 L61.9446037,0.087281723 L63.1913427,0.0585237413 L64.4702916,0.0354779075 L66.4506311,0.000721824428 L67.8131496,0.000721824428 C68.0431038,0.000721824428 68.2745016,0.000721824428 68.5073575,0.000721824428 L831.478381,0.000721824428 L833.536052,0.000721824428 L834.865224,0.0259337892 L836.79681,0.0582809738 L838.044101,0.0869919381 L839.856131,0.140743053 L841.025895,0.183680062 L842.724897,0.258705381 L843.821485,0.315781951 L844.890021,0.37849013 L845.931202,0.446816081 L846.945724,0.520745966 L847.934282,0.600265948 L848.897575,0.685362189 C849.056057,0.700008815 849.213515,0.714887209 849.369964,0.729997082 L850.296663,0.823431767 L851.199836,0.922408118 L852.080179,1.0269123 L852.93839,1.13693047 L853.775165,1.25244879 L854.591199,1.37345343 L855.38719,1.49993055 L856.163833,1.63186631 C856.2917,1.65430973 856.418789,1.67698 856.545116,1.69987686 L857.294044,1.83997464 L858.025365,1.98549647 L858.739775,2.1364285 L859.437972,2.29275691 C859.553025,2.31926058 859.667432,2.34598851 859.781207,2.37294043 L860.456388,2.53733746 L861.117097,2.70709626 C861.226047,2.73583544 861.334424,2.76479745 861.442241,2.79398201 L862.082545,2.97175754 L862.710117,3.15486025 L863.325653,3.34327632 L863.929849,3.53699189 L864.523402,3.73599314 L865.107009,3.94026623 L865.681365,4.14979731 L866.247166,4.36457256 L866.80511,4.58457813 L867.355892,4.80980019 L867.900209,5.0402249 L868.438757,5.27583842 L868.972233,5.51662692 L869.501332,5.76257655 L870.026752,6.01367348 L870.549188,6.26990388 L871.328772,6.66384445 C871.415194,6.70825385 871.501563,6.7528757 871.587896,6.79770971 L872.374834,7.212583 Z M830.775141,42 L68.5958882,42 L66.8678384,42 L65.2237811,42.0284267 L64.1735765,42.0464923 L63.1594584,42.0688286 L61.2374928,42.1259915 L59.8870468,42.1794759 L58.6127598,42.2417549 L57.4129534,42.312557 L56.2859489,42.3916108 L55.574229,42.4487635 L54.5648308,42.5409667 L53.9299609,42.6066343 L53.3249606,42.6755671 L52.7493326,42.7476847 L52.2025794,42.8229066 L51.435502,42.9413841 L50.95876,43.024015 L50.7305954,43.0663939 C50.5387593,43.1028579 50.3652036,43.1370822 50.2055796,43.170529 L49.764153,43.2699994 C49.2197133,43.4034161 48.8285949,43.5477894 48.3124638,43.7967025 L47.8975767,44.0044508 L47.407,44.262 L47.1612492,44.3987238 C45.9263934,45.1061986 45.1061986,45.9263934 44.3987238,47.1612492 L44.262,47.407 L44.0031733,47.9000636 C43.4990151,48.8790849 43.3364738,49.3411525 43.107321,50.5167333 L43.010999,51.0313594 L42.9290019,51.5117203 L42.8499317,52.01933 L42.7738647,52.5546693 L42.7008771,53.1182191 L42.5973362,54.0174897 L42.5323805,54.6536686 L42.4707709,55.3197404 L42.3847974,56.375949 L42.3318868,57.1188564 L42.2825891,57.8933393 L42.2369805,58.6998784 L42.1756517,59.9708442 L42.1395996,60.8596272 L42.0929626,62.2562123 L42.0669433,63.2302437 L42.0357129,64.7569548 L42.0140695,66.3639049 L42,68.0527165 L42,69.2248707 L42,1131.40411 L42.0095117,1133.13216 L42.0284267,1134.77622 L42.0464923,1135.82642 L42.0688286,1136.84054 L42.1259915,1138.76251 L42.1794759,1140.11295 L42.2417549,1141.38724 L42.312557,1142.58705 L42.3916108,1143.71405 L42.4487635,1144.42577 L42.5409667,1145.43517 L42.6066343,1146.07004 L42.6755671,1146.67504 L42.7476847,1147.25067 L42.8229066,1147.79742 L42.9413841,1148.5645 L43.024015,1149.04124 L43.0663939,1149.2694 C43.1028579,1149.46124 43.1370822,1149.6348 43.170529,1149.79442 L43.2699994,1150.23585 C43.4034161,1150.78029 43.5477894,1151.17141 43.7967025,1151.68754 L44.0044508,1152.10242 L44.262,1152.592 L44.3987238,1152.83875 C45.1061986,1154.07361 45.9263934,1154.8938 47.1612492,1155.60128 L47.407,1155.737 L47.9000636,1155.99683 C48.8790849,1156.50098 49.3411525,1156.66353 50.5167333,1156.89268 L51.0313594,1156.989 L51.5117203,1157.071 L52.01933,1157.15007 L52.5546694,1157.22614 L53.1182193,1157.29912 L54.0174902,1157.40266 L54.6536694,1157.46762 L55.3197416,1157.52923 L56.3759511,1157.6152 L57.1188592,1157.66811 L57.893343,1157.71741 L58.6998832,1157.76302 L59.9708509,1157.82435 L60.8596355,1157.8604 L62.2562232,1157.90704 L63.2302568,1157.93306 L64.7569716,1157.96429 L66.363926,1157.98593 L68.0527425,1158 L69.2249004,1158 L831.365847,1158 L833.082311,1158 L834.716373,1157.97258 L836.269654,1157.94452 L837.743777,1157.90704 L839.140365,1157.8604 L840.029149,1157.82435 L841.300117,1157.76302 L842.497876,1157.69322 L843.256512,1157.6421 L843.983812,1157.58742 L844.680258,1157.52923 L845.668127,1157.43556 L846.589277,1157.33444 L847.167112,1157.26302 L847.98067,1157.15007 L848.731836,1157.03036 C848.811893,1157.01669 848.890824,1157.00291 848.968641,1156.989 L849.483267,1156.89268 L849.979659,1156.79016 C850.737476,1156.62222 851.185109,1156.45654 851.882625,1156.10729 L852.294,1155.895 L852.592,1155.737 L852.838751,1155.60128 C854.073607,1154.8938 854.893801,1154.07361 855.601276,1152.83875 L855.737,1152.592 L855.996827,1152.09994 C856.500985,1151.12092 856.663526,1150.65885 856.892679,1149.48327 L856.989001,1148.96864 L857.070998,1148.48828 L857.150068,1147.98067 L857.226135,1147.44533 L857.299123,1146.88178 L857.402664,1145.98251 L857.46762,1145.34633 L857.529229,1144.68026 L857.615203,1143.62405 L857.668113,1142.88114 L857.717411,1142.10666 L857.763019,1141.30012 L857.824348,1140.02915 L857.8604,1139.14036 L857.907037,1137.74378 L857.933057,1136.76974 L857.964287,1135.24303 L857.985931,1133.63607 L858,1131.94726 L858,1130.7751 L858,68.6341534 L857.99097,66.9176889 L857.972579,65.2836274 L857.944516,63.7303464 L857.907037,62.2562232 L857.8604,60.8596355 L857.824348,59.9708509 L857.763019,58.6998832 L857.693218,57.5021241 L857.642105,56.7434882 L857.587416,56.0161877 L857.529229,55.3197416 L857.435555,54.3318732 L857.334438,53.4107233 L857.263019,52.832888 L857.150068,52.01933 L857.030361,51.2681638 C857.016694,51.188107 857.002907,51.1091755 856.989001,51.0313594 L856.892679,50.5167333 L856.790159,50.0203406 C856.622222,49.2625239 856.456537,48.814891 856.107292,48.117375 L855.895,47.705 L855.737,47.407 L855.601276,47.1612492 C854.893801,45.9263934 854.073607,45.1061986 852.838751,44.3987238 L852.592,44.262 L852.099936,44.0031733 C851.120915,43.4990151 850.658848,43.3364738 849.483267,43.107321 L848.968641,43.010999 L848.48828,42.9290019 L847.98067,42.8499317 L847.445331,42.7738647 L846.881781,42.7008771 L845.982511,42.5973362 L845.346332,42.5323805 L844.68026,42.4707709 L843.624052,42.3847974 L842.881145,42.3318868 L842.106662,42.2825891 L841.300123,42.2369805 L840.029158,42.1756517 L839.140376,42.1395996 L837.743792,42.0929626 L836.769761,42.0669433 L835.243052,42.0357129 L833.636103,42.0140695 L831.947294,42 L830.775141,42 Z"/>
    <path fill="#C9C9C9" fill-rule="nonzero" d="M872.374834,7.212583 C881.174834,11.9188745 888.081125,18.825166 892.787417,27.625166 L893.20229,28.412104 L893.60006,29.1904946 L893.986327,29.9732478 L894.361043,30.7627138 L894.604413,31.2939144 L894.842616,31.8298393 L895.075637,32.3711848 L895.303462,32.9186474 L895.526078,33.4729233 L895.74347,34.0347089 L895.955625,34.6047006 L896.162528,35.1835945 C896.196574,35.2808574 896.2304,35.3785203 896.264007,35.4765975 L896.463008,36.0701507 L896.656724,36.6743471 L896.84514,37.2898831 L897.028242,37.917455 L897.206018,38.5577591 L897.378452,39.2114918 L897.545532,39.8793495 C897.572932,39.9918748 897.600108,40.1050178 897.62706,40.2187928 L897.786081,40.9091434 L897.939713,41.6153599 C897.964868,41.7344235 897.989799,41.8541771 898.014504,41.9746354 L898.160025,42.7059561 L898.300123,43.4548835 L898.500069,44.6128103 L898.626547,45.4088008 L898.747551,46.2248351 L898.86307,47.0616096 L898.973088,47.9198206 L899.077592,48.8001644 L899.176568,49.7033375 L899.270003,50.630036 L899.357882,51.5809565 L899.440192,52.5567952 L899.553184,54.0687981 L899.62151,55.1099788 L899.684218,56.1785149 L899.741295,57.2751027 L899.81632,58.9741048 L899.859257,60.1438686 L899.913008,61.9558986 L899.941719,63.2031903 L899.974066,65.1347764 L899.988465,66.4639483 L900,67.8270909 L900,69.2249004 L900,1131.47838 L899.988465,1133.53605 L899.974066,1134.86522 L899.941719,1136.79681 L899.913008,1138.0441 L899.859257,1139.85613 L899.81632,1141.0259 L899.741295,1142.7249 L899.684218,1143.82149 L899.62151,1144.89002 L899.553184,1145.9312 L899.479254,1146.94572 L899.399734,1147.93428 L899.314638,1148.89757 C899.299991,1149.05606 899.285113,1149.21352 899.270003,1149.36996 L899.176568,1150.29666 L899.077592,1151.19984 L898.973088,1152.08018 L898.86307,1152.93839 L898.747551,1153.77516 L898.626547,1154.5912 L898.500069,1155.38719 L898.368134,1156.16383 C898.34569,1156.2917 898.32302,1156.41879 898.300123,1156.54512 L898.160025,1157.29404 L898.014504,1158.02536 L897.863571,1158.73978 L897.707243,1159.43797 C897.680739,1159.55303 897.654011,1159.66743 897.62706,1159.78121 L897.462663,1160.45639 L897.292904,1161.1171 C897.264165,1161.22605 897.235203,1161.33442 897.206018,1161.44224 L897.028242,1162.08255 L896.84514,1162.71012 L896.656724,1163.32565 L896.463008,1163.92985 L896.264007,1164.5234 L896.059734,1165.10701 L895.850203,1165.68136 L895.635427,1166.24717 L895.415422,1166.80511 L895.1902,1167.35589 L894.959775,1167.90021 L894.724162,1168.43876 L894.483373,1168.97223 L894.237423,1169.50133 L893.986327,1170.02675 L893.730096,1170.54919 L893.336156,1171.32877 L893.067152,1171.8468 L892.787417,1172.37483 C888.081125,1181.17483 881.174834,1188.08113 872.374834,1192.78742 L871.587896,1193.20229 L870.809505,1193.60006 L870.026752,1193.98633 L869.237286,1194.36104 L868.706086,1194.60441 L868.170161,1194.84262 L867.628815,1195.07564 L867.081353,1195.30346 L866.527077,1195.52608 L865.965291,1195.74347 L865.395299,1195.95562 L864.816405,1196.16253 C864.719143,1196.19657 864.62148,1196.2304 864.523402,1196.26401 L863.929849,1196.46301 L863.325653,1196.65672 L862.710117,1196.84514 L862.082545,1197.02824 L861.442241,1197.20602 L860.788508,1197.37845 L860.120651,1197.54553 C860.008125,1197.57293 859.894982,1197.60011 859.781207,1197.62706 L859.090857,1197.78608 L858.38464,1197.93971 C858.265577,1197.96487 858.145823,1197.9898 858.025365,1198.0145 L857.294044,1198.16003 L856.545116,1198.30012 L855.38719,1198.50007 L854.591199,1198.62655 L853.775165,1198.74755 L852.93839,1198.86307 L852.080179,1198.97309 L851.199836,1199.07759 L850.296663,1199.17657 L849.369964,1199.27 L848.419044,1199.35788 L847.443205,1199.44019 L845.931202,1199.55318 L844.890021,1199.62151 L843.821485,1199.68422 L842.724897,1199.74129 L841.025895,1199.81632 L839.856131,1199.85926 L838.044101,1199.91301 L836.79681,1199.94172 L834.865224,1199.97407 L833.536052,1200 L832.172909,1200 L830.7751,1200 L68.5216187,1200 L66.4639483,1200 L65.1347764,1199.97407 L63.2031903,1199.94172 L61.9558986,1199.91301 L60.1438686,1199.85926 L58.9741048,1199.81632 L57.2751027,1199.74129 L56.1785149,1199.68422 L55.1099788,1199.62151 L54.0687981,1199.55318 L53.0542764,1199.47925 L52.0657175,1199.39973 L51.102425,1199.31464 C50.9439431,1199.29999 50.786485,1199.28511 50.630036,1199.27 L49.7033375,1199.17657 L48.8001644,1199.07759 L47.9198206,1198.97309 L47.0616096,1198.86307 L46.2248351,1198.74755 L45.4088008,1198.62655 L44.6128103,1198.50007 L43.8361673,1198.36813 C43.7083004,1198.34569 43.5812107,1198.32302 43.4548835,1198.30012 L42.7059561,1198.16003 L41.9746354,1198.0145 L41.2602249,1197.86357 L40.5620284,1197.70724 C40.4469748,1197.68074 40.3325677,1197.65401 40.2187928,1197.62706 L39.5436115,1197.46266 L38.8829034,1197.2929 C38.7739528,1197.26416 38.6655762,1197.2352 38.5577591,1197.20602 L37.917455,1197.02824 L37.2898831,1196.84514 L36.6743471,1196.65672 L36.0701507,1196.46301 L35.4765975,1196.26401 L34.8929912,1196.05973 L34.3186355,1195.8502 L33.7528339,1195.63543 L33.1948902,1195.41542 L32.644108,1195.1902 L32.099791,1194.95978 L31.5612428,1194.72416 L31.0277671,1194.48337 L30.4986675,1194.23742 L29.9732478,1193.98633 L29.4508115,1193.7301 L28.6712279,1193.33616 L28.1532038,1193.06715 L27.625166,1192.78742 C18.825166,1188.08113 11.9188745,1181.17483 7.212583,1172.37483 L6.79773744,1171.58795 L6.53133551,1171.0695 L6.14130633,1170.28862 L5.88768952,1169.76489 L5.51690285,1168.97284 L5.15772392,1168.17094 L4.92474309,1167.62971 L4.69695583,1167.08237 L4.47437596,1166.52823 L4.25701732,1165.96657 L4.04489372,1165.39672 C4.00997682,1165.30102 3.97527861,1165.20495 3.94079939,1165.1085 L3.73655431,1164.52504 L3.53757885,1163.93164 L3.34388685,1163.3276 L3.15549213,1162.71223 L2.97240852,1162.08483 C2.94233794,1161.97922 2.91248924,1161.87309 2.8828627,1161.7664 L2.70777168,1161.11966 L2.53802635,1160.45914 L2.37364053,1159.78416 L2.21462806,1159.09402 L2.06100275,1158.38803 L1.91277844,1157.66548 L1.76996896,1156.92568 L1.63258813,1156.16794 C1.61014449,1156.04012 1.58792761,1155.91152 1.56593779,1155.78213 L1.43672588,1154.99617 L1.3129772,1154.19052 L1.19470557,1153.3645 L1.08192484,1152.5174 L0.974648813,1151.64853 L0.872891334,1150.7572 L0.776666229,1149.8427 L0.685987325,1148.90434 L0.600868451,1147.94142 L0.521323437,1146.95326 L0.447366111,1145.93915 L0.346937288,1144.36781 L0.259158551,1142.73417 L0.207690267,1141.60931 L0.161878814,1140.45503 L0.121738024,1139.27062 L0.087281723,1138.0554 L0.0585237413,1136.80866 L0.0354779075,1135.52971 L0.0116496844,1133.54937 L0.000721824428,1132.18685 C0.000721824428,1131.9569 0.000721824428,1131.7255 0.000721824428,1131.49264 L0.000721824428,68.5216187 L0.0115353535,66.4639483 L0.0259337892,65.1347764 L0.0582809738,63.2031903 L0.0869919381,61.9558986 L0.140743053,60.1438686 L0.183680062,58.9741048 L0.258705381,57.2751027 L0.315781951,56.1785149 L0.37849013,55.1099788 L0.446816081,54.0687981 L0.520745966,53.0542764 L0.600265948,52.0657175 L0.685362189,51.102425 C0.700008815,50.9439431 0.714887209,50.786485 0.729997082,50.630036 L0.823431767,49.7033375 L0.922408118,48.8001644 L1.0269123,47.9198206 L1.13693047,47.0616096 L1.25244879,46.2248351 L1.37345343,45.4088008 L1.49993055,44.6128103 L1.63186631,43.8361673 C1.65430973,43.7083004 1.67698,43.5812107 1.69987686,43.4548835 L1.83997464,42.7059561 L1.98549647,41.9746354 L2.1364285,41.2602249 L2.29275691,40.5620284 C2.31926058,40.4469748 2.34598851,40.3325677 2.37294043,40.2187928 L2.53733746,39.5436115 L2.70709626,38.8829034 C2.73583544,38.7739528 2.76479745,38.6655762 2.79398201,38.5577591 L2.97175754,37.917455 L3.15486025,37.2898831 L3.34327632,36.6743471 L3.53699189,36.0701507 L3.73599314,35.4765975 L3.94026623,34.8929912 L4.14979731,34.3186355 L4.36457256,33.7528339 L4.58457813,33.1948902 L4.80980019,32.644108 L5.0402249,32.099791 L5.27583842,31.5612428 L5.51662692,31.0277671 L5.76257655,30.4986675 L6.01367348,29.9732478 L6.26990388,29.4508115 L6.66384445,28.6712279 L6.93284796,28.1532038 L7.212583,27.625166 C11.9188745,18.825166 18.825166,11.9188745 27.625166,7.212583 L28.4120506,6.79773744 L28.9305018,6.53133551 L29.7113772,6.14130633 L30.235108,5.88768952 L31.0271648,5.51690285 L31.8290622,5.15772392 L32.3702872,4.92474309 L32.9176256,4.69695583 L33.4717732,4.47437596 L34.033426,4.25701732 L34.6032799,4.04489372 C34.6989776,4.00997682 34.795046,3.97527861 34.8914997,3.94079939 L35.4749599,3.73655431 L36.068361,3.53757885 L36.6723989,3.34388685 L37.2877695,3.15549213 L37.9151686,2.97240852 C38.0207761,2.94233794 38.1269139,2.91248924 38.2335963,2.8828627 L38.8803431,2.70777168 L39.5408583,2.53802635 L40.2158377,2.37364053 L40.9059773,2.21462806 L41.611973,2.06100275 L42.3345206,1.91277844 L43.0743162,1.76996896 L43.8320556,1.63258813 C43.9598795,1.61014449 44.08848,1.58792761 44.2178717,1.56593779 L45.0038317,1.43672588 L45.8094752,1.3129772 L46.6354983,1.19470557 L47.4825967,1.08192484 L48.3514665,0.974648813 L49.2428036,0.872891334 L50.1573037,0.776666229 L51.095663,0.685987325 L52.0585771,0.600868451 L53.0467422,0.521323437 L54.0608541,0.447366111 L55.6321944,0.346937288 L57.2658295,0.259158551 L58.3906876,0.207690267 L59.5449721,0.161878814 L60.7293788,0.121738024 L61.9446037,0.087281723 L63.1913427,0.0585237413 L64.4702916,0.0354779075 L66.4506311,0.000721824428 L67.8131496,0.000721824428 C68.0431038,0.000721824428 68.2745016,0.000721824428 68.5073575,0.000721824428 L831.478381,0.000721824428 L833.536052,0.000721824428 L834.865224,0.0259337892 L836.79681,0.0582809738 L838.044101,0.0869919381 L839.856131,0.140743053 L841.025895,0.183680062 L842.724897,0.258705381 L843.821485,0.315781951 L844.890021,0.37849013 L845.931202,0.446816081 L846.945724,0.520745966 L847.934282,0.600265948 L848.897575,0.685362189 C849.056057,0.700008815 849.213515,0.714887209 849.369964,0.729997082 L850.296663,0.823431767 L851.199836,0.922408118 L852.080179,1.0269123 L852.93839,1.13693047 L853.775165,1.25244879 L854.591199,1.37345343 L855.38719,1.49993055 L856.163833,1.63186631 C856.2917,1.65430973 856.418789,1.67698 856.545116,1.69987686 L857.294044,1.83997464 L858.025365,1.98549647 L858.739775,2.1364285 L859.437972,2.29275691 C859.553025,2.31926058 859.667432,2.34598851 859.781207,2.37294043 L860.456388,2.53733746 L861.117097,2.70709626 C861.226047,2.73583544 861.334424,2.76479745 861.442241,2.79398201 L862.082545,2.97175754 L862.710117,3.15486025 L863.325653,3.34327632 L863.929849,3.53699189 L864.523402,3.73599314 L865.107009,3.94026623 L865.681365,4.14979731 L866.247166,4.36457256 L866.80511,4.58457813 L867.355892,4.80980019 L867.900209,5.0402249 L868.438757,5.27583842 L868.972233,5.51662692 L869.501332,5.76257655 L870.026752,6.01367348 L870.549188,6.26990388 L871.328772,6.66384445 C871.415194,6.70825385 871.501563,6.7528757 871.587896,6.79770971 L872.374834,7.212583 Z M870.970443,9.86356129 L870.453139,9.58948507 L869.829491,9.26712823 C869.725494,9.21418296 869.621458,9.16162682 869.517366,9.10945786 L868.892014,8.8010747 L868.26452,8.5018903 L867.634083,8.21181103 L866.999896,7.93074325 L866.361158,7.65859335 L865.717064,7.3952677 C865.609224,7.35211024 865.501128,7.30931656 865.392758,7.2668847 L864.739123,7.01661986 L864.078123,6.7749452 L863.408955,6.54176709 L862.730814,6.31699189 C862.616998,6.2802244 862.502774,6.24380313 862.388127,6.20772613 L861.69502,5.99537977 L860.990931,5.79120226 L860.275056,5.59509997 L859.546592,5.40697928 C859.424088,5.37628576 859.301025,5.34592091 859.177388,5.31588277 L858.428533,5.13955893 L857.665078,4.97098261 L856.886222,4.81006019 L856.091159,4.65669804 L855.279086,4.51080254 L854.4492,4.37228005 C854.309356,4.34980219 854.168737,4.32762763 854.027325,4.30575443 L853.169211,4.17811592 C853.024562,4.15744034 852.879087,4.13706223 852.73277,4.11697962 L851.84462,4.00001442 L850.935441,3.89004772 L850.00443,3.78698591 L849.050782,3.69073534 L848.073694,3.6012024 C847.908849,3.58683485 847.742993,3.57274329 847.57611,3.55892578 L846.562355,3.47929373 C846.391298,3.46656461 846.21918,3.45410565 846.045985,3.44191488 L844.993755,3.37197305 L843.365181,3.27892437 L842.244807,3.22466477 L841.095769,3.17651421 L839.917263,3.13437907 L838.708485,3.09816571 L837.468632,3.06778052 L835.548827,3.03292572 L834.227769,3.01670131 L832.872822,3 L830.775103,3 L68.5136811,3 L66.418419,3 L65.0656866,3.02533735 L63.7472669,3.04494621 L62.4623245,3.07028732 L61.2100241,3.10145958 L59.9895305,3.13856185 L58.8000084,3.18169302 L57.6406224,3.23095198 L56.5105372,3.28643759 L55.4089176,3.34824876 L54.3349283,3.41648434 L53.2877339,3.49124324 L52.2664991,3.57262433 L51.2703887,3.66072648 L50.2985673,3.75564859 L49.3501997,3.85748953 L48.4244505,3.96634818 L47.5204844,4.08232343 L46.6374662,4.20551415 C46.4919957,4.22665273 46.3473633,4.24809606 46.2035514,4.26984622 L45.3503888,4.40404557 C45.2097898,4.42703127 45.0699767,4.45032791 44.930932,4.47393756 L44.1057454,4.61936801 C43.9697048,4.64423792 43.8343977,4.66942496 43.6998068,4.69493118 L42.900717,4.85181521 L42.1179808,5.01645856 L41.350763,5.18896012 L40.5982283,5.36941877 L39.8595414,5.55793339 L39.1338669,5.75460285 L38.4203696,5.95952605 L37.7182141,6.17280186 L37.0265653,6.39452916 L36.3445877,6.62480684 L35.671446,6.86373378 C35.5599457,6.9042812 35.4487787,6.94519313 35.3379276,6.98647162 L34.6764737,7.23855785 C34.5668169,7.28131084 34.4574413,7.32443452 34.3483294,7.36793095 L33.6966838,7.63339895 L33.050533,7.90791172 L32.4090417,8.19156817 C32.3024683,8.2396117 32.1960543,8.28804035 32.0897822,8.33685616 L31.4537139,8.6344135 C31.34794,8.68478622 31.2422732,8.73555022 31.1366961,8.78670757 L30.5041713,9.09838829 L29.8729648,9.4196082 L29.5575948,9.58382625 L29.0399626,9.8580226 C20.9508861,14.1841081 14.580101,20.4693706 10.1681879,28.4686872 L9.86356129,29.029557 L9.58948507,29.5468606 L9.26712823,30.1705089 C9.21418296,30.2745059 9.16162682,30.3785419 9.10945786,30.4826336 L8.8010747,31.1079861 L8.5018903,31.7354795 L8.21181103,32.3659174 L7.93074325,33.0001036 L7.65859335,33.6388418 L7.3952677,34.2829358 C7.35211024,34.3907757 7.30931656,34.4988723 7.2668847,34.6072423 L7.01661986,35.2608769 L6.7749452,35.9218767 L6.54176709,36.5910453 L6.31699189,37.2691865 C6.2802244,37.3830024 6.24380313,37.4972256 6.20772613,37.6118729 L5.99537977,38.30498 L5.79120226,39.0090691 L5.59509997,39.7249438 L5.40697928,40.453408 C5.37628576,40.5759124 5.34592091,40.6989749 5.31588277,40.8226122 L5.13955893,41.5714676 L4.97098261,42.3349216 L4.81006019,43.1137782 L4.65669804,43.9088411 L4.51080254,44.720914 L4.37228005,45.5508006 C4.34980219,45.6906442 4.32762763,45.8312634 4.30575443,45.9726752 L4.17811592,46.8307894 C4.15744034,46.9754381 4.13706223,47.1209127 4.11697962,47.26723 L4.00001442,48.1553803 L3.89004772,49.0645592 L3.78698591,49.9955707 L3.69073534,50.9492183 L3.6012024,51.9263058 C3.58683485,52.0911517 3.57274329,52.2570077 3.55892578,52.4238907 L3.47929373,53.4376451 C3.46656461,53.6087026 3.45410565,53.7808205 3.44191488,53.9540156 L3.37197305,55.0062453 L3.27892437,56.634819 L3.22466477,57.755193 L3.17651421,58.9042312 L3.13437907,60.0827374 L3.09816571,61.2915153 L3.06778052,62.5313687 L3.03292572,64.4511734 L3.01670131,65.7722317 L3,67.1271787 L3,69.2248983 L3,1131.48632 L3.01136187,1133.58158 L3.02533735,1134.93431 L3.04494621,1136.25273 L3.07028732,1137.53768 L3.10145958,1138.78998 L3.13856185,1140.01047 L3.18169302,1141.19999 L3.23095198,1142.35938 L3.28643759,1143.48946 L3.34824876,1144.59108 L3.41648434,1145.66507 L3.49124324,1146.71227 L3.57262433,1147.7335 L3.66072648,1148.72961 L3.75564859,1149.70143 L3.85748953,1150.6498 L3.96634818,1151.57555 L4.08232343,1152.47952 L4.20551415,1153.36253 C4.22665273,1153.508 4.24809606,1153.65264 4.26984622,1153.79645 L4.40404557,1154.64961 C4.42703127,1154.79021 4.45032791,1154.93002 4.47393756,1155.06907 L4.61936801,1155.89425 C4.64423792,1156.0303 4.66942496,1156.1656 4.69493118,1156.30019 L4.85181521,1157.09928 L5.01645856,1157.88202 L5.18896012,1158.64924 L5.36941877,1159.40177 L5.55793339,1160.14046 L5.75460285,1160.86613 L5.95952605,1161.57963 L6.17280186,1162.28179 L6.39452916,1162.97343 L6.62480684,1163.65541 L6.86373378,1164.32855 C6.9042812,1164.44005 6.94519313,1164.55122 6.98647162,1164.66207 L7.23855785,1165.32353 C7.28131084,1165.43318 7.32443452,1165.54256 7.36793095,1165.65167 L7.63339895,1166.30332 L7.90791172,1166.94947 L8.19156817,1167.59096 C8.2396117,1167.69753 8.28804035,1167.80395 8.33685616,1167.91022 L8.6344135,1168.54629 C8.68478622,1168.65206 8.73555022,1168.75773 8.78670757,1168.8633 L9.09838829,1169.49583 L9.4196082,1170.12704 L9.58382625,1170.44241 L9.8580226,1170.96004 C14.1841081,1179.04911 20.4693706,1185.4199 28.4686872,1189.83181 L29.029557,1190.13644 L29.5468606,1190.41051 L30.1705089,1190.73287 C30.2745059,1190.78582 30.3785419,1190.83837 30.4826336,1190.89054 L31.1079861,1191.19893 L31.7354795,1191.49811 L32.3659174,1191.78819 L33.0001036,1192.06926 L33.6388418,1192.34141 L34.2829358,1192.60473 C34.3907757,1192.64789 34.4988723,1192.69068 34.6072423,1192.73312 L35.260877,1192.98338 L35.9218767,1193.22505 L36.5910453,1193.45823 L37.2691865,1193.68301 C37.3830024,1193.71978 37.4972256,1193.7562 37.611873,1193.79227 L38.3049801,1194.00462 L39.0090691,1194.2088 L39.7249439,1194.4049 L40.4534081,1194.59302 C40.5759125,1194.62371 40.6989751,1194.65408 40.8226124,1194.68412 L41.5714677,1194.86044 L42.3349218,1195.02902 L43.1137784,1195.18994 L43.9088413,1195.3433 L44.7209142,1195.4892 L45.5508009,1195.62772 C45.6906445,1195.6502 45.8312638,1195.67237 45.9726755,1195.69425 L46.8307898,1195.82188 C46.9754384,1195.84256 47.1209131,1195.86294 47.2672304,1195.88302 L48.1553807,1195.99999 L49.0645597,1196.10995 L49.9955712,1196.21301 L50.9492189,1196.30926 L51.9263064,1196.3988 C52.0911524,1196.41317 52.2570084,1196.42726 52.4238914,1196.44107 L53.4376459,1196.52071 C53.6087034,1196.53344 53.7808213,1196.54589 53.9540164,1196.55809 L55.0062462,1196.62803 L56.63482,1196.72108 L57.7551941,1196.77534 L58.9042324,1196.82349 L60.0827387,1196.86562 L61.2915167,1196.90183 L62.5313701,1196.93222 L64.451175,1196.96707 L65.7722335,1196.9833 L67.1271806,1197 L69.2249004,1197 L831.48318,1197 L832.872819,1197 L834.227765,1196.9833 L835.54882,1196.96708 L836.836788,1196.94526 L838.092471,1196.91776 L839.316673,1196.88448 L840.510197,1196.84533 L841.673845,1196.80021 L842.808421,1196.74903 L843.914728,1196.6917 L844.993569,1196.62812 L846.045746,1196.55821 L847.072063,1196.48186 C847.241005,1196.4686 847.408903,1196.45506 847.575774,1196.44125 L848.564806,1196.35508 L849.529986,1196.26225 L850.472115,1196.16266 L851.391998,1196.05621 L852.290437,1195.94282 L853.168236,1195.8224 L854.026196,1195.69484 L854.865122,1195.56006 L855.685817,1195.41796 C855.956432,1195.36936 856.224143,1195.31953 856.489082,1195.26845 L857.275722,1195.11143 C857.405488,1195.08463 857.534594,1195.05752 857.663058,1195.03008 L858.426265,1194.86164 C858.552226,1194.83292 858.677578,1194.80388 858.802337,1194.77452 L859.543918,1194.59443 L860.272085,1194.40647 L860.987642,1194.21053 L861.691391,1194.00653 L862.384135,1193.79438 C862.49872,1193.75833 862.61288,1193.72195 862.726632,1193.68521 L863.404375,1193.46065 C863.51656,1193.42252 863.628371,1193.38405 863.739823,1193.34522 L864.404371,1193.10804 L865.061127,1192.86232 C865.169982,1192.82065 865.278545,1192.77863 865.386834,1192.73624 L866.033407,1192.47755 L866.674195,1192.21011 L867.310001,1191.9338 C867.415598,1191.88701 867.521021,1191.83984 867.626287,1191.7923 L868.256125,1191.50254 L868.882989,1191.20368 L869.507681,1190.89565 L870.131005,1190.57834 L870.442405,1190.41617 L870.960037,1190.14198 C879.049114,1185.81589 885.419899,1179.53063 889.831812,1171.53131 L890.136439,1170.97044 L890.410515,1170.45314 L890.732872,1169.82949 C890.785817,1169.72549 890.838373,1169.62146 890.890542,1169.51737 L891.198925,1168.89201 L891.49811,1168.26452 L891.788189,1167.63408 L892.069257,1166.9999 L892.341407,1166.36116 L892.604732,1165.71706 C892.64789,1165.60922 892.690683,1165.50113 892.733115,1165.39276 L892.98338,1164.73912 L893.225055,1164.07812 L893.458233,1163.40895 L893.683008,1162.73081 C893.719776,1162.617 893.756197,1162.50277 893.792274,1162.38813 L894.00462,1161.69502 L894.208798,1160.99093 L894.4049,1160.27506 L894.593021,1159.54659 C894.623714,1159.42409 894.654079,1159.30102 894.684117,1159.17739 L894.860441,1158.42853 L895.029017,1157.66508 L895.18994,1156.88622 L895.343302,1156.09116 L895.489197,1155.27909 L895.62772,1154.4492 C895.650198,1154.30936 895.672372,1154.16874 895.694246,1154.02732 L895.821884,1153.16921 C895.84256,1153.02456 895.862938,1152.87909 895.88302,1152.73277 L895.999986,1151.84462 L896.109952,1150.93544 L896.213014,1150.00443 L896.309265,1149.05078 L896.398798,1148.07369 C896.413165,1147.90885 896.427257,1147.74299 896.441074,1147.57611 L896.520706,1146.56235 C896.533435,1146.3913 896.545894,1146.21918 896.558085,1146.04598 L896.628027,1144.99375 L896.721076,1143.36518 L896.775335,1142.24481 L896.823486,1141.09577 L896.865621,1139.91726 L896.901834,1138.70848 L896.932219,1137.46863 L896.967074,1135.54882 L896.983299,1134.22777 L896.99934,1132.87282 L896.99934,1131.48318 L896.99934,68.51682 L896.99934,67.127181 L896.9833,65.7722354 L896.967077,64.4511803 L896.945262,63.1632124 L896.91776,61.907529 L896.88448,60.6833269 L896.845327,59.4898032 L896.800208,58.3261548 L896.74903,57.1915787 L896.6917,56.0852719 L896.628125,55.0064314 L896.558211,53.9542543 L896.481865,52.9279374 C896.468599,52.758995 896.455062,52.5910967 896.44125,52.4242256 L896.355082,51.4351935 L896.262248,50.4700142 L896.162656,49.5278846 L896.056212,48.6080018 L895.942824,47.7095627 L895.822398,46.8317643 L895.69484,45.9738036 L895.560058,45.1348777 L895.417959,44.3141834 C895.369362,44.043568 895.31953,43.7758574 895.268448,43.5109178 L895.111433,42.7242779 C895.084633,42.5945121 895.057517,42.4654056 895.030082,42.3369416 L894.861636,41.5737346 C894.83292,41.4477739 894.803881,41.3224223 894.774517,41.197663 L894.59443,40.4560821 L894.406466,39.7279148 L894.210532,39.0123581 L894.006533,38.308609 L893.794378,37.6158645 C893.758334,37.5012796 893.721946,37.3871196 893.685213,37.2733681 L893.460647,36.5956249 C893.422523,36.4834397 893.384049,36.3716295 893.345224,36.2601774 L893.108039,35.5956286 L892.862323,34.9388725 C892.820655,34.8300179 892.778627,34.7214546 892.736238,34.6131657 L892.477553,33.9665928 L892.210105,33.3258049 L891.933801,32.689999 C891.887007,32.5844019 891.83984,32.4789789 891.792299,32.3737134 L891.502536,31.7438749 L891.203683,31.117011 L890.895648,30.4923185 L890.578337,29.8689945 L890.416174,29.5575948 L890.141977,29.0399626 C885.815892,20.9508861 879.530629,14.580101 871.531313,10.1681879 L870.970443,9.86356129 Z"/>
    <path fill="#A6A6A6" fill-rule="nonzero" d="M872.374834,7.212583 C881.174834,11.9188745 888.081125,18.825166 892.787417,27.625166 L893.20229,28.412104 L893.60006,29.1904946 L893.986327,29.9732478 L894.361043,30.7627138 L894.604413,31.2939144 L894.842616,31.8298393 L895.075637,32.3711848 L895.303462,32.9186474 L895.526078,33.4729233 L895.74347,34.0347089 L895.955625,34.6047006 L896.162528,35.1835945 C896.196574,35.2808574 896.2304,35.3785203 896.264007,35.4765975 L896.463008,36.0701507 L896.656724,36.6743471 L896.84514,37.2898831 L897.028242,37.917455 L897.206018,38.5577591 L897.378452,39.2114918 L897.545532,39.8793495 C897.572932,39.9918748 897.600108,40.1050178 897.62706,40.2187928 L897.786081,40.9091434 L897.939713,41.6153599 C897.964868,41.7344235 897.989799,41.8541771 898.014504,41.9746354 L898.160025,42.7059561 L898.300123,43.4548835 L898.500069,44.6128103 L898.626547,45.4088008 L898.747551,46.2248351 L898.86307,47.0616096 L898.973088,47.9198206 L899.077592,48.8001644 L899.176568,49.7033375 L899.270003,50.630036 L899.357882,51.5809565 L899.440192,52.5567952 L899.553184,54.0687981 L899.62151,55.1099788 L899.684218,56.1785149 L899.741295,57.2751027 L899.81632,58.9741048 L899.859257,60.1438686 L899.913008,61.9558986 L899.941719,63.2031903 L899.974066,65.1347764 L899.988465,66.4639483 L900,67.8270909 L900,69.2249004 L900,1131.47838 L899.988465,1133.53605 L899.974066,1134.86522 L899.941719,1136.79681 L899.913008,1138.0441 L899.859257,1139.85613 L899.81632,1141.0259 L899.741295,1142.7249 L899.684218,1143.82149 L899.62151,1144.89002 L899.553184,1145.9312 L899.479254,1146.94572 L899.399734,1147.93428 L899.314638,1148.89757 C899.299991,1149.05606 899.285113,1149.21352 899.270003,1149.36996 L899.176568,1150.29666 L899.077592,1151.19984 L898.973088,1152.08018 L898.86307,1152.93839 L898.747551,1153.77516 L898.626547,1154.5912 L898.500069,1155.38719 L898.368134,1156.16383 C898.34569,1156.2917 898.32302,1156.41879 898.300123,1156.54512 L898.160025,1157.29404 L898.014504,1158.02536 L897.863571,1158.73978 L897.707243,1159.43797 C897.680739,1159.55303 897.654011,1159.66743 897.62706,1159.78121 L897.462663,1160.45639 L897.292904,1161.1171 C897.264165,1161.22605 897.235203,1161.33442 897.206018,1161.44224 L897.028242,1162.08255 L896.84514,1162.71012 L896.656724,1163.32565 L896.463008,1163.92985 L896.264007,1164.5234 L896.059734,1165.10701 L895.850203,1165.68136 L895.635427,1166.24717 L895.415422,1166.80511 L895.1902,1167.35589 L894.959775,1167.90021 L894.724162,1168.43876 L894.483373,1168.97223 L894.237423,1169.50133 L893.986327,1170.02675 L893.730096,1170.54919 L893.336156,1171.32877 L893.067152,1171.8468 L892.787417,1172.37483 C888.081125,1181.17483 881.174834,1188.08113 872.374834,1192.78742 L871.587896,1193.20229 L870.809505,1193.60006 L870.026752,1193.98633 L869.237286,1194.36104 L868.706086,1194.60441 L868.170161,1194.84262 L867.628815,1195.07564 L867.081353,1195.30346 L866.527077,1195.52608 L865.965291,1195.74347 L865.395299,1195.95562 L864.816405,1196.16253 C864.719143,1196.19657 864.62148,1196.2304 864.523402,1196.26401 L863.929849,1196.46301 L863.325653,1196.65672 L862.710117,1196.84514 L862.082545,1197.02824 L861.442241,1197.20602 L860.788508,1197.37845 L860.120651,1197.54553 C860.008125,1197.57293 859.894982,1197.60011 859.781207,1197.62706 L859.090857,1197.78608 L858.38464,1197.93971 C858.265577,1197.96487 858.145823,1197.9898 858.025365,1198.0145 L857.294044,1198.16003 L856.545116,1198.30012 L855.38719,1198.50007 L854.591199,1198.62655 L853.775165,1198.74755 L852.93839,1198.86307 L852.080179,1198.97309 L851.199836,1199.07759 L850.296663,1199.17657 L849.369964,1199.27 L848.419044,1199.35788 L847.443205,1199.44019 L845.931202,1199.55318 L844.890021,1199.62151 L843.821485,1199.68422 L842.724897,1199.74129 L841.025895,1199.81632 L839.856131,1199.85926 L838.044101,1199.91301 L836.79681,1199.94172 L834.865224,1199.97407 L833.536052,1200 L832.172909,1200 L830.7751,1200 L68.5216187,1200 L66.4639483,1200 L65.1347764,1199.97407 L63.2031903,1199.94172 L61.9558986,1199.91301 L60.1438686,1199.85926 L58.9741048,1199.81632 L57.2751027,1199.74129 L56.1785149,1199.68422 L55.1099788,1199.62151 L54.0687981,1199.55318 L53.0542764,1199.47925 L52.0657175,1199.39973 L51.102425,1199.31464 C50.9439431,1199.29999 50.786485,1199.28511 50.630036,1199.27 L49.7033375,1199.17657 L48.8001644,1199.07759 L47.9198206,1198.97309 L47.0616096,1198.86307 L46.2248351,1198.74755 L45.4088008,1198.62655 L44.6128103,1198.50007 L43.8361673,1198.36813 C43.7083004,1198.34569 43.5812107,1198.32302 43.4548835,1198.30012 L42.7059561,1198.16003 L41.9746354,1198.0145 L41.2602249,1197.86357 L40.5620284,1197.70724 C40.4469748,1197.68074 40.3325677,1197.65401 40.2187928,1197.62706 L39.5436115,1197.46266 L38.8829034,1197.2929 C38.7739528,1197.26416 38.6655762,1197.2352 38.5577591,1197.20602 L37.917455,1197.02824 L37.2898831,1196.84514 L36.6743471,1196.65672 L36.0701507,1196.46301 L35.4765975,1196.26401 L34.8929912,1196.05973 L34.3186355,1195.8502 L33.7528339,1195.63543 L33.1948902,1195.41542 L32.644108,1195.1902 L32.099791,1194.95978 L31.5612428,1194.72416 L31.0277671,1194.48337 L30.4986675,1194.23742 L29.9732478,1193.98633 L29.4508115,1193.7301 L28.6712279,1193.33616 L28.1532038,1193.06715 L27.625166,1192.78742 C18.825166,1188.08113 11.9188745,1181.17483 7.212583,1172.37483 L6.79773744,1171.58795 L6.53133551,1171.0695 L6.14130633,1170.28862 L5.88768952,1169.76489 L5.51690285,1168.97284 L5.15772392,1168.17094 L4.92474309,1167.62971 L4.69695583,1167.08237 L4.47437596,1166.52823 L4.25701732,1165.96657 L4.04489372,1165.39672 C4.00997682,1165.30102 3.97527861,1165.20495 3.94079939,1165.1085 L3.73655431,1164.52504 L3.53757885,1163.93164 L3.34388685,1163.3276 L3.15549213,1162.71223 L2.97240852,1162.08483 C2.94233794,1161.97922 2.91248924,1161.87309 2.8828627,1161.7664 L2.70777168,1161.11966 L2.53802635,1160.45914 L2.37364053,1159.78416 L2.21462806,1159.09402 L2.06100275,1158.38803 L1.91277844,1157.66548 L1.76996896,1156.92568 L1.63258813,1156.16794 C1.61014449,1156.04012 1.58792761,1155.91152 1.56593779,1155.78213 L1.43672588,1154.99617 L1.3129772,1154.19052 L1.19470557,1153.3645 L1.08192484,1152.5174 L0.974648813,1151.64853 L0.872891334,1150.7572 L0.776666229,1149.8427 L0.685987325,1148.90434 L0.600868451,1147.94142 L0.521323437,1146.95326 L0.447366111,1145.93915 L0.346937288,1144.36781 L0.259158551,1142.73417 L0.207690267,1141.60931 L0.161878814,1140.45503 L0.121738024,1139.27062 L0.087281723,1138.0554 L0.0585237413,1136.80866 L0.0354779075,1135.52971 L0.0116496844,1133.54937 L0.000721824428,1132.18685 C0.000721824428,1131.9569 0.000721824428,1131.7255 0.000721824428,1131.49264 L0.000721824428,68.5216187 L0.0115353535,66.4639483 L0.0259337892,65.1347764 L0.0582809738,63.2031903 L0.0869919381,61.9558986 L0.140743053,60.1438686 L0.183680062,58.9741048 L0.258705381,57.2751027 L0.315781951,56.1785149 L0.37849013,55.1099788 L0.446816081,54.0687981 L0.520745966,53.0542764 L0.600265948,52.0657175 L0.685362189,51.102425 C0.700008815,50.9439431 0.714887209,50.786485 0.729997082,50.630036 L0.823431767,49.7033375 L0.922408118,48.8001644 L1.0269123,47.9198206 L1.13693047,47.0616096 L1.25244879,46.2248351 L1.37345343,45.4088008 L1.49993055,44.6128103 L1.63186631,43.8361673 C1.65430973,43.7083004 1.67698,43.5812107 1.69987686,43.4548835 L1.83997464,42.7059561 L1.98549647,41.9746354 L2.1364285,41.2602249 L2.29275691,40.5620284 C2.31926058,40.4469748 2.34598851,40.3325677 2.37294043,40.2187928 L2.53733746,39.5436115 L2.70709626,38.8829034 C2.73583544,38.7739528 2.76479745,38.6655762 2.79398201,38.5577591 L2.97175754,37.917455 L3.15486025,37.2898831 L3.34327632,36.6743471 L3.53699189,36.0701507 L3.73599314,35.4765975 L3.94026623,34.8929912 L4.14979731,34.3186355 L4.36457256,33.7528339 L4.58457813,33.1948902 L4.80980019,32.644108 L5.0402249,32.099791 L5.27583842,31.5612428 L5.51662692,31.0277671 L5.76257655,30.4986675 L6.01367348,29.9732478 L6.26990388,29.4508115 L6.66384445,28.6712279 L6.93284796,28.1532038 L7.212583,27.625166 C11.9188745,18.825166 18.825166,11.9188745 27.625166,7.212583 L28.4120506,6.79773744 L28.9305018,6.53133551 L29.7113772,6.14130633 L30.235108,5.88768952 L31.0271648,5.51690285 L31.8290622,5.15772392 L32.3702872,4.92474309 L32.9176256,4.69695583 L33.4717732,4.47437596 L34.033426,4.25701732 L34.6032799,4.04489372 C34.6989776,4.00997682 34.795046,3.97527861 34.8914997,3.94079939 L35.4749599,3.73655431 L36.068361,3.53757885 L36.6723989,3.34388685 L37.2877695,3.15549213 L37.9151686,2.97240852 C38.0207761,2.94233794 38.1269139,2.91248924 38.2335963,2.8828627 L38.8803431,2.70777168 L39.5408583,2.53802635 L40.2158377,2.37364053 L40.9059773,2.21462806 L41.611973,2.06100275 L42.3345206,1.91277844 L43.0743162,1.76996896 L43.8320556,1.63258813 C43.9598795,1.61014449 44.08848,1.58792761 44.2178717,1.56593779 L45.0038317,1.43672588 L45.8094752,1.3129772 L46.6354983,1.19470557 L47.4825967,1.08192484 L48.3514665,0.974648813 L49.2428036,0.872891334 L50.1573037,0.776666229 L51.095663,0.685987325 L52.0585771,0.600868451 L53.0467422,0.521323437 L54.0608541,0.447366111 L55.6321944,0.346937288 L57.2658295,0.259158551 L58.3906876,0.207690267 L59.5449721,0.161878814 L60.7293788,0.121738024 L61.9446037,0.087281723 L63.1913427,0.0585237413 L64.4702916,0.0354779075 L66.4506311,0.000721824428 L67.8131496,0.000721824428 C68.0431038,0.000721824428 68.2745016,0.000721824428 68.5073575,0.000721824428 L831.478381,0.000721824428 L833.536052,0.000721824428 L834.865224,0.0259337892 L836.79681,0.0582809738 L838.044101,0.0869919381 L839.856131,0.140743053 L841.025895,0.183680062 L842.724897,0.258705381 L843.821485,0.315781951 L844.890021,0.37849013 L845.931202,0.446816081 L846.945724,0.520745966 L847.934282,0.600265948 L848.897575,0.685362189 C849.056057,0.700008815 849.213515,0.714887209 849.369964,0.729997082 L850.296663,0.823431767 L851.199836,0.922408118 L852.080179,1.0269123 L852.93839,1.13693047 L853.775165,1.25244879 L854.591199,1.37345343 L855.38719,1.49993055 L856.163833,1.63186631 C856.2917,1.65430973 856.418789,1.67698 856.545116,1.69987686 L857.294044,1.83997464 L858.025365,1.98549647 L858.739775,2.1364285 L859.437972,2.29275691 C859.553025,2.31926058 859.667432,2.34598851 859.781207,2.37294043 L860.456388,2.53733746 L861.117097,2.70709626 C861.226047,2.73583544 861.334424,2.76479745 861.442241,2.79398201 L862.082545,2.97175754 L862.710117,3.15486025 L863.325653,3.34327632 L863.929849,3.53699189 L864.523402,3.73599314 L865.107009,3.94026623 L865.681365,4.14979731 L866.247166,4.36457256 L866.80511,4.58457813 L867.355892,4.80980019 L867.900209,5.0402249 L868.438757,5.27583842 L868.972233,5.51662692 L869.501332,5.76257655 L870.026752,6.01367348 L870.549188,6.26990388 L871.328772,6.66384445 C871.415194,6.70825385 871.501563,6.7528757 871.587896,6.79770971 L872.374834,7.212583 Z M871.906704,8.09624243 L871.382244,7.81839367 L870.73655,7.48462724 L870.089987,7.16054365 L869.441751,6.84604536 L868.791037,6.54103481 L868.137041,6.24541445 L867.478958,5.95908673 C867.368892,5.91213441 867.258622,5.86556522 867.148132,5.81937712 L866.482409,5.54680546 C866.370969,5.50213362 866.259275,5.45783881 866.14731,5.41391901 L865.472137,5.15488391 L864.789658,4.90475125 C864.560858,4.8228466 864.330707,4.74240942 864.099069,4.66342348 L863.399565,4.43080304 L862.69034,4.2067924 C862.571282,4.17016935 862.451785,4.13390098 862.331832,4.09798526 L861.606519,3.88670639 L860.869475,3.68379343 C860.745612,3.65066634 860.621227,3.61788377 860.496303,3.58544368 L859.740153,3.39489668 L858.97026,3.21247172 L858.185819,3.03807124 C857.921825,2.98126432 857.655272,2.92577856 857.386026,2.8715977 L856.570076,2.71295354 L855.737164,2.56204121 L854.886486,2.41876317 C854.743181,2.39551427 854.599102,2.37257939 854.454233,2.34995652 L853.575397,2.217947 L852.676782,2.09332788 C852.52532,2.07316847 852.373001,2.05331294 852.219807,2.03375924 L851.290017,1.92004283 C851.133258,1.90168835 850.975592,1.88363164 850.817001,1.86587067 L849.854225,1.76283747 L848.868452,1.66680448 L847.858878,1.57767414 L846.824698,1.49534891 L845.765107,1.41973124 L844.679301,1.35072356 L843.566476,1.28822834 L842.425825,1.23214803 L841.256546,1.18238506 L840.057833,1.1388419 L838.202814,1.0849759 L836.926996,1.05655546 L834.952548,1.02491627 L832.902821,1 L830.775101,1 L68.5094654,1 L66.383607,1 L64.3367611,1.03540155 L63.0146986,1.05856944 L61.7256612,1.08771789 L60.4688124,1.12295005 L59.2433154,1.16436912 L58.0483337,1.21207826 L56.8830307,1.26618066 L55.7465697,1.32677948 L54.6381142,1.39397791 L53.5568276,1.46787913 L52.5018732,1.54858631 L51.4724144,1.63620262 L50.4676146,1.73083125 L49.4866372,1.83257537 L48.5286456,1.94153816 L47.5928031,2.05782279 L46.6782733,2.18153245 L45.7842194,2.3127703 L44.9098048,2.45163953 C44.7656592,2.47542608 44.622297,2.49953491 44.4797008,2.52396816 L43.6331766,2.6744779 C43.353973,2.72595698 43.077694,2.77875093 42.8042003,2.83287697 L41.9919351,2.99926853 L41.1955445,3.17375577 L40.414192,3.35644185 C40.2851732,3.3875785 40.1567462,3.41906107 40.0288935,3.4508917 L39.2685292,3.64606951 C39.142904,3.67930101 39.0178181,3.71288488 38.8932543,3.74682326 L38.151996,3.95472495 C38.0294505,3.99009 37.9073921,4.02581386 37.7858035,4.06189868 L37.0617688,4.28275639 L36.3481707,4.51238043 L35.6441727,4.75087396 L34.948938,4.99834016 L34.2616301,5.25488222 L33.5814125,5.52060331 C33.4685872,5.5656608 33.3560226,5.61110506 33.243701,5.65693823 L32.57255,5.93662131 C32.4611313,5.98401871 32.3499208,6.03180931 32.2389012,6.07999527 L31.5749344,6.3738725 L30.9147114,6.67734147 C30.8049397,6.72872467 30.6952892,6.78051183 30.5857423,6.8327051 L29.9295663,7.15075512 L29.2750424,7.47865483 L28.6213341,7.81650739 L28.0967649,8.0943962 C19.6627163,12.6049748 13.0090095,19.1714933 8.4068442,27.5212357 L8.09624243,28.0932963 L7.81839367,28.6177561 L7.48462724,29.2634502 L7.16054365,29.9100129 L6.84604536,30.5582488 L6.54103481,31.2089626 L6.24541445,31.8629589 L5.95908673,32.5210424 C5.91213441,32.6311083 5.86556522,32.741378 5.81937712,32.8518683 L5.54680546,33.5175914 C5.50213362,33.6290311 5.45783881,33.7407249 5.41391901,33.8526897 L5.15488391,34.5278627 L4.90475125,35.2103415 C4.8228466,35.4391415 4.74240942,35.6692933 4.66342348,35.9009309 L4.43080304,36.6004353 L4.2067924,37.3096595 C4.17016935,37.4287182 4.13390098,37.5482155 4.09798526,37.668168 L3.88670639,38.3934806 L3.68379343,39.1305247 C3.65066634,39.2543877 3.61788377,39.378773 3.58544368,39.5036975 L3.39489668,40.2598474 L3.21247172,41.0297403 L3.03807124,41.814181 C2.98126432,42.0781753 2.92577856,42.3447283 2.8715977,42.6139741 L2.71295354,43.4299242 L2.56204121,44.262836 L2.41876317,45.1135141 C2.39551427,45.2568191 2.37257939,45.4008978 2.34995652,45.545767 L2.217947,46.4246034 L2.09332788,47.3232178 C2.07316847,47.4746797 2.05331294,47.6269992 2.03375924,47.7801931 L1.92004283,48.7099832 C1.90168835,48.8667417 1.88363164,49.024408 1.86587067,49.1829991 L1.76283747,50.1457753 L1.66680448,51.1315481 L1.57767414,52.1411223 L1.49534891,53.1753023 L1.41973124,54.2348929 L1.35072356,55.3206987 L1.28822834,56.4335244 L1.23214803,57.5741747 L1.18238506,58.7434542 L1.1388419,59.9421675 L1.0849759,61.7971861 L1.05655546,63.0730044 L1.02491627,65.0474524 L1,67.0971789 L1,69.2248997 L1,1131.49053 L1.01163752,1133.61639 L1.03540155,1135.66324 L1.05856944,1136.9853 L1.08771789,1138.27434 L1.12295005,1139.53119 L1.16436912,1140.75668 L1.21207826,1141.95167 L1.26618066,1143.11697 L1.32677948,1144.25343 L1.39397791,1145.36189 L1.46787913,1146.44317 L1.54858631,1147.49813 L1.63620262,1148.52759 L1.73083125,1149.53239 L1.83257537,1150.51336 L1.94153816,1151.47135 L2.05782279,1152.4072 L2.18153245,1153.32173 L2.3127703,1154.21578 L2.45163953,1155.0902 C2.47542608,1155.23434 2.49953491,1155.3777 2.52396816,1155.5203 L2.6744779,1156.36682 C2.72595698,1156.64603 2.77875093,1156.92231 2.83287697,1157.1958 L2.99926853,1158.00806 L3.17375577,1158.80446 L3.35644185,1159.58581 C3.3875785,1159.71483 3.41906107,1159.84325 3.4508917,1159.97111 L3.64606951,1160.73147 C3.67930101,1160.8571 3.71288488,1160.98218 3.74682326,1161.10675 L3.95472495,1161.848 C3.99009,1161.97055 4.02581386,1162.09261 4.06189868,1162.2142 L4.28275639,1162.93823 L4.51238043,1163.65183 L4.75087396,1164.35583 L4.99834016,1165.05106 L5.25488222,1165.73837 L5.52060331,1166.41859 C5.5656608,1166.53141 5.61110506,1166.64398 5.65693823,1166.7563 L5.93662131,1167.42745 C5.98401871,1167.53887 6.03180931,1167.65008 6.07999527,1167.7611 L6.3738725,1168.42507 L6.67734147,1169.08529 C6.72872467,1169.19506 6.78051183,1169.30471 6.8327051,1169.41426 L7.15075512,1170.07043 L7.47865483,1170.72496 L7.81650739,1171.37867 L8.0943962,1171.90324 C12.6049748,1180.33728 19.1714933,1186.99099 27.5212357,1191.59316 L28.0932963,1191.90376 L28.6177561,1192.18161 L29.2634502,1192.51537 L29.9100129,1192.83946 L30.5582488,1193.15395 L31.2089626,1193.45897 L31.8629589,1193.75459 L32.5210424,1194.04091 C32.6311083,1194.08787 32.741378,1194.13443 32.8518683,1194.18062 L33.5175914,1194.45319 C33.6290311,1194.49787 33.7407249,1194.54216 33.8526897,1194.58608 L34.5278627,1194.84512 L35.2103415,1195.09525 C35.4391415,1195.17715 35.6692933,1195.25759 35.9009309,1195.33658 L36.6004353,1195.5692 L37.3096595,1195.79321 C37.4287183,1195.82983 37.5482155,1195.8661 37.668168,1195.90201 L38.3934807,1196.11329 L39.1305247,1196.31621 C39.2543877,1196.34933 39.378773,1196.38212 39.5036975,1196.41456 L40.2598474,1196.6051 L41.0297404,1196.78753 L41.8141811,1196.96193 C42.0781754,1197.01874 42.3447284,1197.07422 42.6139742,1197.1284 L43.4299243,1197.28705 L44.2628361,1197.43796 L45.1135142,1197.58124 C45.2568192,1197.60449 45.4008979,1197.62742 45.5457671,1197.65004 L46.4246035,1197.78205 L47.3232179,1197.90667 C47.4746798,1197.92683 47.6269994,1197.94669 47.7801933,1197.96624 L48.7099834,1198.07996 C48.8667418,1198.09831 49.0244082,1198.11637 49.1829992,1198.13413 L50.1457755,1198.23716 L51.1315484,1198.3332 L52.1411225,1198.42233 L53.1753025,1198.50465 L54.2348932,1198.58027 L55.320699,1198.64928 L56.4335248,1198.71177 L57.5741751,1198.76785 L58.7434546,1198.81761 L59.9421679,1198.86116 L61.7971866,1198.91502 L63.0730049,1198.94344 L65.047453,1198.97508 L67.0971795,1199 L69.2249004,1199 L831.493174,1199 L833.594594,1199 L834.952546,1198.97508 L836.27704,1198.95545 L838.202807,1198.91503 L840.057818,1198.86117 L841.256525,1198.81763 L842.425795,1198.76787 L843.566435,1198.71179 L844.679247,1198.6493 L845.765037,1198.58031 L846.824608,1198.5047 L847.858766,1198.42238 L848.868315,1198.33327 L849.854058,1198.23725 L850.816801,1198.13423 L851.757348,1198.02412 L852.676504,1197.90682 L853.575072,1197.78222 L854.453857,1197.65024 C854.598717,1197.62762 854.742787,1197.60469 854.886082,1197.58145 L855.736701,1197.4382 L856.569549,1197.28732 L857.385429,1197.12872 L858.185146,1196.96228 C858.31713,1196.93389 858.448474,1196.90516 858.579194,1196.8761 L859.356175,1196.69775 L860.119004,1196.51132 C860.245007,1196.47957 860.370455,1196.44748 860.495363,1196.41505 L861.238472,1196.21634 L861.96944,1196.00931 L862.689071,1195.79388 L863.398171,1195.56993 C863.632871,1195.49385 863.865951,1195.41634 864.097543,1195.33738 L864.787991,1195.09613 C865.016743,1195.01425 865.244141,1194.9309 865.470321,1194.84607 L866.145336,1194.58712 L866.813841,1194.31917 L867.47664,1194.04213 C867.586676,1193.9952 867.696508,1193.94788 867.806152,1193.90017 L868.461901,1193.60931 L869.113956,1193.30912 L869.76312,1192.99948 L870.410199,1192.68032 C870.517916,1192.62633 870.62558,1192.57193 870.733208,1192.51713 L871.378666,1192.18349 L871.903235,1191.9056 C880.337284,1187.39503 886.99099,1180.82851 891.593156,1172.47876 L891.903758,1171.9067 L892.181606,1171.38224 L892.515373,1170.73655 L892.839456,1170.08999 L893.153955,1169.44175 L893.458965,1168.79104 L893.754586,1168.13704 L894.040913,1167.47896 C894.087866,1167.36889 894.134435,1167.25862 894.180623,1167.14813 L894.453195,1166.48241 C894.497866,1166.37097 894.542161,1166.25928 894.586081,1166.14731 L894.845116,1165.47214 L895.095249,1164.78966 C895.177153,1164.56086 895.257591,1164.33071 895.336577,1164.09907 L895.569197,1163.39956 L895.793208,1162.69034 C895.829831,1162.57128 895.866099,1162.45178 895.902015,1162.33183 L896.113294,1161.60652 L896.316207,1160.86948 C896.349334,1160.74561 896.382116,1160.62123 896.414556,1160.4963 L896.605103,1159.74015 L896.787528,1158.97026 L896.961929,1158.18582 C897.018736,1157.92182 897.074221,1157.65527 897.128402,1157.38603 L897.287046,1156.57008 L897.437959,1155.73716 L897.581237,1154.88649 C897.604486,1154.74318 897.627421,1154.5991 897.650043,1154.45423 L897.782053,1153.5754 L897.906672,1152.67678 C897.926832,1152.52532 897.946687,1152.373 897.966241,1152.21981 L898.079957,1151.29002 C898.098312,1151.13326 898.116368,1150.97559 898.134129,1150.817 L898.237163,1149.85422 L898.333196,1148.86845 L898.422326,1147.85888 L898.504651,1146.8247 L898.580269,1145.76511 L898.649276,1144.6793 L898.711772,1143.56648 L898.767852,1142.42582 L898.817615,1141.25655 L898.861158,1140.05783 L898.915024,1138.20281 L898.943445,1136.927 L898.975084,1134.95255 L898.999318,1132.90282 L898.999318,1131.49317 L898.999318,68.5068265 L898.988991,66.4054058 L898.975084,65.0474541 L898.955446,63.7229602 L898.915028,61.7971933 L898.861165,59.9421818 L898.817626,58.7434753 L898.767868,57.5742047 L898.711793,56.4335654 L898.649305,55.3207531 L898.580306,54.2349633 L898.504698,53.1753917 L898.422385,52.1412339 L898.333268,51.1316854 L898.23725,50.1459418 L898.134234,49.1831987 L898.024123,48.2426517 L897.906819,47.3234964 L897.782224,46.4249284 L897.650242,45.5461432 C897.627624,45.4012829 897.604694,45.2572133 897.58145,45.1139178 L897.438203,44.2632986 L897.287324,43.4304512 L897.128717,42.6145713 L896.962284,41.8148544 C896.933887,41.6828704 896.905161,41.5515265 896.876102,41.4208056 L896.697746,40.6438249 L896.511321,39.8809962 C896.479572,39.7549927 896.447483,39.6295454 896.415052,39.5046374 L896.216339,38.7615284 L896.009313,38.0305602 L895.793877,37.3109287 L895.569932,36.6018292 C895.493855,36.3671286 895.416343,36.1340494 895.337381,35.9024574 L895.096128,35.2120089 C895.014249,34.9832572 894.930903,34.7558587 894.846074,34.5296793 L894.587122,33.8546641 L894.319175,33.186159 L894.042135,32.5233596 C893.995198,32.4133238 893.947879,32.3034922 893.900175,32.1938481 L893.609313,31.5380988 L893.309115,30.8860441 L892.999483,30.2368797 L892.680321,29.589801 C892.626327,29.4820836 892.571933,29.3744197 892.517135,29.2667924 L892.183493,28.6213341 L891.905604,28.0967649 C887.395025,19.6627163 880.828507,13.0090095 872.478764,8.4068442 L871.906704,8.09624243 Z"/>
    <path fill="url(#tablet-vertical-a)" fill-rule="nonzero" d="M69.2249004,-2.79676883e-15 L830.7751,2.79676883e-15 C854.846106,-1.62500323e-15 863.574834,2.5062915 872.374834,7.212583 C881.174834,11.9188745 888.081125,18.825166 892.787417,27.625166 C897.493708,36.425166 900,45.1538944 900,69.2249004 L900,1130.7751 C900,1154.84611 897.493708,1163.57483 892.787417,1172.37483 C888.081125,1181.17483 881.174834,1188.08113 872.374834,1192.78742 C863.574834,1197.49371 854.846106,1200 830.7751,1200 L69.2249004,1200 C45.1538944,1200 36.425166,1197.49371 27.625166,1192.78742 C18.825166,1188.08113 11.9188745,1181.17483 7.212583,1172.37483 C2.5062915,1163.57483 1.08333549e-15,1154.84611 -1.86451255e-15,1130.7751 L1.86451255e-15,69.2249004 C-1.08333549e-15,45.1538944 2.5062915,36.425166 7.212583,27.625166 C11.9188745,18.825166 18.825166,11.9188745 27.625166,7.212583 C36.425166,2.5062915 45.1538944,1.62500323e-15 69.2249004,-2.79676883e-15 Z" opacity=".25"/>
  </g>
</svg>
