<svg xmlns="http://www.w3.org/2000/svg" viewBox="0 0 1000 755"><path fill="#132e3f" d="M773.029 717.012v10.65h-1.124c0-.57-.553-1.123-.553-1.123-.527-.527-1.039-.568-1.55-.57l-21.427-.001v6.726h12.897c1.107 0 1.678 0 1.678-.554.553 0 .553-.57 1.123-1.123h.554v9.526h-.554c-.57-.57-.57-1.124-1.123-1.677h-14.575v7.278h23.53c.571-.57.571-.57 1.124-1.694h.553v10.65h-.553c-.553-.553-.553-1.124-1.124-1.677h-33.61V752.3c1.124 0 1.695-.553 1.695-.553.507-.523.549-1.031.553-1.539v-27.593c0-1.124 0-1.677-.553-1.677 0-.57-.57-.57-1.695-1.124v-.553h31.38c.553 0 1.106-.57 1.677-.57 0 0 .553-.554.553-1.678h1.124zm-92.427 0v10.65h-1.124c0-.57-.553-1.123-.553-1.123-.527-.527-1.039-.568-1.55-.57l-20.857-.001v6.726h12.88c.57 0 1.124 0 1.124-.554.553 0 .553-.57 1.124-1.123h1.124v9.526h-1.124c-.57-.57-.57-1.124-1.124-1.677h-14.004v7.278h22.96c.57-.57.57-.57 1.124-1.694h1.123v10.65h-1.123c-.554-.553-.554-1.124-1.124-1.677h-33.61V752.3c1.124 0 1.677-.553 1.677-.553.527-.526.567-1.038.57-1.55v-27.582c0-1.124 0-1.677-.57-1.677 0-.57-.553-.57-1.677-1.124v-.553h31.38c1.106 0 1.677-.57 1.677-.57s.553-.554.553-1.678h1.124zm-368.586 2.248v.553c-.553.554-1.124.554-1.677 1.124v25.207h22.407c.553-.57.553-1.123 1.106-1.694h.57v10.65h-.57c-.553-.553-.553-1.124-1.106-1.677H300.26V752.3c.553 0 1.106-.553 1.106-.553.527-.526.567-1.038.57-1.55v-27.582c0-1.124 0-1.677-.57-1.677 0-.57-.553-.57-1.106-1.124v-.553h11.756zm-235.84-1.124c6.172 0 11.203 1.677 14.574 5.031 3.925 3.372 6.155 7.85 6.155 12.898 0 5.031-2.23 9.509-6.155 12.88-3.924 3.354-8.402 5.031-14.575 5.031-5.584 0-10.632-1.677-14.557-5.03-3.354-3.372-5.602-7.85-5.602-12.881 0-5.048 2.248-9.526 5.602-12.898 3.925-3.354 8.973-5.03 14.557-5.03zm193.828 0c6.154 0 11.203 1.677 14.557 5.031 3.371 3.372 5.602 7.85 5.602 12.898 0 5.031-2.23 9.509-5.602 12.88-3.354 3.354-8.403 5.031-14.557 5.031h-.57c-5.603 0-10.08-1.677-14.005-5.03-3.907-3.372-5.584-7.85-5.584-12.881 0-5.048 1.677-9.526 5.584-12.898 3.371-3.354 8.402-5.03 14.004-5.03h.57zm654.823 0c5.602 0 10.65 1.677 14.575 5.031 3.924 3.372 5.601 7.85 5.601 12.898 0 5.031-1.677 9.509-5.601 12.88-3.925 3.354-8.973 5.031-14.575 5.031-6.155 0-10.633-1.677-14.557-5.03-3.925-3.372-5.602-7.85-5.602-12.881 0-5.048 1.677-9.526 5.602-12.898 3.924-3.354 8.402-5.03 14.557-5.03zm-897.372-7.279c3.907 0 7.832.554 11.756 1.678a291.84 291.84 0 006.155 1.677h2.248l.57.553-5.601 9.526-1.124-.553v-.57c0-1.107-1.124-2.231-4.495-3.355-2.801-1.677-6.155-2.247-9.51-2.247-4.494 0-8.42 1.694-11.773 3.924-2.801 2.801-4.478 6.172-4.478 10.65 0 3.925 1.677 7.279 4.478 10.08 3.354 2.8 7.279 3.924 11.774 3.924 3.907 0 7.279-.57 10.632-2.247 3.372-1.677 5.049-2.801 5.049-3.354v-1.677l.553-.57 6.173 8.972-1.124.554c-.553 0-.553-.554-.553-.554h-.57c-.554 0-1.124.554-2.801 1.107-6.155 3.925-12.327 5.602-17.93 5.602-7.278 0-12.88-2.23-17.357-6.155-4.478-3.925-7.279-9.527-7.279-15.682 0-6.172 2.8-11.203 7.279-15.127 4.477-4.478 10.65-6.156 17.928-6.156zm402.196 8.403v.553c-.57.554-1.124.554-1.124.554 0 .57-.553.57-.553.57 0 .553 0 .553.553.553v.57l19.035 19.036v-18.482c0-1.124 0-1.677-.553-1.677 0-.57-.553-.57-1.677-1.124v-.553h11.203v.553c-.553.554-1.124.554-1.677 1.124v30.81c.553 0 1.124.552 1.677.552v1.124h-12.327V752.3c.57 0 .57-.553 1.124-.553l.553-.57c0-.554 0-.554-.553-.554v-.553l-20.16-19.606v19.606c0 .553.554 1.107.554 1.677.553 0 1.124.553 1.677.553v1.124H416.2V752.3c1.124 0 1.124-.553 1.677-.553 0-.57.57-1.124.57-1.677v-27.455c0-1.124-.57-1.677-.57-1.677-.553-.57-.553-.57-1.677-1.124v-.553h13.45zm-309.769 0v.553c-.57.554-1.124.554-1.124.554 0 .57-.553.57-.553.57 0 .553 0 .553.553.553v.57l19.053 19.036v-18.482c0-1.124 0-1.677-.57-1.677 0-.57-.554-.57-1.677-1.124v-.553h11.203v.553c-.57.554-1.124.554-1.677 1.124v30.81c.553 0 1.106.552 1.677.552v1.124H134.44V752.3c.553 0 .553-.553 1.123-.553l.554-.57c0-.554 0-.554-.554-.554v-.553l-20.176-19.606v19.606c0 .553.57 1.107.57 1.677.554 0 1.125.553 1.678.553v1.124H106.43V752.3c1.124 0 1.124-.553 1.677-.553 0-.57.57-1.124.57-1.677v-27.455c0-1.124-.57-1.677-.57-1.677-.553-.57-.553-.57-1.677-1.124v-.553h13.451zm583.126 0v.553c-.553.554-1.123.554-1.123 1.124-.517 0-.551.482-.553 1.01v1.22l9.526 19.053 8.402-19.053v-.553l.554-.553c0-.57-.554-1.124-.554-1.124-.57-.57-1.123-.57-1.694-1.124v-.553h13.45v.553c-1.676.554-2.8 1.677-3.924 3.925v.553l-11.756 24.654v1.124c0 .553 0 1.107.553 1.107 0 .57.57.57 1.677 1.123v1.124h-14.557V752.3c1.124-.553 1.677-.553 1.677-1.123.527 0 .567-.472.57-.544v-.563c0-.57-.57-.57-.57-1.124l-11.757-24.654c-1.124-2.8-2.248-3.924-3.371-4.478v-.553h13.45zm-133.316-7.85c5.602 0 9.527 1.124 12.88 3.355 2.801 2.247 4.478 5.048 4.478 8.973 0 3.924-1.677 6.725-4.477 8.956-2.801 2.247-6.726 3.37-11.757 3.37h-15.698v14.005c0 .553 0 1.107.57 1.677 0 0 .553.553 1.677.553v1.124h-13.45V752.3c1.123 0 1.693-.553 1.693-.553.508-.523.55-1.031.553-1.538v-35.443c0-.553 0-1.124-.553-1.124 0-.553-.57-1.106-1.694-1.106v-1.124h25.778zm-80.1 7.85c6.155.553 10.633 1.677 13.434 3.907 3.371 2.801 5.048 7.296 5.048 12.898 0 6.155-1.677 10.08-5.048 12.88-2.801 2.801-7.28 3.925-13.434 4.478h-20.176V752.3c.57 0 1.123-.553 1.694-.553v-30.81c-.57-.57-1.124-.57-1.694-1.123v-.553h20.176zm-95.799 0v1.107c-.553 0-1.106 0-1.106.57-.533 0-.568.482-.57 1.01l-.001 1.22 12.88 25.208c.571 1.123 1.125 2.247 1.678 2.8.57.571 1.124.571 2.247 1.124v1.124h-13.45V752.3c.57-.553 1.123-.553 1.693-1.123l.554-.554c0-.553 0-.553-.554-.553v-1.124l-2.247-4.495h-15.681l-2.248 4.495v2.23c.57.571 1.124.571 1.677 1.124v1.124H366.91V752.3c1.124-.553 2.247-1.677 3.37-3.354v-.57l12.31-25.208.571-.553v-.553c0-.57-.57-.57-.57-1.124-.553-.57-1.107-.57-1.677-1.124v-.553h12.88zm444.208-2.247c.57 1.123.57 1.677 1.124 1.677 0 0 .57.57 1.124.57h28.562c.57 0 1.123-.57 1.694-.57 0-.554.553-.554.553-1.678h1.124v10.65h-1.124c0-.57-.553-1.123-.553-1.694H858.73v24.101c0 .553 0 1.107.57 1.677 0 0 .554.553 1.677.553v1.124H848.65V752.3c.554 0 1.124-.553 1.677-.553v-25.778h-11.203c-.553.57-.553 1.124-1.124 1.695h-1.106v-10.65H838zm-219.017 2.247c4.477 0 7.849.553 10.65 2.23 2.23 1.677 3.907 4.478 3.907 7.279 0 2.8-1.107 5.048-2.784 6.725-1.694 1.678-3.924 2.801-6.725 3.372l6.155 9.509c.57.57 1.677 1.124 2.247 1.694.554.553 1.677 1.677 2.801 2.23v1.124h-14.004V752.3c.553 0 .553-.553 1.124-.553 0 0 .553-.57.553-1.124l-.553-.553c0-.57-.57-.57-.57-1.124l-6.156-8.402-.57-1.124h-8.956v10.65c0 .553.553 1.107.553 1.677.57 0 .57.553 1.677.553v1.124h-12.31V752.3c1.107 0 1.107-.553 1.678-.553 0-.57.553-1.124.553-1.677v-27.455c0-1.124-.553-1.677-.553-1.677-.571-.57-.571-.57-1.677-1.124v-.553h22.96zm-461.014-2.247c.554 1.123.554 1.677 1.124 1.677 0 0 .553.57 1.124.57h28.561c.553 0 1.124-.57 1.677-.57 0-.554.554-.554.554-1.678h1.123v10.65h-1.123c0-.57-.554-1.123-.554-1.694H178.7v24.101c0 .553 0 1.107.553 1.677 0 0 .57.553 1.677.553v1.124h-12.31V752.3c.553 0 1.107-.553 1.677-.553v-25.778h-11.203c-.57.57-.57 1.124-1.124 1.695h-1.124v-10.65h1.124zm67.22 2.247c4.478 0 7.832.553 10.633 2.23 2.248 1.677 3.925 4.478 3.925 7.279 0 2.8-1.107 5.048-2.801 6.725-1.677 1.678-3.925 2.801-6.708 3.372l6.155 9.509c.553.57 1.677 1.124 2.247 1.694.553.553 1.677 1.677 2.784 2.23v1.124H227.42V752.3c.57 0 .57-.553 1.124-.553 0 0 .57-.57.57-1.124l-.57-.553c0-.57-.553-.57-.553-1.124l-6.172-8.402-.553-1.124h-8.956v10.65c0 .553.553 1.107.553 1.677.553 0 .553.553 1.677.553v1.124h-12.31V752.3c1.107 0 1.107-.553 1.677-.553 0-.57.553-1.124.553-1.677v-27.455c0-1.124-.553-1.677-.553-1.677-.57-.57-.57-.57-1.677-1.124v-.553h22.96zm669.398 0v.553c-1.123.554-1.123.554-1.677 1.124 0 0-.57.553-.57 1.677v27.455c0 .553.57 1.107.57 1.677.554 0 .554.553 1.677.553v1.124h-12.327V752.3c1.124 0 1.124-.553 1.677-.553 0-.57.57-1.124.57-1.677v-27.455c0-1.124-.57-1.677-.57-1.677-.553-.57-.553-.57-1.677-1.124v-.553h12.327zm-94.674 0v.553c-.554.554-1.124.554-1.124.554 0 .57-.553.57-.553.57 0 .553 0 .553.553.553v.57l19.052 19.036v-18.482c0-1.124 0-1.677-.553-1.677 0-.57-.57-.57-1.694-1.124v-.553h11.203v.553c-.553.554-1.107.554-1.677 1.124v30.81c.57 0 1.124.552 1.677.552v1.124h-12.31V752.3c.553 0 .553-.553 1.107-.553l.57-.57c0-.554 0-.554-.57-.554v-.553l-20.16-19.606v19.606c0 .553.554 1.107.554 1.677.57 0 1.124.553 1.694.553v1.124H786.48V752.3c1.106 0 1.106-.553 1.677-.553 0-.57.553-1.124.553-1.677v-27.455c0-1.053-.486-1.606-.547-1.67-.577-.577-.577-.577-1.683-1.13v-.554h13.434zm168.05 0v.553c-.554.554-.554.554-1.124.554v1.123s0 .57.57.57l18.482 19.036v-20.16c-.553-.57-1.124-.57-1.677-1.123v-.553h10.633v.553c-.554.554-1.107.554-1.107 1.124-.537 0-.568.49-.57 1.485v27.647c0 .553 0 1.107.57 1.677 0 0 .553.553 1.107.553v1.124h-12.31V752.3c.553 0 1.107-.553 1.107-.553.526 0 .567-.486.57-.56v-.564l-.57-.553-19.606-19.606v21.283c.57 0 1.124.553 1.694.553v1.124h-10.65V752.3c.553 0 1.124-.553 1.124-.553.553-.57.553-1.124.553-1.677v-27.455c0-1.124 0-1.677-.553-1.677 0-.57-.57-.57-1.124-1.124v-.553h12.88zm-43.137 5.602c-3.907 0-6.708 1.106-8.402 3.354-2.23 2.247-3.354 4.478-3.354 7.849 0 3.354 1.123 6.155 3.354 7.832 1.637 2.173 4.31 3.295 8.015 3.368l.387.003c3.371 0 6.172-1.123 8.403-3.371 2.247-1.677 3.371-4.478 3.371-7.832 0-3.371-1.124-6.172-3.371-7.85-2.23-2.247-5.032-3.353-8.403-3.353zm-654.824 0h-.57c-3.354 0-6.155 1.106-8.403 3.354-1.677 2.247-2.783 4.478-2.783 7.849 0 3.354 1.106 6.155 2.783 7.832 2.248 2.247 5.049 3.371 8.974 3.371 3.354 0 6.154-1.123 8.402-3.371 2.248-1.677 3.354-4.478 3.354-7.832 0-3.371-1.106-6.172-3.354-7.85-1.621-2.172-4.292-3.278-8.014-3.35l-.389-.004zm-193.828 0c-3.354 0-6.154 1.106-8.385 3.354-2.247 2.247-3.37 4.478-3.37 7.849 0 3.354 1.123 6.155 3.37 7.832 2.145 2.161 4.817 3.283 8 3.366l.385.005c3.925 0 6.726-1.123 8.974-3.371 1.677-1.677 2.8-4.478 2.8-7.832 0-3.371-1.123-6.172-2.8-7.85-2.248-2.247-5.049-3.353-8.974-3.353zm413.416.552h-10.096v21.284h10.097c3.354 0 5.602-1.124 6.708-2.801 2.248-1.677 3.372-4.478 3.372-7.832 0-3.371-1.124-6.172-3.372-7.85-1.062-1.078-3.176-2.157-6.31-2.731l-.399-.07zm-102.523 3.355l-5.585 11.203h11.204l-5.62-11.203zm219.035-3.354v7.85h10.08c2.8 0 5.048-.571 6.725-1.125 1.124-.57 2.23-1.677 2.23-3.371 0-1.107-1.106-2.23-2.23-2.801-1.531-.505-3.538-.549-6.428-.553h-10.377zm-393.793 0v7.85h10.08c2.8 0 5.03-.571 6.725-1.125 1.124-.57 2.23-1.677 2.23-3.371 0-1.107-.553-2.23-2.23-2.8-1.547-.506-3.541-.55-6.442-.554H212.31zm355.958-6.725h-13.15v10.65h12.327c3.924 0 6.172-.571 7.849-1.678 2.23-.57 2.8-2.247 2.8-3.924s-.57-3.371-2.247-3.925c-1.557-1.043-4.083-1.118-7.579-1.123zm270.304-80.654v10.633h-1.124c0-1.124-.553-1.677-.553-1.677-.527-.527-1.039-.568-1.563-.57l-20.844-.001v6.726h14.004c.553-.554.553-1.107 1.107-1.678h.57v9.527h-.57c-.554-.57-.554-1.124-1.107-1.124 0-.52-.505-.551-1.502-.553h-12.502v7.832h21.283c1.124 0 1.677 0 1.677-.554.554 0 .554-.553 1.124-1.677h.553v11.204h-.553c-.57-1.124-.57-1.695-1.124-1.695 0-.488-.43-.545-1.304-.552h-32.306v-1.125c1.124 0 1.677-.553 1.677-.553.527-.51.568-1.036.57-1.549v-27.583c0-.553 0-1.124-.57-1.677 0-.553-.553-.553-1.677-.553v-1.124h31.363c.57 0 1.123 0 1.694-.57 0 0 .553-.554.553-1.107h1.124zm-739.42 0v10.633H98.6c-.571-1.124-.571-1.677-1.141-1.677 0-.537-.49-.57-1.485-.57l-20.905-.001v6.726h14.557c0-.554.57-1.107.57-1.678h1.107v9.527h-1.106c0-.57-.57-1.124-.57-1.124-.508-.507-1.03-.55-1.539-.553H75.069v7.832h21.836c.554 0 1.124 0 1.695-.554 0 0 .553-.553.553-1.677h1.124v11.204h-1.124c0-1.124-.553-1.695-.553-1.695-.523-.507-1.046-.55-1.556-.553H64.972v-1.124c.57 0 1.124-.553 1.695-.553v-30.81c-.57-.552-1.124-.552-1.695-.552v-1.124h30.81c1.123 0 1.677 0 1.677-.57.57 0 .57-.554 1.14-1.107h.554zm161.878 0v10.633h-1.106c0-1.124 0-1.677-.57-1.677 0-.537-.49-.57-1.485-.57l-20.922-.001v6.726h14.575c0-.554.553-1.107.553-1.678h1.124v9.527h-1.124c0-.57-.553-1.124-.553-1.124-.523-.507-1.032-.55-1.54-.553h-13.035v7.832H258.8c.553 0 1.124 0 1.677-.554 0 0 .553-.553.553-1.677h1.124v11.204h-1.124c0-1.124-.553-1.695-.553-1.695-.507-.507-1.029-.55-1.538-.553h-32.072v-1.124c.553 0 1.124-.553 1.124-.553.553-.553.553-1.124.553-1.677v-27.455c0-.553 0-1.124-.553-1.677 0-.553-.57-.553-1.124-.553v-1.124h30.81c1.123 0 1.676 0 1.676-.57.57 0 .57-.554.57-1.107h1.107zm733.265 0v10.633h-1.124c0-1.124-.553-1.677-.553-1.677-.527-.527-1.039-.568-1.55-.57l-21.428-.001v6.726h14.575c.553-.554.553-1.107.553-1.678h1.124v9.527h-1.124c0-.57 0-1.124-.553-1.124 0-.52-.505-.551-1.487-.553H969.64v7.832h21.854c1.124 0 1.677 0 1.677-.554.57 0 .57-.553.57-1.677h1.107v11.204h-1.107c0-1.124 0-1.695-.57-1.695 0-.488-.43-.545-1.304-.552H959.56v-1.125c.57 0 1.123-.553 1.677-.553 0-.553.57-1.124.57-1.677v-27.455c0-.553-.57-1.124-.57-1.677-.554-.553-1.107-.553-1.677-.553v-1.124h31.38c.553 0 1.106 0 1.677-.57 0 0 .553-.554.553-1.107h1.124zm-966.84-6.726c3.908 0 7.832.554 11.757 1.677 3.925 1.677 6.155 2.23 6.155 2.23h1.123c0-.553.571-.553 1.124-.553l.57.554-5.601 9.526-1.124-.553v-.554c0-1.123-1.124-2.247-4.495-3.37-2.8-1.125-6.155-1.678-9.509-1.678-4.495 0-8.42 1.124-11.774 3.925-2.8 2.8-4.478 6.154-4.478 10.08 0 4.477 1.677 7.83 4.478 10.632 3.354 2.248 7.279 3.925 11.774 3.925 3.907 0 7.279-1.107 10.633-2.23 3.371-1.695 5.048-2.801 5.048-3.925v-1.677l.553-.571 6.173 8.973-1.124.553c-.553 0-.553 0-.553-.553h-.57c-.554 0-1.124.553-2.801 1.124-6.155 3.907-12.327 5.584-17.93 5.584-7.278 0-12.88-1.677-17.357-6.155-4.478-3.924-7.279-8.955-7.279-15.128 0-6.725 2.8-11.756 7.279-15.68 4.477-3.925 10.65-6.156 17.928-6.156zm896.819 7.832c3.354 0 6.725.57 10.08 1.695.526.51.566.55 1.005.553h.118s.553 0 1.677.553c1.124.57 1.677 1.124 2.247 1.124l.554-.553c.57 0 .57 0 .57-.57l1.107.57-4.478 8.402-1.124-.57c0-1.107-1.107-2.23-3.907-3.354-2.248-1.124-5.049-1.678-7.85-1.678l-.661.001c-2.492.007-4.476.088-5.493 1.106-1.695.57-2.801 1.694-2.801 2.818 0 1.677 2.23 2.23 7.278 2.801 3.354 0 6.155.553 8.403.553 3.354 1.124 6.155 2.248 8.402 3.925 1.677 1.677 2.801 3.907 2.801 6.708 0 3.371-1.677 6.172-5.048 8.42-3.354 1.677-7.279 2.783-12.327 2.783-5.031 0-9.51-.553-14.005-2.783-1.041-.537-1.608-.569-1.67-.57h-.56l-.57.57-1.106-.57 3.907-8.403 1.124.553v.57c0 1.124 1.123 2.248 3.924 2.801 2.801 1.124 5.602 1.677 8.403 1.677 3.354 0 5.601-.553 7.278-1.123 1.677-1.107 2.801-1.677 2.801-3.354s-3.354-2.801-8.956-3.372h-5.601c-3.925-.553-6.726-1.677-8.973-3.354-2.23-1.123-2.8-3.354-2.8-6.725 0-3.354 1.123-6.155 4.494-8.403 2.8-1.677 6.708-2.8 11.757-2.8zm-571.922 0c3.354 0 6.708.57 10.08 1.695.51.51.55.55 1 .553h.123s.553 0 1.677.553c1.124.57 1.677 1.124 2.23 1.124.57 0 .57-.553.57-.553.554 0 .554 0 .554-.57l1.124.57-4.478 8.402-1.124-.57c0-1.107-1.124-2.23-3.925-3.354-2.23-1.124-5.03-1.678-7.831-1.678l-.707.001c-2.389.008-3.935.096-5.466 1.106-1.677.57-2.23 1.694-2.23 2.818 0 1.677 2.23 2.23 6.726 2.801 3.354 0 6.154.553 8.384.553 3.925 1.124 6.726 2.248 8.403 3.925 1.694 1.677 2.818 3.907 2.818 6.708 0 3.371-1.694 6.172-5.048 8.42-3.354 1.677-7.279 2.783-12.327 2.783-5.049 0-9.527-.553-14.004-2.783-1.058-.537-1.61-.569-1.672-.57h-.576s0 .57-.553.57l-1.124-.57 3.925-8.403 1.123.553v.57c0 1.124 1.124 2.248 3.925 2.801 2.801 1.124 5.602 1.677 8.403 1.677 3.354 0 5.601-.553 7.278-1.123 1.677-1.107 2.801-1.677 2.801-3.354s-3.371-2.801-8.973-3.372h-5.601c-3.908-.553-6.709-1.677-8.956-3.354-1.677-1.123-2.801-3.354-2.801-6.725 0-3.354 1.124-6.155 4.478-8.403 2.8-1.677 6.725-2.8 11.774-2.8zm416.2 0c3.353 0 6.725.57 10.079 1.695.516.516 1.048.55 1.116.553.007 0 .56 0 1.685.553 1.123.57 1.677 1.124 2.247 1.124.553 0 .553-.553.553-.553.554 0 .554 0 .554-.57l1.123.57-4.477 8.402-1.124-.57h.57c0-1.107-1.694-2.23-3.924-3.354-2.801-1.124-5.602-1.678-8.403-1.678l-.706.001c-2.386.008-3.919.096-5.466 1.106-1.677.57-2.23 1.694-2.23 2.818 0 1.677 2.23 2.23 6.725 2.801 3.354 0 6.155.553 8.403.553 3.907 1.124 6.708 2.248 8.402 3.925 1.677 1.677 2.8 3.907 2.8 6.708 0 3.371-1.694 6.172-5.047 8.42-3.355 1.677-7.28 2.783-12.328 2.783-5.03 0-9.526-.553-14.004-2.783-1.057-.537-1.61-.569-1.67-.57h-.56s0 .57-.57.57l-1.124-.57 3.924-8.403 1.124.553v.57c0 1.124 1.124 2.248 3.925 2.801 2.8 1.124 5.602 1.677 8.956 1.677 2.8 0 5.048-.553 6.725-1.123 1.677-1.107 2.801-1.677 2.801-3.354s-2.801-2.801-8.956-3.372h-5.602c-3.924-.553-6.725-1.677-8.973-3.354-1.677-1.123-2.8-3.354-2.8-6.725 0-3.354 1.123-6.155 4.477-8.403 2.801-1.677 6.726-2.8 11.774-2.8zm-256.553-.553c6.155 0 10.633 2.248 14.557 5.602 3.925 3.354 5.602 7.279 5.602 12.327 0 5.602-1.677 9.526-5.602 12.88-3.924 3.354-8.956 5.031-14.557 5.031-5.602 0-10.65-1.677-14.575-5.03-3.925-3.355-5.602-7.28-5.602-12.881 0-5.048 1.677-8.973 5.602-12.327 3.925-3.354 8.973-5.602 14.575-5.602zm222.372 1.124v1.124c-.554 0-1.107 0-1.677.553 0 .553-.554 1.124-.554 1.677v27.455c0 .553.554 1.124.554 1.677.57 0 1.123.553 1.677.553v1.124h-12.31v-1.124c1.106 0 1.106-.553 1.677-.553 0-.553.553-1.124.553-1.677v-27.455c0-1.124-.553-1.677-.553-1.677-.57-.553-.57-.553-1.677-.553v-1.124h12.31zm-602.161 0v1.124c-.57 0-1.124 0-1.124.553 0 0-.57 0-.57.553h.57c0 .527 0 .567.435 1.006l18.6 18.6v-18.482c0-.553 0-1.124-.553-1.677 0-.553-.57-.553-1.677-.553v-1.124h11.203v1.124c-.57 0-1.124 0-1.694.553v30.81c.57 0 1.124.552 1.694.552v1.124h-12.327v-1.124c.553 0 1.124 0 1.124-.553.51 0 .55-.471.553-.544v-.58c-.553 0-.553 0-.553-.553l-20.177-19.606v19.606c0 .553.57 1.124.57 1.677.554 0 1.107.553 1.678.553v1.124h-11.203v-1.124c1.124 0 1.677-.553 1.677-.553.553-.553.553-1.124.553-1.677v-27.455c0-1.124 0-1.677-.553-1.677 0-.553-.553-.553-1.677-.553v-1.124h13.45zm171.404 0c4.477 0 7.849.553 10.632 2.8 2.248 1.678 3.925 3.908 3.925 7.28 0 2.247-1.124 4.477-2.801 6.154-1.677 1.695-3.907 2.801-6.725 3.372l6.725 9.526c.57.553 1.124 1.677 1.677 2.23.57.57 1.694 1.124 2.818 1.677v1.124h-14.021v-1.124c.57 0 .57 0 1.123-.553.527 0 .568-.471.57-.544.001-.01.001-.58-.57-1.133 0 0-.553-.57-.553-1.124l-6.154-8.402-.571-1.124h-8.956v10.65c0 .553.553 1.124.553 1.677.554 0 1.124.553 1.677.553v1.124h-12.31v-1.124c1.107 0 1.678-.553 1.678-.553 0-.553.553-1.124.553-1.677v-27.455c0-1.124-.553-1.677-.553-1.677 0-.553-.571-.553-1.677-.553v-1.124h22.96zm267.202 0c4.478 0 8.403.553 10.633 2.8 2.8 1.678 3.924 3.908 3.924 7.28 0 2.247-.553 4.477-2.247 6.154-1.677 1.695-3.907 2.801-7.279 3.372l6.726 9.526c.553.553 1.123 1.677 1.677 2.23.57.57 1.677 1.124 3.37 1.677v1.124h-14.573v-1.124c.57 0 1.123 0 1.123-.553.511 0 .55-.471.553-.544v-1.133c-.553 0-.553-.57-1.106-1.124l-5.602-8.402-1.123-1.124h-8.403v10.65c0 .553 0 1.124.553 1.677 0 0 .57.553 1.124.553v1.124h-11.757v-1.124c.554 0 1.107-.553 1.107-.553.527-.51.567-1.036.57-1.549v-27.583c0-1.124 0-1.677-.57-1.677 0-.553-.553-.553-1.107-.553v-1.124h22.407zm-394.364-1.677c0 .553.554 1.107.554 1.107.526.526 1.038.567 1.562.57h28.693c.57 0 1.124 0 1.677-.57 0 0 0-.554.554-1.107h1.14v10.08h-1.14c0-.571-.554-1.124-.554-1.124-.51-.527-1.021-.568-1.545-.57l-10.211-.001v24.101c0 .553 0 1.124.553 1.677 0 0 .57.553 1.124.553v1.124h-11.757v-1.124c.553 0 1.124-.553 1.124-.553.553-.553.553-1.124.553-1.677v-24.101H178.7c-.57 0-1.123 0-1.693.57 0 0-.554.554-.554 1.125h-1.124v-10.08h1.124zm507.504-5.602c3.371 0 6.172.554 7.849 1.107 2.8.57 5.048 1.677 7.279 3.371 2.247 1.677 3.924 3.925 5.048 6.726 1.124 2.783 1.677 6.155 1.677 9.509 0 3.37-.553 6.172-1.677 8.973-1.124 2.8-2.8 5.03-5.048 7.278-2.23 1.678-4.478 2.801-7.28 3.355-1.676.57-4.477 1.123-7.848 1.123h-24.084v-1.124c.57 0 1.124-.553 1.694-.553v-38.088c-.57-.57-1.124-.57-1.694-1.124v-.553h24.084zm196.058 7.279v1.124c-.553 0-1.107.553-1.107.553-.53.514-.567.55-.57 1.01v1.79l12.88 24.655c.54 1.584 1.063 2.165 1.6 2.706l.095.095c.553.553 1.106 1.106 2.23 1.106v1.124h-13.434v-1.124c.554 0 1.107-.553 1.677-.553 0-.553.554-.553.554-1.124 0 0 0-.553-.554-.553v-1.124l-2.247-3.924h-15.682l-2.247 3.924v2.801c.57 0 1.124.553 1.694.553v1.124H853.13v-1.124c1.124-.553 2.248-1.677 3.372-3.354v-.553l12.31-24.654c0-.554 0-.554.57-.554v-1.123s-.57-.57-.57-1.124c-.554 0-1.107-.553-1.678-.553v-1.124h12.88zm-402.749-1.677v10.633h-1.124c0-1.124-.553-1.677-.553-1.677-.527-.527-1.039-.568-1.563-.57l-21.414-.001v6.726h14.574c.554-.554.554-1.107 1.107-1.678h.57v9.527h-.57c-.553-.57-.553-1.124-1.107-1.124 0-.52-.505-.551-1.501-.553H452.61v11.203c0 .553.57 1.124.57 1.677.553 0 .553.553 1.677.553v1.124H442.53v-1.124c1.124 0 1.677-.553 1.677-.553 0-.553.57-1.124.57-1.677v-27.455c0-.553-.57-1.124-.57-1.677 0-.553-.553-.553-1.677-.553v-1.124h31.363c.57 0 1.123 0 1.694-.57 0 0 .553-.554.553-1.107h1.124zm34.734 7.832c-3.372 0-6.172 1.124-8.403 2.8-2.247 2.248-3.371 5.05-3.371 7.85 0 3.354 1.124 6.155 3.371 8.402 2.138 1.608 4.799 2.707 7.984 2.796l.419.005c3.354 0 6.155-1.123 8.402-2.8 2.23-2.248 3.354-5.05 3.354-8.403 0-2.8-1.124-5.602-3.354-7.85-2.247-1.676-5.048-2.8-8.402-2.8zm171.956-6.726h-12.88v28.009h12.88c3.926-.554 6.726-1.677 8.974-3.925 2.23-2.23 3.354-5.584 3.354-10.08 0-5.03-1.124-8.402-3.354-10.632-2.154-1.607-4.816-2.707-8.488-3.297l-.486-.075zm189.35 10.097l-5.6 11.186h11.202l-5.601-11.186zm-305.29-3.372h-9.526v7.85h9.526c3.355 0 5.602-.57 6.709-1.124 1.694-.553 2.247-1.677 2.247-2.8 0-1.677-.553-2.248-2.247-2.801-1.063-.548-3.176-1.08-6.311-1.121l-.398-.004zm-267.756 0h-9.526v7.85h10.08c2.8 0 5.03-.57 6.725-1.124 1.677-.553 2.23-1.677 2.23-2.8 0-1.677-.553-2.248-2.23-2.801-1.084-.55-3.727-1.085-6.921-1.122l-.358-.003zm182.38-233.022L329.945 602.178H281.76l125.575-189.333h75.304zM996.542 0l-82.859 83.873c-18.21-5.465-39.056-8.354-59.74-8.354-102.686 0-178.787 73.726-178.787 175.432 0 23.352 3.513 44.817 10.166 64.076l-283.68 287.151h-63.295l152.76-189.626.778-.075.768-.088.846-.114 1.889-.145c62.537-5.17 145.449-46.98 145.449-164.533 0-6.931-.262-13.582-.768-19.963L823.444 0h173.098zM72.822 0L61.173 176.323c-9.913 22.3-15.34 47.466-15.34 74.628 0 19.149 2.362 37.03 6.881 53.465L33.057 602.178H0V0h72.821zM57.835 320.08c8.701 22.783 21.932 42.308 39.033 58.012L64.972 602.178h-25.76L57.835 320.08zm44.518 62.807c11.708 9.744 25.042 17.827 39.817 24.094L98.6 602.178H71.144l31.21-219.29zm45.979 26.57c14.067 5.346 29.353 9.111 45.71 11.169l-57.926 181.552h-30.81l43.026-192.721zm51.67 11.838a243.275 243.275 0 0022.3 1.157l1.763.006 1.423-.003c6.808-.036 13.283-.327 19.442-.86l-74.08 180.583h-28.562l57.713-180.883zm116.833-25.245l-105.65 206.128h-33.61l74.38-181.314c12.33-1.501 23.318-4.037 33.126-7.495 12.577-4.435 22.343-9.982 31.23-16.907l.524-.412zm36.621-57.248v74.044l46.046-.001-125.575 189.333h-55.463l134.992-263.376zm645.886 211.284v52.092H886.74l112.604-52.092zM687.748 321.601c14.818 37.68 42.145 66.297 78.942 83.255L518.154 602.178H410.598l277.15-280.577zm311.595-93.61v158.524L653.717 602.178H527.68l245.277-194.585c23.13 9.561 49.732 14.713 79.114 14.862l1.317.003 1.424-.003c23.636-.124 43.253-3.325 59.592-9.086 12.577-4.435 22.343-9.982 31.23-16.907l.65-.51 2.127-1.681-14.881-32.582-3.507 3.23c-14.268 13.14-45.181 24.863-68.232 24.863-19.078 0-35.624-4.616-49.497-13.398l187.05-148.393zm0 165.802v149.568l-127.161 58.817H665.474l333.87-208.385zM353.457 173.431v151.17l-35 68.287-14.25-31.2-3.507 3.23c-7.601 7.002-19.93 13.6-33.275 18.239l86.032-209.726zM417.877 0L383.18 84.578h-29.722l-.001 72.457-93.755 228.55c-9.075 2.559-18.289 4.11-26.54 4.194l-.693.003c-7.647 0-14.887-.742-21.712-2.196l80.396-251.968c2.795 3.044 5.573 6.398 8.516 10.19l.634.82 6.198 8.054v-62.21l-1.375-.654L334.423 0h83.454zm138.367 188.332c4.666 16.579 7.276 36.649 7.276 60.942 0 79.608-30.127 112.93-67.722 127.408l-1.141.433-1.158.426-1.103.381c-21.664 7.36-45.375 8.548-67.596 8.591l131.444-198.18zm-330.5-81.243c19.374 0 35.452 5.132 49.105 14.389a88.518 88.518 0 0111.648 9.383l-81.46 255.312c-18.11-5.106-33.057-15.536-44.654-30.686l55.335-247.86a92.069 92.069 0 0110.025-.538zm243.596 5.622c7.49 1.208 14.837 2.899 21.863 5.251l1.237.422 1.06.375 1.173.409c25.39 9 47.13 26.659 59.06 61.14L423.478 376.697V202.188l45.862-89.477zM999.343 6.155v213.987l-192.267 152.65c-29.86-22.298-45.92-65.664-46.562-124.856L892.124 114.7a82.068 82.068 0 0112.047 6.779c9.67 6.557 16.63 13.765 24.9 24.434l.554.716 6.198 8.054v-62.21l-1.975-.938c-4.223-2.006-8.718-3.834-13.43-5.478l78.925-79.901zm-790.58 102.523L155.292 348.2c-15.87-24.902-24.12-60.242-24.12-103.975 0-75.404 29.01-126.124 77.59-135.547zm646.303-1.59c11.3 0 21.477 1.746 30.707 5.038l-125.23 126.758c1.497-80.736 37.056-131.795 94.523-131.795zM815.595 0l-176.41 218.738c-4.992-41.67-20.919-71.092-42.406-91.522L681.155 0h134.44zM423.479 109.785c12.66 0 25.999.342 39.077 1.961l-39.078 76.241v-78.202zM150.692 0l-13.677 96.05c-29.148 15.083-52.835 37.844-68.754 66.152L78.976 0h71.716zm522.63 0L591.88 122.793c-28.167-24.148-64.577-34.32-98.38-37.091-3.306-.273-6.616-.55-9.927-.76L527.109 0h146.214zm-440.3 0l-16.897 75.688c-26.351 1.058-50.806 7.031-72.488 17.112L156.847 0h76.175zm95.228 0l-28.517 89.382c-21.254-9.016-48.319-13.863-75.113-13.863-.58 0-1.16.002-1.737.007L239.748 0h88.502zm191.58 0l-43.37 84.617c-.693-.017-1.387-.028-2.08-.034l-1.04-.005h-83.434L424.602 0h95.229z"/></svg>
