<svg xmlns="http://www.w3.org/2000/svg" viewBox="0 0 1000 383"><path fill="#132e3f" d="M225.892 16.277c11.07 18.375 11.614 60.601-48.677 157.44-38.248 61.433-50.296 112.456-35.85 151.665l.446 1.185c16.227 42.193 58.818 54.919 59.243 55.04.243.07.41.295.408.548a.575.575 0 01-.427.53c-.81.196-1.811.294-2.974.294-12.62 0-44.725-11.723-66.235-40.205-21.043-27.87-36.423-78.218 9.817-159.84 15.147-26.731 32.333-60.068 44.161-91.94-10.157-7.31-22.777-11.372-36.039-11.372-31.983 0-58.009 23.52-58.009 52.435 0 17.07 9.25 33.11 24.732 42.94a.56.56 0 01.21.697.562.562 0 01-.512.34c-.047 0-.084-.01-.131-.02-31.853-7.69-53.256-28.822-53.256-52.58 0-30.65 35.344-55.58 78.798-55.58 17.59 0 34.53 4.222 48.247 11.721 5.302-15.948 8.985-31.268 10.069-44.9 2.076-26.06-6.47-33.593-6.555-33.668a.558.558 0 01-.163-.603.528.528 0 01.485-.377c.22-.02 21.65-1.284 32.212 16.25zm21.627 48.504c52.069 21.824 87.39 64.278 87.39 113.061 0 71.092-74.972 128.712-167.454 128.712-4.763 0-9.468-.19-14.132-.493-.475-2.905-.77-5.904-.965-8.964 5.386.624 10.86.981 16.418.981 74.66 0 135.178-57.635 135.178-128.712 0-43.1-22.273-81.232-56.435-104.585zM56.1 98.275c-14.207 20.37-22.497 44.798-22.497 71.09 0 45.282 24.578 85.078 61.7 108.014-.112 5.64.13 11.282.726 16.892C39.277 273.664 0 229.289 0 177.842c0-29.74 13.13-57.124 35.171-78.908l.671-.659h20.259zm383.636-11.593c35.945 0 61.854 22.01 68.82 59.07h-21.731c-5.294-24.521-22.294-40.126-47.089-40.126-13.368 0-25.07 4.737-34.263 13.933-12.537 12.818-13.93 27.307-13.93 67.986 0 40.683 1.393 55.172 13.93 67.99 9.194 9.196 20.895 13.933 34.263 13.933 24.795 0 42.353-15.605 47.646-40.126h21.173c-6.965 37.06-33.153 59.074-68.819 59.074-20.612 0-37.328-7.245-49.586-19.505-18.48-18.483-19.757-35.6-19.78-80.012v-1.354c0-45.416 1.114-62.692 19.78-81.362 12.258-12.26 28.974-19.5 49.586-19.5zm163.543 0c37.332 0 63.793 25.074 69.365 59.348h-21.173c-5.572-25.357-23.402-40.404-48.192-40.404-13.651 0-25.353 4.737-34.268 13.933-12.411 12.69-13.9 27.018-13.93 66.773v1.213c0 40.683 1.393 55.172 13.93 67.99 8.915 9.196 20.617 13.933 34.268 13.933 14.487 0 28.417-5.852 37.61-16.998 8.075-10.031 11.14-20.899 11.14-35.941v-15.33h-48.75v-18.113h69.923v31.488c0 22.85-4.18 36.782-16.99 50.993-13.93 15.326-32.6 22.85-52.933 22.85-20.616 0-37.332-7.246-49.59-19.506-18.48-18.483-19.753-35.6-19.776-80.012v-1.354c0-45.416 1.11-62.692 19.775-81.362 12.259-12.26 28.975-19.5 49.591-19.5zm170.776 1.668l72.715 198.394h-22.567l-15.88-44.862h-86.64l-15.88 44.862h-22.566L756.23 88.35h17.825zm164.652 0c35.94 0 61.292 22.85 61.292 58.238s-25.352 58.516-61.292 58.516h-52.65v81.64H864.88V88.35h73.828zm-173.284 30.373L728.088 223.49h74.107l-36.77-104.768zm171.613-11.425h-50.98v78.858h50.98c24.795 0 41.79-13.375 41.79-39.568 0-26.193-16.995-39.29-41.79-39.29z"/></svg>