<svg xmlns="http://www.w3.org/2000/svg" viewBox="0 0 1000 667"><g fill="none" fill-rule="evenodd"><path fill="#132e3f" fill-rule="nonzero" d="M0 0h1000v667H0z"/><path fill="#FFF" d="M500.022 522.222l8.306 25.592h26.919l-21.77 15.815 8.315 25.594-21.77-15.811-21.77 15.81 8.307-25.593-21.76-15.815h26.905l8.318-25.592zm111.16-29.66l8.306 25.592h26.919l-21.77 15.816 8.315 25.593-21.77-15.81-21.77 15.81 8.307-25.593-21.76-15.816h26.905l8.318-25.592zm-222.32 0l8.306 25.592h26.919l-21.77 15.816 8.315 25.593-21.77-15.81-21.77 15.81 8.308-25.593-21.762-15.816h26.906l8.318-25.592zm303.591-81.47l8.306 25.592h26.919l-21.77 15.816 8.315 25.593-21.77-15.811-21.77 15.81 8.307-25.592-21.76-15.816h26.905l8.318-25.592zm-384.88 0l8.305 25.592h26.919l-21.77 15.816 8.315 25.593-21.77-15.811-21.77 15.81 8.307-25.592-21.76-15.816h26.905l8.318-25.592zm414.71-111.096l8.306 25.592h26.92l-21.77 15.815 8.315 25.593-21.77-15.81-21.77 15.81 8.307-25.593-21.762-15.815h26.907l8.318-25.592zm-444.567 0l8.305 25.592h26.92l-21.77 15.815 8.315 25.593-21.77-15.81-21.77 15.81 8.307-25.593-21.761-15.815h26.906l8.318-25.592zm29.856-111.097l8.306 25.592h26.919l-21.77 15.816 8.315 25.593-21.77-15.811-21.77 15.81 8.307-25.592-21.76-15.816h26.905l8.318-25.592zm384.881 0l8.306 25.592h26.919l-21.77 15.816 8.315 25.593-21.77-15.811-21.77 15.81 8.307-25.592-21.76-15.816h26.905l8.318-25.592zm-303.59-81.342l8.305 25.592h26.919l-21.77 15.816 8.315 25.593-21.77-15.811-21.77 15.81 8.308-25.592-21.762-15.816h26.906l8.318-25.592zm222.32 0l8.305 25.592h26.919l-21.77 15.816 8.315 25.593-21.77-15.811-21.77 15.81 8.307-25.592-21.76-15.816h26.905l8.318-25.592zm-111.16-29.78l8.305 25.592h26.919l-21.77 15.816 8.315 25.593-21.77-15.81-21.77 15.81 8.307-25.593-21.76-15.816h26.905l8.318-25.592z"/></g></svg>
