<svg xmlns="http://www.w3.org/2000/svg" viewBox="0 0 1000 237"><path fill="#132e3f" fill-rule="evenodd" d="M121.093 0c66.884 0 121.102 54.219 121.102 121.098 0 21.772-5.776 42.19-15.85 59.85 7.79-15.432 12.204-32.874 12.204-51.357 0-63.112-51.158-114.28-114.265-114.28-63.121 0-114.275 51.168-114.275 114.28 0 47.916 29.512 88.925 71.35 105.883C34.008 219.033 0 174.056 0 121.098 0 54.218 54.214 0 121.093 0zm22.61 26.298c48.274 8.372 85 50.432 85 101.088 0 56.716-45.963 102.665-102.656 102.665-56.712 0-102.666-45.949-102.666-102.665 0-7.563 2.466-12.046 2.466-7.177 0 53.038 42.013 95.48 95.218 95.48 53.228 0 96.372-43.005 96.372-96.042 0-45.27-31.437-83.2-73.735-93.35zM119.4 44.944c-.056 1.623-2.963 1.693-3.377 3.465 4.572-.009 7.237.67 12.95 3.428-4.768-.567-12.196-1.195-17.522 1.14-2.553 3.735-2.995 8.45-2.632 12.72 7.273-3.204 15.044-5.838 22.51-6.372l.745-.046 1.321.963c-8.493.865-17.944 5.716-23.665 9.665.81 3.54 2.372 4.526 4.35 7.14 3.334 3.423 7.357 6.106 11.8 8.409 4.892-5.898 9.768-16.078 15.113-21.821l.519-.542.362 1c-3.334 6.637-7.516 16.749-11.544 22.623 9.963 4.265 18.233 4.48 28.782 2.344.865-6.627-4.186-18.18-8.414-27.558 7.344 6.168 11.004 19.982 12.335 26.456 5.679-2.158 9.683-5.116 12.34-10.563 2.075-4.73.721-7.455 2.269-9.252l.14-.152.19.181c2.358 5.87 1.693 11.712-3 17.507-3.116 3.577-7.274 5.842-11.642 7.926 1.541 10.359 1.781 19.482.361 30.246l-.142 1.047v1.767c7.102-.912 17.307-3.925 23.846-7.684 1.777-10.641-1.116-21.32-5.325-31.907 9.163 6.647 9.702 28.61 9.702 28.61 4.242-2.558 6.475-6.563 9.284-10.721.884-1.6 2.507-4.116 3.018-3.642.521.46.545 3.32-1.693 7.019-1.586 3.348-5.274 8.744-10.446 12.223-.456.958-1.14 10.995-4.749 20.79-1.907 6.605-4.944 13.154-7.512 19.694 5.814-1.642 13.442-6.242 15.6-7.796a54 54 0 003.944-3.13l.005-.005 3.87-3.586 2.033-2.381c-3.377 10.465-8.921 21.311-16.582 30.498-16.49 18.437-38.563 33.801-64.975 33.434l-.802-.016-.046-.535c29.442-5.34 55.279-22.149 69.52-48.037-4.813 3.507-10.91 5.577-16.05 8.702-2.372 3.419-2.95 3.66-9.233 10.084 2.02-2.406 1.708-3.771 4.92-8.978l.224-.361 1.335-2.67 1.716-3.568c5.014-12.549 9.684-26.962 10.861-38.2-6.87 3.95-15.749 5.596-23.247 7.619-2.111 11.265-6.595 22.828-11.418 33.577 0 0-3.037 7.05-4.149 8.986-1.074 1.953-6.977 11.744-12.581 15.242 2.96-3.881 7.254-13.245 7.392-13.546l.003-.008 5.902-13.716c4.196-10.54 6.851-19.242 8.744-29.986-16.046 2.502-30.823-.79-46.493-6.903-6.241 11.396-10.26 22.107-13.818 34.07 10.893 6.014 22.032 7.703 33.577 8.27 1.483.181 1.623.26 2.67.488 1.19.503 2.478 1.889 3.464 2.26 1.335 1.15 1.242 1.085 2.093 1.717 0 0-.488 2.363-.925 2.363-11.128.402-27.415-1.35-40.948-6.757l-.736-.299-.79-.219c-1.321 7.605-2.568 15.377-3.661 24.391 12.356 5.63 31.424 5.643 43.923 6.246l.663.033-10.195 2.358c-12.247.721-22.977 1.703-35.06-2.279.176 7.842-2.605 5.414-3.82 4.2-2.083-1.381-1.041-6.642-1.562-6.944-10.986-5.214-19.926-10.428-25.675-20.13-1.303-2.665-1.858-3.415-2.367-5.445l-.07-.285.633-.121c7.651 8.242 16.888 14.065 27.735 19.45.925-7.53 2.349-15.762 3.558-23.636-11.707-6.842-22.019-15.051-29.977-25.438-4.284 6.46-4.2 15.154-6.46 22.55-4.26-9.484-.828-21.559 1.814-31.14-6.73-9.61-9.921-20.196-10.504-31.433-.025-.699.314-2.61.355-3.473l.004-.169.972-2.595c.587 4.772 2.075 10.284 4.563 16.498 1.847 5.414 4.15 9.074 7.158 13.92 4.433-11.297 12.419-21.171 19.707-30.553-5.474-7.125-7.516-18.94-6.455-23.4-3.647 2.321-8.247 4.954-13.973 12.595l.106-.375c1.503-5.342 2.61-9.032 14.964-18.14 3.321-10.2 7.26-12.182 13.186-14.15-4.549 2.95-5.353 4.81-7.218 10.312 0 0 13.116-11.288 32.437-11.888 3.544-2.372 6.005-3.926 9.865-3.675zm283.358-6.256c17.73 0 31.758 2.4 44.884 6.354l-1.977 25.832c-11.805-5.47-27.158-8.097-39.405-8.097-35.711 0-55.413 24.083-55.413 55.404 0 31.098 19.279 54.535 51.911 54.535 8.312 0 14.884-.883 20.13-2.19v-39.86h-32.404v-24.099h61.753v82.354c-16.2 4.381-33.06 7.884-49.479 7.884-49.493 0-83.888-24.75-83.888-76.438 0-52.334 31.977-81.679 83.888-81.679zm233.01 2.614c46.86 0 88.26 15.782 88.26 76.438 0 60.66-41.4 76.437-88.26 76.437h-41.824V41.302h41.823zm352.6 41.41c0 17.944-12.042 32.837-31.53 35.474v.423c8.32.66 13.125 8.986 16.204 15.768l24.52 59.795h-34.167l-18.39-47.753c-4.372-11.377-8.312-15.75-21.224-15.75h-9.865v63.503H883.26V41.307l35.04-.001c32.424-.025 70.067-.228 70.067 41.406zm-418.95-41.405v24.102h-54.311v37.665h51.684v24.093h-51.684v67.005h-30.66V41.307h84.972zm285.14 41.405c0 17.944-12.028 32.837-31.54 35.474v.423c8.317.66 13.135 8.986 16.215 15.768l24.52 59.795h-34.167L811.2 146.42c-4.39-11.377-8.312-15.75-21.242-15.75h-9.865v63.503h-30.66V41.307l35.057-.001c32.42-.025 70.068-.228 70.068 41.406zm-212.87-17.307h-17.074v104.674h17.074c25.614 0 50.363-19.051 50.363-52.34 0-33.279-24.749-52.334-50.363-52.334zM79.544 98.958c-7.153 9.563-15.316 19.465-18.102 32.33 8.116 9.498 17.153 19.591 29.042 25.805 1.25-7.195 6.325-23.967 12.963-35.2-9.554-6.195-17.62-13.81-23.903-22.935zm48.377-7.056c-6.554 10.526-11.284 19.982-15.121 28.014 14.81 7.219 29.735 7.596 44.833 6.875 2.158-11.154 3.05-21.182 1.316-31.819-10.386 1.535-20.884.833-31.028-3.07zM105.665 73.48c-9.158 5.358-16.8 12.228-22.874 21.005 6.746 8.202 13.489 16.945 23.5 21.482l.593.262L123 89.614c-7.098-4.112-13.512-8.972-17.335-16.135zm7.167-40.938l1.354.008c14.375.182 27.286 3.993 39.166 9.583l.741.352-.307.474a51.605 51.605 0 01-4.772-.325c-10.107-3.935-21.163-6.112-32.744-6.112-40.172 0-72.963 24.642-83.428 59.81-.772 2.567-1.48 5.869-1.74 8.641-.311 3.28-.255 3.958-.688 6.223-1.13 2.424-3.977 1.507-4.498-1.735-.507-3.176.312-7.176 1.042-10.711 7.617-36.698 40.615-65.587 84.526-66.198l1.348-.01zm811.62 32.869h-10.536v41.157h10.075c15.107 0 32.418-2.19 32.418-21.237 0-18.193-16.743-19.888-31.958-19.92zm-133.815 0h-10.544v41.157h10.084c15.097 0 32.409-2.19 32.409-21.237 0-18.193-16.748-19.888-31.95-19.92zm-684.41-12.284c-12.687.432-22.19 6.748-30.71 13.367-1.539 8.03-.197 14.646 3.79 21.801l.27.478 24.618-20.195c-1-5.14-.581-10.344 2.033-15.451z"/></svg>