<svg xmlns="http://www.w3.org/2000/svg" viewBox="0 0 1000 600"><path fill="#132e3f" fill-rule="evenodd" d="M150.268 239.767l.235.362a35.11 35.11 0 011.514 2.61l.199.384c3.4 6.684 4.806 14.696 4.806 25.119v311.877c0 4.578-1.146 7.71-3.595 7.817l-.13.003c-1.445 0-3.328-1.022-5.679-3.374L12.091 461.257V146.06l.001.001 40.795 26.448 85.053 55.142.038.024.046.028.067.043.013.01h.001a64.833 64.833 0 012.129 1.557c1.95 1.488 3.702 3.015 5.272 4.605.711.72 1.386 1.454 2.023 2.202a37.647 37.647 0 012.006 2.573c.168.237.332.475.494.714l.24.36zm-118.94-92.675l194.004 58.182c11.84 4.207 19.905 17.133 19.905 30.9v275.154c0 4.78-1.615 8.564-4.547 10.65-1.724 1.228-3.85 1.833-6.228 1.805-1.666-.02-3.452-.35-5.309-.992-.094-.03-.187-.06-.282-.088l-59.76-17.45V267.064c0-2.456-.082-4.833-.253-7.133l-.05-.625a74.15 74.15 0 00-.88-6.905 64.162 64.162 0 00-.394-2.035l-.122-.566c-1.168-5.294-2.967-10.12-5.49-14.53-3.942-6.89-9.651-12.763-17.478-17.81L31.329 147.094zm243.205-7.71c10.739.007 19.477 8.737 19.477 19.462v279.634c0 10.727-8.735 19.459-19.462 19.459h-.002l-17.218-.03V233.33c0-.335-.005-.669-.015-1.004l-.018-.5c-.323-7.238-2.945-14.538-7.109-20.875a47.256 47.256 0 00-1.126-1.639l-.31-.426a47.642 47.642 0 00-2.133-2.69 45.796 45.796 0 00-6.168-5.999l-.407-.323a42.377 42.377 0 00-2.082-1.53l-.425-.288c-2.563-1.718-5.289-3.126-8.121-4.15l-.473-.167-145.51-41.099-46.944-13.258h238.046zM240.717 63.78c2.916 2.068 4.52 5.834 4.52 10.606v54.541l-208.75-.029 192.717-65.882c1.988-.696 3.894-1.032 5.655-1.012 2.231.024 4.227.62 5.858 1.776zm-83.802-43.75v55.432l-130.84 47.724 122.93-106.429a22.84 22.84 0 012.155-1.676l.066-.043a12.297 12.297 0 011.1-.654c.11-.056.217-.108.321-.156.607-.278 1.128-.416 1.576-.435.042-.002.083-.002.123-.002 2.27.01 2.56 3.185 2.569 6.24zM405.17 364.385c4.505 0 6.917 1.287 6.917 3.78 0 2.092-1.528 3.78-3.458 3.78-1.448 0-2.575-.725-3.459-2.17l-1.367-2.093-.563-.803c-5.55.32-7.64 2.895-8.284 10.214l-.563 5.712h9.973l-.24 2.814H394.07l-2.733 28.794c-.965 9.732-2.092 13.914-4.988 17.856-3.056 4.101-7.48 6.435-12.225 6.435-2.976 0-4.424-1.208-4.424-3.46 0-2.09 1.448-3.94 3.216-3.94 1.69 0 3.058 1.368 4.666 4.584 4.665-1.528 7.08-5.71 7.882-13.27l3.54-36.999h-6.917l.321-2.814h6.837l.564-5.39c.402-4.746 1.85-7.723 4.664-9.814 2.816-2.011 6.676-3.216 10.697-3.216zm22.812 18.015c7.48 0 12.065 5.954 12.065 15.766 0 13.19-8.204 23.888-18.178 23.888-7.48 0-11.983-6.033-11.983-16.247 0-1.046.08-2.174.24-3.3 1.367-11.66 8.847-20.107 17.856-20.107zm287.292-18.899c7.2 0 11.502 2.171 15.001 5.91 3.217 3.46 4.384 7.159 4.384 9.21 0 1.489-.362 2.452-1.167 3.259-.844.803-1.808 1.204-3.016 1.204-1.086 0-1.97-.36-2.574-.844-.923-.725-1.487-1.768-2.131-3.256-2.092-4.907-5.269-7.764-10.657-7.764-3.377 0-6.152 1.328-8.245 3.58-3.016 3.259-3.418 6.917-3.418 17.817 0 10.898.402 14.558 3.418 17.814 2.093 2.253 4.868 3.58 8.245 3.58 5.388 0 8.565-2.855 10.657-7.762.644-1.488 1.208-2.534 2.13-3.259.604-.482 1.49-.843 2.575-.843 1.208 0 2.172.4 3.016 1.208.805.803 1.167 1.769 1.167 3.256 0 2.051-1.167 5.75-4.384 9.21-3.5 3.74-7.8 5.913-15 5.913-6.234 0-11.06-2.134-14.76-5.832-5.463-5.466-5.743-11.086-5.75-22.734v-.55c0-12.028.202-17.736 5.75-23.286 3.7-3.702 8.526-5.83 14.76-5.83zm-44.88.16c1.728 0 3.056.803 3.7 1.97.574 1.072.638 1.744.643 3.648v32.668c0 11.823-8.848 19.787-20.51 19.787-11.663 0-20.511-7.964-20.511-19.787v-32.373c0-2.133.041-2.818.644-3.944.644-1.166 1.97-1.969 3.7-1.969 1.729 0 3.056.803 3.7 1.97.603 1.125.643 1.81.643 3.943v31.97c0 7.68 4.665 12.466 11.823 12.466 7.159 0 11.823-4.787 11.823-12.466v-31.97c0-2.133.04-2.818.645-3.944.643-1.166 1.97-1.969 3.7-1.969zm244.782-.16c6.273 0 11.1 2.13 14.8 5.83 5.465 5.465 5.781 11.083 5.79 22.736v.55c0 12.024-.24 17.734-5.79 23.285-3.7 3.698-8.527 5.832-14.8 5.832-6.313 0-11.139-2.134-14.839-5.832-5.464-5.466-5.744-11.086-5.751-22.734v-.55c0-12.028.201-17.736 5.751-23.286 3.7-3.702 8.526-5.83 14.839-5.83zm-45.845.16c1.728 0 3.055.803 3.699 1.97.574 1.072.638 1.744.643 3.648v46.382c0 2.129-.04 2.814-.643 3.94-.644 1.167-1.97 1.97-3.699 1.97-1.731 0-3.057-.803-3.7-1.97-.575-1.073-.638-1.745-.643-3.646v-46.381c0-2.133.039-2.818.643-3.944.643-1.166 1.969-1.969 3.7-1.969zm-27.148.323c1.85 0 2.655.078 3.54.56 1.045.604 1.769 1.771 1.769 3.298 0 1.53-.724 2.695-1.77 3.3-.884.48-1.689.561-3.54.561h-10.776v43.958c0 2.129-.04 2.814-.644 3.94-.643 1.167-1.97 1.97-3.7 1.97-1.729 0-3.056-.803-3.7-1.97-.574-1.073-.638-1.745-.643-3.646v-44.252h-10.777c-1.85 0-2.655-.08-3.54-.56-1.045-.606-1.769-1.77-1.769-3.301 0-1.527.724-2.694 1.769-3.297.885-.483 1.69-.561 3.54-.561h30.24zm-69.358-.323c1.368 0 2.332.401 3.178 1.207.683.643 1.126 1.327 1.728 2.974l17.535 46.692c.844 2.253 1.366 4.063-.282 5.75-.764.804-1.97 1.287-3.178 1.287-.924 0-1.728-.32-2.371-.845-.805-.643-1.168-1.366-1.89-3.296l-2.857-7.682h-23.727l-2.854 7.682c-.725 1.93-1.087 2.653-1.89 3.296a3.704 3.704 0 01-2.374.845c-1.206 0-2.413-.483-3.177-1.287-1.649-1.687-1.127-3.497-.28-5.75l17.533-46.692c.603-1.647 1.045-2.331 1.73-2.974.843-.806 1.808-1.207 3.176-1.207zm222.664 0c1.728 0 3.055.803 3.7 1.97.574 1.072.638 1.744.642 3.648v46.783c0 1.888-.282 3.178-1.246 4.141-.885.885-1.97 1.368-3.297 1.368-2.051 0-3.34-1.246-5.068-3.821l-24.853-36.717v34.628c0 2.129-.041 2.814-.644 3.94-.644 1.167-1.97 1.97-3.699 1.97-1.73 0-3.057-.803-3.7-1.97-.604-1.126-.643-1.811-.643-3.94V369.21c0-1.889.281-3.215 1.246-4.182.885-.884 1.97-1.367 3.298-1.367 2.05 0 3.337 1.246 5.068 3.82l24.852 36.717v-34.624c0-2.133.04-2.818.643-3.944.645-1.166 1.97-1.969 3.7-1.969zm-447.233.323c1.85 0 2.655.078 3.54.56 1.045.604 1.768 1.771 1.768 3.298 0 1.53-.723 2.695-1.768 3.3-.885.48-1.69.561-3.54.561h-23.004v16.81h18.902c1.85 0 2.654.083 3.54.563 1.044.605 1.77 1.771 1.77 3.3 0 1.527-.726 2.693-1.77 3.296-.886.483-1.69.565-3.54.565h-18.902v17.29h23.004c1.85 0 2.655.083 3.54.565 1.045.603 1.768 1.77 1.768 3.297 0 1.528-.723 2.694-1.768 3.297-.885.483-1.69.565-3.54.565h-26.38c-1.288 0-2.816 0-4.063-1.248-1.183-1.184-1.242-2.622-1.245-3.867v-46.844c0-1.288 0-2.817 1.245-4.062 1.185-1.184 2.623-1.243 3.867-1.246h26.576zM478.479 382.4c2.09 0 3.217.966 3.217 2.736 0 1.044-.484 2.171-1.368 3.538-.885 1.208-1.609 1.69-2.735 1.69-1.206 0-2.01-.4-3.861-1.931a6.25 6.25 0 01-.643.724c-.4.402-1.207 1.368-2.494 2.816-1.447 1.688-2.411 2.896-2.975 3.539l-2.896 3.699-1.609 1.931-2.332 20.109h-5.227l3.7-32.094v-.561c0-.565-.082-.885-.324-1.126l-.562-.644-6.354 7.077-1.206-1.045c4.987-7.722 7.883-10.458 11.099-10.458 1.931 0 2.896 1.048 2.896 3.137 0 .405 0 .885-.08 1.368l-1.368 11.744c5.389-8.525 7.078-11.02 9.41-13.432 1.69-1.85 3.62-2.817 5.712-2.817zm114.66-18.416c7.198 0 12.467 2.412 16.327 7.277 4.022 5.149 4.223 11.18 4.223 21.356 0 10.173-.282 16.286-4.304 21.434-3.821 4.906-9.048 7.2-16.247 7.2h-14.84c-1.285 0-2.815 0-4.062-1.248-1.183-1.184-1.242-2.622-1.245-3.867v-46.844c0-1.288 0-2.817 1.245-4.062 1.185-1.184 2.624-1.243 3.868-1.246h15.034zm-165.961 20.83c-6.837 0-11.342 9.25-11.342 23.246 0 1.205.081 2.33.162 3.539.483 5.228 2.815 8.042 6.756 8.042 4.424 0 7.4-3.137 9.41-9.812 1.287-4.263 2.01-9.17 2.01-13.432 0-7.723-2.331-11.582-6.996-11.582zm487.998-13.594c-3.497 0-6.434 1.328-8.525 3.58-2.813 2.972-3.361 6.37-3.377 17.307v.51c0 11.34.521 14.758 3.377 17.774 2.091 2.252 5.028 3.62 8.525 3.62 3.46 0 6.394-1.368 8.526-3.62 2.772-2.97 3.361-6.33 3.378-17.264v-.51c0-11.342-.563-14.8-3.378-17.817-2.132-2.252-5.067-3.58-8.526-3.58zm-323.044.483h-10.455v41.825h10.455c4.143 0 7.441-1.126 9.853-3.9 2.798-3.153 3.01-8.31 3.017-16.495v-.516c0-8.486-.16-13.796-3.017-17.012-2.412-2.775-5.71-3.902-9.853-3.902zm180.693 5.59l-9.17 25.055h18.339l-9.17-25.055zm36.192-107.763c5.43 0 8.727.885 13.472 3.379 2.011 1.045 3.499 2.533 3.499 4.382 0 .925-.322 1.85-1.006 2.655-.643.764-1.487 1.247-2.654 1.247-.925 0-2.332-.523-3.498-1.247-3.418-2.091-6.112-2.815-10.134-2.815-6.758 0-10.376 3.66-10.376 8.887 0 2.091.564 4.023 2.09 5.309 1.449 1.287 3.138 2.091 6.275 2.574l6.837 1.045c5.227.805 8.123 2.011 10.616 4.264 3.058 2.814 4.665 6.755 4.665 11.742 0 10.536-8.526 16.81-20.59 16.81-6.877 0-11.18-1.327-15.402-3.86-2.978-1.771-4.063-2.975-4.063-5.068 0-.965.442-2.091 1.206-2.854a3.498 3.498 0 012.535-1.048c1.126 0 2.131.363 3.7 1.449 3.86 2.654 7.238 3.661 12.185 3.661 7.56 0 11.823-3.219 11.823-8.849 0-2.572-.644-4.583-2.253-5.95-1.447-1.288-3.378-2.011-6.233-2.415l-6.796-.964c-4.624-.684-8.124-2.133-10.818-4.626-2.854-2.613-4.222-6.313-4.222-10.978 0-9.974 7.237-16.73 19.142-16.73zm-160.706.16c1.728 0 3.056.806 3.7 1.972.603 1.126.643 1.81.643 3.941v46.488c0 1.89-.282 3.178-1.247 4.144-.885.883-1.97 1.368-3.296 1.368-2.052 0-3.34-1.249-5.068-3.822l-24.853-36.717v34.626c0 2.132-.042 2.816-.644 3.942-.644 1.164-1.97 1.97-3.7 1.97-1.729 0-3.056-.806-3.7-1.97-.575-1.072-.637-1.744-.642-3.647V275.24c0-1.89.28-3.217 1.245-4.183.884-.885 1.97-1.368 3.298-1.368 2.051 0 3.337 1.247 5.068 3.821l24.853 36.716v-34.624c0-2.132.04-2.815.643-3.941.644-1.166 1.97-1.972 3.7-1.972zm236.391 0c1.73 0 3.057.806 3.7 1.972.604 1.126.644 1.81.644 3.941v46.087c0 2.132-.04 2.816-.644 3.942-.643 1.164-1.97 1.97-3.7 1.97-1.728 0-3.056-.806-3.7-1.97-.574-1.072-.638-1.744-.643-3.647v-19.76h-23.244v19.465c0 2.132-.04 2.816-.643 3.942-.644 1.164-1.972 1.97-3.7 1.97-1.73 0-3.057-.806-3.7-1.97-.576-1.072-.638-1.744-.643-3.647v-46.382c0-2.132.039-2.815.643-3.941.643-1.166 1.97-1.972 3.7-1.972 1.728 0 3.056.806 3.7 1.972.574 1.072.638 1.743.643 3.646v19.196h23.244v-18.901c0-2.132.04-2.815.643-3.941.644-1.166 1.972-1.972 3.7-1.972zm31.611 0c1.729 0 3.056.806 3.7 1.972.603 1.126.643 1.81.643 3.941v46.087c0 2.132-.04 2.816-.643 3.942-.644 1.164-1.971 1.97-3.7 1.97-1.73 0-3.056-.806-3.7-1.97-.603-1.126-.643-1.81-.643-3.942v-46.087c0-2.132.04-2.815.643-3.941.644-1.166 1.97-1.972 3.7-1.972zm-511.71.323c11.181 0 18.34 7.4 18.34 17.373s-7.159 17.292-18.34 17.292h-13.03v17.012c0 2.132-.04 2.816-.642 3.942-.645 1.164-1.97 1.97-3.7 1.97-1.73 0-3.057-.806-3.7-1.97-.575-1.072-.637-1.744-.642-3.647v-46.663c0-1.287 0-2.817 1.245-4.063 1.185-1.184 2.623-1.243 3.867-1.246h16.602zm50.587-.323c1.368 0 2.333.402 3.179 1.208.683.643 1.126 1.326 1.728 2.975l17.534 46.69c.845 2.253 1.367 4.062-.28 5.752-.765.803-1.971 1.288-3.18 1.288a3.72 3.72 0 01-2.37-.845c-.805-.646-1.167-1.368-1.89-3.3l-2.856-7.678h-23.728l-2.854 7.679c-.725 1.931-1.087 2.653-1.89 3.299-.645.52-1.45.845-2.374.845-1.205 0-2.413-.485-3.177-1.288-1.649-1.69-1.126-3.5-.281-5.752l17.534-46.69c.604-1.649 1.045-2.332 1.728-2.975.845-.806 1.81-1.208 3.177-1.208zm62.738.323c10.858 0 17.776 6.997 17.776 16.728 0 8.165-4.946 13.393-11.34 15.203l10.254 17.895c1.005 1.771 1.326 2.494 1.367 3.58.04 1.407-.643 2.693-2.13 3.581-.726.441-1.57.603-2.333.603-2.172 0-3.178-1.528-4.304-3.54l-11.944-20.913h-10.858v18.54c0 2.132-.041 2.816-.644 3.942-.644 1.164-1.97 1.97-3.699 1.97-1.73 0-3.057-.806-3.7-1.97-.604-1.126-.643-1.81-.643-3.942v-46.368c0-1.287 0-2.817 1.246-4.063 1.184-1.184 2.624-1.243 3.867-1.246h17.085zm68.77 0c1.851 0 2.656.08 3.54.562 1.046.604 1.77 1.77 1.77 3.298s-.724 2.694-1.77 3.298c-.884.483-1.689.564-3.54.564h-10.776v43.955c0 2.132-.04 2.816-.644 3.942-.643 1.164-1.97 1.97-3.7 1.97-1.729 0-3.057-.806-3.7-1.97-.575-1.072-.639-1.744-.643-3.647v-44.25h-10.777c-1.851 0-2.655-.08-3.54-.564-1.046-.604-1.77-1.77-1.77-3.298s.724-2.694 1.77-3.298c.885-.483 1.689-.562 3.54-.562h30.24zm378.6 0c11.18 0 18.339 7.4 18.339 17.373s-7.158 17.292-18.34 17.292h-13.03v17.012c0 2.132-.04 2.816-.642 3.942-.645 1.164-1.972 1.97-3.7 1.97-1.73 0-3.056-.806-3.7-1.97-.575-1.072-.639-1.744-.643-3.647v-46.663c0-1.287 0-2.817 1.245-4.063 1.184-1.184 2.624-1.243 3.867-1.246h16.603zm-211.097 0c10.858 0 17.775 6.997 17.775 16.728 0 8.165-4.947 13.393-11.34 15.203l10.255 17.895c1.004 1.771 1.326 2.494 1.368 3.58.039 1.407-.645 2.693-2.132 3.581-.725.441-1.569.603-2.333.603-2.172 0-3.178-1.528-4.304-3.54l-11.944-20.913H740.69v18.54c0 2.132-.042 2.816-.643 3.942-.646 1.164-1.972 1.97-3.7 1.97-1.73 0-3.057-.806-3.7-1.97-.576-1.072-.638-1.744-.643-3.647v-46.663c0-1.287 0-2.817 1.245-4.063 1.185-1.184 2.624-1.243 3.868-1.246H754.2zm-46.932 0c1.85 0 2.655.08 3.54.562 1.043.604 1.768 1.77 1.768 3.298s-.725 2.694-1.768 3.298c-.885.483-1.69.564-3.54.564h-23.003v16.809h18.901c1.85 0 2.654.08 3.538.564 1.046.602 1.771 1.768 1.771 3.296 0 1.53-.725 2.694-1.771 3.298-.884.482-1.688.564-3.538.564h-18.901v17.293h23.003c1.85 0 2.655.078 3.54.561 1.043.605 1.768 1.77 1.768 3.298 0 1.53-.725 2.694-1.768 3.3-.885.482-1.69.56-3.54.56h-26.382c-1.286 0-2.815 0-4.062-1.245-1.246-1.248-1.246-2.775-1.246-4.062v-46.65c0-1.286 0-2.816 1.246-4.062 1.184-1.184 2.624-1.243 3.867-1.246h26.577zm-252.079 13.31l-9.169 25.056h18.339l-9.17-25.055zm509.626-5.588h-12.548v19.222h12.548c6.112 0 10.133-3.539 10.133-9.571 0-6.153-4.021-9.651-10.133-9.651zm-560.695 0h-12.547v19.222h12.547c6.112 0 10.134-3.539 10.134-9.571 0-6.153-4.022-9.651-10.134-9.651zm349.436 0h-12.868v18.016h12.868c5.792 0 9.733-3.299 9.733-8.929 0-5.67-3.941-9.087-9.733-9.087zm-236.272 0h-12.869v18.016h12.869c5.79 0 9.732-3.299 9.732-8.929 0-5.67-3.942-9.087-9.732-9.087zm-115.9-102.174c7.2 0 11.502 2.17 15.002 5.911 3.217 3.458 4.383 7.158 4.383 9.21 0 1.487-.361 2.453-1.166 3.257-.844.803-1.809 1.207-3.017 1.207-1.085 0-1.97-.362-2.573-.845-.924-.725-1.487-1.77-2.132-3.258-2.091-4.906-5.268-7.762-10.656-7.762-3.378 0-6.153 1.328-8.246 3.58-2.968 3.206-3.404 6.803-3.417 17.31v.506c0 11.34.523 14.798 3.378 17.815 2.092 2.252 5.027 3.58 8.525 3.58 3.38 0 6.274-1.248 8.486-3.459 2.655-2.736 3.258-5.832 3.258-11.865h-7.24c-1.849 0-2.653-.079-3.538-.562-1.046-.604-1.769-1.77-1.769-3.298s.723-2.694 1.77-3.298c.884-.482 1.688-.562 3.538-.562h10.295c1.287 0 2.815 0 4.062 1.247 1.184 1.184 1.244 2.622 1.247 3.866v1.039c0 9.33-.966 14.237-5.43 18.7-3.98 3.982-8.606 5.912-14.679 5.912-6.313 0-11.14-2.13-14.838-5.831-5.38-5.379-5.734-10.908-5.75-22.192v-2.184c.016-11.284.37-16.815 5.75-22.194 3.699-3.7 8.525-5.83 14.758-5.83zm109.868 0c6.275 0 11.101 2.13 14.801 5.83 5.465 5.465 5.782 11.085 5.79 22.735v.55c0 12.026-.24 17.735-5.79 23.285-3.7 3.7-8.526 5.83-14.8 5.83-6.313 0-11.139-2.13-14.84-5.83-5.378-5.379-5.733-10.908-5.75-22.192v-2.184c.017-11.284.372-16.815 5.75-22.194 3.701-3.7 8.527-5.83 14.84-5.83zm120.49.16c1.366 0 2.332.402 3.177 1.206.683.644 1.126 1.328 1.728 2.977l17.536 46.69c.843 2.252 1.366 4.061-.283 5.75-.764.805-1.97 1.288-3.177 1.288a3.711 3.711 0 01-2.373-.845c-.804-.643-1.166-1.367-1.89-3.298l-2.855-7.68h-23.728l-2.854 7.68c-.725 1.931-1.087 2.655-1.89 3.298a3.711 3.711 0 01-2.373.845c-1.206 0-2.414-.483-3.178-1.288-1.648-1.689-1.126-3.498-.281-5.75l17.534-46.69c.604-1.65 1.046-2.333 1.73-2.977.844-.804 1.809-1.206 3.177-1.206zm-186.214 0c1.73 0 3.056.804 3.7 1.97.603 1.127.643 1.81.643 3.942v43.955h22.603c1.848 0 2.653.081 3.537.564 1.047.602 1.77 1.769 1.77 3.297 0 1.529-.723 2.695-1.77 3.298-.884.483-1.69.563-3.537.563h-25.98c-1.287 0-2.815 0-4.062-1.247-1.183-1.184-1.242-2.622-1.245-3.867v-46.563c0-2.131.038-2.815.642-3.942.643-1.166 1.97-1.97 3.7-1.97zm129.508.322c10.619 0 17.293 6.033 17.293 15.684 0 6.192-3.86 10.616-7.72 12.145 4.422 1.77 8.605 6.032 8.605 13.27 0 10.538-7.158 16.168-17.292 16.168h-17.857c-1.286 0-2.815 0-4.062-1.247-1.183-1.184-1.242-2.622-1.245-3.867v-46.845c0-1.286 0-2.815 1.245-4.062 1.247-1.246 2.776-1.246 4.062-1.246h16.97zm102.89-.322c1.729 0 3.056.804 3.7 1.97.603 1.127.643 1.81.643 3.942v43.955h22.601c1.85 0 2.654.081 3.539.564 1.046.602 1.769 1.769 1.769 3.297 0 1.529-.723 2.695-1.769 3.298-.885.483-1.69.563-3.539.563h-25.98c-1.285 0-2.815 0-4.061-1.247-1.184-1.184-1.243-2.622-1.246-3.867v-46.563c0-2.131.039-2.815.643-3.942.643-1.166 1.97-1.97 3.7-1.97zm-166.674 7.56c-3.497 0-6.433 1.328-8.523 3.58-2.857 3.016-3.379 6.474-3.379 17.816 0 11.34.522 14.759 3.379 17.775 2.09 2.251 5.026 3.62 8.523 3.62 3.461 0 6.396-1.369 8.527-3.62 2.815-3.016 3.378-6.435 3.378-17.775 0-11.342-.563-14.8-3.378-17.817-2.131-2.251-5.066-3.579-8.527-3.579zm63.866 24.733h-13.674v17.574h13.674c6.032 0 9.41-3.739 9.41-8.847 0-5.067-3.378-8.727-9.41-8.727zm56.624-18.66l-9.17 25.054h18.339l-9.17-25.054zm-57.428-5.59h-12.87v16.53h12.87c5.548 0 9.33-2.937 9.33-8.246 0-5.348-3.782-8.284-9.33-8.284z"/></svg>