<svg xmlns="http://www.w3.org/2000/svg" viewBox="0 0 1000 177"><path fill="#132e3f" d="M78.212 0h21.281c22.718 2.505 40.951 12.187 52.072 28.033 1.63 1.955 1.303 4.237-.326 5.867-1.304.978-2.934 1.304-4.564.326-10.104-5.215-21.512-8.149-32.92-8.8 9.778 7.822 18.253 16.948 25.098 27.053 1.303 1.955 2.281 3.911 3.585 5.867 3.462-3.462 5.708-7.532 6.74-12.209l.105-.503.067-.218c.711-2.146 2.614-3.357 4.822-3.042 2.282.652 3.586 2.608 3.26 4.89-1.63 7.17-5.542 13.69-11.083 18.252 7.68 14.401 11.905 30.687 12.365 47.008l.021.906v4.238c2.934-2.934 4.89-6.845 6.193-10.757 4.238-16.949 2.934-34.224-3.911-50.195-.978-1.956 0-4.237 1.956-5.215 1.955-.978 4.563 0 5.54 1.955 7.061 16.368 8.75 34 5.378 51.34l-.162.812v.652c0 .977-.326 1.955-.652 2.933-4.89 19.557-16.623 37.158-32.92 49.218-.815.543-1.404 1.086-2.143 1.63l-.465.325-.326.326a87.012 87.012 0 01-24.12 11.734C67.282 186.625 18.585 160.89 4.016 115.465l-.43-1.383v-.326l-.327-1.63C.978 104.306 0 96.158 0 88.008 0 42.55 34.268 5.374 78.212 0zM48.566 131.357c-2.608 15.32-.652 25.424 3.911 27.706.326.326.652.326.978.652 10.188 5.093 21.62 7.7 33.08 7.818l.818.004h.652c3.26 0 7.823-8.474 11.408-24.12a132.871 132.871 0 01-22.49-2.933c-9.778-1.956-19.23-5.215-28.357-9.127zm98.11 4.564c-1.956.977-4.238 1.63-6.845 2.607-10.115 3.477-20.535 5.115-31.262 5.21l-1.007.005v.326c-1.304 7.823-3.911 15.646-7.823 22.816 12.712-1.955 24.772-6.844 35.202-14.667 5.215-4.237 9.127-9.778 11.734-16.297zm555.337-5.23c4.454-.178 8.228 3.358 8.548 7.837v.326l-4.564.652v-.326l-.005-.206c-.113-2.192-2.02-4.031-4.232-4.031-3.26 0-5.215 2.933-5.215 7.497 0 4.563 1.956 7.17 5.215 7.17h.652l.177-.005c1.876-.113 3.399-2.01 3.083-3.906v-.326h-5.216l.326-3.585h9.779v5.215c-.326 4.237-4.238 7.496-8.8 7.17-6.194 0-10.105-4.237-10.105-11.733 0-7.497 3.585-11.735 10.104-11.735zM451.108 21.841c.978 0 1.63.652 1.63 1.63v129.074c.312.935-.57 1.572-1.502 1.626l-.128.004c-.978 0-1.63-.652-1.63-1.63V23.47c0-.977.652-1.63 1.63-1.63zm74.316 108.54c4.889 0 10.43 3.259 10.43 11.734 0 8.474-5.215 11.734-10.43 11.734s-10.43-3.26-10.43-11.734c0-8.475 5.54-11.734 10.43-11.734zm218.383 0c4.89 0 10.104 3.259 10.104 11.734 0 8.474-5.215 11.734-10.104 11.734-4.89 0-10.43-2.934-10.43-11.734 0-8.801 5.54-11.734 10.43-11.734zm-22.164.651c5.867 0 8.8 2.282 8.8 7.171 0 2.608-1.303 4.89-3.585 5.867.652.652 1.304 1.63 1.63 2.608.652 1.63 1.63 2.933 3.26 2.933h1.303v3.912h-.326c-.652 0-1.63.326-2.282.326-3.911 0-5.215-2.608-6.193-4.89-.977-2.281-1.63-3.585-3.585-3.585h-2.282v8.475h-4.889v-22.817h8.149zm40.743-.326v13.69c0 3.26 1.304 4.89 3.911 4.89 2.608 0 3.912-1.63 3.912-4.89v-13.69h4.889v13.364c0 8.149-4.563 9.779-8.8 9.779-2.282 0-4.89-.652-6.52-2.282-1.63-2.282-2.607-4.89-2.281-7.497v-13.364h4.889zm-275.098-.325l4.237 16.949 4.564-16.95h4.237l4.237 16.95 4.238-16.624h5.54l-6.518 23.143h-5.541l-4.238-14.668-4.237 14.342h-5.867l-6.519-23.142h5.867zm185.137.325v10.43l7.497-10.43h5.867l-8.475 11.409 8.8 11.734h-5.866l-7.823-10.757v10.757h-4.89v-23.143h4.89zm-125.815 0c5.867 0 8.8 2.282 8.8 7.171 0 2.608-1.303 4.89-3.585 5.867.652.978 1.304 1.956 1.304 2.608.978 1.63 1.63 2.933 3.26 2.933h1.303v3.912c-.652 0-1.63.326-2.281.326-3.912 0-5.215-2.608-6.193-4.89-.978-2.281-1.63-3.585-3.586-3.585h-2.281v8.475h-4.89v-22.817h8.15zm103.65-.325l7.823 14.341.326-14.341h4.89v23.142h-4.89l-8.148-13.69v13.69h-4.89V130.38h4.89zm137.224 0c5.867 0 9.126 2.933 9.126 7.822.326 4.238-2.933 7.497-7.17 7.823h-4.564v7.497h-4.889V130.38h7.497zm-222.62 0v18.904h10.103v4.238h-14.993V130.38h4.89zm47.913.325c4.89 0 7.497 1.956 7.497 6.193 0 3.26-1.304 4.238-2.608 4.564h-.326c2.608.652 4.564 2.933 4.564 5.54 0 4.238-2.934 6.52-8.15 6.52h-9.777v-22.817h8.8zm17.927-.325l4.563.325 8.475 22.817h-5.215l-1.956-5.541h-7.497l-1.955 5.54h-4.89l8.475-23.141zm-46.936 0c7.17 0 11.408 4.563 11.408 11.734 0 7.17-3.911 11.082-10.43 11.082h-7.823V130.38h6.845zM9.778 101.697c0 2.934.652 5.541 1.304 8.149 4.89 16.623 14.994 31.29 28.683 41.721a73.045 73.045 0 01.978-23.794c-7.497-3.911-14.667-8.8-20.86-14.668-3.912-3.585-7.171-7.17-10.105-11.408zm515.646 32.92c-3.26 0-5.215 2.608-5.215 7.498 0 4.889 1.955 7.496 5.215 7.496 1.955 0 5.215-.978 5.215-7.496 0-6.52-3.26-7.497-5.215-7.497zm218.383-.325c-3.26 0-5.215 2.607-5.215 7.497 0 4.889 1.956 7.496 5.215 7.496 1.956 0 5.215-.977 5.215-7.496 0-6.52-3.26-7.497-5.215-7.497zm-131.356 9.126h-3.585v5.867h3.911c2.608 0 3.586-.977 3.586-2.933s-1.956-2.934-3.912-2.934zm-28.683-9.126h-1.956v14.993h2.934c3.585 0 5.54-2.607 5.54-7.17 0-5.216-2.28-7.823-6.518-7.823zM388.201 28.36c8.8 0 17.275 1.303 25.424 3.585v30.313c-5.867-2.608-11.734-3.911-17.927-4.237-15.32 0-27.054 10.104-27.054 29.009 0 19.882 10.756 29.66 25.75 29.66 6.845 0 13.364-1.629 19.556-4.562v30.638c-8.474 2.934-16.949 4.564-25.75 4.564-31.29 0-56.062-20.209-56.062-61.278 0-38.462 26.076-57.692 56.063-57.692zm-61.278 2.281v27.706H282.27v18.579h39.765v27.705H282.27V145.7h-35.854V30.641h80.508zm-92.894 0V145.7h-36.18V30.641h36.18zM632.986 136.9l-2.608 7.171h4.89l-2.282-7.17zm153.846-2.281h-2.934l.326 7.497h2.934c2.933 0 4.237-1.304 4.237-3.586 0-2.281-1.63-3.911-4.563-3.911zm-65.515.326h-2.934v6.519h2.608c2.607 0 4.563-1.304 4.563-3.26 0-1.955-1.304-3.26-4.237-3.26zm-174.707 0h-3.26v6.519h2.608c2.608 0 4.564-1.304 4.564-3.26 0-1.955-1.63-3.26-3.912-3.26zm64.863-.326h-2.607v5.215h3.26c1.955 0 2.933-.978 2.933-2.608 0-1.955-1.304-2.607-3.586-2.607zM140.156 70.733c-8.251 4.443-17.43 7.34-26.633 7.791l-.746.031v9.453c0 15.645-.978 31.616-3.585 47.914 9.452 0 18.904-1.63 28.031-4.564 4.563-1.63 8.8-3.585 12.712-5.867a71.26 71.26 0 00.978-11.734c-.326-14.993-3.912-29.66-10.757-43.024zm-69.752-.652c-1.304 2.607-2.281 4.889-3.585 7.496a196.818 196.818 0 00-16.623 45.633c9.126 4.237 18.578 7.496 28.357 9.452 7.17 1.63 14.667 2.608 22.164 2.608 2.836-15.124 3.844-30.553 3.908-45.991l.003-1.597v-9.453c-5.215-.326-10.43-.978-15.319-1.955-6.519-1.304-12.712-3.586-18.905-6.193zM41.721 46.287c-7.17 4.889-13.69 11.082-19.23 18.253-4.89 6.844-8.801 14.341-11.083 22.49 2.934 7.497 7.823 14.341 14.016 19.882 5.215 4.89 11.082 9.127 17.6 12.386 3.912-15.645 9.453-30.964 16.624-45.306 1.304-2.608 2.608-4.89 3.911-7.497-4.563-2.607-8.8-5.54-12.712-9.126-3.585-2.934-6.844-6.845-9.126-11.082zM798.24 80.51c7.17 0 11.082 6.845 11.082 13.038 0 7.822-4.237 14.015-12.06 14.015-3.16.316-6.321-1.206-7.996-3.677l-.153-.234v14.342h-9.126l.326-36.832h8.149v4.563c1.955-3.585 5.867-5.541 9.778-5.215zm151.565 0c8.474 0 14.993 4.89 14.993 13.69 0 8.474-6.519 13.69-14.993 13.69-8.475 0-14.994-4.89-14.994-13.69s6.519-13.69 14.994-13.69zm-377.12 0c6.52 0 12.387 2.933 12.387 10.756v9.778c0 1.956 0 4.238.326 6.193h-8.149c0-1.158-.257-2.317-.315-3.705l-.01-.532c-1.63 2.934-4.89 4.89-8.15 4.89-5.215 0-9.778-2.608-9.778-8.15 0-7.822 8.475-8.8 13.364-8.8 1.304 0 2.933 0 4.237.326 0-3.585-2.607-4.563-5.867-4.563-2.933 0-5.867.652-8.474 1.956v-6.193c3.259-1.304 6.844-1.956 10.43-1.956zm337.028-8.149v8.475h6.193v6.193h-6.193v9.778c0 3.26.652 4.89 3.586 4.89.977 0 1.955-.327 2.607-.327l.326 5.867c-1.956.326-3.911.652-5.54.652-8.15 0-10.105-3.585-10.105-9.778V87.356h-5.215l.326-6.193h5.215v-5.867l8.8-2.934zm-198.5-.652c3.585 0 7.17.652 10.43 1.956l-.652 7.497c-2.934-1.63-5.867-2.282-9.127-2.608-6.192 0-11.082 4.89-11.408 11.082 0 6.193 4.89 11.083 11.083 11.408h.977c2.934 0 5.867-.651 8.8-1.955l.653 7.497c-3.26.977-6.845 1.303-10.43 1.303-9.453 0-20.21-4.889-20.21-17.927 0-12.06 8.475-18.253 19.884-18.253zm28.357 8.8c8.8 0 14.993 4.89 14.993 13.69 0 8.475-6.519 13.69-14.993 13.69-8.475 0-15.32-4.889-15.32-13.69 0-8.8 6.52-13.69 15.32-13.69zm-102.673 0c2.608 0 4.89.327 7.17 1.305l-.651 6.845c-1.63-.978-3.585-1.63-5.541-1.304-3.51 0-6.706 2.81-6.84 6.29l-.005.229v.652c0 3.83 3.125 6.722 6.927 6.84l.244.004h.326c1.955 0 3.911-.326 5.54-1.303l.327 6.519c-2.282.651-4.89 1.303-7.497 1.303-8.475 0-14.993-4.889-14.993-13.69 0-8.474 6.518-13.69 14.993-13.69zm190.678 0c8.8 0 14.994 4.89 14.994 13.69 0 8.475-6.52 13.69-14.994 13.69-8.475 0-15.32-4.889-15.32-13.69 0-8.8 6.52-13.69 15.32-13.69zm53.455 0c6.519 0 12.386 2.934 12.386 10.757v9.778c0 1.956 0 4.238.326 6.193h-8.475c0-1.158-.257-2.317-.314-3.705l-.012-.532c-1.63 2.934-4.889 4.89-8.148 4.89-5.215 0-9.779-2.608-9.779-8.15 0-7.822 8.475-8.8 13.364-8.8 1.304 0 2.934 0 4.237.326 0-3.585-2.607-4.563-5.867-4.563-2.933 0-5.867.652-8.148 1.956v-6.193c3.26-1.304 6.845-1.956 10.43-1.956zm-220.665.327c9.778 0 13.038 6.845 13.038 14.667v1.63l-17.927-.326c.326 3.586 3.26 4.89 7.497 4.89 2.933 0 5.54-.653 7.822-1.956v6.519c-2.933.977-6.193 1.63-9.452 1.63-8.475 0-14.994-5.216-14.994-13.69-.325-7.171 5.216-13.038 12.386-13.364h1.63zm114.081-.326c.978 0 1.956 0 2.933.326l-.325 7.497c-.978-.326-1.956-.326-2.934-.326-4.237 0-6.519 2.933-6.519 8.148v11.082h-9.126V81.163h8.148v4.889c1.304-3.26 4.238-5.541 7.823-5.541zm-253.26.652v26.075h-9.126V81.163h9.126zm-13.69-8.8v6.518h-14.015v7.823h13.364v6.519H493.48v14.015h-9.452V72.362h23.468zm100.392 8.148c5.215-.326 9.778 3.585 10.104 8.8v17.927h-9.126v-12.71c0-4.89-1.63-6.52-4.238-6.52-3.585 0-5.54 2.608-5.54 8.15v11.081h-9.127l.326-26.075h8.149v4.889c1.63-3.585 5.54-5.867 9.452-5.541zm254.563 0c.978 0 1.956 0 2.934.326l-.326 7.497c-.978-.326-1.956-.326-2.934-.326-4.237 0-6.519 2.933-6.519 8.148v11.082h-9.126V81.163h8.148v4.889c.978-3.26 4.238-5.541 7.823-5.541zm124.511 0c5.125-.32 9.621 3.452 10.084 8.532l.02.268v17.927h-9.126v-12.71c0-4.89-1.63-6.52-4.237-6.52-3.586 0-5.541 2.608-5.541 8.15v11.081h-9.127V81.163h8.149v4.889c1.956-3.585 5.867-5.867 9.778-5.541zm-57.04.652v26.075h-9.127V81.163h9.127zM544.98 80.51c5.126-.32 9.621 3.452 10.084 8.532l.02.268v17.927h-9.126v-12.71c0-4.89-1.63-6.52-4.237-6.52-3.585 0-5.541 2.608-5.541 8.15v11.081h-8.8V81.163h8.148v4.889c1.63-3.585 5.541-5.867 9.452-5.541zm339.635 15.32h-3.91c-2.934 0-5.542.977-5.542 3.585 0 1.63 1.63 2.607 3.911 2.607 3.186 0 5.437-2.801 5.538-5.971l.003-.222zm-308.018 0h-3.585c-2.934 0-5.541.977-5.541 3.585 0 1.63 1.63 2.607 3.585 2.607 3.26-.326 5.867-2.933 5.541-6.193zm162.647-9.127c-4.237 0-5.867 3.585-5.867 7.497 0 3.911 1.63 7.17 5.867 7.17s5.867-3.259 5.867-7.17c0-3.912-1.63-7.497-5.867-7.497zm88.005 0c-4.237 0-5.867 3.585-5.867 7.497 0 3.911 1.63 7.17 5.867 7.17s5.867-3.259 5.867-7.17c0-3.912-1.63-7.497-5.867-7.497zm122.556 0c-4.238 0-5.868 3.585-5.868 7.497 0 3.911 1.63 7.17 5.868 7.17 4.237 0 5.867-3.259 5.867-7.17 0-3.912-1.63-7.497-5.867-7.497zm-154.499.652h-.651c-3.26 0-5.542 2.933-5.542 6.845-.325 3.26 2.282 6.193 5.542 6.519 3.259 0 5.54-2.934 5.54-6.845.319-3.184-1.54-6.057-4.663-6.492l-.226-.027zm-134.94-.978c-3.586 0-4.89 2.607-4.89 5.541h9.778c0-2.934-1.303-5.541-4.889-5.541zm-139.18-15.971v6.519h-9.126v-6.52h9.126zm408.736 0v6.519h-9.127v-6.52h9.127zm-822.686-39.44c2.934 12.712 4.563 25.75 5.215 39.114 8.475-.326 16.623-2.608 23.794-6.52-1.304-2.28-2.607-4.237-3.911-6.192-6.845-10.105-15.32-19.231-25.098-26.402zm-8.8-1.304c-9.453 10.105-17.276 21.513-24.12 33.573 4.925 1.847 10.432 3.694 15.696 4.717l.927.172.326.326c4.237.978 8.8 1.63 13.037 1.63a215.931 215.931 0 00-5.867-40.418zm-59.974-4.237C25.098 36.182 15.319 50.85 11.082 67.147c1.304-2.607 2.934-5.215 4.89-7.497 6.192-8.148 14.015-15.319 22.49-21.186-.978-3.911-1.304-7.823-.326-11.734 0-.326.326-.978.326-1.304zm528.03 7.823c9.78 0 13.039 6.845 13.039 14.667v1.63h-17.927c.326 3.586 3.26 4.89 7.822 4.89 2.934 0 5.541-.653 7.823-1.956v6.519c-2.933.977-6.193 1.63-9.452 1.63-8.475 0-14.994-5.216-14.994-13.69-.326-7.171 5.215-13.364 12.386-13.69h1.304zm-22.49-7.823V33.9h6.194v6.193h-6.193v9.778c0 3.26.652 4.89 3.585 4.89.978 0 1.956 0 2.934-.327l.326 5.867c-1.956.326-3.912.326-5.542.326-8.148 0-10.104-3.585-10.104-9.778V40.094h-5.215V33.9h5.215v-5.867l8.8-2.608zm176.989 7.823c8.475 0 14.993 4.889 14.993 13.69 0 8.8-6.518 13.69-14.993 13.69-8.475 0-14.994-5.216-14.994-13.69 0-8.801 6.52-13.69 14.994-13.69zm-39.765-7.823V33.9h6.519v6.193h-6.52v9.778c0 3.26.653 4.89 3.586 4.89.978 0 1.956 0 2.934-.327l.325 5.867c-1.955.326-3.91.326-5.54.326-8.15 0-10.105-3.585-10.105-9.778V40.094h-5.215V33.9h5.215v-5.867l8.8-2.608zm-29.335 7.497c6.518 0 12.385 2.933 12.385 10.756v9.778c0 1.956 0 4.238.326 6.193l-8.148.326c0-1.159-.258-2.317-.315-3.705l-.011-.532c-1.63 2.934-4.89 4.89-8.475 4.563-5.215 0-9.778-2.607-9.778-8.148 0-8.042 8.57-8.782 13.181-8.8h.183c1.303 0 2.933 0 4.237.325 0-3.585-2.608-4.563-5.867-4.563-2.934 0-5.867.652-8.149 1.956v-6.193c3.26-1.304 6.845-1.956 10.43-1.956zm133.311 0c6.52 0 12.386 2.933 12.386 10.756v9.778c0 1.956 0 4.238.326 6.193l-7.823.326c0-1.159-.257-2.317-.314-3.705l-.012-.532c-1.63 2.934-4.889 4.89-8.474 4.563-5.215 0-9.779-2.607-9.779-8.148 0-8.042 8.57-8.782 13.182-8.8h.182c1.304 0 2.934 0 4.237.325 0-3.585-2.607-4.563-5.867-4.563-2.933 0-5.867.652-8.148 1.956l-.326-6.193c3.26-1.304 6.845-1.956 10.43-1.956zm-268.253.652c5.125-.32 9.621 3.452 10.084 8.532l.02.268v17.927h-9.126V47.59c0-4.889-1.63-6.518-4.237-6.518-3.586 0-5.541 2.607-5.541 8.148v11.082h-8.8V33.901h8.148v4.889c1.63-3.585 5.54-5.541 9.452-5.215zm107.236 0c5.215-.326 9.779 3.585 10.104 8.8v17.927h-9.126V47.59c0-4.889-1.63-6.518-4.237-6.518-3.586 0-5.541 2.607-5.541 8.148v11.082h-9.127l.326-26.401h8.149v4.889c1.63-3.585 5.54-5.541 9.452-5.215zm133.638 0c5.125-.32 9.62 3.452 10.083 8.532l.021.268v17.927h-9.126V47.59c0-4.889-1.63-6.518-4.238-6.518-3.585 0-5.54 2.607-5.54 8.148v11.082h-9.127l.326-26.401h8.148v4.889c1.63-3.585 5.541-5.541 9.453-5.215zm-56.389.326v26.075h-9.126V33.901h9.126zm-207.953-8.8v34.875h-9.452V25.1h9.452zm320.078-2.608v37.483h-9.126V22.493h9.126zM600.065 33.575c.978 0 1.956 0 2.934.326l-.326 7.17c-.978-.325-1.956-.325-2.934-.325-4.237 0-6.519 2.933-6.519 8.148v11.082h-9.126V33.901h8.149v4.889c.977-3.26 4.237-5.541 7.822-5.215zm-510.43-6.52c-5.541.653-11.082 1.957-16.297 3.586-8.8 2.608-17.275 6.193-25.098 11.082a57.216 57.216 0 007.823 9.779c3.585 3.26 7.17 5.867 10.756 8.148 6.519-11.734 14.015-22.49 22.816-32.594zm699.804 21.187h-3.91c-2.934 0-5.542.978-5.542 3.586.326 1.63 1.956 2.933 3.911 2.607 3.26-.326 5.867-2.933 5.541-6.193zm-133.637 0h-3.911c-2.934 0-5.542.978-5.542 3.586.326 1.63 1.956 2.933 3.912 2.607 3.26 0 5.867-2.933 5.54-6.193zm65.515-8.8c-4.237 0-5.867 3.585-5.867 7.497 0 3.91 1.63 7.17 5.867 7.17s5.867-3.26 5.867-7.17c0-3.912-1.63-7.497-5.867-7.497zM567.47 38.79h-.978c-3.26 0-4.89 2.607-4.89 5.541h9.78c.315-2.53-1.21-4.755-3.685-5.48l-.227-.061zM53.455 17.278c-3.911 2.607-6.519 6.518-7.497 11.082-.326 1.955-.326 3.585-.326 5.54 12.386-7.17 26.076-12.06 40.092-14.34-10.105-4.238-21.513-5.216-32.269-2.282zm647.653 5.867v6.518h-9.126v-6.518h9.126zm-581.16-9.127c-2.608.978-5.215 1.956-7.497 3.585 6.519.652 13.038 1.63 19.557 2.934-3.912-2.608-7.823-4.89-12.06-6.519zM98.76 8.803c1.304 1.956 2.608 4.237 3.26 6.193 2.281-1.63 4.563-3.26 7.17-4.563-3.259-.652-6.844-1.304-10.43-1.63zm-19.882 0c3.911.652 7.496 1.956 11.082 3.26.978.325 1.63.651 2.607 1.303-1.955-3.26-3.585-4.889-4.889-4.889-2.933-.326-5.867 0-8.8.326z"/></svg>