<svg xmlns="http://www.w3.org/2000/svg" viewBox="0 0 1000 284"><path fill="#132e3f" d="M258.87 150.366c39.672 0 68.124 29.654 68.124 66.12v.4c-.4 36.467-29.253 66.521-68.524 66.521-39.673 0-68.124-29.653-68.124-66.12v-.4c0-36.467 28.852-66.521 68.524-66.521zM109.8 152.37l28.852 87.358L165.5 152.77h29.654l-44.08 129.435H126.63l-28.852-84.153-28.853 84.153H44.481L0 152.77h30.455l26.448 86.958 28.853-87.358h24.043zm476.465.4v25.246H517.34v26.047h60.91v25.246h-60.51v26.849h69.727v25.246H489.69V152.77h96.575zm-216.393 0l33.661 54.098 33.661-54.098h30.456v128.233h-28.051v-83.752l-36.066 54.9h-.801l-35.665-54.5v83.352h-27.65V152.77h30.455zm259.672 0l60.109 78.944V152.77h28.05v128.233H693.66l-62.113-81.748v81.748h-28.05V152.77h26.047zm370.272-74.535v202.768H893.624V240.93h47.686v-23.242h-47.686v-22.841h47.686v-23.243h-47.686v-39.271a156.722 156.722 0 00106.192-54.098zm-237.23 0a157.142 157.142 0 00104.961 53.594l1.231.103v39.272h-49.69v23.242h49.69v22.841h-49.69v23.243h49.69v40.072H762.585V78.235zM258.47 176.413c-22.842 0-38.47 18.033-38.47 40.073v.4c0 22.04 16.029 40.474 38.87 40.474 22.441 0 38.47-18.033 38.47-40.473 0-22.04-16.029-40.474-38.87-40.474zM502.513.493v72.532c0 20.838 10.419 31.658 27.65 31.658 17.231 0 27.65-10.419 27.65-30.856V.493h28.452v72.532c-.4 38.87-22.04 57.705-56.503 57.705-34.462 0-55.7-19.235-55.7-56.903V.493h28.45zm127.431 0l60.11 78.944V.493h28.05v128.634h-24.043v-.4l-62.113-81.749v81.748h-28.05V.493h26.046zM378.688 113.098c10.018-4.007 20.037.4 28.452 4.408a22.1 22.1 0 0015.228 0l3.606-2.003a21.087 21.087 0 01-19.636 7.613c-7.213-1.202-12.422-6.812-18.834-9.617a11.46 11.46 0 00-5.21 0 80.88 80.88 0 0116.831 12.022l-3.206 2.805a61.396 61.396 0 00-16.83-13.625 45.244 45.244 0 00-17.231 14.026l-3.206-2.806a61.656 61.656 0 0116.83-12.021c-7.213-2.405-11.62 4.808-17.231 7.213a21.429 21.429 0 01-20.838-.401 19.489 19.489 0 01-5.61-4.408c9.217 6.812 21.239.801 30.055-3.206a30.055 30.055 0 0116.83 0zM334.61 93.864l.403.234c8.99 5.337 14.983 17.403 25.644 17.798-9.618 1.203-18.835 6.813-28.853 2.806a25.812 25.812 0 01-13.224-11.22c6.412 6.812 16.03 5.61 24.845 6.812 2.805 0 5.21 1.202 7.614.801-2.404-1.202-5.21-1.202-7.213-3.206-5.21-3.606-5.21-9.617-9.217-14.025h.001zm87.358-.402c-4.008 6.412-6.412 16.43-15.629 17.232a.392.392 0 00-.4.4 60.793 60.793 0 008.415-1.202c8.415-.801 17.632-.4 23.643-7.213a23.903 23.903 0 01-20.036 12.824c-8.015.4-14.026-3.206-21.64-3.607 3.206-1.202 6.813-1.603 9.618-4.007 5.21-4.408 10.419-10.82 16.029-14.426zm519.343-38.87v43.68l-.992.474a138.826 138.826 0 01-45.2 12.64l-1.094.11V60.602a293.087 293.087 0 0047.286-6.011zm-122.222-.401a275.794 275.794 0 0047.96 6.342l1.73.07v50.892a137.35 137.35 0 01-48.74-13.945l-.95-.481V54.191zM324.19 77.836l.505.552c5.644 6.338 8.024 14.49 11.917 21.887a18.327 18.327 0 005.61 8.015c-8.015-2.405-16.83-2.004-23.242-7.614a28.503 28.503 0 01-10.82-16.43c4.007 8.816 13.625 10.82 20.838 15.628 2.004 1.203 4.007 3.206 6.412 4.408l-.363-.255c-7.264-5.251-7.678-14.306-9.255-22.586l-1.602-3.605zm108.596-.803c-4.007 8.816-1.603 20.437-10.419 26.448l-.4.4h.4a82.834 82.834 0 0118.033-10.82 22.64 22.64 0 008.816-9.617c-1.202 10.018-11.22 19.235-20.838 21.64a120.432 120.432 0 00-12.823 2.805c7.614-6.813 7.213-17.232 12.823-25.246zm-30.054-71.33a59.566 59.566 0 0122.841 22.841c10.018 16.831 8.015 42.478-4.408 57.705-13.111 17.486-35.486 25.32-56.64 19.83-21.155-5.488-36.899-23.21-39.855-44.865-2.957-21.654 7.459-42.95 26.368-53.908 14.426-8.816 36.466-10.018 51.694-1.603zm5.21 79.344a20.987 20.987 0 01-4.409 4.008c-5.21 2.003-5.61 7.614-10.82 9.617-2.003.802-3.205-2.003-4.808-2.404a30.004 30.004 0 01-8.415.801v8.416l.4-.401a51.255 51.255 0 0033.662-14.026 76.925 76.925 0 01-5.61-6.01zm-59.309.4v.001l-5.61 5.61a55.205 55.205 0 0033.662 14.026l-.401-.4c-.06-2.263.04-4.525.297-6.773l.104-.842a38.748 38.748 0 01-28.052-11.621zM318.98 63.009l.264.57c4.428 9.96 1.453 23.253 7.35 32.69-8.014-5.21-20.036-10.82-22.841-21.64a29.787 29.787 0 01-1.202-10.418c.801 9.617 11.62 14.025 15.628 22.04.4 1.202 1.202 2.805 2.404 3.205a21.618 21.618 0 01-2.404-17.23c.681-3.023.95-6.123.802-9.218l-.001.001zm118.616-1.203l-.016.441c-.227 8.682 4.344 17.719-.385 25.206l-.801.801c0 .401.4.401.4 0 3.607-7.213 11.22-12.823 15.629-19.636a13.044 13.044 0 001.603-5.61l-.001.001.056.455c1.66 14.829-11.518 25.043-22.56 31.02l-.337.182-.801.801c6.01-9.617 2.404-23.242 7.213-33.661zM379.09 87.452l.4.802v6.412a16.608 16.608 0 016.012-.801c-1.202-.802-2.405-.802-2.805-2.405-.802-1.202.4-2.003.4-2.805-1.202-.802-3.206 0-4.007-1.203zm-20.437-6.812c0 .802 1.202.802.801 2.004-1.603 1.202-3.606.401-5.61 1.603-1.603.802-2.805-.801-3.606-.801a41.114 41.114 0 0025.646 10.82l.802.4a24.246 24.246 0 010-7.614 26.911 26.911 0 01-18.033-6.412zm-31.257-24.845a52.544 52.544 0 0013.625 33.661 76.933 76.933 0 016.01-5.61c-1.202-.802-1.602-2.004-2.805-2.805a4.676 4.676 0 01-2.404-2.405.392.392 0 01-.4.401c-1.203.401-1.604-.801-2.405-1.202-.802-.4 0-2.004-1.202-1.202-.802-1.202-2.004-1.202-2.405-2.404l-.4.801c-.802 0-1.603-1.202-2.004-1.603-2.004.4-1.202-2.004-2.004-2.805a5.565 5.565 0 01.802-4.408c.4-.4 1.603 0 2.003.4.802.402.401-.8.802-.8 1.202-1.203 2.003.4 2.805 1.202a22.82 22.82 0 01-1.603-10.42 73.413 73.413 0 00-8.415-.801zm102.586-.4a26.286 26.286 0 01-8.014.4l-.802-.4.401.4a43.257 43.257 0 01-11.621 27.65c2.004 1.603 4.007 4.008 6.01 5.61a51.579 51.579 0 0012.824-26.047c.205-2.565.607-5.11 1.202-7.614zm-29.653 22.44c-3.607 2.805 2.003 2.805 2.003 5.21-.4 1.202-2.404 2.404-1.202 3.606.4.401-.4.802-.4 1.203l5.209-4.408a1.762 1.762 0 01-2.004-.401c.388-2.327-2.227-3.528-3.486-5.056l-.12-.154zm599.488-45.683V42.57a135.701 135.701 0 01-37.248 42.669l-.82.61V49.382a173.106 173.106 0 0027.65-11.22c3.606-2.004 7.213-4.007 10.418-6.01zm-236.83 0a166.417 166.417 0 0034.804 16.023l1.262.407v35.665a131.658 131.658 0 01-35.572-40.397l-.494-.878V32.15zM363.46 70.621a37.133 37.133 0 01-5.61 5.61h.401a29.79 29.79 0 0015.228 7.214c-2.004-.401-2.805-2.004-3.607-3.607-.4-1.202 1.202-1.603.802-2.805a4.637 4.637 0 012.805-2.004 4.357 4.357 0 00-2.004.401 14.378 14.378 0 01-8.015-4.81zm55.701-15.628a18.38 18.38 0 01-7.513.48l-.501-.08.065.236c.233 1.075-.466 1.848-.466 2.97-1.202 1.603 1.203 2.405.802 4.007-.401.401-.802.401-1.603 0a28.657 28.657 0 01-7.213 13.224h-.401c.801.401 1.603 2.004 2.404 2.004v-.801a1.4 1.4 0 01.802-.401c2.003.801 2.003 3.206 2.404 4.408a37.548 37.548 0 0010.018-18.834 38.693 38.693 0 011.202-7.213zM304.553 42.17l-.078.521c-1.264 9.344 5.71 16.083 6.89 25.526a8.078 8.078 0 001.203 4.408 51.09 51.09 0 01-.4-8.015c.8-7.213 6.812-11.621 8.014-18.433.801 9.216-2.805 17.23-4.809 25.646-.4 2.522-.4 5.092 0 7.614-3.206-6.01-9.618-10.419-11.22-16.83a29.822 29.822 0 01.4-20.438v.001zm147.468-1.202l.166.407c3.784 9.57 1.736 22.134-5.375 29.246-2.004 2.404-3.206 4.809-5.21 7.213 2.004-10.018-4.407-17.632-4.808-27.25a30.33 30.33 0 01-.401-6.01c1.603 7.614 9.617 12.823 8.415 22.04 0 1.202-.801 2.805-.801 4.007 1.603-2.404 1.202-5.61 2.404-8.415 2.004-6.813 6.812-13.224 5.61-21.239v.001zm-97.377 10.819c-2.003.4 0 2.404 0 3.606 0 .802-1.202.401-1.602.802.4 1.603-1.203 2.003-2.004 2.003-.4 1.203.801 1.603.4 2.405a5.837 5.837 0 012.004 4.809 11 11 0 01.802 5.209 4.55 4.55 0 011.202 3.206c0 .801-.801.801-1.202 1.202-.401.801.4.4.4.801l6.813-6.812A19.52 19.52 0 01356.648 59l-.801-.4c0 .8 0 2.403-.802 2.804-.4-.4-1.202-.801-1.202-1.603a1.47 1.47 0 011.202-.4v-1.203c0-.4-.801-.801 0-1.603.401 0 .802.802 1.203.802l1.202-.802c-.401-1.202.4-2.805 0-4.408-.802-.801-2.004-.4-2.806-.4zm34.463 18.032c-.4.402-1.202.402-1.202.802-.802.802-1.603 0-2.004-.4 0 .4.802.801 0 1.202-.801.801-1.202-.401-2.003-.401-.401 2.004-1.203-.802-2.405 0-.4-1.202-1.202.4-2.003 0-.802.4-.802 2.004-2.004 2.004-.4.801-1.202.4-1.202.801.4.801 1.202.4 2.003.4.802-.8 2.004-.4 3.206-.4 0 2.004 2.004.4 2.805 1.603.802 0 .802-.802 1.203-1.202a6.814 6.814 0 004.007-2.405c0-.757.357-1.514-.278-1.933l-.123-.071zm18.433-7.212a35.726 35.726 0 01-4.408.8v.001c-1.602-1.202-1.202.802-2.404.802-.374 0-.399-.699-.4-1.117l-.001-.085-.03.221a4.056 4.056 0 01-1.573 2.584c-2.404-.802-1.603 2.805-4.007 2.003.4.802 1.202 0 2.004 0 .228-.208.371-.493.4-.801a1.927 1.927 0 012.405-.802 3.52 3.52 0 01.4 2.805 2.41 2.41 0 00-.4 1.603c-.802 1.202-.4 3.607-2.404 3.206a23.401 23.401 0 00-7.214-1.603v.401c1.603.4 3.607.4 4.81 2.004 1.602 0 3.205.4 4.407-.401a3.638 3.638 0 011.202-2.805c.802 0 .802 1.202 1.203 2.003a26.09 26.09 0 006.01-10.82zm-36.867.801l-4.808 5.61a26.41 26.41 0 009.617 4.408 6.82 6.82 0 01.401-2.805c.401-.4 1.202 0 1.603-.4 0-.401-.4-.401-.801-.802-.401-.801 0-1.202 0-1.603.4-.4-.401-1.202.4-1.603-1.602.802-2.805-.4-4.408-.801-.376-.752-1.456-.799-1.92-1.792l-.084-.212zm17.633 3.607c-.802 0-2.004.8-2.004 1.602.4-.8 2.004-.8 2.004-1.602zm-42.077-11.622a19.928 19.928 0 01-8.415.401c.4 4.007 1.603 7.614 2.003 10.82.401-.401 0-1.202.802-1.202.162-1.83.708-3.605 1.603-5.21 1.603 0 1.603-2.404 3.206-2.003l1.2 1.2-.123-.213a4.595 4.595 0 01-.276-3.793zM359.854 59l.4.801a35.523 35.523 0 003.206 6.813l2.405-2.405v-.801c-.401-.801 0-1.603-.802-2.004 0 .401.401.802 0 1.203a4 4 0 01-2.003-1.603c0-1.203-.802-.401-1.202-.802 0-1.202-1.603-.4-2.004-1.202zm29.654 3.606c-1.202 1.603 1.202 1.603 1.202 2.806h.801a2.41 2.41 0 00-.4-1.603c-1.203 0-1.203-1.203-1.603-1.203zm-12.804-15.341c-.06.22-.191.4-.42.515-.802 1.202-3.206.801-3.206 2.404-2.404.801-1.603 3.606-2.404 5.61-1.603.4-.802-1.603-1.603-2.004l-.401.401c-2.405-1.603-2.004 2.004-3.206 2.405 1.603.4 2.805-.401 4.408-.802a1.4 1.4 0 01.4.802h.402c.308-.32.455-.762.4-1.203a.768.768 0 011.203-.4c0 .4.4.801.801 1.202l-.801 1.202c-.401.4 0 2.004-1.203 2.004-.4 0-.4 0-.4-.401h-.401l.801 1.202c.802 0 .401-1.202 1.603-1.603.802 0 .802-1.202.802-2.004 1.202-.801 2.404-.4 3.606-.4.4.4.802.4.802.801.4.802-.401 2.004-.802 2.805.4.401-.4.802-.4 1.603-.802 1.202-2.004.4-3.207.802a6.762 6.762 0 005.61 1.602c2.004 0 1.203-2.404 2.405-3.205h2.404a5.083 5.083 0 00.401-2.405c-.801-.4-.4-1.202-.4-2.003-.401-.802-.401-1.603-1.604-2.004-.4-.4.401-.801.401-1.202 1.603-.401-.801-1.603 0-2.405-1.603-.4-2.003-3.205-4.408-2.003-.26-.519-1.022-.87-1.528-1.27l-.055-.046zm-8.435 13.739c0 .801-.801 1.202-1.202 2.003.801-.4 1.202-1.202 2.004-1.202l-.802-.801zm35.264-5.61l1.202 1.602c0 1.603 2.405 2.405 2.405 4.008.4-1.603.4-3.607.801-5.21-1.202-.4-3.206.4-4.408-.4zm-55.3 0c.606 1.655.886 3.41.824 5.17l-.022.424.005-.063c.12-.8 1.946-1.95.395-2.727.524-.524.363-1.562.524-2.217l.027-.094-.092.036a1.502 1.502 0 01-1.661-.53zm-36.066-32.86c-4.007 6.812.802 15.628-1.603 23.242l-.4 4.408.4.4a7.55 7.55 0 00.802-3.205c1.603-6.813 9.617-10.42 12.823-16.43-.4 11.22-11.621 18.033-13.224 28.451l-.001-.001-.072-.474c-1.312-8.055-6.497-15.053-4.841-23.85l.105-.52a33.939 33.939 0 016.011-12.022zm131.038-1.203a23.292 23.292 0 016.412 12.423c2.404 9.217-3.607 16.029-4.408 24.444v-.002l-.084-.545c-1.435-8.323-9.25-13.809-12.156-21.396l-.183-.497a22.97 22.97 0 01-1.602-5.61c3.205 5.61 11.22 9.216 12.823 16.028.4 1.203.4 2.405.801 3.607a70.939 70.939 0 00-.4-9.217c.4-6.01 2.404-13.624-1.203-19.235zm-92.568 34.062c-.37 0-.55.19-.645.476l-.006.018.052-.019c.187-.082.357-.202.499-.354zm-2.004-28.852v.4a40.85 40.85 0 00-10.418 26.048h8.014l-.4-.4a32.234 32.234 0 018.415-20.438 74.045 74.045 0 01-5.61-5.61zm7.614 7.614a39.71 39.71 0 00-4.408 6.812 37.945 37.945 0 00-3.206 12.022h3.206a5.083 5.083 0 01-.4-2.404c.8-1.603 1.202-4.408 3.606-4.408 1.202-.401 0-1.203.801-1.603 1.603-.401 2.004-2.004 3.607-2.805 1.202 0 1.603-2.004 3.206-2.405a20.387 20.387 0 01-6.412-5.21zM341.02 18.927a53.137 53.137 0 00-14.025 34.062h8.015a23.422 23.422 0 01.801-7.614 40.635 40.635 0 0110.82-20.437l-5.21-5.21-.4-.801zm74.135-.4l-5.21 5.61h-.8c.8 0 .4.8.8 1.202 2.405 1.603 3.207 3.606 5.21 5.61.802 1.603 2.405 2.805 2.405 4.809a35.886 35.886 0 014.007 16.83 56.44 56.44 0 018.014-.4l-.4-.402a51.942 51.942 0 00-14.026-33.26zm-35.665-4.81a26.85 26.85 0 010 8.015 28.613 28.613 0 0117.232 5.61c-.401-.4-1.202-1.202-.802-2.003h.401c0-.802-1.202-1.203-.801-2.405 1.202 0 2.003 1.603 2.805 2.805 3.606 0 1.603 4.008 4.007 5.21.802.4 0 1.603.802 1.603.801.801 1.602 1.202 1.602 2.404.401 1.603 1.603-.4 2.405.4.801.402-.401.802-.401 1.604.4 0 .801-.401 1.202 0 0 .801-.4.801-.801 1.202-.401 1.202.801.4 1.202.801.601 1.408.601 3 0 4.408 1.202 1.203 0 2.806-.4 4.008-.802.801-1.203 2.805-2.806 2.404-.4.802.4 1.603 0 2.004h3.206c-1.603-2.405.4-4.809 1.202-6.813.4 0 .802-.801 1.202 0 0 1.203-.4 2.004-.4 2.805.8 1.203.4 2.806.8 4.008h7.615a42.444 42.444 0 00-3.607-14.426c-.66.172-1.328.306-2.003.4a22.024 22.024 0 00-2.806-3.606c-1.202 0-1.602-.802-2.404-1.202-1.603 0-1.202-2.405-2.805-2.004a3.292 3.292 0 01-2.004-2.004c0-1.202 0-2.805-1.202-3.606-.801-.401-1.202 0-1.603.4-.801.802-1.202-.4-1.202-1.202-1.202-.801 0-1.602-.4-2.805-1.604-1.202-.802-3.606-2.806-4.408a31.504 31.504 0 00-10.418-3.206 26.62 26.62 0 01-6.012-.4zm20.438 20.037c-2.405 2.805-5.21 5.61-7.614 8.014.029.43.371.773.801.802.401-.802 0-2.805 2.004-2.404 1.603.4 3.206.4 4.809.801.801.4 1.202 1.603 2.003 2.404.401.401 0 .802-.4 1.203a.392.392 0 00.4.4c.401-.4 1.202-1.202 2.004-.801.801 0 1.202 1.603 2.003 1.603.401.4-.4 1.202-.801 1.202 0 .801-.801 1.202-.4 2.004.44.054.882-.093 1.201-.401 2.004-1.603.401-3.206 0-4.809-.801-1.603-2.404-2.004-3.606-3.206 0-.4.4-1.202.801-1.202.401-2.003-2.003-3.606-3.205-5.61zM376.61 46.169l-.041.017c-.17.076-.285.199-.285.391 0 .236.138.437.344.624l.076.064.025-.109c.044-.267 0-.579-.09-.89l-.029-.097zm-.26-.854l-.066.06c.114.23.229.49.315.757l.011.037.048-.017c.373-.122.923-.07 1.162-.023l.025.006-.36-.36c0-.759-.719-.798-1.135-.46zm3.14-10.359v5.61l2.003.802c.401-1.202 1.603-1.202 2.405-2.405.801-.4.801.401.801.802.4 2.404-2.404 3.606-4.007 4.408h.4c1.603-1.603 2.405 2.004 4.008.4.4-2.003 3.206-2.003 4.007-4.007-.4.401-.801 0-1.202-.4 0-.802 1.202-1.203 1.603-1.603a29.162 29.162 0 00-10.019-3.607zm-3.206.4a16.038 16.038 0 00-11.22 5.611c.8.401 2.003.401 2.804 1.202.401.401-.4.401-.4.802.801.801.801 0 1.202-.401.801.801 1.202 1.202 2.003.801.401.802 1.203 0 1.603 0 .401-.801 1.202-1.202.802-2.003.4-.401.4-1.603 1.202-1.603-.4 2.404 1.603 0 2.404 1.202-.4-1.603 0-4.007-.4-5.61zm-52.496-22.84c-6.812 5.209-4.809 14.826-8.415 21.639h.4c2.405-8.015 12.022-9.217 15.228-16.83 0 6.41-5.21 12.422-10.82 16.028a30.957 30.957 0 00-6.812 7.614c1.203-6.812-2.003-15.228 2.004-21.239a15.02 15.02 0 018.415-7.213zM940.91.492v33.26a280.748 280.748 0 01-45.58 6.323l-1.705.09V.493h47.285zm-508.924 11.22a16.53 16.53 0 0110.419 10.82c1.603 5.61-.401 11.622.801 17.633-4.007-8.015-14.426-10.42-17.231-19.235l-1.202-4.408c3.606 7.613 13.224 8.415 16.029 16.83 0-2.003-1.603-4.007-2.004-6.411-2.004-5.21-1.603-11.622-6.812-15.228zM868.778.494v39.272a239.847 239.847 0 01-48.113-6.43l-1.577-.383V.493h49.69zM376.684 24.537c-7.213.4-12.823 3.607-18.433 8.015a66.543 66.543 0 015.61 5.21 18.32 18.32 0 0112.423-5.21c-.069-2.38.03-4.762.294-7.128l.106-.887zm2.805 0a24.246 24.246 0 010 7.614 23.067 23.067 0 0112.824 5.21 17.109 17.109 0 015.61-5.21 30.505 30.505 0 00-18.434-7.614zm-3.205-10.419a40.67 40.67 0 00-25.647 10.42 37.129 37.129 0 015.61 5.61 28.528 28.528 0 0120.037-8.416v-7.614zM999.816.493v6.412a129.753 129.753 0 01-37.04 20.085l-1.029.352V.493h38.07zm-200.764 0v26.449c-6.011-2.405-11.22-4.81-16.43-7.214a128.097 128.097 0 01-18.609-12.017l-1.027-.806V.493h36.066zm-460.437 4.81c-6.411 4.808-8.014 12.021-14.426 16.43l-4.408 3.606c1.603-4.008 2.404-8.416 5.21-12.022 3.606-4.408 8.815-6.011 13.624-8.015zm78.543-.802c6.412 2.404 13.625 5.61 16.029 12.022 1.202 2.404 1.603 5.21 2.805 7.613a55.404 55.404 0 01-14.827-15.628zm-40.474-1.603a54.248 54.248 0 00-33.66 14.025l6.01 5.61a41.27 41.27 0 0127.65-11.62 26.829 26.829 0 010-8.015zm2.805 0v7.207l.007-.08c.055-.315.425-.315.795-.315a.991.991 0 01.478 1.507l-.077.096a29.88 29.88 0 0110.419 1.603c3.606.4 6.411 4.809 10.018 2.404.801 1.203 2.805 0 3.206 1.603 1.202.401 2.003 1.603 2.805 2.405 0 1.127 1.056 1.55 1.519 2.588l.084.217a11.137 11.137 0 014.808-4.809 48.864 48.864 0 00-25.646-12.823 34.397 34.397 0 00-8.416-1.603zm22.842 10.82c.801.4 2.004 0 2.404.801l.401 1.603c-1.603.801-1.603-1.603-2.805-1.603-.4 0-.4-.801 0-.801zm-16.83-6.813c1.602.4 3.606.4 4.007 2.004-2.004 2.404-4.408.4-6.813 1.603l-2.404-1.202c0-1.203 1.202-.401 1.603-.802z"/></svg>
