<svg xmlns="http://www.w3.org/2000/svg" viewBox="0 0 1000 205"><path fill="#132e3f" fill-rule="evenodd" d="M866.976 180.787c4.796.819 13.246 1.92 13.246 1.92l.025-.003c.574-.089 11.159-1.713 19.46-2.168 4.334-.26 10.086 1.017 16.485 3.016 6.2 1.964 17.476 5.55 23.722 5.644 9.266.126 16.257-3.498 16.257-3.498s-.897 6.775-23.108 8.912c-13.2 1.224-18.64.242-24.433-3.487-5.799-3.742-12.185-6.837-15.05-6.966-2.905-.146-7.252.228-7.252.228s7.965 2.882 11.935 6.016c3.954 3.142 14.21 11.545 14.21 11.545l-2.548 2.908s-3.958-5.781-10.464-10.49c-6.506-4.68-15.62-9.388-19.01-9.388-3.374 0-14.43 5.05-21.551 11.67-6.813 6.367-7.597 7.945-7.597 7.945l-2.648-2.645s5.215-5.17 12.16-9.733c6.965-4.6 14.33-8.202 14.33-8.202s-.236-.716-4.454-.35c-4.22.35-7.582.853-14.787 5.287-7.249 4.454-10.026 5.524-16.266 6.24-6.097.737-18.312-.47-25.645-3.583-7.352-3.125-8.9-6.737-8.9-6.737s8.42 4.343 14.912 3.849c6.498-.488 12.516-2.636 23.225-5.422 10.742-2.76 18.923-3.367 23.746-2.508zM559.583 51.674c41.076 0 61.215 32.643 61.215 82.975H516.877c0 29.65 13.863 46.781 41.341 46.781 22.591 0 35.92-17.411 36.724-28.007h23.935c-.812 6.799-7.342 26.929-25.297 38.895-6.527 4.35-15.772 9.786-38.624 9.786-39.988 0-63.657-30.188-63.657-71.266 0-44.066 21.214-79.164 68.284-79.164zm-138.741 0c37.264 0 51.426 27.21 53.317 51.963H451.04c-2.99-19.04-13.612-30.462-33.733-30.462-29.653 0-39.175 28.279-39.175 53.585 0 24.483 5.989 54.67 38.889 54.67 16.07 0 29.942-11.963 34.02-33.724h23.117c-2.456 22.58-16.33 54.398-57.944 54.398-39.994 0-63.649-30.188-63.649-71.266 0-44.066 21.211-79.164 68.276-79.164zm-396.9 4.083v94.404c0 23.386 11.975 31.27 27.478 31.27 30.19 0 39.172-26.655 39.172-47.328V55.757h23.936v142.275H91.952v-20.676l-.547-.55c-10.067 16.608-22.31 25.298-45.159 25.298C25.304 202.104 0 192.046 0 158.04V55.757h23.941zM692.06 0c3.534 0 7.076.254 10.89.538v21.495c-3.007-.284-6.816-.553-9.806-.553-10.33 0-14.144 5.168-14.144 16.59v17.687h23.95V75.61H679v122.422h-23.94V75.61h-19.58V55.757h19.58v-24.49C655.06 9.782 668.666 0 692.06 0zM326.169 55.757v142.275h-23.935V55.757h23.935zm-109.617-4.083c22.02 0 49.77 8.98 49.77 49.52v96.838H242.39v-87.596c0-24.754-7.07-37.261-30.474-37.261-13.6 0-37.539 8.692-37.539 47.327v77.53h-23.941V55.757h22.58v20.136h.54c5.176-7.623 18.502-24.22 42.996-24.22zm733.043 93.308s-2.909 12.17-5.66 17.844c-4.039 8.243-8.473 10.788-8.473 10.788s2.219 1.55 5.209.21c2.984-1.306 6.147-2.963 10.633-2.49 4.499.512 10.096.65 15.732-2.653a339.581 339.581 0 0010.648-6.592s-3.54 10.827-17.625 16.828c-9.07 3.896-19.71 3.79-23.027 1.975-3.34-1.823-7.304-2.689-10.128-1.856-2.823.845-8.035-.152-8.035-.152s2.943-1.151 7.442-5.161c4.507-3.976 5.229-9.216 9.268-14.285 4.481-5.644 14.016-14.456 14.016-14.456zm-137.532.061s6.61 4.685 12.627 12.639c6.024 7.959 5.2 11.872 9.403 15.415 4.437 3.706 8.553 5.764 8.553 5.764s-5.519-.582-9.482-.222c-3.97.35-10.648 3.084-16.734 2.967-5.84-.109-17.093-.603-26.502-11.07-6.27-6.95-7.117-9.502-7.117-9.502s6.711 5.32 9.853 7.103c7.006 3.972 13.15 2.16 17.576 2.762 4.477.617 8.432 1.68 9.765 2.3 1.344.614 5.282.968 5.676.252.412-.854-3.607-2.505-6.623-7.837-4.408-7.792-6.995-20.57-6.995-20.57zm68.97-139.08c45.208 0 81.86 36.659 81.86 81.87 0 45.223-36.652 81.876-81.86 81.876-45.224 0-81.868-36.653-81.868-81.876 0-45.211 36.644-81.87 81.867-81.87zm-25.798 6.722l-.064.02C853.107 13.351 801.5 30.086 801.5 88c0 47.14 39.453 79.21 79.681 79.21 51.554 0 79.369-43.378 79.369-79.377 0-23.415-10.836-39.912-10.836-39.912s-3.15 2.192-7.47 4.519c-4.22 2.271-8.456 3.563-8.635 3.617l-.006.001 1.026 2.228-1.388.62-1.052-2.199-3.642 1.085-.523-1.582 3.133-1.38s-1.789-5.12-3.668-10.18c-1.883-5.06-4.326-8.625-4.326-8.625s-3.967 1.789-8.617 3.68c-4.636 1.888-8.83 2.414-8.83 2.414s1.046 3.785 1.69 8.734c.64 4.94.844 11.674.844 11.674s-4.735.725-12.11 1.058c-7.109.307-9.992.207-10.192.199h-.011v6.304h-2.151v-6.503h-4.356v-2.002h4.467V43.902h-5.326v-2.403h5.153V27.408h-.026c-.273.009-2.695.056-5.96-.637-3.467-.74-7.483-2.42-7.483-2.42s-.523 1.262-1.154 2.52c-.588 1.225-1.705 4.304-1.78 4.507l-.003.011-1.68-.944s.745-2.204 1.472-3.885c.678-1.546.904-2.826.937-3.029l.005-.028s-2.529-1.149-4.306-2.207c-1.765-1.055-4.522-3.884-4.522-3.884s-2.738 2.207-4.638 4.092c-1.84 1.822-3.46 4.178-3.556 4.319l-.004.007-1.386-1.272s1.386-2.096 3.68-4.522c2.057-2.176 4.56-3.895 5.077-4.241l.097-.064-3.26-3.046zm-58.917 109.48s2.668 4.528 5.793 11.552c2.853 6.497 2.669 17.683 3.955 22.646 1.312 5.2 4.086 8.626 4.086 8.626s-8.92-.465-13.367-2.14c-4.44-1.704-16.964-6.263-21.664-13.974-4.683-7.699-9.166-17.684-9.166-17.684s3.969 5.294 9.78 9.976c5.775 4.677 14.547 7.462 17.578 10.85 3.02 3.388 4.302 6.147 5.989 5.317 1.704-.854-1.035-3.78-2.137-8.199-1.12-4.469-2.057-16.371-1.12-20.96.524-2.406.273-6.01.273-6.01zm168.064-.982v.036c.007.666.125 10.552.771 14.088.667 3.639-.11 8.146-1.634 11.63-1.485 3.502-4.022 8.488-2.2 9.47 1.867 1.009 2.487-2.984 6.491-5.837 3.987-2.832 11.253-6.544 15.205-8.92 6.369-3.853 11.218-11.008 11.218-11.008l-.003.02c-.113.629-3.074 16.464-16.5 25.737-9.046 6.24-27.036 7.824-27.036 7.824s1.902-1.692 2.896-6.018c.988-4.308 1.453-13.443 3.262-19.26 1.804-5.813 7.53-17.762 7.53-17.762zM847.749 28.247c9.321 0 28.022 10.066 28.022 23.491 0 8.418-6.53 14.086-6.53 14.086s.27 4.68-.392 6.106c-1.221 2.706-2.452 1.911-4.062 4.343-1.631 2.429-2.295 6.229-9.082 6.229-6.804 0-6.65-2.172-9.9-2.172-3.241 0-5.419 3.116-5.419 3.116v24.275s.681 3.095 6.776 6.357c6.09 3.259 10.864 5.29 12.746 5.29 1.883 0 1.877-2.166 4.189-2.166h.254c2.674.005 11.408.145 11.408 4.344 0 4.337-4.603 7.301-21.419 7.301-16.798 0-21.942-1.344-23.856-1.344-1.903 0-2.172.409-2.172 2.975 0 2.578-.123 6.229-.123 6.229s2.82 4.484 6.22 6.243c3.393 1.763 5.305 2.707 9.093 2.707 3.788 0 9.467-1.213 14.094-3.262 4.619-2.029 9.07-3.236 14.381-3.236 5.279 0 14.623-1.216 14.623-6.638 0-5.436-2.022-7.324-2.022-11.522 0-4.203.663-7.892-1.357-9.911-2.013-2.011-10.978-8.52-10.978-12.18 0-3.657 3.265-5.288 3.668-7.319.398-2.034.126-3.247 1.485-3.662a16.213 16.213 0 002.438-.953l.672-3.382s1.783-.83 2.715-1.64c.944-.804 1.745-1.338 1.745-1.338l-.008-.028c-.08-.282-.702-2.658.701-4.184 1.488-1.62 3.534-1.228 5.016-1.228 1.482 0 6.076-.538 6.076-.538s1.48-2.674 3.151-3.916c2.716-2.05 10.14-3.116 12.054-4.61 1.894-1.485 3.926-5.156 8.947-5.156 20.586 0 34.415 18.584 34.415 28.6 0 17.348-11.245 38.343-26.955 38.343-12.347 0-11.525 3.657-11.525 7.728 0 9.491 9.227 11.248 9.227 11.248s-19.399 14.638-41.9 14.638c-21.383 0-42.66-7.883-57.955-24.749-10.54-11.583-18.569-26.972-18.569-48.096v-2.558c.004-6.05.02-7.137.02-7.137s5.592-4.37 8.991-6.097c3.411-1.71 10.973-6.12 10.973-9.757 0-3.607-1.415-5.001-1.415-12.668 0-3.534.874-9.964 4.098-14.325 3.768-5.071 10.359-7.877 17.441-7.877zm-58.154 70.468s1.336 11.385.973 18.145c-.321 6.758-2.645 14.331-1.803 18.187.83 3.864 1.312 8.652 1.312 8.652s-8.786-5.864-15.061-11.517c-6.22-5.694-11.902-18.07-12.978-21.924-1.055-3.755-1.531-8.594-1.551-8.803l-.002-.006c.082.204 1.88 4.687 4.69 7.362 2.908 2.747 4.676 4.092 8.052 8.05 2.37 2.788 7.965 13.544 9.765 13.243 1.441-.242-.719-5.773-.152-11.203.994-9.257 6.755-20.186 6.755-20.186zm182.181-1.222s5.183 13.036 5.838 16.664c.645 3.66-.375 14.562-.375 14.562s4.259-3.85 8.453-10.426c3.265-5.186 7.954-6.995 10.637-11.163 2.64-4.147 3.671-5.825 3.671-5.825s-2.616 11.557-5.521 18.297c-4.826 11.256-24.088 23.14-24.088 23.14s1.017-3.305 1.511-9.773c.491-6.466-1.146-13.987-1.62-18.833-.45-4.627 1.494-16.643 1.494-16.643zM556.318 73.175c-22.032 0-39.441 20.399-39.441 42.423h79.155c-1.362-22.024-10.613-42.423-39.714-42.423zm206.527-5.41s1.33 2.91 1.68 5.79c.372 2.876 3.978 8.891 6.504 14.787 2.534 5.927-.035 10.274 3.01 10.005 2.166-.222 2.412-4.446 4.338-9.038 1.955-4.589 4.463-7.935 6.506-10.712 1.908-2.582 3.993-5.741 4.288-6.19l.035-.054s-.584 12.25-3.133 19.143c-1.307 3.492-4.563 7.804-6.62 12.124-2.058 4.346-2.888 8.564-2.888 8.564s-9.4-7.851-12.738-20.104c-2.108-7.614-.982-24.315-.982-24.315zm234.358-.614l.003.02c.1.569 2.278 13.351-.474 23.752-2.835 10.633-9.122 15.766-10.119 17.12-.838 1.075-2.228 2.517-2.698 2.998l-.008.008c-.046-.446-.463-1.77-2.128-5.503-2.97-6.65-5.069-10.762-7.693-15.655-2.017-3.756-2.62-19.06-2.62-19.06s1.509 1.82 4.66 6.801c3.156 4.978 7.301 10.286 7.468 13.29.16 2.99 1.66 6.665 2.657 6.498.993-.17.982-3.566 2.487-8.742 1.497-5.142 5.93-10.236 6.656-14.03.599-3.092 1.809-7.497 1.809-7.497zM776.042 35.46s-.965 6.486-1.623 10.344c-.575 3.878.4 5.676.658 8.777.225 3.125-.111 7.354-.871 10.125-.699 2.789 1.441 4.706 1.441 4.706s3.712-6.562 11.326-13.469c3.025-2.759 8.433-5.81 8.433-5.81s-2.996 7.593-6.39 13.375c-3.381 5.79-8.19 10.093-10.943 13.103-2.76 3.043-3.867 5.904-3.867 5.904s-.699-5.536-2.87-9.268c-3.221-5.483-3.841-12.156-2.894-20.48.97-8.27 7.6-17.307 7.6-17.307zm208.227-.687s8.26 12.086 8.088 20.714c-.158 8.637.254 10.564-3.64 17.298-2.048 3.563-3.331 8.47-3.331 8.47l-.01-.018c-.115-.237-1.34-2.69-4.03-5.997-2.823-3.51-8.926-9.487-11.092-14.81-2.19-5.326-5.44-11.58-5.44-11.58s7.24 4.19 10.56 7.786c3.718 4.04 7.898 11.545 9.228 11.212 1.336-.339-.079-6.661.263-9.151.363-2.488 1.316-13.717.804-16.69-.491-2.979-1.4-7.234-1.4-7.234zm-79.757 8.046s-6.127 1.097-9.736 1.097c-3.551 0-8.35-.316-8.566-.33h-.007v18.11s5.64.36 12.019.105c6.366-.272 8.272-.792 8.272-.792v-.027c-.009-.449-.124-6.363-.872-10.753-.76-4.571-1.11-7.41-1.11-7.41zM794.064 16.766s-1.482 3.048-2.636 5.053c-1.207 2.155-2.05 6.375-2.663 9.266-.588 2.88-2.026 5.057-2.993 7.944-.959 2.894 1.841 5.501 1.841 5.501s1.766-4.562 3.97-6.09c2.984-2.184 7.073-4.108 9.213-5.303 2.186-1.219 6.53-5.191 6.53-5.191s-3.374 8.424-10.856 13.585c-3.467 2.456-8.398 4.49-11.528 7.863-3.163 3.344-3.873 4.688-3.873 4.688s-1.067-3.74-.243-9.142c.842-5.437.117-10.856 1.935-16.012 2.418-6.743 11.303-12.162 11.303-12.162zm139.931 11.823s-1.812 1.651-4.466 3.528a310.723 310.723 0 01-4.475 3.116s1.868 4.387 3.677 8.087c1.806 3.718 4.051 10.695 4.051 10.695s6.132-2.32 9.415-3.855c2.951-1.402 5.538-3.882 6.026-4.363l.083-.083-.009-.016c-.14-.263-2.044-3.785-6.141-8.633-3.569-4.24-8.16-8.476-8.16-8.476zm33.155-12.314s9.128 7.108 10.808 12.928c1.664 5.799 1.45 24.114 1.45 24.114s-1.642-2.31-4.788-4.639c-3.165-2.312-11.1-8.082-13.79-10.198-4.919-3.785-6.983-10.756-6.983-10.756s2.064 1.897 5.387 4.212c3.327 2.335 7.524 3.902 9.842 6.22 2.297 2.317 5.22 5.033 6.392 4.358 1.143-.652-.336-2.74-2.145-7.74-1.842-4.995-1.868-9.926-3.341-12.101-1.47-2.145-2.832-6.398-2.832-6.398zm-67.74 10.113s-3.414.763-6.97 1a48.567 48.567 0 01-6.629 0h-.007v14.559s3.107.605 8.45.268c5.332-.347 9.1-1.373 9.1-1.373s-.541-3.344-1.579-8.018c-1.093-4.915-2.259-6.316-2.358-6.428l-.007-.008zm11.736-6.688s-1.8 1.476-4.051 2.938c-1.978 1.284-4.873 2.733-5.51 3.048l-.126.062s2.096 3.507 2.961 7.319a66.777 66.777 0 011.201 7.16s5.192-.782 9.322-2.674c4.133-1.885 7.748-3.519 7.748-3.519s-2.005-3.387-4.82-6.915c-2.543-3.163-5.942-6.627-6.609-7.301l-.116-.118zm3.984-3.691s-.275.079-.792.687c-.45.54-1.271 1.344-1.448 1.516l-.034.033s4.34 5 6.65 7.938c2.212 2.807 4.813 6.45 5.045 6.776l.017.023s3.048-1.362 5.12-2.932c2.073-1.57 2.73-2.727 2.73-2.727s-4.293-3.373-8.011-6.12c-3.72-2.768-9.277-5.194-9.277-5.194zM814.247 9.137s-4.34 7.24-9.02 12.04c-5.449 5.594-12.291 8.894-12.291 8.894l.004-.02c.08-.433 1.525-7.888 7.598-13.718 3.634-3.475 13.709-7.196 13.709-7.196zM326.169 2.718v27.198h-23.935V2.718h23.935zm620.263 5.487s7.334 1.987 11.984 5.954c4.641 4.007 8.476 14.994 8.476 14.994s-7.672-3.844-10.809-6.845c-3.145-2.973-9.651-14.103-9.651-14.103zm-71.105 6.369c-2.663 3.621-4.744 7.78-4.744 7.78s1.803 1.149 5.679 2.204c3.798 1.03 7.258.751 7.421.737h.006l-.301-16.515s-2.16-2.306-8.061 5.794zm10.519-5.794h-.003v16.275s3.093.503 6.282.17c3.174-.351 6.345-1.319 6.345-1.319s-1.94-4.56-4.06-8.567c-4.028-7.636-8.44-6.59-8.564-6.56zm5.91.474s4.215 4.501 5.501 6.907c1.365 2.586 3.26 7.114 3.26 7.114l.032-.007c.334-.074 3.154-.725 5.167-2.2 2.157-1.56 3.715-2.595 3.715-2.595s-3.183-3.645-7.348-5.922c-4.165-2.289-10.327-3.297-10.327-3.297zm-13.372-.892s-2.651.109-8.438 2.201c-5.8 2.096-9.041 5.79-9.041 5.79l.017.018c.145.142 1.192 1.15 3.043 2.508 2 1.476 4.949 2.739 4.949 2.739s2.303-3.145 3.987-6.41c1.677-3.268 5.483-6.846 5.483-6.846zm24.487 3.14l.067.022c.79.258 3.504 1.217 4.935 2.658a93.023 93.023 0 003.18 3.02l.006.005 2.359-1.835s-2.64-1.59-4.884-2.198c-1.912-.512-4.794-1.401-5.6-1.652l-.063-.02zm-34.378-2.178s-2.406.205-5.472.938a40.966 40.966 0 00-5.372 1.678s.21.944.634 1.678c.45.736 1.368 1.382 1.368 1.382s1.678-1.067 3.58-2.54c1.898-1.464 5.262-3.136 5.262-3.136z"/></svg>
