<svg xmlns="http://www.w3.org/2000/svg" viewBox="0 0 1000 147"><path fill="#132e3f" d="M261.874 3.307v101.044c0 11.256 8.167 17.73 29.085 17.73s29.086-6.474 29.086-17.73V3.307h38.848V107.26c0 21.077-15.34 39.286-67.734 39.286-52.395 0-67.735-18.21-67.735-39.286V3.307h38.45zM31.795 133.138c25.122 10.499 37.493-13.248 58.65-6.176l.12.02c21.316-7.092 33.668 16.655 58.77 6.176l1.195 1.594c-25.5 23.587-38.649-9.085-55.98-6.096 6.175 3.267 11.554 7.57 16.136 12.69l-4.98 5.18c-5.578-9.264-10.559-14.284-15.14-16.536-4.603 2.252-9.524 7.272-15.102 16.536-2.191-2.232-2.988-3.188-4.98-5.18a59.505 59.505 0 0116.077-12.69c-17.332-2.989-30.48 29.683-55.96 6.076zM639.394 0c47.872 0 67.057 13.507 67.057 36.656v72.277c0 23.15-19.205 36.656-67.057 36.656-47.853 0-67.058-13.507-67.058-36.656V36.696C572.336 13.546 591.581 0 639.394 0zm307.215.638c15.739 0 31.477 1.494 46.817 4.502l-1.992 15.44a257.67 257.67 0 00-44.227-3.985c-30.281 0-35.86 4.383-35.86 20.46v1.13c.015 18.134.738 19.646 36.856 26.362C997.41 73.771 1000 79.807 1000 106.921c0 24.105-9.363 38.05-60.363 38.05l-.26.022a182.354 182.354 0 01-51.796-7.313l3.984-14.602a202.102 202.102 0 0048.41 5.857c29.784 0 35.86-5.658 35.86-21.516v-1.106c-.027-17.754-1.043-20.081-38.45-26.426-44.724-7.51-50.004-14.603-50.004-43.39 0-24.205 13.348-35.86 59.228-35.86zM806.12 3.307c39.844 0 53.59 12.95 53.59 34.226v20.659c0 21.516-13.945 34.425-53.79 34.425h-43.03v49.805h-23.907V3.347l.06-.04h67.077zm-366.045 0l58.73 99.072V3.347h36.517v138.975H487.23l-58.41-94.748v94.708h-36.558V3.307h47.813zM33.329 99.39c16.496 10.16 13.747 25.5 34.266 24.305l-.717 1.793h.18v.2c-14.145 7.968-37.852 14.542-57.177-18.13l1.793-.996c11.953 12.95 19.325 9.762 31.278 17.532l1.195-1.594c-8.507-9.364-8.009-13.946-12.491-21.914zm114.213-.219c.597.458 1.673 1.196 1.673 1.196-4.522 7.968-3.885 12.55-12.49 21.914l1.234 1.593v.02h.12c11.953-7.77 19.324-4.582 31.476-17.531l1.734.996c-19.285 32.871-43.052 26.297-57.136 18.13 0 0-.379-1.097-.698-1.894 20.52 1.076 17.73-14.264 34.087-24.424zm491.891-83.134c-29.205 0-43.15 4.104-43.15 21.237v71.061c0 17.113 13.945 21.237 43.15 21.237 29.206 0 43.151-4.104 43.151-21.237V37.274c0-17.113-13.945-21.237-43.15-21.237zM90.465 0c33.549 0 60.762 27.213 60.762 60.762 0 33.548-27.193 60.762-60.762 60.762-33.568 0-60.761-27.214-60.761-60.762C29.704 27.213 56.897 0 90.465 0zM60.463 93.673h-.02l-8.566 8.626a56.495 56.495 0 0036.616 15.14v-12.152a44.336 44.336 0 01-28.03-11.614zm60.104 0a44.954 44.954 0 01-2.864 2.402l1.032.885-4.98 9.762-4.583 3.386h-1.793l-6.93-5.89c-2.584.59-5.23.951-7.912 1.07v12.132a56.402 56.402 0 0036.597-15.14zM1.992 71.639C4.941 82.536 15.46 88.035 20.68 97.876l1.793-.936c-4.044-13.029-.458-15.42-1.853-23.906l1.992-.359c11.754 20.38-.358 19.982 12.472 41.597l-1.395 1.395h-.02v.04C32.373 115.108-.04 105.546 0 71.897zm177.026-.1l1.992.24c0 33.668-32.273 43.33-33.668 43.828l-1.394-1.395c12.75-21.575.797-21.137 12.352-41.497v.02l2.19.2c-1.394 8.566 1.993 10.956-1.991 23.905l1.793.937c5.379-9.842 15.738-15.36 18.726-26.237zM92.477 96.636v4.588a40.57 40.57 0 005.38-.625l.757-2.841-3.487.398-2.65-1.52zM71.898 82.018l-5.073 5.143 4.256 5.018-.796 1.195-2.989-.398-.867.36c6.376 4.613 14.016 7.298 22.004 7.808v-6.829l-3.725-2.136-1.395-3.387.332-.59a28.472 28.472 0 01-11.747-6.084v-.1zm75.225-19.224h-12.152a44.262 44.262 0 01-9.193 25.152l.607.507.996 3.785-.905 1.694 5.507 5.558v-.12a56.351 56.351 0 0015.14-36.576zm-101.183.04l-11.952-.001.032.63c.73 13.16 5.917 25.685 14.66 35.415l.447.492 6.706-6.706-3.538-2.478-1.514-2.988-4.582-2.191-1.992-3.088-.837 1.554-3.586-2.39-1.315-3.985.957-3.626H40.7l.717.797.797-.24.398-1.115 1.275-.398 4.27 1.956a45.414 45.414 0 01-2.218-11.638zm69.077 25.331l-1.064.627.2 1.992 2.757.666c.245-.212.488-.427.729-.646l-2.622-2.639zm15.95-25.311l-11.078-.001 1.914 2.87 1.793 1.195 1.394 3.187-5.379 1.594-1.195-.797-.399 1.634-.996.338-.343-1.2a28.458 28.458 0 01-1.602 3.259l1.208.99-2.062 5.743.953.975.073-.144.797-2.67h1.176l.597 3.188-.261 2.063 2.851 2.917a41.788 41.788 0 0010.517-24.557l.042-.584zM4.263 37.692l1.993.518c-1.395 17.133 2.39 14.344 5.378 26.696l1.993-.12c1.693-11.953 4.681-11.355 7.869-19.922l1.992.458c2.988 20.58-7.53 20.221-6.176 39.306l-1.992.598h-.08C11.654 81.979-6.873 61.917 4.263 37.692zm172.385-.1c11.156 24.305-7.332 44.227-10.957 47.614l-1.993-.598c1.355-19.065-9.164-18.686-6.175-39.286l1.992-.458c3.187 8.507 6.156 7.969 7.849 19.922l1.992.12v-.419c2.83-12.152 6.594-9.363 5.3-26.496zm-93.195 33.13h-.1l-8.566 8.567a24.09 24.09 0 0011.689 5.42l1.957-1.28V72.715a11.93 11.93 0 01-4.632-1.76l-.348-.232zm25.56 11.396c-.388.336-.785.662-1.19.976l2.445 1.395.872-.229zm-4.284-4.178l-1.633 1.29L102 78.033l-.797.996v.996l-1.793.399-3.386-1.594-3.583 2.479-.009 1.336.842.17 1.196-.798h1.992l1.394 1.395.81.192a23.942 23.942 0 007.418-4.316l-1.355-1.349zm-42.34-13.69l-1.308.656.398 3.267 3.028 6.972-.458 4.304 1.883 3.03 3.157-3.15c-3.685-4.253-6.037-9.502-6.7-15.078zm30.075 13.68l-.005.75.577-.047-.572-.703zm8.422-3.242l-.996.598v1.594l1.792.199 1.281-.897-1.017-1.012-1.06-.482zm704.458-55.303H762.97V76.56h42.374c22.83 0 31.636-4.821 31.636-20.819V40.202c-.1-15.26-8.885-20.818-31.636-20.818zM67.256 66.3l-.266.809a24.507 24.507 0 004.829 9.252l5.71-5.725-1.905-1.905.199-.877-8.567-1.554zm38.41 3.725l-1.594 1.056.177.443 2.525 2.584.685-.975-.598-1.593-1.195-1.515zM93.129 72.6c-.209.044-.42.083-.632.116l-.006.975zm34.013-5.761l1.593 1.136v.916l-.856.916-1.873-1.633v-1.275l1.136-.06zM90.538 52.535l.425 1.174-3.386.598v2.231l-2.192.877.2 3.666-.997.199-2.16-1.474a8.032 8.032 0 00.614 4.087l1.945-.521v-1.116l1.195-.339.2 1.116-1.689 3.338c.203.21.416.41.64.598l1.666-1.785.797-2.151 3.347-.12.398.399v.02l-1.056 3.586-2.43 1.568a7.864 7.864 0 002.43.384 8.103 8.103 0 008.091-7.57l-.899-.996.784-1.009a7.826 7.826 0 00-.341-1.371l-.244-.15.064-.32a7.916 7.916 0 00-.505-.996h-.893L94.15 53.67l-.996.796-1.269-1.812a8.2 8.2 0 00-1.4-.12l.052.001zM59.965 62.793h-9.901c.086 1.844.3 3.67.633 5.466l2.734-2.975 1.354-.2 4.483 3.587-.26-4.582.957-1.296zm18.507-.079l-.23.002-1.423 2.847 2.243-.602a11.597 11.597 0 01-.59-2.247zm-9.912.08l-2.32.02c.053.656.133 1.309.24 1.956l2.171.136-.091-2.112zm-8.137-29.206A40.296 40.296 0 0050.004 58.73h12.252c.398-6.096 2.79-11.894 6.773-16.535zm71.56-11.435l-4.308 4.277 3.053 3.174-.3 2.291 2.192 1.335v.02l3.746 6.773-.2 1.654-3.187 1.314-2.75-4.76-1.06.46a44.3 44.3 0 015.802 20.039h12.152a56.351 56.351 0 00-15.14-36.577zm-83.035-.02a56.546 56.546 0 00-15.18 36.597H45.92c.518-10.4 4.622-20.3 11.674-27.97l-8.626-8.567h-.02zm71.7 11.495l-2.567 2.507.733.7-.199 1.196 1.195.2 1.993 3.386 1.593-.797.399.598-.598 1.195 1.395.398-.598 1.993 1.793.398.797 2.59-1.395 6.973-1.394 1.992-1.594.597-.542 1.175h4.462l-.115-1.394 1.355-2.869.299-1.593 1.394-.717v2.35l-.797.638h-.02l.797 1.394.153 2.191h1.82c-.381-8.892-3.675-17.403-9.533-24.175l-.25-.109-.025-.206a39.133 39.133 0 00-.552-.61zM68.252 55.542h-1.395l-.338.897c-.127.73-.22 1.467-.28 2.211h2.144l-.131-3.108zm47.379-17.014l-3.75 3.667a27.947 27.947 0 013.665 5.358l.279.04 1.992 2.59-.568 1.326.05.146.518.52 1.793-1.394 2.79 2.59-1.196 3.586 1.594-.399 1.195-2.39-.996-4.98-3.586-2.391V43.21l-3.78-4.683zM20.699 12.033l1.653 1.195c-7.67 9.622-5.478 15.34-6.673 21.914l1.992.598c3.745-5.26 9.363-6.893 14.702-15.54l1.654 1.136c-4.463 20.221-14.782 15.002-20.26 32.772l-2.033-.24c-2.45-4.382-8.407-31.994 8.965-41.835zm139.772.02c17.332 9.761 11.356 37.413 8.965 41.836l-1.992.199c-5.578-17.75-15.739-12.57-20.32-32.772l1.593-1.115c5.379 8.626 10.957 10.26 14.543 15.539v.02l2.39-.598c-1.195-6.574.997-12.252-6.773-21.914zM92.497 36.557v9.061l3.626 1.059 3.267-2.59.718.897-.777 2.53-3.188 1.793-.253.564c.55.267 1.08.578 1.588.93l8.606-8.606c-3.825-3.248-8.606-5.2-13.587-5.638zm16.516 8.646l-2.05 2.048 1.093 2.733 2.178-3.168a26.209 26.209 0 00-1.221-1.613zm-37.115-.22a24.476 24.476 0 00-3.078 4.61l5.051-2.61zm16.575-8.486a24.185 24.185 0 00-13.666 5.658l5.136 5.136 5.92 1.538.638-3.048 1.945-1.086zM92.478 20.5v12.152c6.096.398 11.893 2.79 16.535 6.773l4.076-4.049-2.841-3.52-.797-2.99.398-.597 5.299 5.063 2.49-2.473c-6.784-6.044-15.42-9.608-24.563-10.317l-.597-.042zm-4.065-.28a40.441 40.441 0 00-25.16 10.42l8.645 8.626a28.375 28.375 0 0116.535-6.833h-.02zm.02-16.016a56.402 56.402 0 00-36.596 15.14l8.566 8.567c7.71-7.033 17.611-11.157 28.03-11.615zm-49.286-.558l1.195 1.494c-8.606 7.57-6.176 12.69-19.045 21.914l-1.674-.857c2.192-7.73 4.98-14.583 19.524-22.551zm102.797-.02c14.742 7.889 17.332 14.822 19.523 22.551l-1.658.81-.432-.316c-12.23-9.015-10.23-14.14-18.3-21.265l-.329-.286zm-49.447.458v12.152a44.346 44.346 0 0124.377 8.627l.247-1.774-2.909-2.19.638-2.73 6.415 1.594 3.588 3.731 4.26-4.27A56.496 56.496 0 0093.157 4.11l-.659-.026zm26.915 11.395l2.39.16 1.495 2.33-.1-.1-.2.2-3.585-1.394v-1.196zm-17.571-7.57l3.327 1.654v.498l-1.793 1.454-1.992-.638-3.387 1.116v-.1h-.438L95.366 10.1l.478-.597 1.116.398 3.984-1.992h.897z"/></svg>