<svg xmlns="http://www.w3.org/2000/svg" viewBox="0 0 1000 457"><path fill="#132e3f" d="M137.358 378.563c15.742 0 32.554 9.695 32.554 36.92 0 27.074-16.812 36.707-32.554 36.707-15.79 0-32.652-9.633-32.652-36.707 0-27.225 16.861-36.92 32.652-36.92zm558.849 0c22.972 0 27.665 19.52 27.665 24.746v.62l-14.493 2.244-.018-.816c-.013-.536-.455-13.082-12.95-13.082-10.495 0-16.513 8.459-16.513 23.208 0 14.408 6.29 23.008 16.822 23.008 11.174 0 12.846-7.877 12.846-12.568v-.798h-16.022v-11.88h30.636v12.576c0 12.165-7.271 26.37-27.768 26.37-20.377 0-32.55-13.722-32.55-36.708 0-23.465 11.794-36.92 32.345-36.92zm134.976 0c15.732 0 32.554 9.695 32.554 36.92 0 27.074-16.822 36.707-32.554 36.707-15.787 0-32.657-9.633-32.657-36.707 0-27.225 16.87-36.92 32.657-36.92zm57.855.607v43.41c0 10.485 4.322 15.814 12.842 15.814 8.435 0 12.539-5.178 12.539-15.813v-43.41h15.532v42.394c0 25.319-15.264 30.625-28.071 30.625-8.895 0-15.831-2.434-20.64-7.23-5.178-5.165-7.78-13.039-7.735-23.4v-42.39h15.533zm-684.448 0c18.868 0 27.66 7.315 27.66 23.027 0 9.722-5.87 15.707-11.727 18.282 2.587 2.487 4.26 5.87 5.888 9.15 2.565 5.187 4.782 9.67 9.912 9.67h3.675v11.916l-.535.15c-.111.027-2.792.732-7.534.732-12.249 0-16.014-8.379-19.333-15.778-2.72-6.064-5.076-11.296-11.477-11.296h-6.825v26.569h-15.523V379.17h25.819zm556.096 0c18.869 0 27.66 7.315 27.66 23.027 0 9.722-5.865 15.707-11.722 18.282 2.583 2.487 4.26 5.87 5.883 9.15 2.565 5.187 4.778 9.67 9.908 9.67h3.689v11.916l-.536.15c-.12.027-2.805.732-7.538.732-12.25 0-16.019-8.379-19.337-15.778-2.721-6.064-5.072-11.296-11.478-11.296h-6.82v26.569h-15.532V379.17h25.823zm-273.516 0l.178.47 26.577 71.952h-16.139l-6.227-17.747h-24.266l-6.022 17.747h-16.246l26.755-72.422h15.39zm481.228 0c18.422 0 28.575 8.867 28.575 24.96 0 15.174-10 24.236-26.746 24.236h-11.723v23.226h-15.523V379.17h25.417zm-950.341 0L30.3 432.023l14.69-52.853h13.043l14.198 52.853 12.735-52.853h17.544l-20.92 72.422H64.068L51.35 406.173l-12.918 45.419H20.916L0 379.17h18.057zm586.456 0v32.602l24.11-32.602h18.454l-27.39 35.9 28.21 36.522h-18.659l-24.725-33.32v33.32h-15.738V379.17h15.738zm-189.562 0c15.782 0 23.776 6.553 23.776 19.48 0 10.001-4.573 13.535-8.119 14.763 5.598 1.604 12.918 6.707 12.918 17.577 0 13.092-9.336 20.602-25.617 20.602h-30.721V379.17h27.763zm118.864 0l25.484 44.736V379.17h15.528v72.422h-15.831L533.6 408.399v43.193h-15.519V379.17h15.733zm-270.969 0v59.623h31.528v12.799h-47.051V379.17h15.523zm60.389 0c22.683 0 36.23 13.992 36.23 37.426 0 22.241-12.089 34.996-33.17 34.996h-24.699V379.17h21.639zm91.31 40.88h-11.83v18.743h12.134c7.926 0 11.62-2.961 11.62-9.323 0-7.79-6.486-9.42-11.924-9.42zm-91.515-28.085h-5.906v46.828h9.073c11.174 0 17.847-8.37 17.847-22.401 0-16.208-7.075-24.427-21.014-24.427zm-185.672.31c-10.719 0-16.62 8.237-16.62 23.208 0 14.967 5.901 23.204 16.62 23.204 6.17 0 16.518-3.01 16.518-23.204 0-20.202-10.349-23.208-16.518-23.208zm693.825 0c-10.72 0-16.621 8.237-16.621 23.208 0 14.967 5.901 23.204 16.62 23.204 6.165 0 16.518-3.01 16.518-23.204 0-20.202-10.353-23.208-16.517-23.208zM479.43 398.92l-7.864 22.836h15.92l-8.056-22.836zm487.844-6.955h-8.77v23.806h9.278c8.997 0 13.565-3.914 13.565-11.642 0-7.842-5.005-12.164-14.073-12.164zm-763.197 0h-9.783v21.075h8.663c8.618 0 13.966-4.003 13.966-10.436 0-6.765-4.683-10.64-12.846-10.64zm556.096 0h-9.778v21.075h8.663c8.613 0 13.962-4.003 13.962-10.436 0-6.765-4.684-10.64-12.847-10.64zm-348.79 0h-8.668v16.81h10.604c6.468 0 9.479-2.7 9.479-8.502 0-5.515-3.841-8.308-11.415-8.308zM498.49 3.015c53.323 0 96.391 19.085 121.286 53.708 2.73 3.263 2.306 8.118-.977 10.83-2.538 2.102-6.16 2.146-8.881.617-17.325-9.63-38.853-15.237-62.129-16.753 17.643 13.632 33.759 30.735 47.324 50.499 2.44 3.542 4.72 7.146 6.936 10.777 7.115-6.787 11.652-14.754 13.266-23.452.781-4.172 4.813-6.934 9.011-6.153 4.193.762 6.963 4.77 6.196 8.942-2.44 13.153-9.555 24.897-20.707 34.42 15.211 29.259 23.415 60.375 23.352 89.839-.009 2.677-.094 5.32-.232 7.922 5.54-6.091 9.55-12.83 11.834-20.096a148.776 148.776 0 004.42-35.967c0-20.22-3.974-39.828-11.833-58.288-1.664-3.91.178-8.414 4.108-10.063 3.93-1.658 8.466.172 10.126 4.078 8.667 20.362 13.056 41.987 13.056 64.273 0 11.5-1.195 22.73-3.452 33.564a8.179 8.179 0 01-.143 1.264 64.298 64.298 0 01-1.383 5.284c-9.506 37.718-32.081 70.307-62.655 92.77a90.534 90.534 0 01-4.59 3.352 9.34 9.34 0 01-.785.447c-26.59 17.95-58.658 28.466-93.148 28.466-74.574 0-137.822-49.08-158.787-116.443-.067-.178-.156-.342-.205-.532-.295-.958-.518-1.924-.772-2.895-4.14-14.395-6.406-29.574-6.406-45.277 0-91.054 74.543-165.133 166.17-165.133zm-74.315 246.9c-4.465 29.086-.995 48.11 7.579 52.263.557.27 1.052.608 1.503.98 19.484 9.336 41.275 14.603 64.274 14.745.361-.049.714-.102 1.088-.102 5.795 0 14.564-15.499 21.39-45.024-13.927-.723-28.188-2.598-42.493-5.639-18.878-4.012-36.85-9.86-53.341-17.223zm185.819 8.498a147.514 147.514 0 01-13.177 5.116c-18.325 6.123-39.036 9.292-60.862 9.558-3.818 17.6-8.8 32.567-14.988 43.171 24.686-3.688 47.422-13.357 66.679-27.455 9.75-7.687 17.254-18.008 22.348-30.39zm-258.912-64.517a80.188 80.188 0 002.48 15.242c9.087 31.671 28.384 59.104 54.162 78.49-1.932-12.417-1.066-27.8 1.99-44.784-14.966-7.962-28.384-17.254-39.687-27.637-7.499-6.876-13.793-14.022-18.945-21.31zm245.949-58.594c-14.577 8.322-32.385 13.296-51.61 14.564.174 6.002.263 12.018.263 18.016 0 30.811-2.212 62.509-6.79 89.813 19.044-.483 37.025-3.405 52.994-8.724 8.993-3.01 16.973-6.677 23.923-10.906 1.217-6.88 1.886-14.156 1.9-21.807.049-26.427-7.19-54.423-20.68-80.956zm-131.56-.297a483.347 483.347 0 00-7.065 13.814c-15.88 32.345-25.894 61.498-31.27 85.54 16.38 7.643 34.473 13.685 53.605 17.755 14.319 3.045 28.557 4.836 42.38 5.426 4.203-23.452 7.111-53.483 7.111-89.658 0-6.113-.085-12.054-.25-17.817a164.405 164.405 0 01-28.668-3.489c-12.664-2.69-24.744-6.619-35.842-11.57zm-54.486-45.36c-14.06 10.023-26.296 21.691-36.145 34.65-10.385 13.667-17.437 27.92-21.073 42.133 4.59 12.684 13.623 25.438 26.747 37.5 9.358 8.593 20.327 16.39 32.531 23.235 6.567-27.197 17.763-57.157 31.47-85.078a506.741 506.741 0 017.178-14.058c-8.877-5.076-16.888-10.87-23.753-17.267-7.231-6.73-12.905-13.836-16.955-21.116zM518.693 58.42c-15.563 16.208-31.336 38.002-45.753 63.076 9.787 4.265 20.426 7.683 31.613 10.064a147.3 147.3 0 0024.797 3.107c-1.717-31.688-5.799-57.237-10.657-76.247zm16.496 2.771c5.014 21.213 8.172 46.713 9.595 73.224 16.852-1.188 32.456-5.435 44.812-12.524a223.617 223.617 0 00-7.253-11.318c-13.467-19.626-29.574-36.384-47.154-49.382zm-129.93-10.587c-25.057 19.666-43.684 47.033-52.245 78.49a151.173 151.173 0 019.497-14.057c11.509-15.14 25.97-28.625 42.6-40.028-1.842-7.368-2.025-14.789-.46-22.037.165-.807.393-1.587.607-2.368zm96.983 2.904c-10.241 1.56-20.523 3.813-30.676 6.845-17.08 5.094-33.094 12.156-47.586 20.814 3.27 6.229 8.127 12.43 14.524 18.38 5.946 5.537 12.9 10.578 20.621 15.016 13.547-23.638 28.321-44.576 43.117-61.055zm-7.4-14.341c-22.058-8.033-43.046-9.323-61.093-3.964-7.459 5.892-12.272 13.012-13.985 20.983-.7 3.24-.852 6.574-.517 9.94 14.733-8.46 30.819-15.393 47.867-20.482 9.163-2.745 18.45-4.868 27.728-6.477zm64.578-9.944c-4.091.957-8.966 3.312-14.275 6.72 12.878.626 25.306 2.4 37.002 5.294-7.29-4.992-14.98-8.924-22.727-12.014zm-40.303-9.722c2.333 3.449 4.51 7.457 6.522 11.983 4.54-3.445 8.992-6.322 13.31-8.623a170.508 170.508 0 00-19.832-3.36zm-20.845-1.117c-5.616.004-11.156.341-16.616.953 6.812 1.472 13.721 3.524 20.711 6.197 1.722.661 3.44 1.375 5.148 2.097-3.381-6.069-6.615-9.212-9.243-9.247z"/></svg>