<svg xmlns="http://www.w3.org/2000/svg" viewBox="0 0 1000 442"><path fill="#132e3f" fill-rule="evenodd" d="M273.794 400.73c1.57 0 3.001.183 4.278.57 1.285.362 2.46.863 3.509 1.548l.334-1.313h9.071v25.843c0 2.732-.382 5.04-1.17 6.897-.773 1.883-1.86 3.346-3.263 4.4-1.398 1.072-3.082 1.857-5.057 2.341-1.988.468-4.212.701-6.703.701-2.014 0-4.014-.105-5.972-.363-1.954-.242-3.658-.545-5.091-.882v-7.303h1.135c1.143.447 2.533.863 4.168 1.236 1.641.38 3.1.56 4.4.56 1.724 0 3.124-.162 4.205-.481 1.08-.314 1.902-.772 2.466-1.359.532-.56.92-1.279 1.167-2.134.242-.871.36-1.911.36-3.13v-.537a13.584 13.584 0 01-3.724 2.181c-1.368.542-2.884.803-4.557.803-4.062 0-7.207-1.228-9.412-3.692-2.21-2.454-3.317-6.207-3.317-11.23 0-2.409.342-4.482 1.017-6.238.669-1.739 1.616-3.267 2.84-4.571 1.134-1.22 2.546-2.153 4.209-2.83a13.35 13.35 0 015.107-1.017zm-111.259-.003c3.63 0 6.438 1.34 8.446 4.004 2.014 2.68 3.018 6.336 3.018 11.005 0 2.393-.369 4.597-1.094 6.576-.74 1.97-1.704 3.586-2.896 4.882-1.238 1.351-2.637 2.362-4.21 3.062-1.572.706-3.254 1.046-5.052 1.046-1.647 0-3.056-.17-4.21-.544a19.778 19.778 0 01-3.546-1.478v12.143h-9.35v-39.89h9.35v3.044c1.428-1.133 2.89-2.058 4.385-2.775 1.491-.719 3.211-1.075 5.16-1.075zm51.18-.11c5.077 0 8.993 1.392 11.772 4.173 2.77 2.777 4.158 6.564 4.158 11.351 0 4.806-1.401 8.59-4.185 11.356-2.79 2.76-6.71 4.142-11.744 4.142-5.05 0-8.96-1.381-11.753-4.142-2.79-2.766-4.18-6.55-4.18-11.356 0-4.824 1.398-8.616 4.206-11.392 2.804-2.748 6.716-4.132 11.727-4.132zm41.5.822c.325 0 .697.008 1.117.024.405.018.774.034 1.08.071v8.918h-.826c-.398-.139-1.038-.249-1.914-.31a25.871 25.871 0 00-2.196-.105c-1.33 0-2.497.094-3.508.261-1.026.173-2.114.466-3.294.891v19.533h-9.35v-29.188h9.35v4.288c2.053-1.765 3.841-2.942 5.355-3.528 1.516-.578 2.908-.855 4.187-.855zm-181.002.095l4.997 20.112 6.208-20.112h8.263l5.904 20.112 4.905-20.112h9.582l-9.02 29.188h-9.9l-5.925-19.665-5.857 19.665h-10l-8.94-29.188h9.782zm59.138-11.505c1.379 0 2.636.042 3.765.144 1.111.09 2.11.218 2.974.374v6.586h-.696c-.415-.103-.955-.243-1.621-.396a9.047 9.047 0 00-2.132-.245c-1.822 0-3.054.32-3.707.997-.639.656-.96 1.919-.96 3.822v.223h7.17v6.342h-6.856v22.846h-9.362v-22.846h-3.985v-6.342h3.985v-.805c0-3.56.95-6.24 2.842-8.028 1.892-1.8 4.745-2.672 8.583-2.672zm57.404 30.484v10.21h-9.688v-10.21h9.688zm22.96-13.361c-.898 0-1.704.12-2.404.373-.694.231-1.365.709-2 1.44-.574.694-1.028 1.617-1.363 2.776-.34 1.185-.505 2.672-.505 4.46 0 1.59.147 2.973.442 4.147.293 1.177.715 2.113 1.292 2.811a4.899 4.899 0 001.982 1.487c.767.31 1.648.466 2.633.466a6.9 6.9 0 002.421-.431c.77-.277 1.412-.772 1.949-1.434.606-.755 1.059-1.654 1.362-2.698.3-1.055.452-2.498.452-4.348 0-1.73-.154-3.156-.466-4.32-.308-1.152-.742-2.075-1.292-2.776-.55-.719-1.218-1.219-1.992-1.512a7.041 7.041 0 00-2.51-.441zm-55.35.683c-.881 0-1.79.12-2.713.391a11.58 11.58 0 00-2.66 1.164v14.65a6.771 6.771 0 001.984.469c.713.086 1.412.112 2.097.112 2.459 0 4.305-.725 5.501-2.16 1.206-1.456 1.812-3.624 1.812-6.537 0-2.834-.48-4.891-1.448-6.178-.97-1.274-2.49-1.911-4.573-1.911zm119.212-.27c-2.447 0-4.288.72-5.511 2.128-1.221 1.402-1.831 3.379-1.831 5.91 0 2.804.523 4.762 1.567 5.863 1.033 1.124 2.586 1.665 4.64 1.665a8.74 8.74 0 002.734-.437c.898-.305 1.72-.676 2.454-1.159v-13.234c-.535-.234-1.184-.406-1.958-.545a12.977 12.977 0 00-2.095-.19zm319.78-112.719c2.834 0 5.402.33 7.712 1.014 2.307.661 4.415 1.587 6.297 2.781l.606-2.332H628.3v46.493c0 4.943-.706 9.082-2.102 12.444-1.389 3.373-3.352 6.017-5.88 7.91-2.503 1.942-5.542 3.336-9.11 4.201-3.554.837-7.58 1.28-12.044 1.28a86.97 86.97 0 01-10.754-.657c-3.523-.435-6.574-.977-9.154-1.6v-13.138h2.037c2.06.803 4.551 1.548 7.488 2.229 2.962.667 5.592.996 7.936.996 3.09 0 5.624-.295 7.567-.874 1.924-.561 3.409-1.392 4.44-2.454.954-.986 1.665-2.275 2.099-3.828.437-1.556.646-3.426.646-5.62v-.968c-2.01 1.65-4.255 2.947-6.707 3.934-2.444.96-5.181 1.435-8.189 1.435-7.34 0-12.985-2.207-16.962-6.649-3.969-4.427-5.95-11.155-5.95-20.2 0-4.339.605-8.071 1.816-11.227 1.208-3.154 2.91-5.904 5.107-8.228 2.057-2.195 4.589-3.9 7.565-5.118 3.006-1.21 6.065-1.824 9.208-1.824zm-398.505 36.372c7.377-1.208 15.592-1.417 24.461-.473 6.41.69 12.595 1.268 18.73 2.999 7.135 1.987 11.018 2.8 17.749 4.882 3.399 1.046 8.402 1.512 11.498 1.736 7.349.572 14.92-.84 22.295-.967-8.065 5.211-18.88 7.967-28.76 8.999-7.29.751-14.26.62-22.04-.44-7.588-1.028-15.243-2.412-22.372-4.35-8.666-2.36-7.922-3.715-22.967-4.753-1.267-.068-5.541-.07-8.36-.05.73.358 1.429.712 2.043 1.027 4.94 2.515 7.794 4.158 12.04 7.079 6.841 4.727 14.193 9.837 20.822 17.573.142.155 1.214 1.295.506 1.857-1.296 1.028-4.5 2.474-5.566 1.53-6.076-5.419-5.76-7.149-13.118-13.828a77.676 77.676 0 00-8.145-6.432c-3.32-2.283-7.335-4.764-11.058-6.622-1.63-.807-3.685-1.34-5.706-1.676-2.022.335-4.078.869-5.707 1.676-3.729 1.858-7.73 4.34-11.063 6.622A76.534 76.534 0 00156 354.04c-7.36 6.68-7.052 8.41-13.125 13.827-1.054.945-4.265-.501-5.567-1.529-.712-.562.36-1.702.507-1.857 6.633-7.736 13.978-12.846 20.832-17.573 4.251-2.92 7.088-4.564 12.03-7.079.614-.315 1.313-.669 2.041-1.027-2.818-.02-7.093-.018-8.358.05-15.031 1.038-14.302 2.393-22.97 4.754-7.127 1.937-14.781 3.32-22.375 4.348-7.779 1.06-14.733 1.192-22.034.44-9.881-1.03-20.69-3.787-28.762-8.998 7.376.128 14.952 1.54 22.294.967 3.092-.224 8.105-.69 11.501-1.736 6.741-2.082 10.609-2.895 17.75-4.882 6.137-1.731 12.317-2.308 18.729-3 8.867-.943 17.082-.734 24.466.474 6.383 1.036 12.17 2.512 17.947 4.367 5.78-1.855 11.566-3.331 17.945-4.367zm339.64-36.553c9.133 0 16.209 2.49 21.2 7.484 4.97 4.997 7.476 11.817 7.476 20.45 0 8.628-2.52 15.448-7.538 20.426-5.018 4.964-12.057 7.46-21.138 7.46-9.08 0-16.136-2.496-21.156-7.46-5.02-4.978-7.52-11.798-7.52-20.425 0-8.711 2.514-15.548 7.578-20.493 5.044-4.968 12.077-7.442 21.098-7.442zm435.865 0c8.514 0 14.914 2.163 19.197 6.493 4.305 4.312 6.446 10.525 6.446 18.635v5.894h-38.43c.25 4.114 1.808 7.276 4.686 9.447 2.877 2.178 7.118 3.266 12.709 3.266 3.558 0 6.978-.639 10.306-1.909 3.331-1.289 5.949-2.661 7.88-4.115h1.863v13.528c-3.794 1.53-7.357 2.628-10.715 3.3-3.371.701-7.078 1.04-11.149 1.04-10.501 0-18.554-2.36-24.15-7.114-5.596-4.746-8.39-11.491-8.39-20.261 0-8.668 2.645-15.534 7.943-20.598 5.303-5.064 12.57-7.606 21.804-7.606zm-265.056.147c9.541 0 16.431 1.477 20.671 4.418 4.243 2.94 6.368 7.578 6.368 13.863v35.75h-16.635v-5.575c-.9.7-2.032 1.511-3.373 2.497-1.318.95-2.59 1.72-3.76 2.283a24.622 24.622 0 01-5.133 1.665c-1.772.348-3.723.53-5.835.53-4.961 0-9.134-1.54-12.49-4.624-3.356-3.104-5.034-7.027-5.034-11.842 0-3.829.843-6.976 2.566-9.403 1.702-2.44 4.132-4.341 7.274-5.758 3.099-1.409 6.945-2.382 11.561-2.983a203.92 203.92 0 0114.31-1.324v-.282c0-2.897-1.187-4.9-3.54-6-2.37-1.123-5.855-1.658-10.444-1.658-2.763 0-5.729.483-8.852 1.477-3.147.967-5.403 1.728-6.773 2.249h-1.536v-12.672c1.778-.467 4.658-1.028 8.648-1.658a75.5 75.5 0 0112.007-.953zm208.127.035c5.664 0 9.952 1.705 12.88 5.108 2.947 3.396 4.398 8.29 4.398 14.684v34.203h-16.828v-26.241c0-2.585-.055-4.78-.167-6.56-.095-1.763-.442-3.233-.994-4.35-.534-1.115-1.362-1.945-2.521-2.446-1.16-.527-2.763-.766-4.85-.766-1.397 0-2.761.222-4.105.708-1.337.5-2.976 1.297-4.887 2.41v37.245h-16.836v-26.241c0-2.558-.079-4.746-.18-6.527-.128-1.796-.484-3.266-1.029-4.382-.567-1.116-1.424-1.946-2.546-2.447-1.143-.527-2.728-.766-4.793-.766-1.63 0-3.235.327-4.786.984-1.558.683-2.967 1.382-4.207 2.134v37.245H849.15v-52.535h16.828v5.8c2.89-2.281 5.648-4.064 8.297-5.332 2.631-1.289 5.547-1.928 8.765-1.928 3.426 0 6.471.77 9.12 2.317 2.633 1.556 4.705 3.812 6.176 6.81 3.37-2.825 6.626-5.064 9.787-6.687 3.172-1.618 6.263-2.44 9.306-2.44zm-415.446 1.278c.594 0 1.253.018 1.998.044.743.028 1.394.068 1.953.14v16.032h-1.49c-.7-.235-1.858-.432-3.443-.544-1.58-.12-2.893-.201-3.952-.201-2.381 0-4.491.16-6.325.468-1.827.311-3.796.848-5.906 1.6v35.178h-16.833V296.31h16.833v7.711c3.687-3.168 6.903-5.284 9.627-6.34 2.733-1.044 5.243-1.555 7.538-1.555zm174.366 0c.591 0 1.25.018 1.997.044a22.45 22.45 0 011.954.14v16.032h-1.492c-.716-.235-1.859-.432-3.448-.544-1.575-.12-2.9-.201-3.955-.201-2.391 0-4.484.16-6.332.468-1.83.311-3.804.848-5.889 1.6v35.178H642.35V296.31h16.833v7.711c3.68-3.168 6.893-5.284 9.62-6.34 2.725-1.044 5.25-1.555 7.545-1.555zm141.857-1.278c5.645 0 9.952 1.705 12.878 5.108 2.926 3.396 4.4 8.29 4.4 14.684v34.203H818.65v-26.241c0-2.585-.048-4.78-.165-6.56-.113-1.763-.442-3.233-1.012-4.35a4.845 4.845 0 00-2.5-2.446c-1.159-.527-2.785-.766-4.85-.766-1.396 0-2.77.222-4.105.708-1.341.5-2.979 1.297-4.906 2.41v37.245h-16.838v-26.241c0-2.558-.056-4.746-.18-6.527-.13-1.796-.466-3.266-1.03-4.382a5.054 5.054 0 00-2.527-2.447c-1.146-.527-2.729-.766-4.79-.766-1.652 0-3.242.327-4.804.984-1.555.683-2.948 1.382-4.188 2.134v37.245H749.92v-52.535h16.836v5.8c2.886-2.281 5.648-4.064 8.297-5.332 2.627-1.289 5.545-1.928 8.743-1.928 3.449 0 6.485.77 9.125 2.317 2.644 1.556 4.7 3.812 6.192 6.81 3.353-2.825 6.623-5.064 9.787-6.687 3.172-1.618 6.263-2.44 9.306-2.44zM430.21 279.178c4.413 0 8.134.385 11.164 1.15 3.035.767 5.708 1.9 8.043 3.428 2.8 1.841 4.934 4.202 6.417 7.081 1.47 2.869 2.214 6.3 2.214 10.337 0 3.111-.544 6.16-1.639 9.145-1.086 2.974-2.644 5.479-4.659 7.5-2.77 2.743-5.847 4.825-9.254 6.225-3.405 1.402-7.643 2.109-12.708 2.109h-11.146v22.688h-17.906v-69.663h29.474zm289.494 45.003c-2.272.193-4.738.452-7.372.772-2.64.327-4.656.717-6.021 1.154-1.678.52-2.952 1.292-3.844 2.31-.886.997-1.33 2.328-1.33 3.988 0 1.079.1 1.967.285 2.644.18.69.648 1.336 1.395 1.961.717.62 1.577 1.072 2.558 1.374 1.01.293 2.56.44 4.675.44 1.674 0 3.373-.334 5.112-1.026a16.147 16.147 0 004.542-2.69V324.18zm-181.213-17.777c-1.623 0-3.049.232-4.325.648-1.25.44-2.457 1.32-3.595 2.635-1.028 1.217-1.859 2.887-2.463 5.015-.606 2.116-.912 4.778-.912 7.986 0 2.866.271 5.35.81 7.46.517 2.107 1.291 3.801 2.324 5.088 1 1.221 2.178 2.095 3.577 2.657 1.379.57 2.95.854 4.722.854 1.525 0 2.966-.258 4.351-.768 1.4-.53 2.558-1.402 3.533-2.62 1.084-1.322 1.893-2.947 2.447-4.826.531-1.9.808-4.509.808-7.845 0-3.077-.284-5.672-.826-7.771-.57-2.094-1.345-3.758-2.346-5.004-.985-1.272-2.18-2.178-3.58-2.712a13.003 13.003 0 00-4.525-.797zm65.673.751c-4.401 0-7.708 1.26-9.923 3.81-2.189 2.55-3.286 6.098-3.286 10.652 0 5.045.93 8.566 2.803 10.577 1.89 1.998 4.667 2.982 8.35 2.982 1.674 0 3.322-.267 4.938-.785a18.616 18.616 0 004.421-2.118v-23.794c-.954-.416-2.138-.735-3.527-.98-1.414-.222-2.67-.344-3.776-.344zM72.774 273.1c14.53 8.574 21.604 20.372 29.283 35.265 2.374 4.563 5.567 9.837 8.48 12.731 1.963 1.928 4.734 4.893 4.734 4.893s-2.029.476-8.333 1.411c-2.84.42-8.864 2.297-14.401 2.696-3.365.215-9.941.197-13.454-.381-17.766-2.835-34.279-15.757-42.58-29.97 7.527 4.627 12.972 7.704 19.598 10.001 5.9 2.06 11.496 2.664 21.343 5.455 5.939 1.688 11.825 4.08 13.89 4.86 6.594 2.453 9.358 1.848 9.358 1.848s0-1.011-2.455-3.69c-4.91-5.383-6.7-6.666-10.738-10.787-1.321-1.368-4.358-6.006-5.897-9.084-4.365-8.704-4.843-15.689-8.828-25.248zm216.264 0c-3.98 9.56-4.474 16.544-8.827 25.248-1.546 3.078-4.582 7.716-5.905 9.084-4.027 4.121-5.827 5.404-10.735 10.788-2.32 2.529-2.449 3.572-2.456 3.68v.01s2.766.604 9.356-1.85c2.076-.778 7.953-3.171 13.904-4.86 9.835-2.79 15.428-3.393 21.332-5.454 6.617-2.297 12.064-5.374 19.6-10.001-8.304 14.213-24.817 27.135-42.578 29.97-3.51.578-10.086.596-13.459.381-5.54-.399-11.562-2.277-14.384-2.696-6.322-.935-8.34-1.411-8.34-1.411s2.766-2.965 4.73-4.893c2.917-2.894 6.11-8.168 8.469-12.731 7.672-14.893 14.763-26.69 29.293-35.265zm-91.184 7.443s.1 4.45-.797 9.61c-.83 4.805-2.592 9.855-4.472 13.51-.065 3.76 1.513 7.252 1.781 10.953-3.164 1.95-6.57 3.888-9.4 6.62-.186.163-.481.163-.596-.288-1.519-5.718-2.327-10.8-3.564-16.454-3.514-2.724-6.806-5.143-9.86-8.334-1.637-1.678-3.88-4.261-5.92-6.698-3.925-4.696-5.676-8.92-5.676-8.92h38.504zM973 305.19c-3.24 0-5.89.85-7.977 2.535-2.087 1.684-3.24 4.38-3.491 8.09h21.776c-.1-3.527-.976-6.188-2.605-7.954-1.652-1.777-4.22-2.671-7.703-2.671zm-551.277-13h-3.08V313h5.135c3.041 0 5.546-.183 7.523-.547 1.974-.389 3.635-1.14 4.976-2.246a8.538 8.538 0 002.483-3.56c.515-1.382.78-3.096.78-5.084 0-1.963-.534-3.648-1.588-5.057-1.058-1.409-2.285-2.413-3.69-2.954-1.858-.754-3.677-1.17-5.459-1.255-1.764-.068-4.127-.105-7.08-.105zM53.192 241.664c3.475 4.314 4.563 7.193 6.768 11.348 2.397 4.55 3.62 7.364 4.74 10.158 6.508 16.249 8.203 35.023 12.223 44.46-12.417-4.182-22.188-6.428-35.283-15.885-2.991-2.152-11.007-8.315-14.807-13.156-5.527-7.037-6.746-10.06-10.394-18.159-.444-1.003-2.51-5.584-2.675-8.688 11.953 14.47 22.651 16.621 34.047 28.637a262.201 262.201 0 0010.723 10.63c1.736 1.593 3.897 2.093 3.897 2.093s-.225-3.104-1.353-5.247c-7.6-14.589-9.036-29.838-7.886-46.191zm255.415 0c1.158 16.353-.269 31.602-7.884 46.19-1.123 2.144-1.343 5.248-1.343 5.248s2.157-.5 3.894-2.092c2.264-2.092 6.542-6.224 10.722-10.631 11.4-12.016 22.108-14.167 34.047-28.637-.164 3.104-2.234 7.685-2.676 8.688-3.649 8.099-4.867 11.122-10.392 18.16-3.797 4.84-11.817 11.003-14.794 13.155-13.109 9.457-22.877 11.703-35.302 15.885 4.019-9.437 5.728-28.211 12.24-44.46 1.106-2.794 2.334-5.608 4.73-10.158 2.199-4.155 3.308-7.034 6.758-11.348zm-90.96 38.877s.88 3.165 1.801 6.112c.628 1.997 1.29 3.243 1.725 4.685.234.79-.698.917-1.148.78-.977-.521-1.267-1.202-1.976-2.127-.134 2.654 1.395 5.271 2.494 7.588 1.347 2.91 3.146 5.954 5.086 8.702.75 1.048-.972 1.757-1.668.962-2.042-2.343-3.682-5.127-5.474-8.315-2.205-3.89-4.23-8.022-5.534-11.625-1.486-4.09-1.855-6.762-1.855-6.762zm-7.874 0s.24.071.353.701c.313 1.6.24 3.19.672 5.067.573 2.42 1.302 4.615 2.186 6.871.769 1.99 1.762 3.985 2.573 5.955.105.259.159.75-.032 1.021-.242.302-.647.268-.881 0-1.832-2.102-2.576-4.454-4.019-7.166-1.085-2.013-1.903-4.686-3.155-6.258-.264 1.402.059 2.28-.123 3.64-.185 1.123-1.106.654-1.291.126-.535-1.551-1.115-3.439-1.604-5.002a30.104 30.104 0 01-1.093-4.944l6.414-.01zm-85.422-27.674c1.938.303 4.448.9 6.631 1.522 7.084 2.039 15.144 5.247 22.298 5.261h.187c.165-.002.161-.006.158-.007h66.218c1.994-.007 5.73.64 7.234 3.311 1.736 3.057 2.277 6.715.82 10.373-.444 1.098-1.184 2.66-2.243 3.63-.92.83-2.427 1.382-3.292 1.382-.23.008-.59.002-.668 0h-58.066c-5.89 0-13.322-.728-18.979-2.723-3.035-1.072-5.995-2.456-8.652-4.219-3.467-2.3-5.161-4.12-9.63-6.207-3.838-1.76-6.89-3.516-12.222-5.47-2.574-.934-6.747-2.211-10.32-2.826-5.122-.872-10.046-1.245-10.046-1.245s1.044-.664 1.672-.853c5.218-1.612 9.826-2.38 15.175-2.766 4.701-.366 9.018.092 13.725.837zM42.259 198.36c3.464 6.83 3.447 14.728 4.326 21.972 1.68 14.062-2.702 30.824-3.562 37.807-.23 1.84.086 6.387.175 8.168a205.174 205.174 0 01-18.036-16.104c-2.576-2.583-6.106-6.854-8.373-10.008-4.693-6.56-6.411-9.862-9.463-16.846-2.567-5.852-3.307-8.022-4.806-14.58-.823-3.58-1.289-6.83-.651-8.94 3.679 6.683 6.192 14.16 10.996 19.69 3.822 4.4 7.499 8.15 10.534 11.852 4.66 5.713 8.326 11.107 12.794 17.033.379-2.979.525-5.98-.141-10.854-.91-6.68-.354-12.154.818-18.627 1.467-8.201 2.544-12.264 5.389-20.563zm277.289 0c2.845 8.299 3.922 12.362 5.399 20.563 1.162 6.473 1.716 11.948.803 18.627-.664 4.874-.513 7.875-.136 10.854 4.463-5.926 8.145-11.32 12.796-17.033 3.033-3.702 6.715-7.452 10.527-11.852 4.807-5.53 7.334-13.007 10.999-19.69.635 2.11.179 5.36-.647 8.94-1.501 6.558-2.238 8.728-4.808 14.58-3.052 6.984-4.761 10.286-9.468 16.846-2.27 3.154-5.792 7.425-8.368 10.008a204.812 204.812 0 01-18.036 16.104c.09-1.78.405-6.327.18-8.168-.855-6.983-5.252-23.745-3.57-37.807.877-7.244.872-15.143 4.329-21.972zm585.136 5.818c9.156 0 16.21 2.49 21.199 7.486 4.993 4.986 7.478 11.798 7.478 20.442s-2.5 15.437-7.518 20.415c-5.02 4.988-12.08 7.469-21.159 7.469-9.075 0-16.118-2.481-21.137-7.469-5.015-4.978-7.538-11.771-7.538-20.415 0-8.695 2.531-15.534 7.578-20.495 5.06-4.962 12.092-7.433 21.097-7.433zm-65.559 0c9.138 0 16.213 2.49 21.202 7.486 4.992 4.986 7.479 11.798 7.479 20.442s-2.498 15.437-7.52 20.415c-5.036 4.988-12.075 7.469-21.161 7.469-9.076 0-16.115-2.481-21.13-7.469-5.02-4.978-7.538-11.771-7.538-20.415 0-8.695 2.528-15.534 7.575-20.495 5.044-4.962 12.09-7.433 21.093-7.433zm-309.57 0c9.137 0 16.209 2.49 21.198 7.486 4.987 4.986 7.478 11.798 7.478 20.442s-2.52 15.437-7.538 20.415c-5.017 4.988-12.057 7.469-21.137 7.469-9.081 0-16.12-2.481-21.16-7.469-5.012-4.978-7.516-11.771-7.516-20.415 0-8.695 2.515-15.534 7.577-20.495 5.05-4.962 12.072-7.433 21.099-7.433zm466.754-18.628v72.796h-16.818v-5.479c-2.903 2.375-5.586 4.121-8.11 5.254-2.514 1.114-5.424 1.688-8.7 1.688-6.372 0-11.466-2.465-15.283-7.41-3.818-4.916-5.729-11.565-5.729-19.932 0-4.45.638-8.4 1.932-11.85 1.282-3.448 3.05-6.395 5.29-8.869 2.113-2.333 4.675-4.147 7.673-5.444 3.016-1.297 6.026-1.943 9.04-1.943 3.146 0 5.715.337 7.712 1.001a50.822 50.822 0 016.175 2.558v-22.37h16.818zm-295.024 0v72.796H684.45v-5.479c-2.885 2.375-5.595 4.121-8.09 5.254-2.528 1.114-5.426 1.688-8.725 1.688-6.365 0-11.442-2.465-15.26-7.41-3.836-4.916-5.734-11.565-5.734-19.932 0-4.45.64-8.4 1.942-11.85 1.274-3.448 3.047-6.395 5.266-8.869 2.11-2.333 4.679-4.147 7.694-5.444 3.014-1.297 6.029-1.943 9.039-1.943 3.124 0 5.692.337 7.713 1.001a50.67 50.67 0 016.155 2.558v-22.37h16.836zm101.567 3.138v13.475h-31.94v12.948h29.62v13.483h-29.62v29.753h-17.806v-69.66h49.746zm-168.293-3.135v72.794h-16.836v-72.794h16.836zm-30.305 20.077a55.1 55.1 0 012.011.034c.75.044 1.394.078 1.958.146v16.052h-1.49c-.722-.251-1.877-.442-3.451-.562-1.57-.129-2.894-.19-3.954-.19-2.392 0-4.5.156-6.328.467-1.835.312-3.8.84-5.912 1.592v35.177h-16.835V205.81h16.835v7.719c3.706-3.18 6.915-5.298 9.64-6.344 2.733-1.038 5.235-1.555 7.526-1.555zM413.64 188.687l10.66 47.965 12.813-47.965h17.853l12.153 47.965 11.188-47.965h18.256l-18.7 69.656H458.01l-12.414-45.376-12.143 45.376H413.65l-18.688-69.656h18.68zm-192.1 50.036c5.38-.007 7.348 5.37 7.325 9.691-.016 1.42-.259 2.887-.649 3.856-.518 1.287-1.077 2.334-2 3.325-.337.37-1.521 1.202-2.043 1.34-1.128.27-2.482.272-2.705.27h-4.042c-13.975.001-59.808.006-61.957 0h-.079s-3.564-.147-6.04-.39a51.802 51.802 0 01-4.989-.709c-4.546-.907-8.309-2.393-12.25-3.611-2.635-.83-5.389-1.434-8.272-1.849-5.303-.83-11.1-1.197-16.45-.796-6.807.517-12.865 1.858-19.338 3.904 1.087-1.701 5.642-4.224 8.764-6.085 10.325-6.108 22.77-8.53 34.159-8.901.264-.008.803-.045.803-.045l88.794.01h.071c.107 0 .358-.003.899-.01zm617.584-22.809c-1.619 0-3.044.225-4.3.657-1.27.432-2.478 1.313-3.615 2.62-1.028 1.218-1.836 2.886-2.442 5.002-.61 2.128-.91 4.782-.91 7.998 0 2.87.248 5.368.783 7.457.52 2.11 1.314 3.805 2.327 5.093 1 1.208 2.195 2.109 3.577 2.652 1.377.573 2.947.858 4.723.858a12.53 12.53 0 004.372-.779 8.01 8.01 0 003.512-2.592c1.083-1.351 1.909-2.967 2.45-4.85.546-1.875.805-4.502.805-7.84 0-3.086-.264-5.672-.831-7.77-.565-2.082-1.341-3.752-2.32-4.997-1.009-1.278-2.204-2.186-3.6-2.713-1.393-.537-2.9-.796-4.531-.796zm-309.57 0c-1.618 0-3.049.225-4.326.657-1.253.432-2.456 1.313-3.594 2.62-1.033 1.218-1.858 2.886-2.463 5.002-.611 2.128-.912 4.782-.912 7.998 0 2.87.267 5.368.81 7.457.516 2.11 1.292 3.805 2.323 5.093 1 1.208 2.178 2.109 3.573 2.652 1.381.573 2.956.858 4.731.858 1.521 0 2.965-.267 4.369-.779 1.377-.526 2.536-1.374 3.511-2.592 1.083-1.351 1.891-2.967 2.446-4.85.554-1.875.81-4.502.81-7.84 0-3.086-.282-5.672-.832-7.77-.562-2.082-1.34-3.752-2.342-4.997-.986-1.278-2.182-2.186-3.578-2.713-1.414-.537-2.904-.796-4.525-.796zm375.13 0c-1.605 0-3.049.225-4.304.657-1.252.432-2.463 1.313-3.616 2.62-1.033 1.218-1.84 2.886-2.446 5.002-.603 2.128-.911 4.782-.911 7.998 0 2.87.271 5.368.791 7.457.54 2.11 1.314 3.805 2.333 5.093.988 1.208 2.186 2.109 3.566 2.652 1.378.573 2.969.858 4.728.858 1.522 0 2.98-.267 4.365-.779a7.996 7.996 0 003.516-2.592c1.085-1.351 1.912-2.967 2.447-4.85.55-1.875.83-4.502.83-7.84 0-3.086-.283-5.672-.853-7.77-.546-2.082-1.34-3.752-2.324-4.997-1.005-1.278-2.202-2.186-3.596-2.713-1.389-.537-2.903-.796-4.527-.796zm67.49.754c-4.404 0-7.71 1.383-9.905 4.139-2.196 2.776-3.305 6.605-3.305 11.505 0 5.151.885 8.9 2.663 11.227 1.753 2.317 4.595 3.491 8.507 3.491 1.519 0 3.12-.293 4.84-.87 1.706-.59 3.208-1.342 4.516-2.275v-25.818a16.515 16.515 0 00-3.728-1.072 21.278 21.278 0 00-3.587-.327zm-295.029 0c-4.401 0-7.703 1.383-9.9 4.139-2.207 2.776-3.31 6.605-3.31 11.505 0 5.151.89 8.9 2.646 11.227 1.77 2.317 4.615 3.491 8.532 3.491 1.52 0 3.117-.293 4.817-.87 1.72-.59 3.23-1.342 4.518-2.275v-25.818a16.674 16.674 0 00-3.71-1.072 21.312 21.312 0 00-3.593-.327zm-526.176.802h69.246c-.05-.002-.176-.008.251-.008 2.206 0 4.388.77 5.734 2.048 1.352 1.287 2 3.277 2.343 5.255.303 1.677.152 3.157-.23 4.953-.309 1.434-.536 2.274-1.32 3.475-.476.743-.925 1.236-1.813 1.953-.91.735-2.201.968-3.678.984-.16.01-.485.018-.476.01.006-.005-24.496-.008-46.55-.009H139.27c-5.305-.017-10.882.26-16.128.952-4.01.537-8.04 1.164-11.914 2.185-4.888 1.272-9.6 3.06-14.301 4.825 2.604-3.484 5.614-6.441 9.07-9.266 4.31-3.553 7.5-5.595 11.799-8.16 1.751-1.052 4.39-2.239 6.426-3.164 7.447-3.378 17.31-5.86 26.589-6.04.152 0 .16.006.158.007zm69.59-21.547s1.275.068 1.719.157c1.106.24 2.011.698 2.383.939.92.588 2.085 1.84 2.69 2.828 1.54 2.542 1.807 5.288 1.317 8.16-.582 3.267-3.048 6.99-6.41 7.079-.581.016-1.75 0-1.75 0h-64.333s-3.74.077-5.456.136a91.077 91.077 0 00-9.43.9 59.69 59.69 0 00-7.039 1.417c-7.935 2.152-14.828 6.19-22.036 9.32 4.854-8.507 11.424-15.033 17.827-19.682 4.265-3.08 9.429-5.619 14-7.374 2.327-.881 5.409-1.859 7.862-2.47 2.962-.753 6.369-1.315 9.133-1.4.84-.02.128 0 .128 0l59.394-.01zm139.432-47.878c1.851 5.023 2.156 12 1.512 17.219-1.062 8.55-2.489 16.077-5.609 24.193-4.824 12.533-12.943 23.926-19.538 34.945-1.194-3.223-1.832-6.094-3.7-11.547-.718-2.1-3.338-8.436-5.286-12.74-3.694-8.168-5.052-12.224-6.728-20.66-.765-3.853-1.422-11.062-.135-14.96 13.97 13.129 15.439 23.24 16.657 34.374.115 1.141.471 3.458 1.601 5.877 1.566-1.017 1.87-10.44 5.959-20.5 1.281-3.148 2.769-7.235 4.526-10.355 1.935-3.414 3.748-6.162 5.225-9.63 1.924-4.496 2.508-6.734 3.89-11.41.14-.466 1.133-3.577 1.626-4.806zm-358.168 0c.488 1.229 1.477 4.34 1.617 4.806 1.381 4.676 1.964 6.914 3.894 11.41 1.48 3.468 3.291 6.216 5.22 9.63 1.758 3.12 3.246 7.207 4.525 10.355 4.092 10.06 4.4 19.483 5.96 20.5 1.128-2.419 1.481-4.736 1.612-5.877 1.218-11.134 2.675-21.245 16.647-34.374 1.284 3.898.628 11.107-.14 14.96-1.672 8.436-3.02 12.492-6.715 20.66-1.958 4.304-4.575 10.64-5.29 12.74-1.875 5.453-2.515 8.324-3.7 11.547-6.6-11.02-14.713-22.412-19.542-34.945-3.122-8.116-4.547-15.644-5.6-24.193-.65-5.22-.351-12.196 1.512-17.219zm178.211-55.948c5.23 2.696 8.868 10.803 7.93 17.57-.459 3.322-1.884 6.987-3.745 10.002-2.997 4.78-5.589 7.745-9.022 13.241-1.563 2.516-4.661 7.01-4.586 8.317.34 0 .9.042.9.042s6.728-10.51 11.05-15.903c1.54-1.937 3.09-4.298 4.124-6.456.877-1.834 1.767-3.743 2.266-5.713.664-2.604 1.03-5.48.708-8.076-.279-2.134-.796-3.862-1.189-5.901 3.995 4.727 5.332 11.227 4.888 17.468-.298 4.183-1.497 8.184-2.464 12.143-2.688 10.985-4.456 23.925-4.871 35.976-.163 4.46-.307 8.746-.066 13.19.313 5.488 1.605 10.787 1.81 16.25h-.52l-19.002.006s-10.023-.242-15.602.943c-3.345.69-6.37 1.347-9.56 2.565-1.257.497-2.546.944-3.96 1.593-1.768.84-3.581 1.657-5.288 2.654-.342.198-.837.76-1.18 0-1.284-2.783-2.386-5.73-3.691-8.532-4.715-10.146-9.374-19.326-15.056-29.231-1.127-1.974-2.502-4.09-3.747-6.077-1.231-1.989-2.096-3.258-3.42-5.17-4.443-6.429-8.712-11.98-13.958-17.45-3.34-3.485-6.674-6.293-10.343-9.57-3.87-3.464-8.634-5.635-12.412-8.686 10.019-1.254 21.077 2.17 30.59 7.305 3.565 1.91 6.74 4.053 9.964 6.602 5.262 4.175 9.277 8.617 13.813 13.434.017-.296.527-.278.471-.545-.285-.761-1.313-2.034-1.24-3.742.069-1.576 1.216-2.654.862-3.2-1.904-3.025-.822-5.386.046-6.897.523-.932-.151-1.368-.28-2.542-.096-.871.22-2.09.522-2.8.31-.77.916-1.4.556-2.118-.275-.588-.246-1.616-.19-2.004.075-.693.666-1.367.83-2.1.1-.51-.263-1.126-.248-2.258.016-.81.573-1.841.793-2.947.156-.803.358-2.022.622-2.628.52-1.166 1.514-2.236 2.855-2.497.708-.13.732-1.114 2.134-2.196 1.59-1.218 2.868-.458 3.6-1.269 2.463-2.75 4.675-2.664 6.992-1.582.92.432 1.901-.763 3.672-.46 1.822.314 2.838 1.617 3.36 1.756.383.12 2.415-.234 4.452 1.573.661.588.976 1.789 1.662 2.17 1.447.83 1.682 2.825 2.21 3.483.479.604 1.672 1.072 2.139 1.703.942 1.27.813 2.386 1.072 2.836.225.397 1.266.473 2.333 1.786.13.157.546.85.805 1.749.275 1.044-.162 2.6.625 3.128.698.457 1.542 1.642 1.652 1.435 3.632-7.269 6.64-11.523 11.715-17.202 2.69-2.991 2.805-10.12 1.617-15.168zm68.05-10.684c-.277 2.358-.332 5.014.031 7.279.43 2.635 2.027 4.227 2.688 7.028 1.765-.324 3.702-.243 5.188-.115 1.488.121 3.363-.284 4.884-.81 2.058-.702 3.76-1.988 5.865-2.492-1.786 1.722-4.31 2.371-6.422 3.684-.774.484-1.503 1.132-2.018 1.935-.86 1.33-1.522 2.593-2.85 3.171-2.361 1.038-4.393.547-7.081 1.048-4.001 4.132-7.772 9.757-11.236 15.678-8.82 14.946-16.164 30.442-20.435 46.321 1.484-2.766 2.888-5.438 4.488-8.072 1.77-2.913 3.76-5.765 5.92-8.636 5.075-6.707 10.092-12.567 15.717-18.73 4.53-4.979 9.51-9.162 15.054-12.655 7.335-4.606 16.376-7.831 24.319-6.17.907.214 2.198.458 2.756 1.054-9.952-1.402-18.876 2.093-25.525 7.443-5.261 4.21-9.688 8.504-14.2 14.06-2.32 2.682-4.417 5.637-6.49 8.488-2.179 3.001-4.107 6.163-6.025 9.328-6.453 10.684-11.333 22.006-14.928 33.726-.1.381-.122.753-.232 1.124.182-.267.43-.542.596-.821 4.835-7.881 10.652-15.49 18.013-20.605.64-.433 1.313-1.28 1.482-1.947.798-3.127-1.582-4.639 1.71-8.96.758-.997 1.781-1.368 2.505-2.283 1.347-2.085 2.44-5.836 3.569-6.836-.572 2.435-1.963 5.002-2.261 7.517-.312 2.75.389 5.013.515 7.926 1.943.278 3.443 1.098 4.973 1.574 2.372.735 3.797.545 6.147.345 1.004-.086 2.817-.682 3.899-.457-2.275 1.253-5.335 1.028-7.66 2.203-1.615.84-2.097 2.075-4.331 2.508-1.993.388-3.677.18-4.974-.484-1.001-.517-1.79-.726-2.693-.295-2.42 1.167-4.07 2.81-6.016 4.78-4.51 4.563-8.203 9.654-11.638 16.318a88.846 88.846 0 00-2.508 5.335c-.377.889-1.332 3.328-1.332 3.328H205.75s-.037-3.415.08-4.659c.226-2.482.558-4.322 1.046-6.846.683-3.631 1.345-6.915 2.29-10.424a128.322 128.322 0 013.063-9.915c2.436-6.854 5.036-13.422 7.868-19.81 4.418-9.94 9.062-17.433 15.105-26.2.795-1.14 1.499-2.262 2.188-3.344.31-.484 1.8-2.628 2.107-3.086 2.02-3.06 2.88-4 4.949-6.932.557-.794 1.011-1.416 1.257-2.342.433-1.718-1.033-2.869-1.36-4.512-.35-1.685-.17-3.518.609-4.945.479-.881.955-1.227 1.448-2.427.937-2.29.613-7.253 1.685-7.391zm-31.682 11.946c.353-.253 1.15-.709 1.71-.546-1.153 1.78-2.45 3.02-3.595 4.782-2.594 3.992-4.39 7.363-6.331 11.573-2.45 5.316-4.625 10.43-6.422 16.06-1.326 4.218-3.268 9.11-3.872 13.223.798-.673 1.723-1.374 2.39-2.317.617-.871.798-1.839 1.274-2.722.645-1.209 1.932-2.343 3.26-3.111.505-.302 1.08-1.627 1.412-2.229.654-1.143 1.362-1.835 2.304-2.491.44-.303.423-1.263 1.572-2.403.645-.622 1.641-1.59 2.452-1.807.855-.207 1.169-2.592 6.343-3.222 1.026-.028.882.215.147.735-5.536 3.923-9.29 8.304-12.748 13.414-5.454 8.056-8.85 17.106-10.468 26.761.948.354 1.803-2.49 2.112-3.096.763-1.453 1.577-2.498 2.68-3.189.665-.415.85-1.582 1.49-2.343.831-1.002 1.515-1.72 2.699-2.23.83-.337 1.94-2.869 4.654-3.397.505-.102 3.076-2.188 5.01-1.184a191.353 191.353 0 00-5.213 4.59c-1.46 1.342-2.906 2.938-4.036 4.718-1.953 3.104-3.13 5.87-4.358 9.205-.682 1.885-1.067 3.623-1.54 5.801-.473 2.152-.848 4.364-.763 6.68 1.435-3.215 2.195-5.522 3.587-8.173 1.194-2.283 2.087-4.115 3.553-6.337.964-1.452 1.975-2.36 3.193-3.38.583-.485.65.008.598.13-2.204 5.35-2.923 7.46-4.1 11.503-.915 3.191-1.926 7.711-2.285 11.981-.606 7.13-.151 13.898-.151 13.898h-11.667s-.683-2.8-1.154-6.394c-.437-3.26-.658-7.156-.672-10.019-.02-5.247.225-9.058.52-13.693.098-1.467-.134-3.06-.285-4.587-.294-3.138.257-5.914.808-9.086.202-1.236-.365-2.886.254-5.376.7-2.808 1.436-3.673 1.582-4.33.376-1.817.351-2.983 1.292-4.737.56-1.054 1.182-1.765 1.216-2.134.175-1.875.202-3.25.708-4.686.667-1.885 1.253-2.065 1.509-3.362.42-2.126.751-2.367 1.227-3.501.664-1.599 1.637-1.998 1.73-2.576.383-2.47.966-4.053 1.855-5.747.658-1.27 1.692-1.59 1.84-2.196.46-1.857.965-3.501 2.071-5.032.863-1.174 1.211-.708 1.397-1.242.496-1.471.852-2.083 1.327-2.836.722-1.122 1.015-1.598 2.03-2.327 1.143-.803 1.077-2.365 3.26-4.087.92-.735 1.449-2.09 2.594-2.93zm-66.89 90.531c-.258.78.386 1.607.689 2.206.32.612.306 1.596 1.072 1.953.405-1.85-.275-3.328-1.76-4.159zm5.62-4.097c-1.046.07-2.147.813-2.463 1.626-.57 1.461-.151 2.86.518 4.52.01.024.298.675.515.18.44-.959.591-1.986.938-2.99.354-1.001.427-2.29.492-3.336zm-5.334-2.446c-.674-1.651-2.858-1.814-4.153-.985 1.177 1.77 1.334 4.105 3.086 5.548.164.147.515-.18.652-.293 1.336-1.01.948-2.957.415-4.27zM26.2 106.455c-.532 2.031-.813 5.08-1.01 7.136-.858 8.482.768 18.318.954 26.788.103 4.159.062 7.374-.56 11.281-.646 4.096-.11 9.144-.11 9.144s2.243-2.575 4.24-5.775c4.373-6.966 5.772-9.032 9.3-12.81 4.368-4.675 9.252-9.013 14.77-12.86-.664 2.608-3.481 7.668-4.65 9.697-1.552 2.722-2.255 5.195-5.932 11.358-5.174 8.652-7.474 9.82-13.222 19.077-1.248 2.013-6.349 9.672-7.579 12.014-2.698-5.592-3.71-10.475-7.015-19.56-2.07-5.722-1.757-11.445-1.482-15.291.588-8.228 1.57-14.806 3.56-22.827 1.392-5.609 4.404-13.952 8.736-17.372zm309.405 0c4.337 3.42 7.347 11.763 8.738 17.372 2.003 8.021 2.98 14.599 3.558 22.827.286 3.846.596 9.57-1.477 15.29-3.306 9.086-4.32 13.969-7.015 19.561-1.231-2.342-6.336-10.001-7.584-12.014-5.733-9.256-8.047-10.425-13.217-19.077-3.687-6.163-4.377-8.636-5.933-11.358-1.168-2.03-3.985-7.089-4.659-9.696 5.523 3.846 10.42 8.184 14.775 12.86 3.536 3.777 4.937 5.843 9.3 12.809a51.41 51.41 0 004.246 5.775s.53-5.048-.118-9.144c-.614-3.907-.649-7.122-.553-11.281.202-8.47 1.814-18.306.964-26.788-.212-2.056-.493-5.105-1.025-7.136zM157.76 170.803c-.053-.12-1.305-.198-1.647-.154-1.865.225-3.397.405-4.867 1.511-1.916 1.464-.47 5.266 1.219 5.792 1.19.371 3.326-.034 3.82-1.193.516-1.182.74-2.387 1.198-3.69.39-1.082.593-1.477.277-2.266zm-9.79-.215c-.672-3.38-3.038-3.344-6.188-2.256-.398.139.125 1.236.384 1.606 1.02 1.471 1.673 4.047 2.334 4.288 2.3.847 3.946-1.218 3.47-3.638zm9.67-5.193c-.995-3.934-5.693-2.915-8.054-1.367-1.99 1.296-1.158 4.624.583 5.781 1.522 1.038 4.095.055 5.995-.622 1.475-.528 1.902-2.118 1.475-3.792zm-14.271-5.655c-1.86-.188-4.265-.095-5.904 1.237-.273.216-.095 1.056.125 1.322 1.155 1.442 1.893 3.839 2.942 4.244 1.072.406 4.85.095 5.391-2.394.406-1.902-.1-4.184-2.554-4.41zm19.383-2.186c-2.357-.094-5.186.719-4.694 3.959.164 1.122 1.466 3.561 1.974 2.824 1.3-1.865 2.793-4.856 2.72-6.783zm-8.71-2.35c-.808-.536-1.606-.314-2.268-.106-1.47.435-3.11.346-4.313 1.446-1.452 1.313-.69 3.128.065 4.485.41.716 1.352 1.42 2.138 1.192 2.048-.604 4.142-.552 5.42-2.013 1.263-1.425.618-3.865-1.042-5.005zm98.545-16.027s-.181 1.124-.781 2.463c-.748 1.668-1.548 3.744-2.42 5.714-.974 2.205.21 3.726-.054 7.14 2.979-.034 4.752 1.789 8.468 1.003 1.071-.224 2.64-.622 3.924-.875 1.836-.335 2.419-.102 2.419-.102s-1.072.528-2.307.839c-2.092.544-4.56.847-6.583 2.714-2.55 2.307-6.624 2.505-8.634.605-.437-.424-.351-1.47-.952-1.8-3.02-1.676-2.078-5.66-.45-7.554 1.42-1.65 3.014-2.031 3.907-3.777 2.57-5.013 3.463-6.37 3.463-6.37zm-107.61 15.577c-.68-3.743-4.728-2.725-6.85-1.331-1.653 1.072-1.306 4.193.444 4.9 1.427.586 3.258.044 4.813-.458 1.519-.484 1.8-1.987 1.592-3.111zm17.464-3.873c-1.457-.823-3.203.103-4.668.675-.816.311-1.465 1.08-1.538 1.875-.135 1.271.524 2.3 1.287 3.041.458.45 1.464.528 1.794.45 1.765-.371 3.833-.571 4.525-2.427.498-1.323-.161-2.923-1.4-3.614zm-27.136 4.615c.4-2.86-1.53-4.165-4.147-3.42-.197.058-.46.214-.197.586 1.083 1.53 1.729 3.07 3.206 4.157.7.518 1.064-.768 1.138-1.323zm124.364-20.39c-.24 1.91-2.724 5.532-3.806 8.351-.87 2.236-.584 4.037-1.133 6.395 1.648.105 3.501.459 5.167.476 1.304.017 2.886-.269 4.233-.588 2.28-.535 4.91-1.65 5.969-1.304-2.14 1.15-4.835 1.563-7.214 2.246-1.809.51-3.103 1.885-4.714 3.137-1.488 1.133-3.457 1.59-5.216.76-.596-.292-1.172-1.252-1.28-1.763-.09-.414-.937-.82-1.38-1.185-.439-.36-.643-1.286-.66-1.632-.07-3.172 2.331-4.452 4.646-6.31 1.746-1.409 4.012-7.354 5.388-8.583zm-107.536 13.077c-1.746-1.13-4.081-.136-5.702.69-1.802.92-1.292 4.445.415 4.895 1.993.52 5.148 0 6.346-1.998.557-.95-.264-3.077-1.06-3.587zm-9.374-2.34c-1.582-1.002-3.499-.364-5.22.06-.662.17-1.453.51-1.612 1.228-.317 1.467-.19 3.57 1.388 3.88 1.945.388 3.642.302 5.317-.684.828-.476 1.008-1.511.87-2.766-.081-.777-.133-1.331-.743-1.719zm-9.857-.926c-1.543-.526-3.89-.416-5.392.33-.847.431-1.525 1.898-.546 2.756.85.742 1.218 2.151 2.23 2.358 1.438.296 3.266.27 4.45-.542.313-.2.515-.917.589-1.558.175-1.572-.332-3.005-1.331-3.344zm36.512-.994c-2.22-.293-4.819.725-6.056 2.324-.758.969.258 2.351.88 3.338.57.872 1.661 1.218 2.38.467 1.366-1.443 1.938-3.329 3.183-4.98.457-.612-.262-1.14-.387-1.149zm-8.47 1.227c-1.383-1.925-5.043-.82-6.656.467-.793.613-.422 2.127-.024 3.147.916 2.386 4.105 1.417 5.736.58 1.58-.814 1.849-2.941.945-4.194zm102.837-2.411c-.74 1.098-1.117 2.636-1.69 3.803-1.011 2.005-3.043 3.2-5.052 2.549-.313-.102-.86-.568-1.006-1.19-.369-1.627.46-2.526 1.42-3.496.355-.36 1.449-.905 1.977-.95 2.407-.274 2.678-.458 4.35-.716zm-112.064-.062c-.928-3.008-4.787-2.106-6.746-.733-1.863 1.315-.93 4.677 1.06 4.97 1.835.251 4.588-.208 5.67-1.953.398-.63.256-1.488.016-2.284zm-11.35-4.44c-1.796-.243-4.085-.157-5.363 1.156-1.187 1.228-.456 3.926.936 4.444 2.12.777 6.58.207 6.15-3.111-.152-1.22-.628-2.333-1.724-2.49zm28.267.138c-.86-2.481-4.904-.779-6.55.44-1.264.949-.836 3.198.22 4.287.921.967 2.75.466 3.854.068 1.174-.431 2.432-.606 2.91-1.901.416-1.063-.068-1.832-.434-2.894zm-11.034-.891c-1.566 0-3.19-.017-4.408 1.106-.857.776-.761 1.756-.583 2.705.136.718.539 1.773 1.409 1.98 1.567.39 4.649-.156 5.508-1.315.958-1.27.506-2.644-.137-3.666-.238-.387-1.15-.81-1.789-.81zm-25.489.431c-1.88-.915-5.338-.897-6.277 1.168-.692 1.522-.53 3.51 1.474 3.88 1.418.268 3.518.589 4.849-.3 1.668-1.133 1.482-3.987-.046-4.748zm178.894-57.598c4.262 3.593 8.37 8.848 11.244 13.725 8.33 14.122 8.612 30.58 7.02 46.423-12.572-12.816-15.377-13.77-23.2-19.656-6.237-4.675-14.931-14.71-17.283-24.668 1.976 1.98 3.514 4.08 5.892 5.733 3.991 2.747 7.882 4.656 11.762 7.528 5.022 3.715 10.027 9.049 14.76 12.428-1.739-9.56-3.895-16.829-4.952-27.39-.347-3.363-3.253-9.328-5.243-14.123zm-260.202 0c-1.977 4.45-4.406 8.857-5.243 14.122-1.657 10.485-3.221 17.831-4.955 27.39 4.735-3.378 9.735-8.712 14.765-12.427 3.88-2.872 7.764-4.78 11.762-7.528 2.37-1.653 3.911-3.753 5.886-5.733-2.351 9.957-11.046 19.993-17.272 24.668-7.833 5.887-10.638 6.84-23.205 19.656-1.598-15.844-1.317-32.3 7.014-46.423 2.873-4.877 6.983-10.132 11.248-13.725zm99.354 55.17c-.95-3.05-4.95-1.641-6.825-.57-1.291.743-1.1 3.534.377 4.47 1.758 1.105 4.185.267 5.713-.546 1.07-.554 1.106-2.102.735-3.355zM139.5 131.51c-1.836-.51-4.06-.139-5.391 1.426-1.177 1.4-.105 3.864 1.654 4.08 1.43.174 2.944-.216 4.252-.752a1.882 1.882 0 001.101-1.66c.033-1.477-.485-2.79-1.616-3.094zm25.694-1.15c-1.982-.215-5.877.83-5.669 3.397.063.805.349 2.144 1.369 2.742 1.869 1.07 4.828-.718 5.76-1.36.384-.259.886-1.675.389-2.896-.374-.93-1.067-1.795-1.849-1.883zm-8.335.442c-1.747-.278-3.407.303-5.023 1.174-.499.26-.719.743-.725 1.454-.033 1.391.69 3.059 1.724 3.195 1.454.19 4.704-.034 5.669-1.804.718-1.333.052-3.742-1.645-4.019zm-25.931.052c-1.729-.244-3.582-.865-5.013.5-.97.899-.762 2.318-.438 3.467.118.379.653.96 1.14.975 1.82.088 3.713.83 5.226-.303 1.314-.984 1.219-2.947.047-4.13-.227-.226-.63-.459-.962-.51zm16.092-3.794c-2.47-.528-6.714.544-5.617 3.957.808 2.49 4.326 2.075 6.314.779 1.614-1.047 1.028-4.375-.697-4.736zm16.49-2.094c-1.73-.36-3.624.365-4.708 1.6-1.05 1.184-.173 3.164.723 3.603 1.18.58 4.026-.23 5.056-1.632.323-.433.45-1.815-.111-2.604-.335-.463-.582-.878-.96-.967zm-24 2.015c-.51-2.342-3.558-1.738-5.19-1.072-1.525.623-1.248 3.743.256 4.166 1.96.535 5.625.026 4.934-3.094zm15.851-2.99c-1.663-.304-3.357.224-4.788 1.105-1.365.837-.91 2.61-.185 3.865.993 1.72 5.488.664 6.607-1.004.73-1.115-.063-3.698-1.634-3.967zm-23.31 1.676c-1.078-1.71-3.695-1.426-5.215-.778-1.048.432-1.219 1.988-.797 2.947.847 1.97 4.374 1.384 5.418 1.115 1.06-.293 1.258-2.229.594-3.284zm14.032-4.92c-1.6-.906-3.233-.326-4.928.279-2.126.742-1.567 3.835-.524 4.59 1.813 1.321 5.193.45 6.187-1.064.738-1.14.484-3.101-.735-3.804zm15.046-1.987c-1.52-.19-3.831.312-4.566 1.92-.54 1.193-.107 2.714.892 3.232 1.088.572 2.487.337 3.674-.285.43-.215 1.252-.777 1.624-1.504.321-.839.005-3.145-1.624-3.363zm-23.892.976c-1.392-.17-3.223-.258-3.743 1.219-.41 1.16-.337 2.82.908 2.975 1.526.2 3.438.441 4.279-.839.61-.925.267-3.13-1.444-3.355zm17.036.303c-.23-.752-.994-1.875-2.244-1.65-1.697.303-4.269.667-3.982 3.076.168 1.401 1.697 2.533 3.166 2.031 1.043-.343 1.841-.5 2.628-1.208.639-.554.667-1.53.432-2.249zm-22.754-.646c-1.958-.884-4.588-.917-4.594 1.763-.01 2.392 2.503 2.299 4.2 1.987 1.116-.207 1.427-1.487 1.216-2.662-.11-.536-.38-.891-.822-1.088zm12.454-4.798c-1.594-.467-3.896-.313-4.834 1.193-.562.9-.61 2.573.53 3.197 1.32.737 3.293.39 4.678-.476 1.522-.95 1.001-3.509-.374-3.914zm15.328.942c-.917-2.706-3.48-1.729-4.86-.424-1 .934-.6 2.36.293 3.208.703.673 2.059.173 3.064-.374 1.004-.535 1.942-1.124 1.503-2.41zm-22.003-.157c-1.121-.724-2.405-.578-3.567-.026-.276.139-.472.269-.609.718-.236.717-.207 1.625.528 2.014 1.135.599 2.908.562 3.784-.361.599-.622.672-1.835-.136-2.345zm13.703-1.823c-1.322-1.097-2.99-.484-4.235.578-.638.547-.524 1.729-.392 2.372.136.748 1.223 1.388 2.065 1.242 1.258-.207 2.247-.484 3.043-1.399.848-.97.229-2.215-.48-2.793zm-19.698 1.013c-.812-.414-2.288-.503-3.188-.157-.797.31-.952 1.461-.588 2.186.376.771 1.448.847 2.387.84.965-.027 1.83-.357 2.115-1.272.234-.708-.324-1.383-.726-1.597zm23.76-4.478c-1.292-.112-2.766.338-3.352 1.382-.554.986.389 2.49 1.417 2.473.76-.01 1.699-.312 2.458-.813.645-.442.891-1.143.7-1.901-.136-.562-.483-1.072-1.223-1.14zm-18.348.466c-1.465-.466-4.293-.128-3.643 2.118.383 1.33 2.18 1.252 3.47.881 1.538-.45 1.188-2.672.173-2.999zm5.842-1.529c-1.525-.338-3.233.128-4.174 1.451-.463.674-.199 1.556.353 2.17.588.648 2.048.596 3.109.355 1.062-.235 1.728-.865 1.956-1.772.263-1.106-.37-1.995-1.244-2.204zm-10.748 1.744c-.6-.646-1.82-.674-2.642-.371-.808.295-1.072 1.79-.27 2.24.332.19.975.38 1.52.397 1.56.079 2.205-1.357 1.392-2.266zm17.394-1.328c-.902-1.507-2.006-.83-3.086-.383-1.108.469-1.645 1.721-1.006 2.775.657 1.08 2.188.692 3.268.06.495-.3 1.452-1.383.824-2.452zm-13.482-2.508c-.593-.233-1.312-.19-1.93.024-.282.106-.82.511-.925.857-.259.855-.036 1.546.762 1.815.42.146 1.291 0 1.85-.235 1.266-.518 1.427-1.977.243-2.46zm16.79-.398c-1.286-.38-3.32.89-2.712 2.315.325.779 1.229 1.048 2.278.391.381-.235.987-.692 1.194-1.116.327-.682-.1-1.391-.76-1.59zm-5.883-2.12c-1.382-.429-2.827.209-3.397 1.471-.332.752-.144 1.807.67 2.134 1.071.451 1.85.105 2.787-.483.736-.468 1.038-1.27.868-2.152-.081-.432-.647-.881-.928-.97zm-5.831-.013c-1.426-.426-2.989.337-3.404 1.718-.464 1.538.967 2.342 2.425 2.015a3.597 3.597 0 001.658-.882c.83-.822.544-2.49-.68-2.851zm-58.835-33.65c-4.097 4.805-7.318 11.253-11.476 16.12-5.614 6.55-11.827 12.488-19.443 15.41.465-3.994 2.076-7.096 3.35-9.5 2.156-4.094 3.267-5.461 6.976-9.177 5.765-5.765 13.376-10.427 20.593-12.854zm197.884 0c7.217 2.426 14.828 7.088 20.588 12.853 3.714 3.716 4.825 5.083 6.98 9.178 1.275 2.403 2.9 5.505 3.357 9.5-7.627-2.923-13.838-8.861-19.454-15.412-4.163-4.866-7.374-11.314-11.471-16.12zm-26.203 4.39c.103 2.16-.476 4.244-.65 6.38-.057.707-.012 1.899.14 2.688.22 1.19.64 1.83.894 2.46.515 1.238.902 2.95.902 2.95s1.544-.295 2.75-.241c.579.016 1.106.19 1.825.163 1.791-.086 4.477-1.245 6.028-2.188 2.178-1.293 4.373-2.325 4.944-2.54-.141.596-.61.934-1.172 1.219-1.291.664-2.868 1.539-4.986 2.834-1.284.797-2.115 1.72-2.923 3.043-1.409 2.325-4.343 3.483-6.822 2.92-1.462-.326-1.789-1.406-2.18-1.694-.262-.198-1.741-.164-2.414-1.192-1.168-1.814-1.276-3.76-.406-5.635.513-1.16 1.04-1.868 1.706-2.774 1.576-2.16 1.033-5.6 2.364-8.394zm5.505-5.79s-.13 1.676-.77 5.022c-.19 1-.451 2.435-.465 3.541-.018 2.319.656 3.39.989 5.99 2.053-.258 4.332-.405 6.01-1.14 1.324-.586 4.592-2.617 7.587-4.406.543-.331 1.544-.675 1.544-.675s-.23.518-1.446 1.245c-1.213.723-2.954 1.729-4.636 2.764-1.49.908-2.845 2.178-3.47 3.345-1.246 2.379-3.96 4.53-6.345 3.734-1.11-.372-1.332-1.157-1.703-1.494-.362-.33-1.529-.147-2.23-1.427-1.2-2.204.238-5.083 1.79-6.7 1.084-1.132 1.439-2.669 1.787-4.475.303-1.575.455-2.059.667-3.39.165-1.322.592-1.832.676-1.92zm5.99 5.479s.267 3.673-.778 5.592c-.837 1.511-2.903 3.025-4.624 1.556-.985-.848-.645-2.343-.125-3.326.703-1.375 1.961-2.18 3.384-2.793.917-.4 2.144-1.03 2.144-1.03zM216.443 0v9.732h-23.075v9.361h21.384v9.734h-21.384v21.496h-12.86V0h35.935zm-104.44 0l7.694 34.636L128.947 0h12.901l8.776 34.636L158.699 0h13.185l-13.505 50.32h-14.335l-8.963-32.773-8.772 32.774h-14.295L98.5 0H112zm134.646 0c3.188 0 5.873.285 8.062.83 2.188.561 4.128 1.382 5.813 2.488 2.022 1.331 3.56 3.036 4.63 5.101 1.062 2.073 1.6 4.563 1.6 7.467 0 2.255-.397 4.461-1.177 6.611-.792 2.144-1.916 3.961-3.373 5.42-1.997 1.982-4.23 3.486-6.683 4.497-2.456 1.01-5.52 1.52-9.175 1.52h-8.048v16.387H225.36V0h21.287zm-5.65 9.406h-2.701v15.028H242c2.2 0 4.014-.13 5.43-.405 1.431-.259 2.63-.813 3.597-1.616a6.216 6.216 0 001.796-2.576c.37-1.004.56-2.222.56-3.655 0-1.42-.381-2.638-1.145-3.658-.762-1.028-1.65-1.736-2.66-2.141-1.352-.538-2.661-.84-3.94-.902a129.388 129.388 0 00-4.64-.075z"/></svg>