<svg viewBox="0 0 800 118" xmlns="http://www.w3.org/2000/svg" fill-rule="evenodd" clip-rule="evenodd" stroke-linecap="round" stroke-linejoin="round" stroke-miterlimit="1.5"><path d="M300.314 93.112c-5.706 4.632-13.774 7.35-22.279 7.35-16.538 0-30.096-10.31-30.096-29.119 0-18.356 12.94-29.953 29.258-29.953 16.902 0 27.733 12.4 27.733 28.212 0 1.637-.146 3.274-.255 4.075h-47.539c.944 11.807 9.012 19.157 21.333 19.157 6.433 0 12.467-2.022 17.555-5.401l4.29 5.679zm63.712 0l-4.29-5.679c-5.088 3.379-11.12 5.401-17.556 5.401-12.32 0-20.389-7.35-21.333-19.157h47.54c.108-.801.255-2.438.255-4.075 0-15.812-10.832-28.212-27.734-28.212-16.318 0-29.257 11.597-29.257 29.953 0 18.809 13.557 29.119 30.095 29.119 8.505 0 16.574-2.719 22.28-7.35zM133.531 18.576c14.466 0 25.369 7.488 25.369 20.828 0 8.847-4.798 14.523-10.648 17.309 9.376 2.23 16.646 9.302 16.646 20.376 0 13.481-10.758 22.222-25.916 22.222h-32.856V18.576h27.405zm39.575 80.735h9.05V42.539h-9.05v56.772zm45.467-9.648l19.118-47.124h9.305l-23.989 56.772h-9.449l-23.117-56.772h9.85l18.282 47.124zm-81.845 1.707c10.686 0 18.684-4.493 18.684-14.699 0-10.308-8.18-15.012-19.918-15.012h-20.137V91.37h21.371zM295.88 66.92c-.472-9.404-7.051-17.902-18.61-17.902-10.94 0-18.827 7.592-19.952 17.902h38.562zm63.712 0c-.472-9.404-7.052-17.902-18.61-17.902-10.94 0-18.827 7.592-19.953 17.902h38.563zM132.623 53.998c9.34 0 16.972-4.458 16.972-14.071 0-9.543-7.595-13.445-18.171-13.445h-16.067v27.516h17.266zm45.025-23.929c-3.526 0-6.397-2.75-6.397-6.128 0-3.379 2.871-6.131 6.397-6.131 3.526 0 6.396 2.752 6.396 6.131 0 3.378-2.87 6.128-6.396 6.128zM66.69 96.473c0 3.229-1.306 6.262-3.687 8.545l-8.9 8.534c-49.456-47.427-1.008-.95-50.416-48.344C1.308 62.927 0 59.896 0 56.675c0-2.754.849-5.523 3.126-7.762l9.589-9.197c49.651 47.62.867.851 50.288 48.222 2.381 2.281 3.687 5.314 3.687 8.535zm-4.246-70.301l-7.372 7.08-17.803-17.069L53.543.569l8.901 8.533c4.91 4.709 4.91 12.362 0 17.07zM30.807 97.546l-16.691 16.006-8.9-8.534C.304 100.312.304 92.646 5.205 87.951l7.803-7.483 17.799 17.078zM67.939 56.91c0 3.233-1.308 6.262-3.687 8.545l-8.9 8.534C5.779 26.453 54.175 72.87 4.936 25.645c-4.91-4.71-4.91-12.37 0-17.069l8.9-8.545c.949.911 49.621 47.582 50.416 48.342 2.379 2.283 3.687 5.316 3.687 8.537z" fill="#273750"/><path d="M637.026 117.969h-9.922l12.828-22.22c-8.917-6.205-14.48-16.465-14.48-29.124 0-21.178 15.571-35.64 36.361-35.64 5.062 0 9.808.857 14.09 2.461l10.964-18.99h9.922l-59.763 103.513zm50.496-77.301c6.581 6.272 10.522 15.258 10.522 25.957 0 21.178-15.441 35.64-36.231 35.64-3.228 0-6.33-.349-9.268-1.017l10.488-18.164c8.404-.665 15.029-7.799 15.029-16.489 0-2.477-.539-4.828-1.503-6.939l10.963-18.988zm19.772 37.518c6.66 3.954 15.009 5.563 20.936 5.563 4.649 0 8.006-1.162 8.006-3.873 0-3.358-1.829-3.616-12.935-5.553-11.492-2.067-21.716-5.169-21.716-20.148s12.598-23.19 30.16-23.19c11.325 0 20.642 2.976 27.01 7.489l-9.176 15.894c-5.755-4.239-11.577-5.95-17.446-5.95-4.003 0-8.365 1.161-8.365 3.615 0 2.97 3.487 3.358 11.492 4.778 12.914 2.324 24.299 6.921 24.299 22.287 0 15.883-13.896 23.038-32.62 23.038-9.951 0-21.928-2.735-29.201-7.398l9.556-16.552zm79.613-63.73l.183 18.042h12.655v20.298H787.09l-.132 22.222c0 5.424 2.582 6.586 7.489 6.586 2.325 0 3.229-.129 5.553-.387v19.474c-4.003.645-8.006 1.032-13.559 1.032-16.012 0-21.981-5.269-21.981-19.344l-.032-43.383 14.168-24.54h8.311zM566.275 47.014h30.395V14.456h23.547v86.26H596.67V66.837h-30.395v33.879h-23.548v-86.26h23.548v32.558zm99.712 3.607a16.119 16.119 0 00-4.239-.565c-9.004 0-16.314 7.411-16.314 16.539 0 4.499 1.776 8.58 4.654 11.563l15.899-27.537z" fill="#273750" fill-rule="nonzero"/><path d="M441.421 33.763l24.159 27.262-24.159 27.261" fill="none" stroke="#273750" stroke-width="8"/></svg>