<svg xmlns="http://www.w3.org/2000/svg" xmlns:xlink="http://www.w3.org/1999/xlink" viewBox="0 0 765 302"><defs><path id="a" d="M279.92 302h-33.742l38.847-67.282c-24.038-18.294-38.876-47.205-38.876-82.515 0-61.785 45.43-103.98 106.089-103.98 13.219 0 25.697 2.004 37.129 5.778L420.546 0h33.74L279.92 302zM430.287 79.505c17.37 18.112 27.66 43.167 27.66 72.698 0 61.786-45.053 103.98-105.71 103.98-7.865 0-15.473-.708-22.76-2.078l31.518-54.588c22-4.25 38.65-23.869 38.65-47.4 0-5.348-.86-10.494-2.447-15.303l33.089-57.31zm59.44 106.428c19.43 11.536 43.789 16.231 61.082 16.231 13.564 0 23.359-3.39 23.359-11.303 0-9.795-5.337-10.548-37.738-16.2-33.532-6.028-63.362-15.078-63.362-58.78s36.758-67.658 87.998-67.658c33.04 0 60.225 8.684 78.805 21.848l-26.774 46.373c-16.79-12.367-33.777-17.36-50.901-17.36-11.68 0-24.405 3.39-24.405 10.548 0 8.665 10.172 9.795 33.531 13.939 37.676 6.781 70.893 20.19 70.893 65.023 0 46.34-40.543 67.213-95.174 67.213-29.032 0-63.975-7.98-85.196-21.584l27.881-48.29zM727.332 52.637h36.922v59.222h-36.922l-.386 64.833c0 15.822 7.536 19.213 21.852 19.213 6.782 0 9.42-.376 16.201-1.13v56.815c-11.68 1.884-23.36 3.014-39.56 3.014-46.718 0-64.132-15.374-64.132-56.438l-.095-126.57L702.551 0h24.25l.532 52.637zm-658.63 42.35h88.68V0h68.703v251.663h-68.703v-98.842h-88.68v98.842H0V0h68.702v94.987zm291.468 9.579a47.14 47.14 0 00-8.121-.702c-26.27 0-47.598 21.621-47.598 48.252 0 11.543 4.006 22.144 10.684 30.45l45.035-78z"/></defs><use fill="#132E3F" fill-rule="evenodd" xlink:href="#a"/></svg>