<svg xmlns="http://www.w3.org/2000/svg" viewBox="0 0 750 302"><path fill="#132E3F" fill-rule="evenodd" d="M275.441 302h-28.925l37.397-64.826c-25.993-18.104-42.213-48.037-42.213-84.97 0-61.786 45.392-103.98 106-103.98 14.758 0 28.591 2.501 41.076 7.179L420.738 0h28.925L275.441 302zM422.646 76.474c19.187 18.299 30.677 44.514 30.677 75.73 0 61.785-45.016 103.98-105.623 103.98-9.41 0-18.453-1.017-27.016-2.967l30.573-52.996c24.5-1.94 43.812-22.752 43.812-48.105a48.62 48.62 0 00-4.382-20.244l31.959-55.398zm57.641 109.46c19.415 11.535 43.753 16.23 61.032 16.23 13.552 0 23.34-3.39 23.34-11.302 0-9.796-5.333-10.55-37.707-16.2-33.504-6.029-63.309-15.079-63.309-58.78 0-43.703 36.728-67.659 87.924-67.659 33.014 0 60.175 8.684 78.74 21.848l-26.752 46.373c-16.776-12.367-33.748-17.36-50.859-17.36-11.67 0-24.385 3.39-24.385 10.548 0 8.665 10.164 9.796 33.504 13.939 37.644 6.781 70.834 20.19 70.834 65.023 0 46.34-40.51 67.213-95.094 67.213-29.008 0-63.923-7.98-85.126-21.584l27.858-48.29zM712.376 0l.531 52.637h36.892v59.222h-36.892l-.385 64.833c0 15.823 7.529 19.214 21.834 19.214 6.776 0 9.411-.377 16.187-1.13v56.814c-11.67 1.884-23.34 3.014-39.527 3.014-46.679 0-64.079-15.374-64.079-56.438l-.094-126.57L688.146 0h24.23zM69.188 94.987h88.607V0h68.645v251.663h-68.645v-98.842H69.188v98.842H.543V0h68.645v94.987zm290.68 10.526a46.896 46.896 0 00-12.357-1.649c-26.248 0-47.557 21.621-47.557 48.252 0 13.126 5.175 25.033 13.567 33.735l46.347-80.338z"/></svg>