<svg xmlns="http://www.w3.org/2000/svg" viewBox="0 0 789 302"><path fill="#FFF" fill-rule="evenodd" d="M283.798 302h-30.143l39.119-67.776c-23.652-18.317-38.22-47.027-38.22-82.021 0-61.785 45.415-103.98 106.053-103.98 12.915 0 25.121 1.914 36.336 5.524L427.966 0h30.143L283.8 302zm159.3-217.495c14.647 17.608 23.186 40.796 23.186 67.698 0 61.786-45.039 103.981-105.677 103.981-5.47 0-10.815-.343-16.015-1.014l29.25-50.677c22.958-6.042 39.932-27.215 39.932-52.376 0-4.761-.608-9.378-1.749-13.777l31.073-53.835zm63.387 101.515c19.433 12.04 43.811 18.55 61.114 18.55 13.558 0 25.757-3.913 25.757-13.709 0-9.795-7.74-12.955-40.132-18.606-33.52-6.028-62.138-13.875-62.138-57.577s35.544-66.455 86.765-66.455c33.031 0 60.207 8.684 78.78 21.849l-24.495 42.439c-16.96-12.078-36.13-15.835-53.154-15.835-11.676 0-26.803 4.291-26.803 12.956 0 10.006 12.575 12.202 35.927 16.346 37.663 6.781 69.666 17.784 69.666 62.616 0 46.339-39.327 67.213-93.94 67.213-29.022 0-63.955-7.98-85.168-21.584l27.821-48.203zM750.814 52.51h36.91v59.221h-36.91l.146 64.96c0 15.824 7.533 21.621 21.845 21.621 6.779 0 9.415-.377 16.195-1.13v54.408c-11.676 1.883-23.351 3.014-39.547 3.014-46.703 0-61.706-15.374-61.706-56.438l-.145-130.206L725.992 0h24.822v52.51zM68.68 94.987h88.653V0h68.68v251.663h-68.68V152.82H68.68v98.843H0V0h68.68v94.987zm302.123 4.05a52.74 52.74 0 00-10.384-1.027c-29.447 0-53.355 24.244-53.355 54.107 0 13.415 4.825 25.697 12.81 35.156l50.929-88.236z"/></svg>