<svg xmlns="http://www.w3.org/2000/svg" width="200" height="62"><g fill="none" fill-rule="evenodd"><path fill="currentColor" d="M162.634 50.408c-3.09 2.508-7.46 3.98-12.066 3.98-8.956 0-16.298-5.584-16.298-15.77 0-9.94 7.007-16.22 15.844-16.22 9.153 0 15.02 6.715 15.02 15.278 0 .887-.08 1.773-.139 2.207h-25.744c.51 6.394 4.88 10.374 11.552 10.374 3.484 0 6.752-1.095 9.507-2.925l2.324 3.076zm34.502 0l-2.323-3.076c-2.755 1.83-6.022 2.925-9.507 2.925-6.672 0-11.042-3.98-11.553-10.374h25.745c.059-.434.138-1.32.138-2.207 0-8.563-5.866-15.278-15.019-15.278-8.837 0-15.844 6.28-15.844 16.22 0 10.186 7.342 15.77 16.298 15.77 4.606 0 8.975-1.472 12.065-3.98zM72.313 10.043c7.834 0 13.738 4.055 13.738 11.28 0 4.79-2.598 7.864-5.766 9.373 5.077 1.208 9.015 5.037 9.015 11.035 0 7.3-5.826 12.034-14.035 12.034H57.472V10.043h14.84zm21.431 43.722h4.901V23.02h-4.9v30.745zm24.623-5.225l10.353-25.52h5.04l-12.992 30.745h-5.117L103.132 23.02h5.335l9.9 25.52zm-44.323.925c5.787 0 10.118-2.434 10.118-7.96 0-5.583-4.43-8.13-10.786-8.13H62.471v16.09h11.573zm86.188-13.242c-.255-5.092-3.818-9.694-10.078-9.694-5.925 0-10.196 4.111-10.805 9.694h20.883zm34.503 0c-.256-5.092-3.819-9.694-10.078-9.694-5.925 0-10.196 4.111-10.805 9.694h20.883zM71.82 29.226c5.058 0 9.191-2.414 9.191-7.62 0-5.169-4.112-7.281-9.84-7.281h-8.7v14.9h9.349zm24.383-12.959c-1.909 0-3.464-1.49-3.464-3.319 0-1.83 1.555-3.32 3.464-3.32 1.91 0 3.464 1.49 3.464 3.32 0 1.83-1.554 3.319-3.464 3.319z"/><path fill="#EF4658" d="M36.116 52.228c0 1.749-.707 3.39-1.997 4.627l-4.82 4.622c-26.783-25.684-.546-.515-27.302-26.18C.708 34.06 0 32.42 0 30.675c0-1.492.46-2.992 1.693-4.204l5.193-4.98c26.888 25.788.47.46 27.233 26.114 1.29 1.235 1.997 2.877 1.997 4.622zm-2.3-38.071l-3.992 3.834-9.641-9.244L28.996.292l4.82 4.62c2.659 2.55 2.659 6.695 0 9.245zM16.683 52.809l-9.039 8.668-4.82-4.622c-2.66-2.548-2.66-6.7-.006-9.242l4.226-4.053 9.64 9.249zm20.109-22.007c0 1.751-.708 3.392-1.997 4.628l-4.82 4.622c-26.846-25.743-.637-.606-27.302-26.18-2.659-2.551-2.659-6.7 0-9.244L7.493 0l27.302 26.18c1.289 1.236 1.997 2.878 1.997 4.622z"/></g></svg>