<svg width="101" height="40" xmlns="http://www.w3.org/2000/svg" xmlns:xlink="http://www.w3.org/1999/xlink"><defs><path d="M36.957 40h-4.455l5.129-8.912c-3.174-2.423-5.133-6.252-5.133-10.929 0-8.183 5.998-13.772 14.007-13.772 1.745 0 3.392.266 4.902.765L55.523 0h4.455L36.957 40zm19.852-29.47c2.293 2.4 3.652 5.718 3.652 9.63 0 8.183-5.948 13.772-13.956 13.772-1.039 0-2.043-.094-3.005-.276l4.16-7.23c2.905-.563 5.104-3.161 5.104-6.278 0-.708-.114-1.39-.323-2.027l4.368-7.59zm7.848 14.097c2.565 1.528 5.781 2.15 8.064 2.15 1.791 0 3.084-.45 3.084-1.497 0-1.298-.704-1.398-4.982-2.146-4.427-.798-8.366-1.997-8.366-7.785 0-5.789 4.854-8.962 11.619-8.962 4.362 0 7.95 1.15 10.404 2.894l-3.535 6.142c-2.217-1.638-4.46-2.3-6.72-2.3-1.542 0-3.222.45-3.222 1.398 0 1.147 1.343 1.297 4.427 1.846 4.974.898 9.36 2.674 9.36 8.612 0 6.138-5.353 8.903-12.566 8.903-3.833 0-8.447-1.057-11.248-2.859l3.68-6.396zm31.37-17.655h4.875v7.844h-4.875l-.051 8.587c0 2.096.995 2.545 2.885 2.545.895 0 1.244-.05 2.139-.15v7.525c-1.542.25-3.084.4-5.223.4-6.168 0-8.467-2.037-8.467-7.476l-.012-16.764L92.755 0h3.202l.07 6.972zM9.07 12.582H20.78V0h9.07v33.333h-9.07V20.24H9.07v13.092H0V0h9.07v12.581zm38.482 1.268a6.204 6.204 0 00-1.072-.093c-3.469 0-6.284 2.864-6.284 6.39a6.43 6.43 0 001.41 4.034l5.946-10.331z" id="a"/></defs><use fill="#FFF" xlink:href="#a" fill-rule="evenodd"/></svg>