<svg xmlns="http://www.w3.org/2000/svg" viewBox="0 0 775 302"><path fill="#FFF" fill-rule="evenodd" d="M284.003 302H255.04l37.347-64.658c-26.167-18.087-42.507-48.091-42.507-85.139 0-61.785 45.448-103.98 106.13-103.98 14.886 0 28.833 2.539 41.405 7.284L429.477 0h28.962L284.003 302zM437.127 82.821c15.534 17.802 24.638 41.614 24.638 69.382 0 61.786-45.072 103.981-105.754 103.981-6.259 0-12.354-.449-18.256-1.322l28.717-49.717c24.373-5.007 42.744-26.861 42.744-53.028 0-5.774-.895-11.338-2.552-16.558l30.463-52.738zm60.012 103.199c19.447 12.04 43.841 18.55 61.157 18.55 13.569 0 25.776-3.913 25.776-13.709 0-9.795-7.747-12.955-40.161-18.606-33.545-6.028-62.184-13.875-62.184-57.577s35.57-66.455 86.83-66.455c33.054 0 60.249 8.684 78.836 21.849l-24.513 42.439c-16.971-12.078-36.158-15.835-53.193-15.835-11.684 0-26.823 4.291-26.823 12.956 0 10.006 12.585 12.202 35.953 16.346 37.69 6.781 69.717 17.784 69.717 62.616 0 46.339-39.356 67.213-94.007 67.213-29.043 0-64.002-7.98-85.23-21.584l27.842-48.203zM736.786 52.51h36.937v59.221h-36.937l.147 64.961c0 15.823 7.538 21.62 21.86 21.62 6.785 0 9.423-.377 16.207-1.13v54.408c-11.684 1.884-23.367 3.014-39.574 3.014-46.737 0-61.751-15.373-61.751-56.438l-.145-128.997L713.483 0h23.303v52.51zM68.73 94.987h88.717V0h68.73v251.663h-68.73V152.82H68.73v98.843H0V0h68.73v94.987zm302.767 5.396a52.65 52.65 0 00-15.674-2.373c-29.468 0-53.392 24.244-53.392 54.107 0 15.399 6.361 29.304 16.565 39.161l52.501-90.895z"/></svg>