<svg version="1.0" xmlns="http://www.w3.org/2000/svg" viewBox="0 0 244 244"><path d="M67.4 11C54.1 24 51.9 27.9 51.9 37.9c.1 8.2 3.7 13.3 20.3 29.3 8.4 8 18.3 17.4 21.9 20.9 9.3 9 44.1 42.4 50.3 48.3 2.8 2.6 9.3 8.9 14.4 13.8l9.2 9 10.6-10.4c13.6-13.3 15.9-17 15.9-26.3 0-11.7.4-11.2-36.4-46.5-10.6-10.2-21.5-20.5-24.1-23-3.9-3.7-27.8-26.6-47.5-45.5-8.7-8.4-6.6-8.8-19.1 3.5zM151 13.7c-6.7 6.5-14.4 13.9-17.1 16.4l-4.9 4.6 9.3 8.8c5 4.8 13.5 12.9 18.8 18.1 5.3 5.2 9.9 9.4 10.2 9.4 1.5 0 19.7-18.8 21.3-22 1-2 1.9-6.2 2-10.1.4-9.7-2.1-14.2-14.9-26.7-5.8-5.6-11-10.2-11.5-10.2-.6 0-6.5 5.3-13.2 11.7zM64.4 96.8c-13.4 12.9-14.8 15.3-14.9 24.7 0 11.8-1 10.5 36.5 46.5 10.5 10.2 21.4 20.5 24 23 2.6 2.5 13.4 12.8 24 23s22 21.1 25.3 24.2l6.1 5.7 8.6-8.2c15.8-15.2 18-18.7 18.1-28.1.2-9.6-2.7-13.9-21.2-31.6-8.9-8.5-18.5-17.8-21.4-20.5-2.9-2.8-10.4-10-16.7-16-6.3-6.1-21.3-20.5-33.2-32-12-11.6-22.3-21.1-23-21.2-.6-.2-6.1 4.6-12.2 10.5zM66.4 183c-10.6 10.5-13.3 15-13.8 22.8-.7 9.5 1.5 13.5 14.7 26.5l12.1 11.8 6.5-6.4c3.6-3.5 11.7-11.2 17.9-17.3l11.3-10.9L96.9 192c-10-9.6-18.7-17.8-19.3-18.2-.7-.4-5.2 3.3-11.2 9.2z"/></svg>